<svg width="332" height="179" viewBox="0 0 332 179" fill="none" xmlns="http://www.w3.org/2000/svg">
<path d="M166.357 10.3541H106.937C105.303 10.3541 103.979 11.6786 103.979 13.3125V128.687C103.979 130.321 105.303 131.646 106.937 131.646H192.729C194.362 131.646 195.687 130.321 195.687 128.687V39.6836C195.687 38.8991 195.375 38.1466 194.82 37.5918L168.449 11.2206C167.894 10.6658 167.142 10.3541 166.357 10.3541Z" fill="white" stroke="#979593" stroke-width="2" stroke-miterlimit="10"/>
<path d="M166.104 10.3541V36.9791C166.104 38.613 167.428 39.9375 169.062 39.9375H195.687" stroke="#979593" stroke-width="2" stroke-miterlimit="10"/>
<path d="M183.854 90.2292H138V87.2709H183.854C184.671 87.2709 185.333 87.9331 185.333 88.75C185.333 89.567 184.671 90.2292 183.854 90.2292ZM183.854 81.3542H138V78.3959H183.854C184.671 78.3959 185.333 79.0581 185.333 79.875C185.333 80.692 184.671 81.3542 183.854 81.3542ZM183.854 72.4792H138V69.5209H183.854C184.671 69.5209 185.333 70.1831 185.333 71C185.333 71.817 184.671 72.4792 183.854 72.4792ZM183.854 63.6042H138V60.6459H183.854C184.671 60.6459 185.333 61.3081 185.333 62.125C185.333 62.942 184.671 63.6042 183.854 63.6042ZM183.854 99.1042H138V96.1459H183.854C184.671 96.1459 185.333 96.8081 185.333 97.625C185.333 98.442 184.671 99.1042 183.854 99.1042Z" fill="#C8C6C4"/>
<path d="M84.7507 109.458H132.084C135.352 109.458 138.001 106.809 138.001 103.542V56.2083C138.001 52.9407 135.352 50.2916 132.084 50.2916H84.7507C81.483 50.2916 78.834 52.9407 78.834 56.2083V103.542C78.834 106.809 81.483 109.458 84.7507 109.458Z" fill="#185ABD"/>
<path d="M98.9869 89.7048C99.0847 90.477 99.1481 91.1498 99.1786 91.7249H99.2913C99.3366 91.1799 99.4228 90.5225 99.5503 89.7504C99.6778 88.9796 99.8022 88.3289 99.9226 87.7994L105.15 65.0834H111.91L117.318 87.459C117.589 88.5637 117.814 89.9696 117.994 91.6794H118.084C118.159 90.4992 118.347 89.1376 118.648 87.5947L122.974 65.0834H129.126L121.555 97.625H114.366L109.206 76.0671C109.056 75.4463 108.887 74.6378 108.699 73.6387C108.511 72.641 108.395 71.9146 108.35 71.4608H108.26C108.2 71.9903 108.083 72.7767 107.91 73.8201C107.737 74.8647 107.598 75.6355 107.493 76.135L102.649 97.625H95.3478L87.709 65.0834H93.9731L98.6832 87.8451C98.7881 88.3132 98.8891 88.934 98.9869 89.7048Z" fill="white"/>
<path d="M1.43466 170H4.0696V163.821H10.1136V161.612H4.0696V157.663H10.7528V155.455H1.43466V170ZM13.0398 170H15.6108V159.091H13.0398V170ZM14.3324 157.543C15.1491 157.543 15.8168 156.918 15.8168 156.151C15.8168 155.376 15.1491 154.751 14.3324 154.751C13.5085 154.751 12.8409 155.376 12.8409 156.151C12.8409 156.918 13.5085 157.543 14.3324 157.543ZM20.8256 163.608C20.8256 162.031 21.7773 161.122 23.1339 161.122C24.462 161.122 25.2575 161.996 25.2575 163.452V170H27.8285V163.054C27.8356 160.44 26.3441 158.949 24.0927 158.949C22.4592 158.949 21.337 159.73 20.8398 160.945H20.712V159.091H18.2546V170H20.8256V163.608ZM33.5813 170.22C35.293 170.22 36.3157 169.418 36.7844 168.501H36.8697V170H39.3413V162.699C39.3413 159.815 36.9904 158.949 34.9094 158.949C32.6154 158.949 30.854 159.972 30.2859 161.96L32.6864 162.301C32.9421 161.555 33.6665 160.916 34.9237 160.916C36.1168 160.916 36.7702 161.527 36.7702 162.599V162.642C36.7702 163.381 35.9961 163.416 34.0714 163.622C31.9549 163.849 29.9308 164.482 29.9308 166.939C29.9308 169.084 31.5004 170.22 33.5813 170.22ZM34.2489 168.331C33.1765 168.331 32.4094 167.841 32.4094 166.896C32.4094 165.909 33.2688 165.497 34.4194 165.334C35.0941 165.241 36.4435 165.071 36.7773 164.801V166.087C36.7773 167.301 35.7972 168.331 34.2489 168.331ZM44.4975 155.455H41.9265V170H44.4975V155.455ZM53.7536 162.884H47.2053V165H53.7536V162.884ZM66.2021 159.091H63.4677L60.9535 167.195H60.8398L58.3327 159.091H55.5913L59.4762 170H62.3171L66.2021 159.091ZM67.9528 170H77.9244V167.798H71.5891V167.699L74.0962 165.149C76.9229 162.436 77.7042 161.115 77.7042 159.474C77.7042 157.038 75.7227 155.256 72.7965 155.256C69.913 155.256 67.8675 157.045 67.8675 159.808H70.3746C70.3746 158.324 71.3121 157.393 72.761 157.393C74.146 157.393 75.1758 158.239 75.1758 159.609C75.1758 160.824 74.4371 161.69 73.0025 163.146L67.9528 168.097V170ZM87.0153 162.884H80.467V165H87.0153V162.884ZM95.245 159.091H92.9794V158.232C92.9794 157.379 93.3345 156.903 94.2933 156.903C94.6982 156.903 95.0391 156.996 95.2521 157.06L95.7706 155.071C95.4368 154.957 94.7053 154.773 93.8175 154.773C91.9212 154.773 90.4084 155.859 90.4084 158.061V159.091H88.7962V161.08H90.4084V170H92.9794V161.08H95.245V159.091ZM101.607 170.213C104.803 170.213 106.834 167.962 106.834 164.588C106.834 161.207 104.803 158.949 101.607 158.949C98.4109 158.949 96.3796 161.207 96.3796 164.588C96.3796 167.962 98.4109 170.213 101.607 170.213ZM101.621 168.153C99.8526 168.153 98.9862 166.577 98.9862 164.581C98.9862 162.585 99.8526 160.987 101.621 160.987C103.361 160.987 104.228 162.585 104.228 164.581C104.228 166.577 103.361 168.153 101.621 168.153ZM109.016 170H111.587V163.587C111.587 162.202 112.631 161.222 114.045 161.222C114.478 161.222 115.018 161.3 115.238 161.371V159.006C115.004 158.963 114.599 158.935 114.315 158.935C113.065 158.935 112.021 159.645 111.623 160.909H111.509V159.091H109.016V170ZM123.089 162.884H116.541V165H123.089V162.884ZM125.794 170H128.365V163.587C128.365 162.202 129.409 161.222 130.822 161.222C131.255 161.222 131.795 161.3 132.015 161.371V159.006C131.781 158.963 131.376 158.935 131.092 158.935C129.842 158.935 128.798 159.645 128.4 160.909H128.287V159.091H125.794V170ZM138.104 170.213C140.646 170.213 142.393 168.97 142.848 167.074L140.447 166.804C140.099 167.727 139.247 168.21 138.139 168.21C136.477 168.21 135.376 167.116 135.355 165.249H142.955V164.46C142.955 160.632 140.653 158.949 137.969 158.949C134.844 158.949 132.805 161.243 132.805 164.609C132.805 168.033 134.815 170.213 138.104 170.213ZM135.362 163.516C135.44 162.124 136.47 160.952 138.004 160.952C139.482 160.952 140.476 162.031 140.49 163.516H135.362ZM148.269 170.22C149.98 170.22 151.003 169.418 151.472 168.501H151.557V170H154.029V162.699C154.029 159.815 151.678 158.949 149.597 158.949C147.303 158.949 145.542 159.972 144.973 161.96L147.374 162.301C147.63 161.555 148.354 160.916 149.611 160.916C150.804 160.916 151.458 161.527 151.458 162.599V162.642C151.458 163.381 150.684 163.416 148.759 163.622C146.642 163.849 144.618 164.482 144.618 166.939C144.618 169.084 146.188 170.22 148.269 170.22ZM148.936 168.331C147.864 168.331 147.097 167.841 147.097 166.896C147.097 165.909 147.956 165.497 149.107 165.334C149.782 165.241 151.131 165.071 151.465 164.801V166.087C151.465 167.301 150.485 168.331 148.936 168.331ZM159.185 155.455H156.614V170H159.185V155.455ZM168.441 162.884H161.893V165H168.441V162.884ZM176.671 159.091H174.405V158.232C174.405 157.379 174.76 156.903 175.719 156.903C176.124 156.903 176.465 156.996 176.678 157.06L177.196 155.071C176.863 154.957 176.131 154.773 175.243 154.773C173.347 154.773 171.834 155.859 171.834 158.061V159.091H170.222V161.08H171.834V170H174.405V161.08H176.671V159.091ZM178.684 170H181.255V159.091H178.684V170ZM179.977 157.543C180.794 157.543 181.461 156.918 181.461 156.151C181.461 155.376 180.794 154.751 179.977 154.751C179.153 154.751 178.485 155.376 178.485 156.151C178.485 156.918 179.153 157.543 179.977 157.543ZM186.47 163.608C186.47 162.031 187.422 161.122 188.778 161.122C190.107 161.122 190.902 161.996 190.902 163.452V170H193.473V163.054C193.48 160.44 191.989 158.949 189.737 158.949C188.104 158.949 186.982 159.73 186.484 160.945H186.357V159.091H183.899V170H186.47V163.608ZM199.226 170.22C200.938 170.22 201.96 169.418 202.429 168.501H202.514V170H204.986V162.699C204.986 159.815 202.635 158.949 200.554 158.949C198.26 158.949 196.499 159.972 195.93 161.96L198.331 162.301C198.587 161.555 199.311 160.916 200.568 160.916C201.761 160.916 202.415 161.527 202.415 162.599V162.642C202.415 163.381 201.641 163.416 199.716 163.622C197.599 163.849 195.575 164.482 195.575 166.939C195.575 169.084 197.145 170.22 199.226 170.22ZM199.893 168.331C198.821 168.331 198.054 167.841 198.054 166.896C198.054 165.909 198.913 165.497 200.064 165.334C200.739 165.241 202.088 165.071 202.422 164.801V166.087C202.422 167.301 201.442 168.331 199.893 168.331ZM210.142 155.455H207.571V170H210.142V155.455ZM219.398 162.884H212.85V165H219.398V162.884ZM231.847 159.091H229.112L226.598 167.195H226.484L223.977 159.091H221.236L225.121 170H227.962L231.847 159.091ZM233.335 167.301H240.273V170H242.788V167.301H244.648V165.135H242.788V155.455H239.506L233.335 165.206V167.301ZM240.302 165.135H236.033V165.021L240.188 158.438H240.302V165.135ZM248.12 170.156C248.958 170.156 249.675 169.46 249.682 168.594C249.675 167.741 248.958 167.045 248.12 167.045C247.253 167.045 246.55 167.741 246.557 168.594C246.55 169.46 247.253 170.156 248.12 170.156ZM256.385 170.192C258.26 170.192 259.105 169.077 259.51 168.281H259.666V170H262.195V155.455H259.616V160.895H259.51C259.119 160.107 258.317 158.949 256.392 158.949C253.871 158.949 251.889 160.923 251.889 164.56C251.889 168.153 253.814 170.192 256.385 170.192ZM257.102 168.082C255.405 168.082 254.51 166.591 254.51 164.545C254.51 162.514 255.391 161.058 257.102 161.058C258.757 161.058 259.666 162.429 259.666 164.545C259.666 166.662 258.743 168.082 257.102 168.082ZM269.693 170.213C272.889 170.213 274.92 167.962 274.92 164.588C274.92 161.207 272.889 158.949 269.693 158.949C266.497 158.949 264.466 161.207 264.466 164.588C264.466 167.962 266.497 170.213 269.693 170.213ZM269.707 168.153C267.939 168.153 267.072 166.577 267.072 164.581C267.072 162.585 267.939 160.987 269.707 160.987C271.447 160.987 272.314 162.585 272.314 164.581C272.314 166.577 271.447 168.153 269.707 168.153ZM281.861 170.213C284.602 170.213 286.349 168.587 286.534 166.271H284.077C283.857 167.443 283.011 168.118 281.882 168.118C280.277 168.118 279.24 166.776 279.24 164.545C279.24 162.344 280.298 161.023 281.882 161.023C283.118 161.023 283.878 161.818 284.077 162.869H286.534C286.357 160.504 284.51 158.949 281.847 158.949C278.651 158.949 276.634 161.257 276.634 164.588C276.634 167.891 278.601 170.213 281.861 170.213ZM290.669 159.091H287.942L291.181 164.545L287.857 170H290.584L292.871 166.072L295.179 170H297.885L294.54 164.545L297.828 159.091H295.108L292.871 163.118L290.669 159.091Z" fill="black"/>
</svg>
