<svg width="3463" height="1697" viewBox="0 0 3463 1697" fill="none" xmlns="http://www.w3.org/2000/svg">
<path d="M301.435 1605.48H320.966C318.48 1587.5 302.633 1574.85 282.081 1574.85C258.066 1574.85 239.556 1592.16 239.556 1621.63C239.556 1650.4 256.868 1668.24 282.481 1668.24C305.43 1668.24 321.809 1653.73 321.809 1629.8V1618.35H283.768V1632.82H303.299C303.033 1644.1 295.353 1651.24 282.569 1651.24C268.143 1651.24 259.043 1640.46 259.043 1621.46C259.043 1602.55 268.498 1591.85 282.392 1591.85C292.291 1591.85 298.993 1596.95 301.435 1605.48ZM355.334 1668.29C365.411 1668.29 371.936 1663.89 375.265 1657.55H375.798V1667H393.731V1621.01C393.731 1604.77 379.97 1597.93 364.789 1597.93C348.454 1597.93 337.712 1605.74 335.093 1618.17L352.582 1619.59C353.869 1615.06 357.909 1611.74 364.7 1611.74C371.137 1611.74 374.821 1614.98 374.821 1620.57V1620.84C374.821 1625.23 370.16 1625.81 358.308 1626.96C344.814 1628.2 332.696 1632.73 332.696 1647.96C332.696 1661.45 342.328 1668.29 355.334 1668.29ZM360.75 1655.24C354.935 1655.24 350.762 1652.53 350.762 1647.34C350.762 1642.01 355.157 1639.39 361.815 1638.46C365.943 1637.88 372.691 1636.9 374.954 1635.39V1642.63C374.954 1649.78 369.051 1655.24 360.75 1655.24ZM408.757 1667H427.4V1656.08H428.244C430.863 1661.76 436.589 1668.11 447.597 1668.11C463.134 1668.11 475.252 1655.81 475.252 1633C475.252 1609.56 462.601 1597.93 447.642 1597.93C436.234 1597.93 430.774 1604.72 428.244 1610.27H427.667V1576.09H408.757V1667ZM427.267 1632.91C427.267 1620.75 432.416 1612.98 441.605 1612.98C450.971 1612.98 455.942 1621.1 455.942 1632.91C455.942 1644.81 450.882 1653.06 441.605 1653.06C432.505 1653.06 427.267 1645.07 427.267 1632.91ZM487.869 1667H506.779V1628.43C506.779 1620.04 512.905 1614.27 521.25 1614.27C523.869 1614.27 527.465 1614.71 529.24 1615.29V1598.51C527.553 1598.11 525.201 1597.84 523.292 1597.84C515.657 1597.84 509.398 1602.28 506.912 1610.71H506.202V1598.82H487.869V1667ZM539.017 1667H557.927V1598.82H539.017V1667ZM548.516 1590.03C554.154 1590.03 558.77 1585.72 558.77 1580.44C558.77 1575.2 554.154 1570.9 548.516 1570.9C542.923 1570.9 538.307 1575.2 538.307 1580.44C538.307 1585.72 542.923 1590.03 548.516 1590.03ZM604.147 1668.33C621.015 1668.33 632.378 1660.12 635.042 1647.47L617.552 1646.31C615.644 1651.51 610.761 1654.22 604.458 1654.22C595.003 1654.22 589.01 1647.96 589.01 1637.79V1637.75H635.441V1632.55C635.441 1609.38 621.414 1597.93 603.392 1597.93C583.328 1597.93 570.322 1612.18 570.322 1633.22C570.322 1654.84 583.151 1668.33 604.147 1668.33ZM589.01 1626.03C589.41 1618.26 595.313 1612.05 603.703 1612.05C611.915 1612.05 617.597 1617.91 617.641 1626.03H589.01ZM666.691 1576.09H647.782V1667H666.691V1576.09ZM701.282 1668.29C711.358 1668.29 717.883 1663.89 721.212 1657.55H721.745V1667H739.678V1621.01C739.678 1604.77 725.918 1597.93 710.737 1597.93C694.401 1597.93 683.659 1605.74 681.04 1618.17L698.529 1619.59C699.817 1615.06 703.856 1611.74 710.648 1611.74C717.084 1611.74 720.768 1614.98 720.768 1620.57V1620.84C720.768 1625.23 716.108 1625.81 704.256 1626.96C690.761 1628.2 678.643 1632.73 678.643 1647.96C678.643 1661.45 688.276 1668.29 701.282 1668.29ZM706.697 1655.24C700.882 1655.24 696.71 1652.53 696.71 1647.34C696.71 1642.01 701.104 1639.39 707.762 1638.46C711.891 1637.88 718.638 1636.9 720.902 1635.39V1642.63C720.902 1649.78 714.998 1655.24 706.697 1655.24ZM791.547 1667H802.023V1624.39C802.023 1614.4 809.303 1607.34 817.47 1607.34C825.416 1607.34 830.965 1612.53 830.965 1620.3V1667H841.618V1622.61C841.618 1613.82 847.122 1607.34 856.71 1607.34C864.168 1607.34 870.56 1611.29 870.56 1621.37V1667H881.036V1621.37C881.036 1605.34 872.424 1597.93 860.262 1597.93C850.496 1597.93 843.349 1602.41 839.843 1609.47H839.132C835.759 1602.19 829.811 1597.93 820.844 1597.93C811.966 1597.93 805.396 1602.19 802.556 1609.47H801.668V1598.82H791.547V1667ZM920.254 1668.6C932.15 1668.6 938.364 1662.21 940.495 1657.77H941.028V1667H951.504V1622.08C951.504 1600.42 934.991 1597.93 926.29 1597.93C915.992 1597.93 904.273 1601.48 898.947 1613.91L908.89 1617.46C911.198 1612.49 916.658 1607.16 926.646 1607.16C936.278 1607.16 941.028 1612.27 941.028 1621.01V1621.37C941.028 1626.43 935.879 1625.98 923.45 1627.58C910.799 1629.22 896.994 1632.02 896.994 1647.65C896.994 1660.96 907.292 1668.6 920.254 1668.6ZM921.852 1659.19C913.506 1659.19 907.469 1655.46 907.469 1648.18C907.469 1640.19 914.749 1637.7 922.917 1636.64C927.356 1636.11 939.252 1634.86 941.028 1632.73V1642.32C941.028 1650.84 934.281 1659.19 921.852 1659.19ZM996.37 1668.42C1009.51 1668.42 1013.95 1660.25 1016.26 1656.52H1017.5V1667H1027.62V1576.09H1017.14V1609.65H1016.26C1013.95 1606.1 1009.86 1597.93 996.547 1597.93C979.324 1597.93 967.428 1611.6 967.428 1633.09C967.428 1654.75 979.324 1668.42 996.37 1668.42ZM997.79 1659.01C984.651 1659.01 977.904 1647.47 977.904 1632.91C977.904 1618.53 984.474 1607.34 997.79 1607.34C1010.57 1607.34 1017.32 1617.64 1017.32 1632.91C1017.32 1648.36 1010.4 1659.01 997.79 1659.01ZM1076.85 1668.42C1090.7 1668.42 1100.82 1661.5 1104.01 1651.2L1093.89 1648.36C1091.23 1655.46 1085.06 1659.01 1076.85 1659.01C1064.55 1659.01 1056.07 1651.06 1055.59 1636.46H1105.08V1632.02C1105.08 1606.63 1089.99 1597.93 1075.78 1597.93C1057.32 1597.93 1045.06 1612.49 1045.06 1633.44C1045.06 1654.39 1057.14 1668.42 1076.85 1668.42ZM1055.59 1627.4C1056.3 1616.8 1063.8 1607.34 1075.78 1607.34C1087.15 1607.34 1094.43 1615.86 1094.43 1627.4H1055.59ZM1185.82 1598.82H1171.26V1582.48H1160.79V1598.82H1150.49V1607.7H1160.79V1650.31C1160.79 1662.21 1170.38 1667.89 1179.25 1667.89C1183.16 1667.89 1185.65 1667.18 1187.07 1666.64L1184.94 1657.23C1184.05 1657.41 1182.63 1657.77 1180.32 1657.77C1175.7 1657.77 1171.26 1656.35 1171.26 1647.47V1607.7H1185.82V1598.82ZM1213.52 1625.98C1213.52 1614.09 1221.11 1607.34 1231.46 1607.34C1241.31 1607.34 1247.26 1613.56 1247.26 1624.39V1667H1257.73V1623.68C1257.73 1606.14 1248.41 1597.93 1234.47 1597.93C1223.73 1597.93 1217.61 1602.41 1214.41 1609.47H1213.52V1576.09H1203.05V1667H1213.52V1625.98ZM1305.49 1668.42C1319.33 1668.42 1329.46 1661.5 1332.65 1651.2L1322.53 1648.36C1319.87 1655.46 1313.7 1659.01 1305.49 1659.01C1293.19 1659.01 1284.71 1651.06 1284.22 1636.46H1333.72V1632.02C1333.72 1606.63 1318.62 1597.93 1304.42 1597.93C1285.95 1597.93 1273.7 1612.49 1273.7 1633.44C1273.7 1654.39 1285.78 1668.42 1305.49 1668.42ZM1284.22 1627.4C1284.93 1616.8 1292.43 1607.34 1304.42 1607.34C1315.78 1607.34 1323.06 1615.86 1323.06 1627.4H1284.22ZM1397.95 1614.09C1394.66 1604.41 1387.29 1597.93 1373.8 1597.93C1359.42 1597.93 1348.76 1606.1 1348.76 1617.64C1348.76 1627.05 1354.36 1633.35 1366.88 1636.28L1378.24 1638.95C1385.12 1640.54 1388.36 1643.83 1388.36 1648.53C1388.36 1654.39 1382.15 1659.19 1372.38 1659.19C1363.81 1659.19 1358.44 1655.5 1356.58 1648.18L1346.63 1650.66C1349.08 1662.25 1358.62 1668.42 1372.56 1668.42C1388.4 1668.42 1399.19 1659.76 1399.19 1648C1399.19 1638.5 1393.24 1632.51 1381.08 1629.54L1370.96 1627.05C1362.88 1625.05 1359.24 1622.34 1359.24 1617.11C1359.24 1611.25 1365.46 1606.99 1373.8 1606.99C1382.94 1606.99 1386.72 1612.05 1388.54 1616.75L1397.95 1614.09ZM1443.55 1668.42C1457.4 1668.42 1467.52 1661.5 1470.71 1651.2L1460.59 1648.36C1457.93 1655.46 1451.76 1659.01 1443.55 1659.01C1431.25 1659.01 1422.77 1651.06 1422.28 1636.46H1471.78V1632.02C1471.78 1606.63 1456.69 1597.93 1442.48 1597.93C1424.02 1597.93 1411.76 1612.49 1411.76 1633.44C1411.76 1654.39 1423.84 1668.42 1443.55 1668.42ZM1422.28 1627.4C1422.99 1616.8 1430.5 1607.34 1442.48 1607.34C1453.85 1607.34 1461.12 1615.86 1461.12 1627.4H1422.28ZM1550.57 1668.42C1565.66 1668.42 1575.6 1659.19 1577.38 1647.11H1566.9C1564.95 1654.57 1558.74 1659.01 1550.57 1659.01C1538.14 1659.01 1530.15 1648.71 1530.15 1632.91C1530.15 1617.46 1538.32 1607.34 1550.57 1607.34C1559.8 1607.34 1565.31 1613.02 1566.9 1619.24H1577.38C1575.6 1606.45 1564.77 1597.93 1550.39 1597.93C1531.93 1597.93 1519.67 1612.49 1519.67 1633.26C1519.67 1653.68 1531.39 1668.42 1550.57 1668.42ZM1603.17 1625.98C1603.17 1614.09 1610.76 1607.34 1621.1 1607.34C1630.96 1607.34 1636.91 1613.56 1636.91 1624.39V1667H1647.38V1623.68C1647.38 1606.14 1638.06 1597.93 1624.12 1597.93C1613.38 1597.93 1607.25 1602.41 1604.06 1609.47H1603.17V1576.09H1592.69V1667H1603.17V1625.98ZM1686.61 1668.6C1698.51 1668.6 1704.72 1662.21 1706.85 1657.77H1707.39V1667H1717.86V1622.08C1717.86 1600.42 1701.35 1597.93 1692.65 1597.93C1682.35 1597.93 1670.63 1601.48 1665.3 1613.91L1675.25 1617.46C1677.56 1612.49 1683.02 1607.16 1693 1607.16C1702.64 1607.16 1707.39 1612.27 1707.39 1621.01V1621.37C1707.39 1626.43 1702.24 1625.98 1689.81 1627.58C1677.16 1629.22 1663.35 1632.02 1663.35 1647.65C1663.35 1660.96 1673.65 1668.6 1686.61 1668.6ZM1688.21 1659.19C1679.86 1659.19 1673.83 1655.46 1673.83 1648.18C1673.83 1640.19 1681.11 1637.7 1689.27 1636.64C1693.71 1636.11 1705.61 1634.86 1707.39 1632.73V1642.32C1707.39 1650.84 1700.64 1659.19 1688.21 1659.19ZM1747.46 1625.98C1747.46 1614.09 1754.83 1607.34 1764.86 1607.34C1774.58 1607.34 1780.48 1613.69 1780.48 1624.39V1667H1790.96V1623.68C1790.96 1606.28 1781.68 1597.93 1767.88 1597.93C1757.58 1597.93 1751.19 1602.55 1747.99 1609.47H1747.1V1598.82H1736.98V1667H1747.46V1625.98ZM1837.62 1693.99C1853.96 1693.99 1867.1 1686.53 1867.1 1668.95V1598.82H1856.98V1609.65H1855.91C1853.6 1606.1 1849.34 1597.93 1836.03 1597.93C1818.8 1597.93 1806.91 1611.6 1806.91 1632.55C1806.91 1653.86 1819.33 1665.93 1835.85 1665.93C1849.16 1665.93 1853.43 1658.12 1855.73 1654.39H1856.62V1668.24C1856.62 1679.61 1848.63 1684.76 1837.62 1684.76C1825.24 1684.76 1820.89 1678.23 1818.09 1674.46L1809.75 1680.32C1814.01 1687.46 1822.4 1693.99 1837.62 1693.99ZM1837.27 1656.52C1824.13 1656.52 1817.38 1646.58 1817.38 1632.38C1817.38 1618.53 1823.95 1607.34 1837.27 1607.34C1850.05 1607.34 1856.8 1617.64 1856.8 1632.38C1856.8 1647.47 1849.87 1656.52 1837.27 1656.52ZM1914.86 1668.42C1928.71 1668.42 1938.83 1661.5 1942.03 1651.2L1931.91 1648.36C1929.24 1655.46 1923.07 1659.01 1914.86 1659.01C1902.56 1659.01 1894.09 1651.06 1893.6 1636.46H1943.09V1632.02C1943.09 1606.63 1928 1597.93 1913.79 1597.93C1895.33 1597.93 1883.08 1612.49 1883.08 1633.44C1883.08 1654.39 1895.15 1668.42 1914.86 1668.42ZM1893.6 1627.4C1894.31 1616.8 1901.81 1607.34 1913.79 1607.34C1925.16 1607.34 1932.44 1615.86 1932.44 1627.4H1893.6ZM2007.32 1614.09C2004.04 1604.41 1996.67 1597.93 1983.18 1597.93C1968.79 1597.93 1958.14 1606.1 1958.14 1617.64C1958.14 1627.05 1963.73 1633.35 1976.25 1636.28L1987.61 1638.95C1994.49 1640.54 1997.73 1643.83 1997.73 1648.53C1997.73 1654.39 1991.52 1659.19 1981.75 1659.19C1973.19 1659.19 1967.82 1655.5 1965.95 1648.18L1956.01 1650.66C1958.45 1662.25 1967.99 1668.42 1981.93 1668.42C1997.78 1668.42 2008.57 1659.76 2008.57 1648C2008.57 1638.5 2002.62 1632.51 1990.46 1629.54L1980.33 1627.05C1972.26 1625.05 1968.62 1622.34 1968.62 1617.11C1968.62 1611.25 1974.83 1606.99 1983.18 1606.99C1992.32 1606.99 1996.09 1612.05 1997.91 1616.75L2007.32 1614.09Z" fill="#FF7400"/>
<path d="M828.071 1153.93C824.166 1150.02 817.834 1150.02 813.929 1153.93L750.289 1217.57C746.384 1221.47 746.384 1227.81 750.289 1231.71C754.195 1235.62 760.526 1235.62 764.431 1231.71L821 1175.14L877.569 1231.71C881.474 1235.62 887.805 1235.62 891.711 1231.71C895.616 1227.81 895.616 1221.47 891.711 1217.57L828.071 1153.93ZM831 1496V1161H811V1496H831Z" fill="#FF7400"/>
<path d="M1340.07 1153.93C1336.17 1150.02 1329.83 1150.02 1325.93 1153.93L1262.29 1217.57C1258.38 1221.47 1258.38 1227.81 1262.29 1231.71C1266.19 1235.62 1272.53 1235.62 1276.43 1231.71L1333 1175.14L1389.57 1231.71C1393.47 1235.62 1399.81 1235.62 1403.71 1231.71C1407.62 1227.81 1407.62 1221.47 1403.71 1217.57L1340.07 1153.93ZM1343 1496V1161H1323V1496H1343Z" fill="#FF7400"/>
<circle cx="821" cy="881" r="190" fill="#EEEEEE" stroke="#FF7400" stroke-width="20"/>
<path d="M1523 881C1523 985.934 1437.93 1071 1333 1071C1228.07 1071 1143 985.934 1143 881C1143 776.066 1228.07 691 1333 691C1437.93 691 1523 776.066 1523 881Z" fill="#EEEEEE" stroke="#FF7400" stroke-width="20"/>
<path d="M1410.05 30.0909V121H1428.7V61.6072H1429.45L1452.98 120.556H1465.67L1489.2 61.8292H1489.95V121H1508.6V30.0909H1484.89L1459.86 91.1705H1458.79L1433.76 30.0909H1410.05ZM1554.88 122.332C1575.57 122.332 1588.44 108.172 1588.44 87.1754C1588.44 66.0462 1575.57 51.9304 1554.88 51.9304C1534.2 51.9304 1521.32 66.0462 1521.32 87.1754C1521.32 108.172 1534.2 122.332 1554.88 122.332ZM1554.97 107.683C1545.43 107.683 1540.54 98.9386 1540.54 87.0423C1540.54 75.1459 1545.43 66.3569 1554.97 66.3569C1564.34 66.3569 1569.22 75.1459 1569.22 87.0423C1569.22 98.9386 1564.34 107.683 1554.97 107.683ZM1619.65 81.5824C1619.69 72.7933 1625.06 67.6442 1632.79 67.6442C1640.46 67.6442 1644.99 72.5714 1644.95 80.9609V121H1663.86V77.5874C1663.9 61.6072 1654.49 51.9304 1640.29 51.9304C1629.94 51.9304 1623.02 56.8132 1619.91 64.8477H1619.11V30.0909H1600.74V121H1619.65V81.5824ZM1698.18 122.287C1708.26 122.287 1714.78 117.893 1718.11 111.545H1718.65V121H1736.58V75.0128C1736.58 58.7663 1722.82 51.9304 1707.64 51.9304C1691.3 51.9304 1680.56 59.7429 1677.94 72.1719L1695.43 73.5923C1696.72 69.0646 1700.76 65.7354 1707.55 65.7354C1713.98 65.7354 1717.67 68.9759 1717.67 74.5689V74.8352C1717.67 79.2298 1713.01 79.8068 1701.16 80.9609C1687.66 82.2038 1675.54 86.7315 1675.54 101.957C1675.54 115.451 1685.18 122.287 1698.18 122.287ZM1703.6 109.237C1697.78 109.237 1693.61 106.529 1693.61 101.336C1693.61 96.0089 1698 93.3899 1704.66 92.4577C1708.79 91.8807 1715.54 90.9041 1717.8 89.3949V96.6303C1717.8 103.777 1711.9 109.237 1703.6 109.237ZM1751.25 121H1770.16V80.0732C1770.16 72.527 1774.95 67.511 1781.26 67.511C1787.47 67.511 1791.64 71.7724 1791.64 78.4751V121H1809.98V79.3629C1809.98 72.305 1814.02 67.511 1820.9 67.511C1826.93 67.511 1831.46 71.2841 1831.46 78.8746V121H1850.33V75.1459C1850.33 60.3643 1841.54 51.9304 1828.84 51.9304C1818.85 51.9304 1811.09 57.0352 1808.29 64.8477H1807.58C1805.4 56.9464 1798.44 51.9304 1789.07 51.9304C1779.88 51.9304 1772.91 56.8132 1770.07 64.8477H1769.27V52.8182H1751.25V121ZM1865.26 121H1884.17V80.0732C1884.17 72.527 1888.97 67.511 1895.27 67.511C1901.48 67.511 1905.66 71.7724 1905.66 78.4751V121H1923.99V79.3629C1923.99 72.305 1928.03 67.511 1934.91 67.511C1940.95 67.511 1945.47 71.2841 1945.47 78.8746V121H1964.34V75.1459C1964.34 60.3643 1955.55 51.9304 1942.86 51.9304C1932.87 51.9304 1925.1 57.0352 1922.3 64.8477H1921.59C1919.42 56.9464 1912.45 51.9304 1903.08 51.9304C1893.89 51.9304 1886.92 56.8132 1884.08 64.8477H1883.28V52.8182H1865.26V121ZM2010.35 122.332C2027.22 122.332 2038.58 114.12 2041.24 101.469L2023.75 100.315C2021.85 105.508 2016.96 108.216 2010.66 108.216C2001.2 108.216 1995.21 101.957 1995.21 91.7919V91.7475H2041.64V86.554C2041.64 63.3828 2027.62 51.9304 2009.59 51.9304C1989.53 51.9304 1976.52 66.1793 1976.52 87.2198C1976.52 108.837 1989.35 122.332 2010.35 122.332ZM1995.21 80.0288C1995.61 72.2607 2001.52 66.0462 2009.91 66.0462C2018.12 66.0462 2023.8 71.9055 2023.84 80.0288H1995.21ZM2079.11 122.11C2090.12 122.11 2095.84 115.762 2098.46 110.08H2099.26V121H2117.9V30.0909H2099.04V64.2706H2098.46C2095.93 58.7219 2090.47 51.9304 2079.06 51.9304C2064.1 51.9304 2051.45 63.5604 2051.45 86.9979C2051.45 109.814 2063.57 122.11 2079.11 122.11ZM2085.1 107.062C2075.82 107.062 2070.76 98.8054 2070.76 86.9091C2070.76 75.1016 2075.73 66.9783 2085.1 66.9783C2094.29 66.9783 2099.44 74.7464 2099.44 86.9091C2099.44 99.0717 2094.2 107.062 2085.1 107.062ZM2170.65 121H2181.13V78.3864C2181.13 68.3988 2188.41 61.3409 2196.57 61.3409C2204.52 61.3409 2210.07 66.5344 2210.07 74.3026V121H2220.72V76.6108C2220.72 67.8217 2226.22 61.3409 2235.81 61.3409C2243.27 61.3409 2249.66 65.2915 2249.66 75.3679V121H2260.14V75.3679C2260.14 59.3434 2251.53 51.9304 2239.36 51.9304C2229.6 51.9304 2222.45 56.4137 2218.95 63.4716H2218.23C2214.86 56.1918 2208.91 51.9304 2199.95 51.9304C2191.07 51.9304 2184.5 56.1918 2181.66 63.4716H2180.77V52.8182H2170.65V121ZM2299.36 122.598C2311.25 122.598 2317.47 116.206 2319.6 111.767H2320.13V121H2330.61V76.0781C2330.61 54.4162 2314.09 51.9304 2305.39 51.9304C2295.09 51.9304 2283.38 55.4815 2278.05 67.9105L2287.99 71.4616C2290.3 66.4901 2295.76 61.1634 2305.75 61.1634C2315.38 61.1634 2320.13 66.2681 2320.13 75.0128V75.3679C2320.13 80.4283 2314.98 79.9844 2302.55 81.5824C2289.9 83.2248 2276.1 86.0213 2276.1 101.646C2276.1 114.963 2286.39 122.598 2299.36 122.598ZM2300.95 113.188C2292.61 113.188 2286.57 109.459 2286.57 102.179C2286.57 94.1889 2293.85 91.7031 2302.02 90.6378C2306.46 90.1051 2318.35 88.8622 2320.13 86.7315V96.3196C2320.13 104.842 2313.38 113.188 2300.95 113.188ZM2375.47 122.42C2388.61 122.42 2393.05 114.253 2395.36 110.524H2396.6V121H2406.72V30.0909H2396.25V63.6491H2395.36C2393.05 60.098 2388.97 51.9304 2375.65 51.9304C2358.43 51.9304 2346.53 65.6023 2346.53 87.0866C2346.53 108.749 2358.43 122.42 2375.47 122.42ZM2376.89 113.01C2363.75 113.01 2357.01 101.469 2357.01 86.9091C2357.01 72.527 2363.58 61.3409 2376.89 61.3409C2389.68 61.3409 2396.42 71.6392 2396.42 86.9091C2396.42 102.357 2389.5 113.01 2376.89 113.01ZM2455.95 122.42C2469.8 122.42 2479.92 115.496 2483.12 105.197L2473 102.357C2470.33 109.459 2464.16 113.01 2455.95 113.01C2443.65 113.01 2435.18 105.064 2434.69 90.4602H2484.18V86.0213C2484.18 60.6307 2469.09 51.9304 2454.88 51.9304C2436.42 51.9304 2424.17 66.4901 2424.17 87.4418C2424.17 108.393 2436.24 122.42 2455.95 122.42ZM2434.69 81.4048C2435.4 70.7958 2442.9 61.3409 2454.88 61.3409C2466.25 61.3409 2473.53 69.8636 2473.53 81.4048H2434.69ZM2564.93 52.8182H2550.37V36.483H2539.89V52.8182H2529.59V61.696H2539.89V104.31C2539.89 116.206 2549.48 121.888 2558.36 121.888C2562.26 121.888 2564.75 121.178 2566.17 120.645L2564.04 111.234C2563.15 111.412 2561.73 111.767 2559.42 111.767C2554.8 111.767 2550.37 110.347 2550.37 101.469V61.696H2564.93V52.8182ZM2592.62 79.9844C2592.62 68.0881 2600.22 61.3409 2610.56 61.3409C2620.41 61.3409 2626.36 67.5554 2626.36 78.3864V121H2636.84V77.6761C2636.84 60.1424 2627.51 51.9304 2613.58 51.9304C2602.83 51.9304 2596.71 56.4137 2593.51 63.4716H2592.62V30.0909H2582.15V121H2592.62V79.9844ZM2684.59 122.42C2698.44 122.42 2708.56 115.496 2711.75 105.197L2701.63 102.357C2698.97 109.459 2692.8 113.01 2684.59 113.01C2672.29 113.01 2663.81 105.064 2663.33 90.4602H2712.82V86.0213C2712.82 60.6307 2697.73 51.9304 2683.52 51.9304C2665.06 51.9304 2652.81 66.4901 2652.81 87.4418C2652.81 108.393 2664.88 122.42 2684.59 122.42ZM2663.33 81.4048C2664.04 70.7958 2671.54 61.3409 2683.52 61.3409C2694.89 61.3409 2702.17 69.8636 2702.17 81.4048H2663.33ZM2777.05 68.0881C2773.77 58.4112 2766.4 51.9304 2752.9 51.9304C2738.52 51.9304 2727.87 60.098 2727.87 71.6392C2727.87 81.0497 2733.46 87.353 2745.98 90.2827L2757.34 92.946C2764.22 94.544 2767.46 97.8288 2767.46 102.534C2767.46 108.393 2761.25 113.188 2751.48 113.188C2742.92 113.188 2737.54 109.503 2735.68 102.179L2725.74 104.665C2728.18 116.25 2737.72 122.42 2751.66 122.42C2767.51 122.42 2778.29 113.765 2778.29 102.001C2778.29 92.5021 2772.35 86.5096 2760.18 83.5355L2750.06 81.0497C2741.98 79.0522 2738.34 76.3445 2738.34 71.1065C2738.34 65.2472 2744.56 60.9858 2752.9 60.9858C2762.05 60.9858 2765.82 66.0462 2767.64 70.7514L2777.05 68.0881ZM2822.65 122.42C2836.5 122.42 2846.62 115.496 2849.82 105.197L2839.69 102.357C2837.03 109.459 2830.86 113.01 2822.65 113.01C2810.35 113.01 2801.88 105.064 2801.39 90.4602H2850.88V86.0213C2850.88 60.6307 2835.79 51.9304 2821.58 51.9304C2803.12 51.9304 2790.87 66.4901 2790.87 87.4418C2790.87 108.393 2802.94 122.42 2822.65 122.42ZM2801.39 81.4048C2802.1 70.7958 2809.6 61.3409 2821.58 61.3409C2832.95 61.3409 2840.23 69.8636 2840.23 81.4048H2801.39ZM2929.67 122.42C2944.76 122.42 2954.71 113.188 2956.48 101.114H2946.01C2944.05 108.571 2937.84 113.01 2929.67 113.01C2917.24 113.01 2909.25 102.712 2909.25 86.9091C2909.25 71.4616 2917.42 61.3409 2929.67 61.3409C2938.9 61.3409 2944.41 67.0227 2946.01 73.2372H2956.48C2954.71 60.4531 2943.88 51.9304 2929.49 51.9304C2911.03 51.9304 2898.78 66.4901 2898.78 87.2642C2898.78 107.683 2910.5 122.42 2929.67 122.42ZM2982.27 79.9844C2982.27 68.0881 2989.86 61.3409 3000.21 61.3409C3010.06 61.3409 3016.01 67.5554 3016.01 78.3864V121H3026.48V77.6761C3026.48 60.1424 3017.16 51.9304 3003.22 51.9304C2992.48 51.9304 2986.36 56.4137 2983.16 63.4716H2982.27V30.0909H2971.8V121H2982.27V79.9844ZM3065.71 122.598C3077.61 122.598 3083.82 116.206 3085.95 111.767H3086.49V121H3096.96V76.0781C3096.96 54.4162 3080.45 51.9304 3071.75 51.9304C3061.45 51.9304 3049.73 55.4815 3044.41 67.9105L3054.35 71.4616C3056.66 66.4901 3062.12 61.1634 3072.11 61.1634C3081.74 61.1634 3086.49 66.2681 3086.49 75.0128V75.3679C3086.49 80.4283 3081.34 79.9844 3068.91 81.5824C3056.26 83.2248 3042.45 86.0213 3042.45 101.646C3042.45 114.963 3052.75 122.598 3065.71 122.598ZM3067.31 113.188C3058.97 113.188 3052.93 109.459 3052.93 102.179C3052.93 94.1889 3060.21 91.7031 3068.38 90.6378C3072.82 90.1051 3084.71 88.8622 3086.49 86.7315V96.3196C3086.49 104.842 3079.74 113.188 3067.31 113.188ZM3126.56 79.9844C3126.56 68.0881 3133.93 61.3409 3143.96 61.3409C3153.68 61.3409 3159.59 67.6886 3159.59 78.3864V121H3170.06V77.6761C3170.06 60.2756 3160.78 51.9304 3146.98 51.9304C3136.68 51.9304 3130.29 56.5469 3127.09 63.4716H3126.2V52.8182H3116.08V121H3126.56V79.9844ZM3216.73 147.989C3233.06 147.989 3246.2 140.531 3246.2 122.953V52.8182H3236.08V63.6491H3235.01C3232.71 60.098 3228.44 51.9304 3215.13 51.9304C3197.9 51.9304 3186.01 65.6023 3186.01 86.554C3186.01 107.861 3198.44 119.935 3214.95 119.935C3228.27 119.935 3232.53 112.122 3234.84 108.393H3235.72V122.243C3235.72 133.607 3227.73 138.756 3216.73 138.756C3204.34 138.756 3199.99 132.23 3197.19 128.457L3188.85 134.317C3193.11 141.463 3201.5 147.989 3216.73 147.989ZM3216.37 110.524C3203.23 110.524 3196.48 100.581 3196.48 86.3764C3196.48 72.527 3203.05 61.3409 3216.37 61.3409C3229.15 61.3409 3235.9 71.6392 3235.9 86.3764C3235.9 101.469 3228.98 110.524 3216.37 110.524ZM3293.96 122.42C3307.81 122.42 3317.93 115.496 3321.13 105.197L3311.01 102.357C3308.34 109.459 3302.17 113.01 3293.96 113.01C3281.67 113.01 3273.19 105.064 3272.7 90.4602H3322.19V86.0213C3322.19 60.6307 3307.1 51.9304 3292.9 51.9304C3274.43 51.9304 3262.18 66.4901 3262.18 87.4418C3262.18 108.393 3274.25 122.42 3293.96 122.42ZM3272.7 81.4048C3273.41 70.7958 3280.91 61.3409 3292.9 61.3409C3304.26 61.3409 3311.54 69.8636 3311.54 81.4048H3272.7ZM3386.43 68.0881C3383.14 58.4112 3375.77 51.9304 3362.28 51.9304C3347.9 51.9304 3337.24 60.098 3337.24 71.6392C3337.24 81.0497 3342.84 87.353 3355.35 90.2827L3366.72 92.946C3373.6 94.544 3376.84 97.8288 3376.84 102.534C3376.84 108.393 3370.62 113.188 3360.86 113.188C3352.29 113.188 3346.92 109.503 3345.05 102.179L3335.11 104.665C3337.55 116.25 3347.1 122.42 3361.03 122.42C3376.88 122.42 3387.67 113.765 3387.67 102.001C3387.67 92.5021 3381.72 86.5096 3369.56 83.5355L3359.44 81.0497C3351.36 79.0522 3347.72 76.3445 3347.72 71.1065C3347.72 65.2472 3353.93 60.9858 3362.28 60.9858C3371.42 60.9858 3375.2 66.0462 3377.02 70.7514L3386.43 68.0881Z" fill="#FF7400"/>
<path d="M2349.93 560.071C2353.83 563.976 2360.17 563.976 2364.07 560.071L2427.71 496.431C2431.62 492.526 2431.62 486.195 2427.71 482.289C2423.81 478.384 2417.47 478.384 2413.57 482.289L2357 538.858L2300.43 482.289C2296.53 478.384 2290.19 478.384 2286.29 482.289C2282.38 486.195 2282.38 492.526 2286.29 496.431L2349.93 560.071ZM2347 218V553H2367V218H2347Z" fill="#FF7400"/>
<path d="M2861.93 560.071C2865.83 563.976 2872.17 563.976 2876.07 560.071L2939.71 496.431C2943.62 492.526 2943.62 486.195 2939.71 482.289C2935.81 478.384 2929.47 478.384 2925.57 482.289L2869 538.858L2812.43 482.289C2808.53 478.384 2802.19 478.384 2798.29 482.289C2794.38 486.195 2794.38 492.526 2798.29 496.431L2861.93 560.071ZM2859 218V553H2879V218H2859Z" fill="#FF7400"/>
<path d="M1845.93 560.071C1849.83 563.976 1856.17 563.976 1860.07 560.071L1923.71 496.431C1927.62 492.526 1927.62 486.195 1923.71 482.289C1919.81 478.384 1913.47 478.384 1909.57 482.289L1853 538.858L1796.43 482.289C1792.53 478.384 1786.19 478.384 1782.29 482.289C1778.38 486.195 1778.38 492.526 1782.29 496.431L1845.93 560.071ZM1843 218V553H1863V218H1843Z" fill="#FF7400"/>
<path d="M2035 881C2035 985.934 1949.93 1071 1845 1071C1740.07 1071 1655 985.934 1655 881C1655 776.066 1740.07 691 1845 691C1949.93 691 2035 776.066 2035 881Z" fill="#EEEEEE" stroke="#FF7400" stroke-width="20"/>
<circle cx="2357" cy="881" r="190" fill="#EEEEEE" stroke="#FF7400" stroke-width="20"/>
<path d="M3059 881C3059 985.934 2973.93 1071 2869 1071C2764.07 1071 2679 985.934 2679 881C2679 776.066 2764.07 691 2869 691C2973.93 691 3059 776.066 3059 881Z" fill="#EEEEEE" stroke="#FF7400" stroke-width="20"/>
</svg>
