<svg width="5627" height="2535" viewBox="0 0 5627 2535" fill="none" xmlns="http://www.w3.org/2000/svg">
<line x1="847" y1="1690" x2="5427" y2="1690" stroke="#ADADAD" stroke-width="20"/>
<path d="M2409 820H3863" stroke="#ADADAD" stroke-width="20"/>
<path d="M2216.5 1687.09C2142.96 1227.41 2209.36 1053.52 2486.5 867.094" stroke="#ADADAD" stroke-width="20"/>
<path d="M4181 1687.09C4254.54 1227.41 4188.14 1053.52 3911 867.094" stroke="#ADADAD" stroke-width="20"/>
<path d="M1168 1690C1168 1794.93 1082.93 1880 978 1880C873.066 1880 788 1794.93 788 1690C788 1585.07 873.066 1500 978 1500C1082.93 1500 1168 1585.07 1168 1690Z" fill="#FF7400" stroke="#EEEEEE" stroke-width="20"/>
<path d="M1792 1690C1792 1794.93 1706.93 1880 1602 1880C1497.07 1880 1412 1794.93 1412 1690C1412 1585.07 1497.07 1500 1602 1500C1706.93 1500 1792 1585.07 1792 1690Z" fill="#FF7400" stroke="#EEEEEE" stroke-width="20"/>
<path d="M2416 1690C2416 1794.93 2330.93 1880 2226 1880C2121.07 1880 2036 1794.93 2036 1690C2036 1585.07 2121.07 1500 2226 1500C2330.93 1500 2416 1585.07 2416 1690Z" fill="#FF7400" stroke="#EEEEEE" stroke-width="20"/>
<path d="M3080 1690C3080 1794.93 2994.93 1880 2890 1880C2785.07 1880 2700 1794.93 2700 1690C2700 1585.07 2785.07 1500 2890 1500C2994.93 1500 3080 1585.07 3080 1690Z" fill="#FF7400" stroke="#EEEEEE" stroke-width="20"/>
<path d="M3704 1690C3704 1794.93 3618.93 1880 3514 1880C3409.07 1880 3324 1794.93 3324 1690C3324 1585.07 3409.07 1500 3514 1500C3618.93 1500 3704 1585.07 3704 1690Z" fill="#FF7400" stroke="#EEEEEE" stroke-width="20"/>
<path d="M4328 1690C4328 1794.93 4242.93 1880 4138 1880C4033.07 1880 3948 1794.93 3948 1690C3948 1585.07 4033.07 1500 4138 1500C4242.93 1500 4328 1585.07 4328 1690Z" fill="#FF7400" stroke="#EEEEEE" stroke-width="20"/>
<path d="M4993 1700C4993 1804.93 4907.93 1890 4803 1890C4698.07 1890 4613 1804.93 4613 1700C4613 1595.07 4698.07 1510 4803 1510C4907.93 1510 4993 1595.07 4993 1700Z" fill="#FF7400" stroke="#EEEEEE" stroke-width="20"/>
<path d="M5617 1700C5617 1804.93 5531.93 1890 5427 1890C5322.07 1890 5237 1804.93 5237 1700C5237 1595.07 5322.07 1510 5427 1510C5531.93 1510 5617 1595.07 5617 1700Z" fill="#FF7400" stroke="#EEEEEE" stroke-width="20"/>
<path d="M8.25639 1554.91H40.9091L68.608 1622.45H69.8864L97.5852 1554.91H130.238V1664H104.563V1596.99H103.658L77.4503 1663.31H61.044L34.8366 1596.62H33.9311V1664H8.25639V1554.91ZM170.281 1664H141.943L178.751 1554.91H213.854L250.661 1664H222.323L196.702 1582.39H195.85L170.281 1664ZM166.499 1621.07H225.732V1641.1H166.499V1621.07ZM288.774 1554.91V1664H262.407V1554.91H288.774ZM398.171 1554.91V1664H375.799L332.386 1601.04H331.694V1664H305.327V1554.91H328.018L370.952 1617.76H371.857V1554.91H398.171ZM8.25639 1846V1736.91H53.7464C61.9141 1736.91 68.75 1738.06 74.2543 1740.37C79.794 1742.68 83.9489 1745.91 86.7188 1750.07C89.5241 1754.22 90.9268 1759.03 90.9268 1764.5C90.9268 1768.66 90.0568 1772.37 88.3168 1775.63C86.5767 1778.87 84.1797 1781.55 81.1257 1783.68C78.0717 1785.81 74.5384 1787.3 70.5256 1788.15V1789.22C74.929 1789.43 78.995 1790.62 82.7237 1792.79C86.4879 1794.95 89.5064 1797.97 91.7791 1801.84C94.0518 1805.68 95.1882 1810.22 95.1882 1815.48C95.1882 1821.34 93.6967 1826.58 90.7138 1831.19C87.7308 1835.77 83.4162 1839.39 77.7699 1842.06C72.1236 1844.69 65.2699 1846 57.2088 1846H8.25639ZM34.6236 1824.75H50.9233C56.6406 1824.75 60.8487 1823.66 63.5476 1821.5C66.282 1819.33 67.6492 1816.31 67.6492 1812.44C67.6492 1809.64 66.9922 1807.22 65.6783 1805.2C64.3643 1803.14 62.5 1801.56 60.0852 1800.46C57.6705 1799.32 54.7763 1798.75 51.4027 1798.75H34.6236V1824.75ZM34.6236 1781.76H49.2188C52.0952 1781.76 54.652 1781.28 56.8892 1780.32C59.1264 1779.36 60.8665 1777.98 62.1094 1776.17C63.3878 1774.36 64.027 1772.17 64.027 1769.62C64.027 1765.96 62.7308 1763.08 60.1385 1760.99C57.5462 1758.89 54.0483 1757.84 49.6449 1757.84H34.6236V1781.76ZM107.866 1846V1736.91H152.93C161.097 1736.91 168.146 1738.38 174.077 1741.33C180.043 1744.24 184.641 1748.43 187.873 1753.9C191.104 1759.33 192.72 1765.78 192.72 1773.24C192.72 1780.8 191.069 1787.23 187.766 1792.52C184.464 1797.78 179.776 1801.79 173.704 1804.56C167.631 1807.29 160.44 1808.66 152.131 1808.66H123.633V1787.89H147.23C151.207 1787.89 154.528 1787.37 157.191 1786.34C159.89 1785.28 161.932 1783.68 163.317 1781.55C164.702 1779.38 165.394 1776.61 165.394 1773.24C165.394 1769.86 164.702 1767.08 163.317 1764.87C161.932 1762.64 159.89 1760.97 157.191 1759.87C154.492 1758.73 151.172 1758.16 147.23 1758.16H134.233V1846H107.866ZM169.283 1796.14L196.449 1846H167.685L141.051 1796.14H169.283ZM230.779 1846H202.441L239.249 1736.91H274.352L311.159 1846H282.821L257.2 1764.39H256.348L230.779 1846ZM226.998 1803.07H286.23V1823.1H226.998V1803.07ZM415.749 1736.91V1846H393.377L349.964 1783.04H349.272V1846H322.905V1736.91H345.597L388.53 1799.76H389.435V1736.91H415.749ZM531.352 1776.43H504.719C504.363 1773.7 503.635 1771.23 502.535 1769.03C501.434 1766.83 499.978 1764.95 498.167 1763.38C496.356 1761.82 494.207 1760.63 491.721 1759.81C489.271 1758.96 486.555 1758.54 483.572 1758.54C478.28 1758.54 473.717 1759.83 469.882 1762.42C466.082 1765.02 463.153 1768.76 461.093 1773.66C459.069 1778.56 458.057 1784.49 458.057 1791.45C458.057 1798.7 459.086 1804.77 461.146 1809.67C463.241 1814.54 466.171 1818.21 469.935 1820.7C473.735 1823.15 478.227 1824.37 483.412 1824.37C486.324 1824.37 488.969 1824 491.349 1823.25C493.763 1822.51 495.876 1821.43 497.687 1820.01C499.534 1818.55 501.043 1816.79 502.215 1814.73C503.422 1812.64 504.257 1810.28 504.719 1807.65L531.352 1807.81C530.89 1812.64 529.488 1817.4 527.144 1822.08C524.836 1826.77 521.657 1831.05 517.609 1834.92C513.561 1838.76 508.625 1841.81 502.801 1844.08C497.013 1846.36 490.372 1847.49 482.879 1847.49C473.007 1847.49 464.165 1845.33 456.352 1840.99C448.575 1836.62 442.432 1830.27 437.922 1821.92C433.412 1813.58 431.157 1803.42 431.157 1791.45C431.157 1779.45 433.447 1769.28 438.028 1760.93C442.609 1752.59 448.806 1746.25 456.618 1741.92C464.431 1737.58 473.184 1735.42 482.879 1735.42C489.484 1735.42 495.592 1736.34 501.203 1738.19C506.814 1740 511.75 1742.66 516.011 1746.18C520.273 1749.66 523.735 1753.94 526.398 1759.01C529.062 1764.09 530.713 1769.9 531.352 1776.43ZM546.44 1846V1736.91H572.807V1780.69H615.794V1736.91H642.108V1846H615.794V1802.16H572.807V1846H546.44Z" fill="#FF7400"/>
<path d="M1457.22 2291.5H1446.21C1445.56 2288.33 1444.42 2285.55 1442.79 2283.15C1441.19 2280.76 1439.24 2278.75 1436.93 2277.12C1434.65 2275.46 1432.12 2274.22 1429.34 2273.39C1426.56 2272.56 1423.66 2272.15 1420.64 2272.15C1415.14 2272.15 1410.15 2273.54 1405.68 2276.32C1401.24 2279.1 1397.71 2283.2 1395.07 2288.61C1392.47 2294.03 1391.17 2300.67 1391.17 2308.55C1391.17 2316.42 1392.47 2323.06 1395.07 2328.48C1397.71 2333.89 1401.24 2337.99 1405.68 2340.77C1410.15 2343.55 1415.14 2344.94 1420.64 2344.94C1423.66 2344.94 1426.56 2344.53 1429.34 2343.7C1432.12 2342.87 1434.65 2341.65 1436.93 2340.02C1439.24 2338.36 1441.19 2336.33 1442.79 2333.94C1444.42 2331.51 1445.56 2328.73 1446.21 2325.59H1457.22C1456.39 2330.24 1454.88 2334.39 1452.69 2338.06C1450.5 2341.73 1447.78 2344.86 1444.52 2347.43C1441.27 2349.98 1437.61 2351.91 1433.56 2353.25C1429.53 2354.58 1425.23 2355.24 1420.64 2355.24C1412.89 2355.24 1405.99 2353.35 1399.96 2349.56C1393.92 2345.77 1389.17 2340.39 1385.71 2333.4C1382.25 2326.42 1380.51 2318.13 1380.51 2308.55C1380.51 2298.96 1382.25 2290.67 1385.71 2283.69C1389.17 2276.7 1393.92 2271.32 1399.96 2267.53C1405.99 2263.74 1412.89 2261.85 1420.64 2261.85C1425.23 2261.85 1429.53 2262.51 1433.56 2263.85C1437.61 2265.18 1441.27 2267.13 1444.52 2269.7C1447.78 2272.25 1450.5 2275.36 1452.69 2279.03C1454.88 2282.67 1456.39 2286.82 1457.22 2291.5ZM1501.29 2355.42C1495.13 2355.42 1489.73 2353.96 1485.08 2351.03C1480.47 2348.1 1476.86 2344 1474.25 2338.73C1471.68 2333.46 1470.39 2327.31 1470.39 2320.26C1470.39 2313.16 1471.68 2306.96 1474.25 2301.67C1476.86 2296.37 1480.47 2292.25 1485.08 2289.32C1489.73 2286.4 1495.13 2284.93 1501.29 2284.93C1507.44 2284.93 1512.83 2286.4 1517.44 2289.32C1522.09 2292.25 1525.7 2296.37 1528.28 2301.67C1530.88 2306.96 1532.18 2313.16 1532.18 2320.26C1532.18 2327.31 1530.88 2333.46 1528.28 2338.73C1525.7 2344 1522.09 2348.1 1517.44 2351.03C1512.83 2353.96 1507.44 2355.42 1501.29 2355.42ZM1501.29 2346.01C1505.96 2346.01 1509.81 2344.81 1512.83 2342.41C1515.85 2340.02 1518.08 2336.87 1519.53 2332.96C1520.98 2329.05 1521.71 2324.82 1521.71 2320.26C1521.71 2315.71 1520.98 2311.46 1519.53 2307.52C1518.08 2303.59 1515.85 2300.41 1512.83 2297.98C1509.81 2295.55 1505.96 2294.34 1501.29 2294.34C1496.61 2294.34 1492.76 2295.55 1489.75 2297.98C1486.73 2300.41 1484.49 2303.59 1483.04 2307.52C1481.59 2311.46 1480.87 2315.71 1480.87 2320.26C1480.87 2324.82 1481.59 2329.05 1483.04 2332.96C1484.49 2336.87 1486.73 2340.02 1489.75 2342.41C1492.76 2344.81 1496.61 2346.01 1501.29 2346.01ZM1548.17 2354V2285.82H1558.29V2296.47H1559.18C1560.6 2292.83 1562.89 2290.01 1566.06 2287.99C1569.23 2285.95 1573.03 2284.93 1577.47 2284.93C1581.97 2284.93 1585.71 2285.95 1588.7 2287.99C1591.72 2290.01 1594.07 2292.83 1595.76 2296.47H1596.47C1598.21 2292.95 1600.83 2290.15 1604.32 2288.08C1607.82 2285.98 1612 2284.93 1616.89 2284.93C1622.98 2284.93 1627.97 2286.84 1631.85 2290.66C1635.72 2294.44 1637.66 2300.35 1637.66 2308.37V2354H1627.19V2308.37C1627.19 2303.34 1625.81 2299.74 1623.06 2297.58C1620.3 2295.42 1617.06 2294.34 1613.34 2294.34C1608.54 2294.34 1604.83 2295.79 1602.19 2298.69C1599.56 2301.56 1598.24 2305.2 1598.24 2309.61V2354H1587.59V2307.3C1587.59 2303.43 1586.33 2300.3 1583.82 2297.94C1581.3 2295.54 1578.06 2294.34 1574.1 2294.34C1571.37 2294.34 1568.83 2295.07 1566.46 2296.52C1564.12 2297.97 1562.23 2299.98 1560.78 2302.55C1559.36 2305.1 1558.65 2308.04 1558.65 2311.39V2354H1548.17ZM1656.82 2354V2285.82H1666.94V2296.47H1667.82C1669.24 2292.83 1671.54 2290.01 1674.7 2287.99C1677.87 2285.95 1681.67 2284.93 1686.11 2284.93C1690.61 2284.93 1694.35 2285.95 1697.34 2287.99C1700.36 2290.01 1702.71 2292.83 1704.4 2296.47H1705.11C1706.86 2292.95 1709.48 2290.15 1712.97 2288.08C1716.46 2285.98 1720.65 2284.93 1725.53 2284.93C1731.63 2284.93 1736.61 2286.84 1740.49 2290.66C1744.37 2294.44 1746.3 2300.35 1746.3 2308.37V2354H1735.83V2308.37C1735.83 2303.34 1734.45 2299.74 1731.7 2297.58C1728.95 2295.42 1725.71 2294.34 1721.98 2294.34C1717.18 2294.34 1713.47 2295.79 1710.84 2298.69C1708.2 2301.56 1706.89 2305.2 1706.89 2309.61V2354H1696.23V2307.3C1696.23 2303.43 1694.98 2300.3 1692.46 2297.94C1689.94 2295.54 1686.7 2294.34 1682.74 2294.34C1680.02 2294.34 1677.47 2295.07 1675.1 2296.52C1672.77 2297.97 1670.87 2299.98 1669.42 2302.55C1668 2305.1 1667.29 2308.04 1667.29 2311.39V2354H1656.82ZM1765.46 2354V2285.82H1775.93V2354H1765.46ZM1770.78 2274.45C1768.74 2274.45 1766.98 2273.76 1765.5 2272.37C1764.05 2270.98 1763.33 2269.31 1763.33 2267.35C1763.33 2265.4 1764.05 2263.73 1765.5 2262.34C1766.98 2260.95 1768.74 2260.25 1770.78 2260.25C1772.83 2260.25 1774.57 2260.95 1776.02 2262.34C1777.5 2263.73 1778.24 2265.4 1778.24 2267.35C1778.24 2269.31 1777.5 2270.98 1776.02 2272.37C1774.57 2273.76 1772.83 2274.45 1770.78 2274.45ZM1824.77 2285.82V2294.7H1789.44V2285.82H1824.77ZM1799.74 2269.48H1810.21V2334.47C1810.21 2337.43 1810.64 2339.65 1811.5 2341.13C1812.39 2342.58 1813.51 2343.55 1814.87 2344.06C1816.26 2344.53 1817.73 2344.77 1819.27 2344.77C1820.42 2344.77 1821.37 2344.71 1822.11 2344.59C1822.85 2344.44 1823.44 2344.32 1823.88 2344.23L1826.02 2353.64C1825.31 2353.91 1824.31 2354.18 1823.04 2354.44C1821.77 2354.74 1820.16 2354.89 1818.2 2354.89C1815.24 2354.89 1812.34 2354.25 1809.5 2352.98C1806.69 2351.71 1804.35 2349.77 1802.49 2347.16C1800.65 2344.56 1799.74 2341.28 1799.74 2337.31V2269.48ZM1183.66 2506.42C1177.5 2506.42 1172.1 2504.96 1167.46 2502.03C1162.84 2499.1 1159.23 2495 1156.63 2489.73C1154.05 2484.46 1152.76 2478.31 1152.76 2471.26C1152.76 2464.16 1154.05 2457.96 1156.63 2452.67C1159.23 2447.37 1162.84 2443.25 1167.46 2440.32C1172.1 2437.4 1177.5 2435.93 1183.66 2435.93C1189.81 2435.93 1195.2 2437.4 1199.82 2440.32C1204.46 2443.25 1208.07 2447.37 1210.65 2452.67C1213.25 2457.96 1214.55 2464.16 1214.55 2471.26C1214.55 2478.31 1213.25 2484.46 1210.65 2489.73C1208.07 2495 1204.46 2499.1 1199.82 2502.03C1195.2 2504.96 1189.81 2506.42 1183.66 2506.42ZM1183.66 2497.01C1188.34 2497.01 1192.18 2495.81 1195.2 2493.41C1198.22 2491.02 1200.45 2487.87 1201.9 2483.96C1203.35 2480.05 1204.08 2475.82 1204.08 2471.26C1204.08 2466.71 1203.35 2462.46 1201.9 2458.52C1200.45 2454.59 1198.22 2451.41 1195.2 2448.98C1192.18 2446.55 1188.34 2445.34 1183.66 2445.34C1178.98 2445.34 1175.14 2446.55 1172.12 2448.98C1169.1 2451.41 1166.87 2454.59 1165.42 2458.52C1163.97 2462.46 1163.24 2466.71 1163.24 2471.26C1163.24 2475.82 1163.97 2480.05 1165.42 2483.96C1166.87 2487.87 1169.1 2491.02 1172.12 2493.41C1175.14 2495.81 1178.98 2497.01 1183.66 2497.01ZM1241.02 2463.98V2505H1230.55V2436.82H1240.67V2447.47H1241.55C1243.15 2444.01 1245.58 2441.23 1248.83 2439.13C1252.09 2437 1256.29 2435.93 1261.44 2435.93C1266.06 2435.93 1270.1 2436.88 1273.56 2438.77C1277.02 2440.64 1279.71 2443.48 1281.64 2447.29C1283.56 2451.08 1284.52 2455.88 1284.52 2461.68V2505H1274.05V2462.39C1274.05 2457.03 1272.66 2452.86 1269.87 2449.87C1267.09 2446.85 1263.28 2445.34 1258.42 2445.34C1255.08 2445.34 1252.09 2446.07 1249.46 2447.52C1246.85 2448.97 1244.79 2451.08 1243.29 2453.86C1241.78 2456.65 1241.02 2460.02 1241.02 2463.98ZM1338.82 2505V2436.82H1348.94V2447.47H1349.83C1351.25 2443.83 1353.54 2441.01 1356.71 2438.99C1359.88 2436.95 1363.68 2435.93 1368.12 2435.93C1372.62 2435.93 1376.36 2436.95 1379.35 2438.99C1382.37 2441.01 1384.72 2443.83 1386.41 2447.47H1387.12C1388.86 2443.95 1391.48 2441.15 1394.97 2439.08C1398.47 2436.98 1402.65 2435.93 1407.54 2435.93C1413.63 2435.93 1418.62 2437.84 1422.5 2441.66C1426.37 2445.44 1428.31 2451.35 1428.31 2459.37V2505H1417.83V2459.37C1417.83 2454.34 1416.46 2450.74 1413.71 2448.58C1410.95 2446.42 1407.71 2445.34 1403.99 2445.34C1399.19 2445.34 1395.48 2446.79 1392.84 2449.69C1390.21 2452.56 1388.89 2456.2 1388.89 2460.61V2505H1378.24V2458.3C1378.24 2454.43 1376.98 2451.3 1374.47 2448.94C1371.95 2446.54 1368.71 2445.34 1364.75 2445.34C1362.02 2445.34 1359.48 2446.07 1357.11 2447.52C1354.77 2448.97 1352.88 2450.98 1351.43 2453.55C1350.01 2456.1 1349.3 2459.04 1349.3 2462.39V2505H1338.82ZM1467.53 2506.6C1463.21 2506.6 1459.29 2505.78 1455.77 2504.16C1452.24 2502.5 1449.45 2500.12 1447.38 2497.01C1445.3 2493.87 1444.27 2490.09 1444.27 2485.65C1444.27 2481.74 1445.04 2478.57 1446.58 2476.15C1448.12 2473.69 1450.17 2471.77 1452.75 2470.38C1455.32 2468.99 1458.16 2467.95 1461.27 2467.27C1464.41 2466.56 1467.56 2466 1470.72 2465.58C1474.87 2465.05 1478.23 2464.65 1480.8 2464.38C1483.4 2464.09 1485.3 2463.6 1486.48 2462.92C1487.7 2462.24 1488.3 2461.05 1488.3 2459.37V2459.01C1488.3 2454.63 1487.1 2451.23 1484.71 2448.8C1482.34 2446.38 1478.74 2445.16 1473.92 2445.16C1468.92 2445.16 1465 2446.26 1462.16 2448.45C1459.32 2450.64 1457.32 2452.98 1456.16 2455.46L1446.22 2451.91C1448 2447.77 1450.36 2444.54 1453.32 2442.23C1456.31 2439.9 1459.57 2438.27 1463.09 2437.35C1466.64 2436.4 1470.13 2435.93 1473.57 2435.93C1475.76 2435.93 1478.27 2436.2 1481.11 2436.73C1483.98 2437.23 1486.75 2438.28 1489.41 2439.88C1492.11 2441.48 1494.34 2443.89 1496.12 2447.12C1497.89 2450.34 1498.78 2454.66 1498.78 2460.08V2505H1488.3V2495.77H1487.77C1487.06 2497.25 1485.88 2498.83 1484.22 2500.52C1482.56 2502.2 1480.36 2503.64 1477.6 2504.82C1474.85 2506.01 1471.49 2506.6 1467.53 2506.6ZM1469.13 2497.19C1473.27 2497.19 1476.76 2496.37 1479.6 2494.75C1482.47 2493.12 1484.63 2491.02 1486.08 2488.44C1487.56 2485.87 1488.3 2483.16 1488.3 2480.32V2470.73C1487.86 2471.26 1486.88 2471.75 1485.37 2472.2C1483.89 2472.61 1482.18 2472.98 1480.22 2473.31C1478.3 2473.6 1476.42 2473.87 1474.59 2474.11C1472.78 2474.31 1471.32 2474.49 1470.19 2474.64C1467.47 2474.99 1464.92 2475.57 1462.56 2476.37C1460.22 2477.14 1458.33 2478.31 1456.88 2479.88C1455.45 2481.41 1454.74 2483.52 1454.74 2486.18C1454.74 2489.82 1456.09 2492.57 1458.78 2494.44C1461.51 2496.27 1464.95 2497.19 1469.13 2497.19ZM1517.9 2505V2436.82H1528.37V2505H1517.9ZM1523.23 2425.45C1521.18 2425.45 1519.42 2424.76 1517.94 2423.37C1516.49 2421.98 1515.77 2420.31 1515.77 2418.35C1515.77 2416.4 1516.49 2414.73 1517.94 2413.34C1519.42 2411.95 1521.18 2411.25 1523.23 2411.25C1525.27 2411.25 1527.01 2411.95 1528.46 2413.34C1529.94 2414.73 1530.68 2416.4 1530.68 2418.35C1530.68 2420.31 1529.94 2421.98 1528.46 2423.37C1527.01 2424.76 1525.27 2425.45 1523.23 2425.45ZM1558.04 2463.98V2505H1547.56V2436.82H1557.68V2447.47H1558.57C1560.17 2444.01 1562.6 2441.23 1565.85 2439.13C1569.11 2437 1573.31 2435.93 1578.46 2435.93C1583.07 2435.93 1587.11 2436.88 1590.58 2438.77C1594.04 2440.64 1596.73 2443.48 1598.65 2447.29C1600.58 2451.08 1601.54 2455.88 1601.54 2461.68V2505H1591.06V2462.39C1591.06 2457.03 1589.67 2452.86 1586.89 2449.87C1584.11 2446.85 1580.29 2445.34 1575.44 2445.34C1572.09 2445.34 1569.11 2446.07 1566.47 2447.52C1563.87 2448.97 1561.81 2451.08 1560.3 2453.86C1558.79 2456.65 1558.04 2460.02 1558.04 2463.98ZM1657.26 2505V2414.09H1667.73V2447.65H1668.62C1669.39 2446.47 1670.46 2444.96 1671.82 2443.12C1673.21 2441.26 1675.19 2439.6 1677.77 2438.15C1680.37 2436.67 1683.89 2435.93 1688.33 2435.93C1694.07 2435.93 1699.13 2437.37 1703.51 2440.24C1707.89 2443.11 1711.31 2447.18 1713.77 2452.44C1716.22 2457.71 1717.45 2463.93 1717.45 2471.09C1717.45 2478.31 1716.22 2484.57 1713.77 2489.86C1711.31 2495.13 1707.91 2499.21 1703.56 2502.11C1699.21 2504.99 1694.19 2506.42 1688.51 2506.42C1684.13 2506.42 1680.62 2505.7 1677.99 2504.25C1675.36 2502.77 1673.33 2501.09 1671.91 2499.23C1670.49 2497.34 1669.39 2495.77 1668.62 2494.52H1667.38V2505H1657.26ZM1667.56 2470.91C1667.56 2476.06 1668.31 2480.6 1669.82 2484.54C1671.33 2488.44 1673.54 2491.51 1676.44 2493.73C1679.34 2495.92 1682.89 2497.01 1687.09 2497.01C1691.47 2497.01 1695.12 2495.86 1698.05 2493.55C1701.01 2491.21 1703.23 2488.07 1704.71 2484.14C1706.22 2480.17 1706.97 2475.76 1706.97 2470.91C1706.97 2466.12 1706.24 2461.79 1704.76 2457.95C1703.31 2454.07 1701.1 2451.01 1698.14 2448.76C1695.21 2446.48 1691.53 2445.34 1687.09 2445.34C1682.83 2445.34 1679.25 2446.42 1676.35 2448.58C1673.45 2450.71 1671.26 2453.7 1669.78 2457.55C1668.3 2461.37 1667.56 2465.82 1667.56 2470.91ZM1733.48 2505V2436.82H1743.6V2447.12H1744.31C1745.55 2443.74 1747.8 2441.01 1751.05 2438.9C1754.31 2436.8 1757.98 2435.75 1762.06 2435.75C1762.83 2435.75 1763.79 2435.77 1764.95 2435.8C1766.1 2435.83 1766.97 2435.87 1767.57 2435.93V2446.58C1767.21 2446.5 1766.4 2446.36 1765.12 2446.18C1763.88 2445.98 1762.57 2445.87 1761.17 2445.87C1757.86 2445.87 1754.9 2446.57 1752.3 2447.96C1749.72 2449.32 1747.68 2451.22 1746.17 2453.64C1744.69 2456.04 1743.95 2458.78 1743.95 2461.85V2505H1733.48ZM1800.05 2506.6C1795.73 2506.6 1791.81 2505.78 1788.28 2504.16C1784.76 2502.5 1781.97 2500.12 1779.9 2497.01C1777.82 2493.87 1776.79 2490.09 1776.79 2485.65C1776.79 2481.74 1777.56 2478.57 1779.1 2476.15C1780.64 2473.69 1782.69 2471.77 1785.27 2470.38C1787.84 2468.99 1790.68 2467.95 1793.79 2467.27C1796.93 2466.56 1800.08 2466 1803.24 2465.58C1807.39 2465.05 1810.75 2464.65 1813.32 2464.38C1815.92 2464.09 1817.82 2463.6 1819 2462.92C1820.22 2462.24 1820.82 2461.05 1820.82 2459.37V2459.01C1820.82 2454.63 1819.62 2451.23 1817.23 2448.8C1814.86 2446.38 1811.26 2445.16 1806.44 2445.16C1801.44 2445.16 1797.52 2446.26 1794.68 2448.45C1791.84 2450.64 1789.84 2452.98 1788.68 2455.46L1778.74 2451.91C1780.52 2447.77 1782.88 2444.54 1785.84 2442.23C1788.83 2439.9 1792.09 2438.27 1795.61 2437.35C1799.16 2436.4 1802.65 2435.93 1806.08 2435.93C1808.27 2435.93 1810.79 2436.2 1813.63 2436.73C1816.5 2437.23 1819.27 2438.28 1821.93 2439.88C1824.62 2441.48 1826.86 2443.89 1828.63 2447.12C1830.41 2450.34 1831.3 2454.66 1831.3 2460.08V2505H1820.82V2495.77H1820.29C1819.58 2497.25 1818.4 2498.83 1816.74 2500.52C1815.08 2502.2 1812.88 2503.64 1810.12 2504.82C1807.37 2506.01 1804.01 2506.6 1800.05 2506.6ZM1801.65 2497.19C1805.79 2497.19 1809.28 2496.37 1812.12 2494.75C1814.99 2493.12 1817.15 2491.02 1818.6 2488.44C1820.08 2485.87 1820.82 2483.16 1820.82 2480.32V2470.73C1820.38 2471.26 1819.4 2471.75 1817.89 2472.2C1816.41 2472.61 1814.7 2472.98 1812.74 2473.31C1810.82 2473.6 1808.94 2473.87 1807.11 2474.11C1805.3 2474.31 1803.84 2474.49 1802.71 2474.64C1799.99 2474.99 1797.44 2475.57 1795.08 2476.37C1792.74 2477.14 1790.84 2478.31 1789.39 2479.88C1787.97 2481.41 1787.26 2483.52 1787.26 2486.18C1787.26 2489.82 1788.61 2492.57 1791.3 2494.44C1794.03 2496.27 1797.47 2497.19 1801.65 2497.19ZM1860.89 2463.98V2505H1850.42V2436.82H1860.54V2447.47H1861.43C1863.03 2444.01 1865.45 2441.23 1868.71 2439.13C1871.96 2437 1876.16 2435.93 1881.31 2435.93C1885.93 2435.93 1889.97 2436.88 1893.43 2438.77C1896.89 2440.64 1899.59 2443.48 1901.51 2447.29C1903.43 2451.08 1904.4 2455.88 1904.4 2461.68V2505H1893.92V2462.39C1893.92 2457.03 1892.53 2452.86 1889.75 2449.87C1886.97 2446.85 1883.15 2445.34 1878.3 2445.34C1874.95 2445.34 1871.96 2446.07 1869.33 2447.52C1866.72 2448.97 1864.67 2451.08 1863.16 2453.86C1861.65 2456.65 1860.89 2460.02 1860.89 2463.98ZM1951.24 2506.42C1944.85 2506.42 1939.34 2504.91 1934.72 2501.89C1930.11 2498.87 1926.56 2494.72 1924.07 2489.42C1921.59 2484.12 1920.34 2478.07 1920.34 2471.26C1920.34 2464.34 1921.62 2458.23 1924.16 2452.93C1926.73 2447.6 1930.32 2443.45 1934.9 2440.46C1939.52 2437.44 1944.9 2435.93 1951.06 2435.93C1955.85 2435.93 1960.17 2436.82 1964.02 2438.59C1967.87 2440.37 1971.02 2442.86 1973.48 2446.05C1975.93 2449.25 1977.46 2452.98 1978.05 2457.24H1967.57C1966.77 2454.13 1965 2451.38 1962.25 2448.98C1959.52 2446.55 1955.85 2445.34 1951.24 2445.34C1947.15 2445.34 1943.57 2446.41 1940.5 2448.54C1937.45 2450.64 1935.07 2453.61 1933.35 2457.46C1931.66 2461.28 1930.82 2465.76 1930.82 2470.91C1930.82 2476.18 1931.65 2480.76 1933.3 2484.67C1934.99 2488.58 1937.36 2491.61 1940.41 2493.77C1943.48 2495.93 1947.09 2497.01 1951.24 2497.01C1953.96 2497.01 1956.43 2496.54 1958.65 2495.59C1960.87 2494.64 1962.75 2493.28 1964.29 2491.51C1965.83 2489.73 1966.92 2487.6 1967.57 2485.11H1978.05C1977.46 2489.14 1975.99 2492.76 1973.65 2495.99C1971.35 2499.19 1968.28 2501.73 1964.47 2503.62C1960.68 2505.49 1956.27 2506.42 1951.24 2506.42ZM2003.84 2463.98V2505H1993.36V2414.09H2003.84V2447.47H2004.73C2006.32 2443.95 2008.72 2441.15 2011.92 2439.08C2015.14 2436.98 2019.43 2435.93 2024.79 2435.93C2029.44 2435.93 2033.51 2436.86 2037 2438.73C2040.49 2440.56 2043.2 2443.39 2045.12 2447.21C2047.07 2450.99 2048.05 2455.82 2048.05 2461.68V2505H2037.57V2462.39C2037.57 2456.97 2036.17 2452.78 2033.36 2449.82C2030.58 2446.84 2026.71 2445.34 2021.77 2445.34C2018.34 2445.34 2015.26 2446.07 2012.54 2447.52C2009.85 2448.97 2007.72 2451.08 2006.15 2453.86C2004.61 2456.65 2003.84 2460.02 2003.84 2463.98Z" fill="#FF7400"/>
<path d="M1408.33 1001.42C1402.65 1001.42 1397.64 999.985 1393.29 997.115C1388.94 994.215 1385.53 990.131 1383.08 984.863C1380.62 979.566 1379.39 973.307 1379.39 966.087C1379.39 958.925 1380.62 952.711 1383.08 947.443C1385.53 942.176 1388.95 938.107 1393.33 935.236C1397.71 932.366 1402.77 930.93 1408.51 930.93C1412.95 930.93 1416.46 931.67 1419.03 933.15C1421.64 934.6 1423.62 936.257 1424.98 938.121C1426.37 939.956 1427.45 941.465 1428.22 942.649H1429.11V909.091H1439.58V1000H1429.46V989.524H1428.22C1427.45 990.767 1426.36 992.335 1424.94 994.229C1423.51 996.094 1421.49 997.766 1418.85 999.245C1416.22 1000.7 1412.71 1001.42 1408.33 1001.42ZM1409.75 992.01C1413.96 992.01 1417.51 990.915 1420.41 988.725C1423.31 986.506 1425.51 983.443 1427.02 979.537C1428.53 975.601 1429.29 971.058 1429.29 965.909C1429.29 960.819 1428.55 956.365 1427.07 952.548C1425.59 948.701 1423.4 945.712 1420.5 943.581C1417.6 941.421 1414.02 940.341 1409.75 940.341C1405.32 940.341 1401.62 941.48 1398.66 943.759C1395.73 946.008 1393.52 949.071 1392.04 952.947C1390.59 956.795 1389.87 961.115 1389.87 965.909C1389.87 970.762 1390.61 975.172 1392.09 979.137C1393.6 983.073 1395.82 986.21 1398.75 988.548C1401.71 990.856 1405.37 992.01 1409.75 992.01ZM1488.81 1001.42C1482.24 1001.42 1476.57 999.97 1471.81 997.07C1467.08 994.141 1463.42 990.057 1460.85 984.819C1458.3 979.551 1457.03 973.426 1457.03 966.442C1457.03 959.458 1458.3 953.303 1460.85 947.976C1463.42 942.62 1467 938.447 1471.59 935.458C1476.2 932.44 1481.59 930.93 1487.75 930.93C1491.3 930.93 1494.8 931.522 1498.27 932.706C1501.73 933.89 1504.88 935.813 1507.72 938.477C1510.56 941.11 1512.83 944.602 1514.51 948.952C1516.2 953.303 1517.04 958.659 1517.04 965.021V969.46H1464.49V960.405H1506.39C1506.39 956.558 1505.62 953.125 1504.08 950.107C1502.57 947.088 1500.41 944.706 1497.6 942.96C1494.82 941.214 1491.53 940.341 1487.75 940.341C1483.57 940.341 1479.96 941.377 1476.92 943.448C1473.9 945.49 1471.57 948.153 1469.95 951.438C1468.32 954.723 1467.5 958.245 1467.5 962.003V968.04C1467.5 973.189 1468.39 977.554 1470.17 981.135C1471.97 984.686 1474.47 987.393 1477.67 989.258C1480.87 991.093 1484.58 992.01 1488.81 992.01C1491.56 992.01 1494.05 991.625 1496.27 990.856C1498.52 990.057 1500.46 988.873 1502.08 987.305C1503.71 985.707 1504.97 983.724 1505.86 981.357L1515.98 984.197C1514.91 987.63 1513.12 990.649 1510.61 993.253C1508.09 995.827 1504.98 997.84 1501.28 999.29C1497.59 1000.71 1493.43 1001.42 1488.81 1001.42ZM1586.66 931.818L1561.44 1000H1550.79L1525.58 931.818H1536.94L1555.76 986.151H1556.47L1575.29 931.818H1586.66ZM1637.06 1000V909.091H1647.54V942.649H1648.42C1649.19 941.465 1650.26 939.956 1651.62 938.121C1653.01 936.257 1654.99 934.6 1657.57 933.15C1660.17 931.67 1663.69 930.93 1668.13 930.93C1673.87 930.93 1678.93 932.366 1683.31 935.236C1687.69 938.107 1691.11 942.176 1693.57 947.443C1696.02 952.711 1697.25 958.925 1697.25 966.087C1697.25 973.307 1696.02 979.566 1693.57 984.863C1691.11 990.131 1687.71 994.215 1683.36 997.115C1679.01 999.985 1673.99 1001.42 1668.31 1001.42C1663.93 1001.42 1660.42 1000.7 1657.79 999.245C1655.16 997.766 1653.13 996.094 1651.71 994.229C1650.29 992.335 1649.19 990.767 1648.42 989.524H1647.18V1000H1637.06ZM1647.36 965.909C1647.36 971.058 1648.11 975.601 1649.62 979.537C1651.13 983.443 1653.34 986.506 1656.24 988.725C1659.14 990.915 1662.69 992.01 1666.89 992.01C1671.27 992.01 1674.92 990.856 1677.85 988.548C1680.81 986.21 1683.03 983.073 1684.51 979.137C1686.02 975.172 1686.78 970.762 1686.78 965.909C1686.78 961.115 1686.04 956.795 1684.56 952.947C1683.11 949.071 1680.9 946.008 1677.94 943.759C1675.01 941.48 1671.33 940.341 1666.89 940.341C1662.63 940.341 1659.05 941.421 1656.15 943.581C1653.25 945.712 1651.06 948.701 1649.58 952.548C1648.1 956.365 1647.36 960.819 1647.36 965.909ZM1713.28 1000V931.818H1723.4V942.116H1724.11C1725.35 938.743 1727.6 936.006 1730.85 933.904C1734.11 931.803 1737.78 930.753 1741.86 930.753C1742.63 930.753 1743.59 930.768 1744.75 930.797C1745.9 930.827 1746.78 930.871 1747.37 930.93V941.584C1747.01 941.495 1746.2 941.362 1744.93 941.184C1743.68 940.977 1742.37 940.874 1740.98 940.874C1737.66 940.874 1734.7 941.569 1732.1 942.96C1729.52 944.321 1727.48 946.215 1725.97 948.642C1724.49 951.039 1723.75 953.776 1723.75 956.854V1000H1713.28ZM1779.85 1001.6C1775.53 1001.6 1771.61 1000.78 1768.09 999.157C1764.56 997.499 1761.77 995.117 1759.7 992.01C1757.63 988.873 1756.59 985.085 1756.59 980.646C1756.59 976.74 1757.36 973.574 1758.9 971.147C1760.44 968.691 1762.49 966.767 1765.07 965.376C1767.64 963.986 1770.48 962.95 1773.59 962.269C1776.73 961.559 1779.88 960.997 1783.05 960.582C1787.19 960.05 1790.55 959.65 1793.12 959.384C1795.73 959.088 1797.62 958.6 1798.8 957.919C1800.02 957.238 1800.62 956.055 1800.62 954.368V954.013C1800.62 949.633 1799.42 946.23 1797.03 943.803C1794.66 941.377 1791.06 940.163 1786.24 940.163C1781.24 940.163 1777.32 941.258 1774.48 943.448C1771.64 945.638 1769.64 947.976 1768.49 950.462L1758.54 946.911C1760.32 942.768 1762.69 939.542 1765.64 937.234C1768.63 934.896 1771.89 933.268 1775.41 932.351C1778.96 931.404 1782.45 930.93 1785.89 930.93C1788.08 930.93 1790.59 931.197 1793.43 931.729C1796.3 932.232 1799.07 933.283 1801.73 934.881C1804.43 936.479 1806.66 938.891 1808.44 942.116C1810.21 945.342 1811.1 949.663 1811.1 955.078V1000H1800.62V990.767H1800.09C1799.38 992.247 1798.2 993.83 1796.54 995.517C1794.88 997.203 1792.68 998.639 1789.93 999.822C1787.17 1001.01 1783.81 1001.6 1779.85 1001.6ZM1781.45 992.188C1785.59 992.188 1789.08 991.374 1791.92 989.746C1794.79 988.118 1796.95 986.017 1798.4 983.443C1799.88 980.868 1800.62 978.161 1800.62 975.32V965.732C1800.18 966.264 1799.2 966.752 1797.69 967.196C1796.21 967.611 1794.5 967.981 1792.54 968.306C1790.62 968.602 1788.74 968.868 1786.91 969.105C1785.1 969.312 1783.64 969.49 1782.51 969.638C1779.79 969.993 1777.25 970.57 1774.88 971.369C1772.54 972.138 1770.65 973.307 1769.2 974.876C1767.78 976.415 1767.07 978.516 1767.07 981.179C1767.07 984.819 1768.41 987.571 1771.1 989.435C1773.83 991.27 1777.27 992.188 1781.45 992.188ZM1840.7 958.984V1000H1830.22V931.818H1840.34V942.472H1841.23C1842.83 939.009 1845.25 936.228 1848.51 934.126C1851.76 931.996 1855.97 930.93 1861.11 930.93C1865.73 930.93 1869.77 931.877 1873.23 933.771C1876.7 935.636 1879.39 938.477 1881.31 942.294C1883.24 946.082 1884.2 950.876 1884.2 956.676V1000H1873.72V957.386C1873.72 952.03 1872.33 947.857 1869.55 944.869C1866.77 941.85 1862.95 940.341 1858.1 940.341C1854.75 940.341 1851.76 941.066 1849.13 942.516C1846.53 943.966 1844.47 946.082 1842.96 948.864C1841.45 951.645 1840.7 955.019 1840.7 958.984ZM1931.04 1001.42C1924.65 1001.42 1919.14 999.911 1914.53 996.893C1909.91 993.874 1906.36 989.717 1903.87 984.419C1901.39 979.122 1900.14 973.071 1900.14 966.264C1900.14 959.339 1901.42 953.229 1903.96 947.931C1906.54 942.605 1910.12 938.447 1914.7 935.458C1919.32 932.44 1924.71 930.93 1930.86 930.93C1935.66 930.93 1939.98 931.818 1943.82 933.594C1947.67 935.369 1950.82 937.855 1953.28 941.051C1955.73 944.247 1957.26 947.976 1957.85 952.237H1947.37C1946.58 949.13 1944.8 946.378 1942.05 943.981C1939.32 941.554 1935.66 940.341 1931.04 940.341C1926.96 940.341 1923.37 941.406 1920.3 943.537C1917.25 945.638 1914.87 948.612 1913.15 952.459C1911.46 956.277 1910.62 960.76 1910.62 965.909C1910.62 971.177 1911.45 975.763 1913.11 979.67C1914.79 983.576 1917.16 986.609 1920.21 988.77C1923.29 990.93 1926.9 992.01 1931.04 992.01C1933.76 992.01 1936.23 991.536 1938.45 990.589C1940.67 989.643 1942.55 988.281 1944.09 986.506C1945.63 984.73 1946.72 982.599 1947.37 980.114H1957.85C1957.26 984.138 1955.79 987.763 1953.46 990.989C1951.15 994.185 1948.08 996.73 1944.27 998.624C1940.48 1000.49 1936.07 1001.42 1931.04 1001.42ZM1983.64 958.984V1000H1973.16V909.091H1983.64V942.472H1984.53C1986.13 938.95 1988.52 936.154 1991.72 934.082C1994.94 931.981 1999.24 930.93 2004.59 930.93C2009.24 930.93 2013.31 931.863 2016.8 933.727C2020.29 935.562 2023 938.388 2024.92 942.205C2026.88 945.993 2027.85 950.817 2027.85 956.676V1000H2017.38V957.386C2017.38 951.971 2015.97 947.783 2013.16 944.824C2010.38 941.835 2006.52 940.341 2001.57 940.341C1998.14 940.341 1995.06 941.066 1992.34 942.516C1989.65 943.966 1987.52 946.082 1985.95 948.864C1984.41 951.645 1983.64 955.019 1983.64 958.984ZM1410.29 1152.42C1403.89 1152.42 1398.39 1150.91 1393.77 1147.89C1389.16 1144.87 1385.61 1140.72 1383.12 1135.42C1380.63 1130.12 1379.39 1124.07 1379.39 1117.26C1379.39 1110.34 1380.66 1104.23 1383.21 1098.93C1385.78 1093.6 1389.36 1089.45 1393.95 1086.46C1398.57 1083.44 1403.95 1081.93 1410.11 1081.93C1414.9 1081.93 1419.22 1082.82 1423.07 1084.59C1426.92 1086.37 1430.07 1088.86 1432.53 1092.05C1434.98 1095.25 1436.51 1098.98 1437.1 1103.24H1426.62C1425.82 1100.13 1424.05 1097.38 1421.3 1094.98C1418.57 1092.55 1414.9 1091.34 1410.29 1091.34C1406.2 1091.34 1402.62 1092.41 1399.54 1094.54C1396.5 1096.64 1394.11 1099.61 1392.4 1103.46C1390.71 1107.28 1389.87 1111.76 1389.87 1116.91C1389.87 1122.18 1390.7 1126.76 1392.35 1130.67C1394.04 1134.58 1396.41 1137.61 1399.46 1139.77C1402.53 1141.93 1406.14 1143.01 1410.29 1143.01C1413.01 1143.01 1415.48 1142.54 1417.7 1141.59C1419.92 1140.64 1421.8 1139.28 1423.34 1137.51C1424.88 1135.73 1425.97 1133.6 1426.62 1131.11H1437.1C1436.51 1135.14 1435.04 1138.76 1432.7 1141.99C1430.4 1145.19 1427.33 1147.73 1423.51 1149.62C1419.73 1151.49 1415.32 1152.42 1410.29 1152.42ZM1452.41 1151V1082.82H1462.53V1093.12H1463.24C1464.49 1089.74 1466.74 1087.01 1469.99 1084.9C1473.25 1082.8 1476.92 1081.75 1481 1081.75C1481.77 1081.75 1482.73 1081.77 1483.88 1081.8C1485.04 1081.83 1485.91 1081.87 1486.5 1081.93V1092.58C1486.15 1092.5 1485.33 1092.36 1484.06 1092.18C1482.82 1091.98 1481.5 1091.87 1480.11 1091.87C1476.8 1091.87 1473.84 1092.57 1471.23 1093.96C1468.66 1095.32 1466.62 1097.22 1465.11 1099.64C1463.63 1102.04 1462.89 1104.78 1462.89 1107.85V1151H1452.41ZM1525.43 1152.42C1518.86 1152.42 1513.2 1150.97 1508.43 1148.07C1503.7 1145.14 1500.04 1141.06 1497.47 1135.82C1494.92 1130.55 1493.65 1124.43 1493.65 1117.44C1493.65 1110.46 1494.92 1104.3 1497.47 1098.98C1500.04 1093.62 1503.62 1089.45 1508.21 1086.46C1512.83 1083.44 1518.21 1081.93 1524.37 1081.93C1527.92 1081.93 1531.43 1082.52 1534.89 1083.71C1538.35 1084.89 1541.5 1086.81 1544.34 1089.48C1547.18 1092.11 1549.45 1095.6 1551.13 1099.95C1552.82 1104.3 1553.66 1109.66 1553.66 1116.02V1120.46H1501.11V1111.4H1543.01C1543.01 1107.56 1542.24 1104.12 1540.7 1101.11C1539.19 1098.09 1537.03 1095.71 1534.22 1093.96C1531.44 1092.21 1528.16 1091.34 1524.37 1091.34C1520.19 1091.34 1516.58 1092.38 1513.54 1094.45C1510.52 1096.49 1508.19 1099.15 1506.57 1102.44C1504.94 1105.72 1504.13 1109.24 1504.13 1113V1119.04C1504.13 1124.19 1505.01 1128.55 1506.79 1132.13C1508.59 1135.69 1511.09 1138.39 1514.29 1140.26C1517.49 1142.09 1521.2 1143.01 1525.43 1143.01C1528.18 1143.01 1530.67 1142.63 1532.89 1141.86C1535.14 1141.06 1537.08 1139.87 1538.7 1138.3C1540.33 1136.71 1541.59 1134.72 1542.48 1132.36L1552.6 1135.2C1551.53 1138.63 1549.74 1141.65 1547.23 1144.25C1544.71 1146.83 1541.6 1148.84 1537.91 1150.29C1534.21 1151.71 1530.05 1152.42 1525.43 1152.42ZM1589.66 1152.6C1585.34 1152.6 1581.42 1151.78 1577.9 1150.16C1574.38 1148.5 1571.58 1146.12 1569.51 1143.01C1567.44 1139.87 1566.4 1136.09 1566.4 1131.65C1566.4 1127.74 1567.17 1124.57 1568.71 1122.15C1570.25 1119.69 1572.31 1117.77 1574.88 1116.38C1577.46 1114.99 1580.3 1113.95 1583.4 1113.27C1586.54 1112.56 1589.69 1112 1592.86 1111.58C1597 1111.05 1600.36 1110.65 1602.94 1110.38C1605.54 1110.09 1607.43 1109.6 1608.62 1108.92C1609.83 1108.24 1610.44 1107.05 1610.44 1105.37V1105.01C1610.44 1100.63 1609.24 1097.23 1606.84 1094.8C1604.47 1092.38 1600.88 1091.16 1596.06 1091.16C1591.05 1091.16 1587.13 1092.26 1584.29 1094.45C1581.45 1096.64 1579.45 1098.98 1578.3 1101.46L1568.36 1097.91C1570.13 1093.77 1572.5 1090.54 1575.46 1088.23C1578.45 1085.9 1581.7 1084.27 1585.22 1083.35C1588.78 1082.4 1592.27 1081.93 1595.7 1081.93C1597.89 1081.93 1600.41 1082.2 1603.25 1082.73C1606.12 1083.23 1608.88 1084.28 1611.55 1085.88C1614.24 1087.48 1616.47 1089.89 1618.25 1093.12C1620.03 1096.34 1620.91 1100.66 1620.91 1106.08V1151H1610.44V1141.77H1609.91C1609.19 1143.25 1608.01 1144.83 1606.35 1146.52C1604.7 1148.2 1602.49 1149.64 1599.74 1150.82C1596.99 1152.01 1593.63 1152.6 1589.66 1152.6ZM1591.26 1143.19C1595.4 1143.19 1598.9 1142.37 1601.74 1140.75C1604.61 1139.12 1606.77 1137.02 1608.22 1134.44C1609.7 1131.87 1610.44 1129.16 1610.44 1126.32V1116.73C1609.99 1117.26 1609.02 1117.75 1607.51 1118.2C1606.03 1118.61 1604.31 1118.98 1602.36 1119.31C1600.44 1119.6 1598.56 1119.87 1596.72 1120.11C1594.92 1120.31 1593.45 1120.49 1592.33 1120.64C1589.6 1120.99 1587.06 1121.57 1584.69 1122.37C1582.35 1123.14 1580.46 1124.31 1579.01 1125.88C1577.59 1127.41 1576.88 1129.52 1576.88 1132.18C1576.88 1135.82 1578.23 1138.57 1580.92 1140.44C1583.64 1142.27 1587.09 1143.19 1591.26 1143.19ZM1669.69 1082.82V1091.7H1634.35V1082.82H1669.69ZM1644.65 1066.48H1655.13V1131.47C1655.13 1134.43 1655.56 1136.65 1656.41 1138.13C1657.3 1139.58 1658.43 1140.55 1659.79 1141.06C1661.18 1141.53 1662.64 1141.77 1664.18 1141.77C1665.34 1141.77 1666.28 1141.71 1667.02 1141.59C1667.76 1141.44 1668.35 1141.32 1668.8 1141.23L1670.93 1150.64C1670.22 1150.91 1669.23 1151.18 1667.96 1151.44C1666.68 1151.74 1665.07 1151.89 1663.12 1151.89C1660.16 1151.89 1657.26 1151.25 1654.42 1149.98C1651.61 1148.71 1649.27 1146.77 1647.4 1144.16C1645.57 1141.56 1644.65 1138.28 1644.65 1134.31V1066.48ZM1713.3 1152.42C1706.73 1152.42 1701.06 1150.97 1696.3 1148.07C1691.56 1145.14 1687.91 1141.06 1685.33 1135.82C1682.79 1130.55 1681.52 1124.43 1681.52 1117.44C1681.52 1110.46 1682.79 1104.3 1685.33 1098.98C1687.91 1093.62 1691.49 1089.45 1696.08 1086.46C1700.69 1083.44 1706.08 1081.93 1712.23 1081.93C1715.78 1081.93 1719.29 1082.52 1722.75 1083.71C1726.22 1084.89 1729.37 1086.81 1732.21 1089.48C1735.05 1092.11 1737.31 1095.6 1739 1099.95C1740.69 1104.3 1741.53 1109.66 1741.53 1116.02V1120.46H1688.97V1111.4H1730.88C1730.88 1107.56 1730.11 1104.12 1728.57 1101.11C1727.06 1098.09 1724.9 1095.71 1722.09 1093.96C1719.31 1092.21 1716.02 1091.34 1712.23 1091.34C1708.06 1091.34 1704.45 1092.38 1701.4 1094.45C1698.38 1096.49 1696.06 1099.15 1694.43 1102.44C1692.81 1105.72 1691.99 1109.24 1691.99 1113V1119.04C1691.99 1124.19 1692.88 1128.55 1694.66 1132.13C1696.46 1135.69 1698.96 1138.39 1702.16 1140.26C1705.35 1142.09 1709.07 1143.01 1713.3 1143.01C1716.05 1143.01 1718.54 1142.63 1720.76 1141.86C1723.01 1141.06 1724.94 1139.87 1726.57 1138.3C1728.2 1136.71 1729.46 1134.72 1730.34 1132.36L1740.46 1135.2C1739.4 1138.63 1737.61 1141.65 1735.09 1144.25C1732.58 1146.83 1729.47 1148.84 1725.77 1150.29C1722.07 1151.71 1717.92 1152.42 1713.3 1152.42ZM1783.21 1152.42C1777.53 1152.42 1772.51 1150.99 1768.16 1148.11C1763.81 1145.21 1760.41 1141.13 1757.95 1135.86C1755.5 1130.57 1754.27 1124.31 1754.27 1117.09C1754.27 1109.93 1755.5 1103.71 1757.95 1098.44C1760.41 1093.18 1763.83 1089.11 1768.21 1086.24C1772.59 1083.37 1777.65 1081.93 1783.39 1081.93C1787.83 1081.93 1791.33 1082.67 1793.91 1084.15C1796.51 1085.6 1798.5 1087.26 1799.86 1089.12C1801.25 1090.96 1802.33 1092.47 1803.1 1093.65H1803.99V1060.09H1814.46V1151H1804.34V1140.52H1803.1C1802.33 1141.77 1801.23 1143.34 1799.81 1145.23C1798.39 1147.09 1796.37 1148.77 1793.73 1150.25C1791.1 1151.7 1787.59 1152.42 1783.21 1152.42ZM1784.63 1143.01C1788.83 1143.01 1792.39 1141.92 1795.29 1139.73C1798.19 1137.51 1800.39 1134.44 1801.9 1130.54C1803.41 1126.6 1804.16 1122.06 1804.16 1116.91C1804.16 1111.82 1803.42 1107.37 1801.94 1103.55C1800.46 1099.7 1798.27 1096.71 1795.37 1094.58C1792.47 1092.42 1788.89 1091.34 1784.63 1091.34C1780.19 1091.34 1776.49 1092.48 1773.53 1094.76C1770.61 1097.01 1768.4 1100.07 1766.92 1103.95C1765.47 1107.79 1764.75 1112.12 1764.75 1116.91C1764.75 1121.76 1765.49 1126.17 1766.97 1130.14C1768.47 1134.07 1770.69 1137.21 1773.62 1139.55C1776.58 1141.86 1780.25 1143.01 1784.63 1143.01Z" fill="#979593"/>
<path d="M1694.58 425H1654.26V315.909H1694.53C1705.64 315.909 1715.21 318.093 1723.24 322.461C1731.3 326.793 1737.51 333.043 1741.88 341.211C1746.25 349.343 1748.43 359.073 1748.43 370.401C1748.43 381.765 1746.25 391.531 1741.88 399.698C1737.55 407.866 1731.35 414.134 1723.29 418.501C1715.23 422.834 1705.66 425 1694.58 425ZM1680.62 402.521H1693.57C1699.68 402.521 1704.84 401.491 1709.07 399.432C1713.33 397.337 1716.54 393.945 1718.71 389.258C1720.91 384.535 1722.01 378.249 1722.01 370.401C1722.01 362.553 1720.91 356.303 1718.71 351.651C1716.51 346.964 1713.26 343.59 1708.96 341.531C1704.7 339.435 1699.44 338.388 1693.19 338.388H1680.62V402.521ZM1763.83 425V315.909H1839.89V337.322H1790.19V359.695H1836V381.161H1790.19V403.587H1839.89V425H1763.83ZM1881.17 315.909L1905.57 395.81H1906.48L1930.87 315.909H1960.38L1923.57 425H1888.47L1851.66 315.909H1881.17ZM1654.26 607V497.909H1699.75C1707.91 497.909 1714.75 499.063 1720.25 501.371C1725.79 503.68 1729.95 506.911 1732.72 511.066C1735.52 515.221 1736.93 520.033 1736.93 525.501C1736.93 529.656 1736.06 533.367 1734.32 536.634C1732.58 539.866 1730.18 542.547 1727.13 544.678C1724.07 546.808 1720.54 548.3 1716.53 549.152V550.217C1720.93 550.43 1725 551.62 1728.72 553.786C1732.49 555.952 1735.51 558.971 1737.78 562.842C1740.05 566.677 1741.19 571.222 1741.19 576.478C1741.19 582.337 1739.7 587.575 1736.71 592.192C1733.73 596.773 1729.42 600.395 1723.77 603.058C1718.12 605.686 1711.27 607 1703.21 607H1654.26ZM1680.62 585.746H1696.92C1702.64 585.746 1706.85 584.663 1709.55 582.497C1712.28 580.331 1713.65 577.312 1713.65 573.442C1713.65 570.636 1712.99 568.222 1711.68 566.197C1710.36 564.138 1708.5 562.558 1706.09 561.457C1703.67 560.32 1700.78 559.752 1697.4 559.752H1680.62V585.746ZM1680.62 542.76H1695.22C1698.1 542.76 1700.65 542.281 1702.89 541.322C1705.13 540.363 1706.87 538.978 1708.11 537.167C1709.39 535.356 1710.03 533.172 1710.03 530.615C1710.03 526.957 1708.73 524.081 1706.14 521.986C1703.55 519.891 1700.05 518.843 1695.64 518.843H1680.62V542.76ZM1753.87 607V497.909H1798.93C1807.1 497.909 1814.15 499.383 1820.08 502.33C1826.04 505.242 1830.64 509.433 1833.87 514.901C1837.1 520.335 1838.72 526.78 1838.72 534.237C1838.72 541.801 1837.07 548.229 1833.77 553.52C1830.46 558.776 1825.78 562.788 1819.7 565.558C1813.63 568.293 1806.44 569.66 1798.13 569.66H1769.63V548.886H1793.23C1797.21 548.886 1800.53 548.371 1803.19 547.341C1805.89 546.276 1807.93 544.678 1809.32 542.547C1810.7 540.381 1811.39 537.611 1811.39 534.237C1811.39 530.864 1810.7 528.076 1809.32 525.874C1807.93 523.637 1805.89 521.968 1803.19 520.867C1800.49 519.731 1797.17 519.163 1793.23 519.163H1780.23V607H1753.87ZM1815.28 557.142L1842.45 607H1813.68L1787.05 557.142H1815.28ZM1876.78 607H1848.44L1885.25 497.909H1920.35L1957.16 607H1928.82L1903.2 525.395H1902.35L1876.78 607ZM1873 564.067H1932.23V584.095H1873V564.067ZM2061.75 497.909V607H2039.38L1995.96 544.038H1995.27V607H1968.9V497.909H1991.6L2034.53 560.764H2035.44V497.909H2061.75ZM2177.35 537.433H2150.72C2150.36 534.699 2149.64 532.231 2148.53 530.029C2147.43 527.827 2145.98 525.945 2144.17 524.383C2142.36 522.82 2140.21 521.631 2137.72 520.814C2135.27 519.962 2132.55 519.536 2129.57 519.536C2124.28 519.536 2119.72 520.832 2115.88 523.424C2112.08 526.016 2109.15 529.763 2107.09 534.663C2105.07 539.564 2104.06 545.494 2104.06 552.455C2104.06 559.699 2105.09 565.771 2107.15 570.672C2109.24 575.537 2112.17 579.212 2115.94 581.698C2119.73 584.148 2124.23 585.374 2129.41 585.374C2132.32 585.374 2134.97 585.001 2137.35 584.255C2139.76 583.509 2141.88 582.426 2143.69 581.006C2145.53 579.55 2147.04 577.792 2148.22 575.732C2149.42 573.637 2150.26 571.276 2150.72 568.648L2177.35 568.808C2176.89 573.637 2175.49 578.396 2173.14 583.083C2170.84 587.771 2167.66 592.05 2163.61 595.92C2159.56 599.756 2154.62 602.81 2148.8 605.082C2143.01 607.355 2136.37 608.491 2128.88 608.491C2119.01 608.491 2110.16 606.325 2102.35 601.993C2094.58 597.625 2088.43 591.268 2083.92 582.923C2079.41 574.578 2077.16 564.422 2077.16 552.455C2077.16 540.452 2079.45 530.278 2084.03 521.933C2088.61 513.587 2094.81 507.249 2102.62 502.916C2110.43 498.584 2119.18 496.418 2128.88 496.418C2135.48 496.418 2141.59 497.341 2147.2 499.188C2152.81 500.999 2157.75 503.662 2162.01 507.178C2166.27 510.658 2169.73 514.937 2172.4 520.015C2175.06 525.093 2176.71 530.899 2177.35 537.433ZM2192.44 607V497.909H2218.81V541.695H2261.79V497.909H2288.11V607H2261.79V563.161H2218.81V607H2192.44Z" fill="#6CABDD"/>
<path d="M1607.3 1952.7C1604.37 1949.77 1599.63 1949.77 1596.7 1952.7L1548.97 2000.43C1546.04 2003.36 1546.04 2008.1 1548.97 2011.03C1551.9 2013.96 1556.64 2013.96 1559.57 2011.03L1602 1968.61L1644.43 2011.03C1647.36 2013.96 1652.1 2013.96 1655.03 2011.03C1657.96 2008.1 1657.96 2003.36 1655.03 2000.43L1607.3 1952.7ZM1609.5 2177V1958H1594.5V2177H1609.5Z" fill="#FF7400"/>
<path d="M3036.22 58.5H3025.21C3024.56 55.3336 3023.42 52.5518 3021.79 50.1548C3020.19 47.7578 3018.24 45.7455 3015.93 44.1179C3013.65 42.4607 3011.12 41.2178 3008.34 40.3892C3005.56 39.5606 3002.66 39.1463 2999.64 39.1463C2994.14 39.1463 2989.15 40.5372 2984.68 43.3189C2980.24 46.1006 2976.71 50.1992 2974.07 55.6147C2971.47 61.0302 2970.17 67.6738 2970.17 75.5455C2970.17 83.4171 2971.47 90.0607 2974.07 95.4762C2976.71 100.892 2980.24 104.99 2984.68 107.772C2989.15 110.554 2994.14 111.945 2999.64 111.945C3002.66 111.945 3005.56 111.53 3008.34 110.702C3011.12 109.873 3013.65 108.645 3015.93 107.017C3018.24 105.36 3020.19 103.333 3021.79 100.936C3023.42 98.5095 3024.56 95.7277 3025.21 92.5909H3036.22C3035.39 97.237 3033.88 101.395 3031.69 105.064C3029.5 108.734 3026.78 111.856 3023.52 114.43C3020.27 116.975 3016.61 118.914 3012.56 120.245C3008.53 121.577 3004.23 122.243 2999.64 122.243C2991.89 122.243 2984.99 120.349 2978.96 116.561C2972.92 112.773 2968.17 107.387 2964.71 100.403C2961.25 93.4195 2959.51 85.1335 2959.51 75.5455C2959.51 65.9574 2961.25 57.6714 2964.71 50.6875C2968.17 43.7036 2972.92 38.3177 2978.96 34.5298C2984.99 30.7419 2991.89 28.848 2999.64 28.848C3004.23 28.848 3008.53 29.5138 3012.56 30.8455C3016.61 32.1772 3020.27 34.1303 3023.52 36.7049C3026.78 39.2499 3029.5 42.3571 3031.69 46.0266C3033.88 49.6665 3035.39 53.8243 3036.22 58.5ZM3080.29 122.42C3074.13 122.42 3068.73 120.956 3064.08 118.026C3059.47 115.096 3055.86 110.998 3053.25 105.73C3050.68 100.463 3049.39 94.3073 3049.39 87.2642C3049.39 80.1619 3050.68 73.9622 3053.25 68.6651C3055.86 63.368 3059.47 59.2546 3064.08 56.3249C3068.73 53.3952 3074.13 51.9304 3080.29 51.9304C3086.44 51.9304 3091.83 53.3952 3096.44 56.3249C3101.09 59.2546 3104.7 63.368 3107.28 68.6651C3109.88 73.9622 3111.18 80.1619 3111.18 87.2642C3111.18 94.3073 3109.88 100.463 3107.28 105.73C3104.7 110.998 3101.09 115.096 3096.44 118.026C3091.83 120.956 3086.44 122.42 3080.29 122.42ZM3080.29 113.01C3084.96 113.01 3088.81 111.811 3091.83 109.414C3094.85 107.017 3097.08 103.866 3098.53 99.9595C3099.98 96.0533 3100.71 91.8215 3100.71 87.2642C3100.71 82.7069 3099.98 78.4603 3098.53 74.5245C3097.08 70.5887 3094.85 67.4074 3091.83 64.9808C3088.81 62.5542 3084.96 61.3409 3080.29 61.3409C3075.61 61.3409 3071.76 62.5542 3068.75 64.9808C3065.73 67.4074 3063.49 70.5887 3062.04 74.5245C3060.59 78.4603 3059.87 82.7069 3059.87 87.2642C3059.87 91.8215 3060.59 96.0533 3062.04 99.9595C3063.49 103.866 3065.73 107.017 3068.75 109.414C3071.76 111.811 3075.61 113.01 3080.29 113.01ZM3127.17 121V52.8182H3137.29V63.4716H3138.18C3139.6 59.8317 3141.89 57.0056 3145.06 54.9933C3148.23 52.9513 3152.03 51.9304 3156.47 51.9304C3160.97 51.9304 3164.71 52.9513 3167.7 54.9933C3170.72 57.0056 3173.07 59.8317 3174.76 63.4716H3175.47C3177.21 59.95 3179.83 57.1535 3183.32 55.082C3186.82 52.9809 3191 51.9304 3195.89 51.9304C3201.98 51.9304 3206.97 53.8391 3210.85 57.6566C3214.72 61.4445 3216.66 67.3482 3216.66 75.3679V121H3206.19V75.3679C3206.19 70.3371 3204.81 66.7416 3202.06 64.5813C3199.3 62.421 3196.06 61.3409 3192.34 61.3409C3187.54 61.3409 3183.83 62.791 3181.19 65.6911C3178.56 68.5616 3177.24 72.2015 3177.24 76.6108V121H3166.59V74.3026C3166.59 70.4259 3165.33 67.3039 3162.82 64.9364C3160.3 62.5394 3157.06 61.3409 3153.1 61.3409C3150.37 61.3409 3147.83 62.0659 3145.46 63.516C3143.12 64.966 3141.23 66.9783 3139.78 69.5529C3138.36 72.0979 3137.65 75.0424 3137.65 78.3864V121H3127.17ZM3235.82 121V52.8182H3245.94V63.4716H3246.82C3248.24 59.8317 3250.54 57.0056 3253.7 54.9933C3256.87 52.9513 3260.67 51.9304 3265.11 51.9304C3269.61 51.9304 3273.35 52.9513 3276.34 54.9933C3279.36 57.0056 3281.71 59.8317 3283.4 63.4716H3284.11C3285.86 59.95 3288.48 57.1535 3291.97 55.082C3295.46 52.9809 3299.65 51.9304 3304.53 51.9304C3310.63 51.9304 3315.61 53.8391 3319.49 57.6566C3323.37 61.4445 3325.3 67.3482 3325.3 75.3679V121H3314.83V75.3679C3314.83 70.3371 3313.45 66.7416 3310.7 64.5813C3307.95 62.421 3304.71 61.3409 3300.98 61.3409C3296.18 61.3409 3292.47 62.791 3289.84 65.6911C3287.2 68.5616 3285.89 72.2015 3285.89 76.6108V121H3275.23V74.3026C3275.23 70.4259 3273.98 67.3039 3271.46 64.9364C3268.94 62.5394 3265.7 61.3409 3261.74 61.3409C3259.02 61.3409 3256.47 62.0659 3254.1 63.516C3251.77 64.966 3249.87 66.9783 3248.42 69.5529C3247 72.0979 3246.29 75.0424 3246.29 78.3864V121H3235.82ZM3344.46 121V52.8182H3354.93V121H3344.46ZM3349.78 41.4545C3347.74 41.4545 3345.98 40.7591 3344.5 39.3683C3343.05 37.9774 3342.33 36.3054 3342.33 34.3523C3342.33 32.3991 3343.05 30.7272 3344.5 29.3363C3345.98 27.9454 3347.74 27.25 3349.78 27.25C3351.83 27.25 3353.57 27.9454 3355.02 29.3363C3356.5 30.7272 3357.24 32.3991 3357.24 34.3523C3357.24 36.3054 3356.5 37.9774 3355.02 39.3683C3353.57 40.7591 3351.83 41.4545 3349.78 41.4545ZM3403.77 52.8182V61.696H3368.44V52.8182H3403.77ZM3378.74 36.483H3389.21V101.469C3389.21 104.428 3389.64 106.647 3390.5 108.127C3391.39 109.577 3392.51 110.554 3393.87 111.057C3395.26 111.53 3396.73 111.767 3398.27 111.767C3399.42 111.767 3400.37 111.708 3401.11 111.589C3401.85 111.442 3402.44 111.323 3402.88 111.234L3405.02 120.645C3404.31 120.911 3403.31 121.178 3402.04 121.444C3400.77 121.74 3399.16 121.888 3397.2 121.888C3394.24 121.888 3391.34 121.252 3388.5 119.979C3385.69 118.707 3383.35 116.768 3381.49 114.164C3379.65 111.56 3378.74 108.275 3378.74 104.31V36.483ZM2794.64 273.42C2788.49 273.42 2783.09 271.956 2778.44 269.026C2773.82 266.096 2770.21 261.998 2767.61 256.73C2765.03 251.463 2763.75 245.307 2763.75 238.264C2763.75 231.162 2765.03 224.962 2767.61 219.665C2770.21 214.368 2773.82 210.255 2778.44 207.325C2783.09 204.395 2788.49 202.93 2794.64 202.93C2800.8 202.93 2806.18 204.395 2810.8 207.325C2815.45 210.255 2819.06 214.368 2821.63 219.665C2824.23 224.962 2825.54 231.162 2825.54 238.264C2825.54 245.307 2824.23 251.463 2821.63 256.73C2819.06 261.998 2815.45 266.096 2810.8 269.026C2806.18 271.956 2800.8 273.42 2794.64 273.42ZM2794.64 264.01C2799.32 264.01 2803.16 262.811 2806.18 260.414C2809.2 258.017 2811.44 254.866 2812.89 250.96C2814.34 247.053 2815.06 242.821 2815.06 238.264C2815.06 233.707 2814.34 229.46 2812.89 225.525C2811.44 221.589 2809.2 218.407 2806.18 215.981C2803.16 213.554 2799.32 212.341 2794.64 212.341C2789.97 212.341 2786.12 213.554 2783.1 215.981C2780.08 218.407 2777.85 221.589 2776.4 225.525C2774.95 229.46 2774.22 233.707 2774.22 238.264C2774.22 242.821 2774.95 247.053 2776.4 250.96C2777.85 254.866 2780.08 258.017 2783.1 260.414C2786.12 262.811 2789.97 264.01 2794.64 264.01ZM2852 230.984V272H2841.53V203.818H2851.65V214.472H2852.54C2854.13 211.009 2856.56 208.228 2859.82 206.126C2863.07 203.996 2867.27 202.93 2872.42 202.93C2877.04 202.93 2881.08 203.877 2884.54 205.771C2888 207.636 2890.7 210.477 2892.62 214.294C2894.54 218.082 2895.51 222.876 2895.51 228.676V272H2885.03V229.386C2885.03 224.03 2883.64 219.857 2880.86 216.869C2878.08 213.85 2874.26 212.341 2869.4 212.341C2866.06 212.341 2863.07 213.066 2860.44 214.516C2857.83 215.966 2855.78 218.082 2854.27 220.864C2852.76 223.645 2852 227.019 2852 230.984ZM2975.55 273.42C2969.87 273.42 2964.85 271.985 2960.5 269.115C2956.15 266.215 2952.75 262.131 2950.29 256.863C2947.84 251.566 2946.61 245.307 2946.61 238.087C2946.61 230.925 2947.84 224.711 2950.29 219.443C2952.75 214.176 2956.17 210.107 2960.55 207.236C2964.93 204.366 2969.99 202.93 2975.73 202.93C2980.17 202.93 2983.67 203.67 2986.25 205.15C2988.85 206.6 2990.83 208.257 2992.2 210.121C2993.59 211.956 2994.67 213.465 2995.44 214.649H2996.32V181.091H3006.8V272H2996.68V261.524H2995.44C2994.67 262.767 2993.57 264.335 2992.15 266.229C2990.73 268.094 2988.7 269.766 2986.07 271.245C2983.44 272.695 2979.93 273.42 2975.55 273.42ZM2976.97 264.01C2981.17 264.01 2984.72 262.915 2987.62 260.725C2990.52 258.506 2992.73 255.443 2994.24 251.537C2995.75 247.601 2996.5 243.058 2996.5 237.909C2996.5 232.819 2995.76 228.365 2994.28 224.548C2992.8 220.701 2990.61 217.712 2987.71 215.581C2984.81 213.421 2981.23 212.341 2976.97 212.341C2972.53 212.341 2968.83 213.48 2965.87 215.759C2962.94 218.008 2960.74 221.071 2959.26 224.947C2957.81 228.795 2957.08 233.115 2957.08 237.909C2957.08 242.762 2957.82 247.172 2959.3 251.137C2960.81 255.073 2963.03 258.21 2965.96 260.548C2968.92 262.856 2972.59 264.01 2976.97 264.01ZM3056.03 273.42C3049.46 273.42 3043.79 271.97 3039.03 269.07C3034.29 266.141 3030.64 262.057 3028.06 256.819C3025.52 251.551 3024.25 245.426 3024.25 238.442C3024.25 231.458 3025.52 225.303 3028.06 219.976C3030.64 214.62 3034.22 210.447 3038.8 207.458C3043.42 204.44 3048.81 202.93 3054.96 202.93C3058.51 202.93 3062.02 203.522 3065.48 204.706C3068.95 205.89 3072.1 207.813 3074.94 210.477C3077.78 213.11 3080.04 216.602 3081.73 220.952C3083.42 225.303 3084.26 230.659 3084.26 237.021V241.46H3031.7V232.405H3073.61C3073.61 228.558 3072.84 225.125 3071.3 222.107C3069.79 219.088 3067.63 216.706 3064.82 214.96C3062.04 213.214 3058.75 212.341 3054.96 212.341C3050.79 212.341 3047.18 213.377 3044.13 215.448C3041.11 217.49 3038.79 220.153 3037.16 223.438C3035.53 226.723 3034.72 230.245 3034.72 234.003V240.04C3034.72 245.189 3035.61 249.554 3037.38 253.135C3039.19 256.686 3041.69 259.393 3044.89 261.258C3048.08 263.093 3051.8 264.01 3056.03 264.01C3058.78 264.01 3061.27 263.625 3063.49 262.856C3065.73 262.057 3067.67 260.873 3069.3 259.305C3070.93 257.707 3072.19 255.724 3073.07 253.357L3083.19 256.197C3082.13 259.63 3080.34 262.649 3077.82 265.253C3075.31 267.827 3072.2 269.84 3068.5 271.29C3064.8 272.71 3060.64 273.42 3056.03 273.42ZM3153.87 203.818L3128.66 272H3118.01L3092.79 203.818H3104.16L3122.98 258.151H3123.69L3142.51 203.818H3153.87ZM3204.28 272V181.091H3214.75V214.649H3215.64C3216.41 213.465 3217.47 211.956 3218.84 210.121C3220.23 208.257 3222.21 206.6 3224.78 205.15C3227.39 203.67 3230.91 202.93 3235.35 202.93C3241.09 202.93 3246.15 204.366 3250.53 207.236C3254.91 210.107 3258.33 214.176 3260.78 219.443C3263.24 224.711 3264.47 230.925 3264.47 238.087C3264.47 245.307 3263.24 251.566 3260.78 256.863C3258.33 262.131 3254.92 266.215 3250.57 269.115C3246.22 271.985 3241.21 273.42 3235.53 273.42C3231.15 273.42 3227.64 272.695 3225.01 271.245C3222.37 269.766 3220.35 268.094 3218.93 266.229C3217.5 264.335 3216.41 262.767 3215.64 261.524H3214.4V272H3204.28ZM3214.57 237.909C3214.57 243.058 3215.33 247.601 3216.84 251.537C3218.35 255.443 3220.55 258.506 3223.45 260.725C3226.35 262.915 3229.9 264.01 3234.11 264.01C3238.49 264.01 3242.14 262.856 3245.07 260.548C3248.03 258.21 3250.25 255.073 3251.73 251.137C3253.24 247.172 3253.99 242.762 3253.99 237.909C3253.99 233.115 3253.25 228.795 3251.77 224.947C3250.32 221.071 3248.12 218.008 3245.16 215.759C3242.23 213.48 3238.55 212.341 3234.11 212.341C3229.84 212.341 3226.26 213.421 3223.36 215.581C3220.46 217.712 3218.27 220.701 3216.79 224.548C3215.31 228.365 3214.57 232.819 3214.57 237.909ZM3280.49 272V203.818H3290.61V214.116H3291.32C3292.57 210.743 3294.82 208.006 3298.07 205.904C3301.33 203.803 3305 202.753 3309.08 202.753C3309.85 202.753 3310.81 202.768 3311.96 202.797C3313.12 202.827 3313.99 202.871 3314.58 202.93V213.584C3314.23 213.495 3313.41 213.362 3312.14 213.184C3310.9 212.977 3309.58 212.874 3308.19 212.874C3304.88 212.874 3301.92 213.569 3299.31 214.96C3296.74 216.321 3294.7 218.215 3293.19 220.642C3291.71 223.039 3290.97 225.776 3290.97 228.854V272H3280.49ZM3347.07 273.598C3342.75 273.598 3338.82 272.784 3335.3 271.157C3331.78 269.499 3328.98 267.117 3326.91 264.01C3324.84 260.873 3323.81 257.085 3323.81 252.646C3323.81 248.74 3324.58 245.574 3326.11 243.147C3327.65 240.691 3329.71 238.767 3332.28 237.376C3334.86 235.986 3337.7 234.95 3340.81 234.269C3343.94 233.559 3347.1 232.997 3350.26 232.582C3354.4 232.05 3357.76 231.65 3360.34 231.384C3362.94 231.088 3364.84 230.6 3366.02 229.919C3367.23 229.238 3367.84 228.055 3367.84 226.368V226.013C3367.84 221.633 3366.64 218.23 3364.24 215.803C3361.88 213.377 3358.28 212.163 3353.46 212.163C3348.46 212.163 3344.54 213.258 3341.69 215.448C3338.85 217.638 3336.86 219.976 3335.7 222.462L3325.76 218.911C3327.53 214.768 3329.9 211.542 3332.86 209.234C3335.85 206.896 3339.11 205.268 3342.63 204.351C3346.18 203.404 3349.67 202.93 3353.1 202.93C3355.29 202.93 3357.81 203.197 3360.65 203.729C3363.52 204.232 3366.29 205.283 3368.95 206.881C3371.64 208.479 3373.88 210.891 3375.65 214.116C3377.43 217.342 3378.32 221.663 3378.32 227.078V272H3367.84V262.767H3367.31C3366.6 264.247 3365.41 265.83 3363.76 267.517C3362.1 269.203 3359.89 270.639 3357.14 271.822C3354.39 273.006 3351.03 273.598 3347.07 273.598ZM3348.66 264.188C3352.81 264.188 3356.3 263.374 3359.14 261.746C3362.01 260.118 3364.17 258.017 3365.62 255.443C3367.1 252.868 3367.84 250.161 3367.84 247.32V237.732C3367.4 238.264 3366.42 238.752 3364.91 239.196C3363.43 239.611 3361.71 239.981 3359.76 240.306C3357.84 240.602 3355.96 240.868 3354.12 241.105C3352.32 241.312 3350.85 241.49 3349.73 241.638C3347.01 241.993 3344.46 242.57 3342.09 243.369C3339.76 244.138 3337.86 245.307 3336.41 246.876C3334.99 248.415 3334.28 250.516 3334.28 253.179C3334.28 256.819 3335.63 259.571 3338.32 261.435C3341.04 263.27 3344.49 264.188 3348.66 264.188ZM3407.91 230.984V272H3397.44V203.818H3407.56V214.472H3408.44C3410.04 211.009 3412.47 208.228 3415.72 206.126C3418.98 203.996 3423.18 202.93 3428.33 202.93C3432.95 202.93 3436.99 203.877 3440.45 205.771C3443.91 207.636 3446.6 210.477 3448.53 214.294C3450.45 218.082 3451.41 222.876 3451.41 228.676V272H3440.94V229.386C3440.94 224.03 3439.55 219.857 3436.77 216.869C3433.98 213.85 3430.17 212.341 3425.31 212.341C3421.97 212.341 3418.98 213.066 3416.35 214.516C3413.74 215.966 3411.69 218.082 3410.18 220.864C3408.67 223.645 3407.91 227.019 3407.91 230.984ZM3498.26 273.42C3491.86 273.42 3486.36 271.911 3481.74 268.893C3477.13 265.874 3473.57 261.717 3471.09 256.419C3468.6 251.122 3467.36 245.071 3467.36 238.264C3467.36 231.339 3468.63 225.229 3471.18 219.931C3473.75 214.605 3477.33 210.447 3481.92 207.458C3486.54 204.44 3491.92 202.93 3498.08 202.93C3502.87 202.93 3507.19 203.818 3511.04 205.594C3514.89 207.369 3518.04 209.855 3520.49 213.051C3522.95 216.247 3524.47 219.976 3525.07 224.237H3514.59C3513.79 221.13 3512.02 218.378 3509.26 215.981C3506.54 213.554 3502.87 212.341 3498.26 212.341C3494.17 212.341 3490.59 213.406 3487.51 215.537C3484.46 217.638 3482.08 220.612 3480.37 224.459C3478.68 228.277 3477.84 232.76 3477.84 237.909C3477.84 243.177 3478.66 247.763 3480.32 251.67C3482.01 255.576 3484.38 258.609 3487.42 260.77C3490.5 262.93 3494.11 264.01 3498.26 264.01C3500.98 264.01 3503.45 263.536 3505.67 262.589C3507.89 261.643 3509.77 260.281 3511.31 258.506C3512.84 256.73 3513.94 254.599 3514.59 252.114H3525.07C3524.47 256.138 3523.01 259.763 3520.67 262.989C3518.36 266.185 3515.3 268.73 3511.48 270.624C3507.7 272.488 3503.29 273.42 3498.26 273.42ZM3550.86 230.984V272H3540.38V181.091H3550.86V214.472H3551.74C3553.34 210.95 3555.74 208.154 3558.94 206.082C3562.16 203.981 3566.45 202.93 3571.81 202.93C3576.45 202.93 3580.52 203.863 3584.02 205.727C3587.51 207.562 3590.21 210.388 3592.14 214.205C3594.09 217.993 3595.07 222.817 3595.07 228.676V272H3584.59V229.386C3584.59 223.971 3583.19 219.783 3580.38 216.824C3577.59 213.835 3573.73 212.341 3568.79 212.341C3565.36 212.341 3562.28 213.066 3559.56 214.516C3556.86 215.966 3554.73 218.082 3553.16 220.864C3551.63 223.645 3550.86 227.019 3550.86 230.984Z" fill="#6CABDD"/>
<path d="M3146.7 555.303C3149.63 558.232 3154.37 558.232 3157.3 555.303L3205.03 507.574C3207.96 504.645 3207.96 499.896 3205.03 496.967C3202.1 494.038 3197.36 494.038 3194.43 496.967L3152 539.393L3109.57 496.967C3106.64 494.038 3101.9 494.038 3098.97 496.967C3096.04 499.896 3096.04 504.645 3098.97 507.574L3146.7 555.303ZM3144.5 331V550H3159.5V331H3144.5Z" fill="#6CABDD"/>
<path d="M2126.59 1194.48C2130.51 1193.12 2132.57 1188.85 2131.21 1184.93L2109.04 1121.18C2107.68 1117.27 2103.41 1115.2 2099.49 1116.56C2095.58 1117.92 2093.51 1122.19 2094.87 1126.11L2114.58 1182.78L2057.91 1202.49C2054 1203.85 2051.93 1208.12 2053.29 1212.03C2054.65 1215.95 2058.93 1218.01 2062.84 1216.65L2126.59 1194.48ZM1923.73 1098.75L2120.86 1194.15L2127.4 1180.65L1930.27 1085.25L1923.73 1098.75Z" fill="#ADADAD"/>
<path d="M4460.33 956.42C4454.65 956.42 4449.64 954.985 4445.29 952.115C4440.94 949.215 4437.53 945.131 4435.08 939.863C4432.62 934.566 4431.39 928.307 4431.39 921.087C4431.39 913.925 4432.62 907.711 4435.08 902.443C4437.53 897.176 4440.95 893.107 4445.33 890.236C4449.71 887.366 4454.77 885.93 4460.51 885.93C4464.95 885.93 4468.46 886.67 4471.03 888.15C4473.64 889.6 4475.62 891.257 4476.98 893.121C4478.37 894.956 4479.45 896.465 4480.22 897.649H4481.11V864.091H4491.58V955H4481.46V944.524H4480.22C4479.45 945.767 4478.36 947.335 4476.94 949.229C4475.51 951.094 4473.49 952.766 4470.85 954.245C4468.22 955.695 4464.71 956.42 4460.33 956.42ZM4461.75 947.01C4465.96 947.01 4469.51 945.915 4472.41 943.725C4475.31 941.506 4477.51 938.443 4479.02 934.537C4480.53 930.601 4481.29 926.058 4481.29 920.909C4481.29 915.819 4480.55 911.365 4479.07 907.548C4477.59 903.701 4475.4 900.712 4472.5 898.581C4469.6 896.421 4466.02 895.341 4461.75 895.341C4457.32 895.341 4453.62 896.48 4450.66 898.759C4447.73 901.008 4445.52 904.071 4444.04 907.947C4442.59 911.795 4441.87 916.115 4441.87 920.909C4441.87 925.762 4442.61 930.172 4444.09 934.137C4445.6 938.073 4447.82 941.21 4450.75 943.548C4453.71 945.856 4457.37 947.01 4461.75 947.01ZM4540.81 956.42C4534.24 956.42 4528.57 954.97 4523.81 952.07C4519.08 949.141 4515.42 945.057 4512.85 939.819C4510.3 934.551 4509.03 928.426 4509.03 921.442C4509.03 914.458 4510.3 908.303 4512.85 902.976C4515.42 897.62 4519 893.447 4523.59 890.458C4528.2 887.44 4533.59 885.93 4539.75 885.93C4543.3 885.93 4546.8 886.522 4550.27 887.706C4553.73 888.89 4556.88 890.813 4559.72 893.477C4562.56 896.11 4564.83 899.602 4566.51 903.952C4568.2 908.303 4569.04 913.659 4569.04 920.021V924.46H4516.49V915.405H4558.39C4558.39 911.558 4557.62 908.125 4556.08 905.107C4554.57 902.088 4552.41 899.706 4549.6 897.96C4546.82 896.214 4543.53 895.341 4539.75 895.341C4535.57 895.341 4531.96 896.377 4528.92 898.448C4525.9 900.49 4523.57 903.153 4521.95 906.438C4520.32 909.723 4519.5 913.245 4519.5 917.003V923.04C4519.5 928.189 4520.39 932.554 4522.17 936.135C4523.97 939.686 4526.47 942.393 4529.67 944.258C4532.87 946.093 4536.58 947.01 4540.81 947.01C4543.56 947.01 4546.05 946.625 4548.27 945.856C4550.52 945.057 4552.46 943.873 4554.08 942.305C4555.71 940.707 4556.97 938.724 4557.86 936.357L4567.98 939.197C4566.91 942.63 4565.12 945.649 4562.61 948.253C4560.09 950.827 4556.98 952.84 4553.28 954.29C4549.59 955.71 4545.43 956.42 4540.81 956.42ZM4638.66 886.818L4613.44 955H4602.79L4577.58 886.818H4588.94L4607.76 941.151H4608.47L4627.29 886.818H4638.66ZM4689.06 955V864.091H4699.54V897.649H4700.42C4701.19 896.465 4702.26 894.956 4703.62 893.121C4705.01 891.257 4706.99 889.6 4709.57 888.15C4712.17 886.67 4715.69 885.93 4720.13 885.93C4725.87 885.93 4730.93 887.366 4735.31 890.236C4739.69 893.107 4743.11 897.176 4745.57 902.443C4748.02 907.711 4749.25 913.925 4749.25 921.087C4749.25 928.307 4748.02 934.566 4745.57 939.863C4743.11 945.131 4739.71 949.215 4735.36 952.115C4731.01 954.985 4725.99 956.42 4720.31 956.42C4715.93 956.42 4712.42 955.695 4709.79 954.245C4707.16 952.766 4705.13 951.094 4703.71 949.229C4702.29 947.335 4701.19 945.767 4700.42 944.524H4699.18V955H4689.06ZM4699.36 920.909C4699.36 926.058 4700.11 930.601 4701.62 934.537C4703.13 938.443 4705.34 941.506 4708.24 943.725C4711.14 945.915 4714.69 947.01 4718.89 947.01C4723.27 947.01 4726.92 945.856 4729.85 943.548C4732.81 941.21 4735.03 938.073 4736.51 934.137C4738.02 930.172 4738.78 925.762 4738.78 920.909C4738.78 916.115 4738.04 911.795 4736.56 907.947C4735.11 904.071 4732.9 901.008 4729.94 898.759C4727.01 896.48 4723.33 895.341 4718.89 895.341C4714.63 895.341 4711.05 896.421 4708.15 898.581C4705.25 900.712 4703.06 903.701 4701.58 907.548C4700.1 911.365 4699.36 915.819 4699.36 920.909ZM4765.28 955V886.818H4775.4V897.116H4776.11C4777.35 893.743 4779.6 891.006 4782.85 888.904C4786.11 886.803 4789.78 885.753 4793.86 885.753C4794.63 885.753 4795.59 885.768 4796.75 885.797C4797.9 885.827 4798.78 885.871 4799.37 885.93V896.584C4799.01 896.495 4798.2 896.362 4796.93 896.184C4795.68 895.977 4794.37 895.874 4792.98 895.874C4789.66 895.874 4786.7 896.569 4784.1 897.96C4781.52 899.321 4779.48 901.215 4777.97 903.642C4776.49 906.039 4775.75 908.776 4775.75 911.854V955H4765.28ZM4831.85 956.598C4827.53 956.598 4823.61 955.784 4820.09 954.157C4816.56 952.499 4813.77 950.117 4811.7 947.01C4809.63 943.873 4808.59 940.085 4808.59 935.646C4808.59 931.74 4809.36 928.574 4810.9 926.147C4812.44 923.691 4814.49 921.767 4817.07 920.376C4819.64 918.986 4822.48 917.95 4825.59 917.269C4828.73 916.559 4831.88 915.997 4835.05 915.582C4839.19 915.05 4842.55 914.65 4845.12 914.384C4847.73 914.088 4849.62 913.6 4850.8 912.919C4852.02 912.238 4852.62 911.055 4852.62 909.368V909.013C4852.62 904.633 4851.42 901.23 4849.03 898.803C4846.66 896.377 4843.06 895.163 4838.24 895.163C4833.24 895.163 4829.32 896.258 4826.48 898.448C4823.64 900.638 4821.64 902.976 4820.49 905.462L4810.54 901.911C4812.32 897.768 4814.69 894.542 4817.64 892.234C4820.63 889.896 4823.89 888.268 4827.41 887.351C4830.96 886.404 4834.45 885.93 4837.89 885.93C4840.08 885.93 4842.59 886.197 4845.43 886.729C4848.3 887.232 4851.07 888.283 4853.73 889.881C4856.43 891.479 4858.66 893.891 4860.44 897.116C4862.21 900.342 4863.1 904.663 4863.1 910.078V955H4852.62V945.767H4852.09C4851.38 947.247 4850.2 948.83 4848.54 950.517C4846.88 952.203 4844.68 953.639 4841.93 954.822C4839.17 956.006 4835.81 956.598 4831.85 956.598ZM4833.45 947.188C4837.59 947.188 4841.08 946.374 4843.92 944.746C4846.79 943.118 4848.95 941.017 4850.4 938.443C4851.88 935.868 4852.62 933.161 4852.62 930.32V920.732C4852.18 921.264 4851.2 921.752 4849.69 922.196C4848.21 922.611 4846.5 922.981 4844.54 923.306C4842.62 923.602 4840.74 923.868 4838.91 924.105C4837.1 924.312 4835.64 924.49 4834.51 924.638C4831.79 924.993 4829.25 925.57 4826.88 926.369C4824.54 927.138 4822.65 928.307 4821.2 929.876C4819.78 931.415 4819.07 933.516 4819.07 936.179C4819.07 939.819 4820.41 942.571 4823.1 944.435C4825.83 946.27 4829.27 947.188 4833.45 947.188ZM4892.7 913.984V955H4882.22V886.818H4892.34V897.472H4893.23C4894.83 894.009 4897.25 891.228 4900.51 889.126C4903.76 886.996 4907.97 885.93 4913.11 885.93C4917.73 885.93 4921.77 886.877 4925.23 888.771C4928.7 890.636 4931.39 893.477 4933.31 897.294C4935.24 901.082 4936.2 905.876 4936.2 911.676V955H4925.72V912.386C4925.72 907.03 4924.33 902.857 4921.55 899.869C4918.77 896.85 4914.95 895.341 4910.1 895.341C4906.75 895.341 4903.76 896.066 4901.13 897.516C4898.53 898.966 4896.47 901.082 4894.96 903.864C4893.45 906.645 4892.7 910.019 4892.7 913.984ZM4983.04 956.42C4976.65 956.42 4971.14 954.911 4966.53 951.893C4961.91 948.874 4958.36 944.717 4955.87 939.419C4953.39 934.122 4952.14 928.071 4952.14 921.264C4952.14 914.339 4953.42 908.229 4955.96 902.931C4958.54 897.605 4962.12 893.447 4966.7 890.458C4971.32 887.44 4976.71 885.93 4982.86 885.93C4987.66 885.93 4991.98 886.818 4995.82 888.594C4999.67 890.369 5002.82 892.855 5005.28 896.051C5007.73 899.247 5009.26 902.976 5009.85 907.237H4999.37C4998.58 904.13 4996.8 901.378 4994.05 898.981C4991.32 896.554 4987.66 895.341 4983.04 895.341C4978.96 895.341 4975.37 896.406 4972.3 898.537C4969.25 900.638 4966.87 903.612 4965.15 907.459C4963.46 911.277 4962.62 915.76 4962.62 920.909C4962.62 926.177 4963.45 930.763 4965.11 934.67C4966.79 938.576 4969.16 941.609 4972.21 943.77C4975.29 945.93 4978.9 947.01 4983.04 947.01C4985.76 947.01 4988.23 946.536 4990.45 945.589C4992.67 944.643 4994.55 943.281 4996.09 941.506C4997.63 939.73 4998.72 937.599 4999.37 935.114H5009.85C5009.26 939.138 5007.79 942.763 5005.46 945.989C5003.15 949.185 5000.08 951.73 4996.27 953.624C4992.48 955.488 4988.07 956.42 4983.04 956.42ZM5035.64 913.984V955H5025.16V864.091H5035.64V897.472H5036.53C5038.13 893.95 5040.52 891.154 5043.72 889.082C5046.94 886.981 5051.24 885.93 5056.59 885.93C5061.24 885.93 5065.31 886.863 5068.8 888.727C5072.29 890.562 5075 893.388 5076.92 897.205C5078.88 900.993 5079.85 905.817 5079.85 911.676V955H5069.38V912.386C5069.38 906.971 5067.97 902.783 5065.16 899.824C5062.38 896.835 5058.52 895.341 5053.57 895.341C5050.14 895.341 5047.06 896.066 5044.34 897.516C5041.65 898.966 5039.52 901.082 5037.95 903.864C5036.41 906.645 5035.64 910.019 5035.64 913.984ZM4434.59 1106V1037.82H4444.71V1048.47H4445.6C4447.02 1044.83 4449.31 1042.01 4452.48 1039.99C4455.64 1037.95 4459.45 1036.93 4463.88 1036.93C4468.38 1036.93 4472.13 1037.95 4475.12 1039.99C4478.13 1042.01 4480.49 1044.83 4482.17 1048.47H4482.88C4484.63 1044.95 4487.25 1042.15 4490.74 1040.08C4494.23 1037.98 4498.42 1036.93 4503.3 1036.93C4509.4 1036.93 4514.39 1038.84 4518.26 1042.66C4522.14 1046.44 4524.08 1052.35 4524.08 1060.37V1106H4513.6V1060.37C4513.6 1055.34 4512.22 1051.74 4509.47 1049.58C4506.72 1047.42 4503.48 1046.34 4499.75 1046.34C4494.96 1046.34 4491.24 1047.79 4488.61 1050.69C4485.98 1053.56 4484.66 1057.2 4484.66 1061.61V1106H4474.01V1059.3C4474.01 1055.43 4472.75 1052.3 4470.23 1049.94C4467.72 1047.54 4464.48 1046.34 4460.51 1046.34C4457.79 1046.34 4455.24 1047.07 4452.88 1048.52C4450.54 1049.97 4448.64 1051.98 4447.19 1054.55C4445.77 1057.1 4445.06 1060.04 4445.06 1063.39V1106H4434.59ZM4571.82 1107.42C4565.25 1107.42 4559.58 1105.97 4554.82 1103.07C4550.08 1100.14 4546.43 1096.06 4543.85 1090.82C4541.31 1085.55 4540.03 1079.43 4540.03 1072.44C4540.03 1065.46 4541.31 1059.3 4543.85 1053.98C4546.43 1048.62 4550.01 1044.45 4554.59 1041.46C4559.21 1038.44 4564.6 1036.93 4570.75 1036.93C4574.3 1036.93 4577.81 1037.52 4581.27 1038.71C4584.73 1039.89 4587.89 1041.81 4590.73 1044.48C4593.57 1047.11 4595.83 1050.6 4597.52 1054.95C4599.21 1059.3 4600.05 1064.66 4600.05 1071.02V1075.46H4547.49V1066.4H4589.4C4589.4 1062.56 4588.63 1059.12 4587.09 1056.11C4585.58 1053.09 4583.42 1050.71 4580.61 1048.96C4577.82 1047.21 4574.54 1046.34 4570.75 1046.34C4566.58 1046.34 4562.97 1047.38 4559.92 1049.45C4556.9 1051.49 4554.58 1054.15 4552.95 1057.44C4551.32 1060.72 4550.51 1064.24 4550.51 1068V1074.04C4550.51 1079.19 4551.4 1083.55 4553.17 1087.13C4554.98 1090.69 4557.48 1093.39 4560.68 1095.26C4563.87 1097.09 4567.59 1098.01 4571.82 1098.01C4574.57 1098.01 4577.06 1097.63 4579.27 1096.86C4581.52 1096.06 4583.46 1094.87 4585.09 1093.3C4586.72 1091.71 4587.97 1089.72 4588.86 1087.36L4598.98 1090.2C4597.92 1093.63 4596.13 1096.65 4593.61 1099.25C4591.1 1101.83 4587.99 1103.84 4584.29 1105.29C4580.59 1106.71 4576.43 1107.42 4571.82 1107.42ZM4615.98 1106V1037.82H4626.11V1048.12H4626.82C4628.06 1044.74 4630.31 1042.01 4633.56 1039.9C4636.82 1037.8 4640.49 1036.75 4644.57 1036.75C4645.34 1036.75 4646.3 1036.77 4647.46 1036.8C4648.61 1036.83 4649.48 1036.87 4650.08 1036.93V1047.58C4649.72 1047.5 4648.91 1047.36 4647.63 1047.18C4646.39 1046.98 4645.07 1046.87 4643.68 1046.87C4640.37 1046.87 4637.41 1047.57 4634.81 1048.96C4632.23 1050.32 4630.19 1052.22 4628.68 1054.64C4627.2 1057.04 4626.46 1059.78 4626.46 1062.85V1106H4615.98ZM4687.94 1132.99C4682.88 1132.99 4678.53 1132.34 4674.89 1131.04C4671.25 1129.76 4668.22 1128.08 4665.79 1125.98C4663.39 1123.9 4661.48 1121.68 4660.06 1119.32L4668.41 1113.46C4669.36 1114.7 4670.55 1116.12 4672 1117.72C4673.45 1119.35 4675.44 1120.75 4677.95 1121.94C4680.5 1123.15 4683.83 1123.76 4687.94 1123.76C4693.44 1123.76 4697.99 1122.42 4701.57 1119.76C4705.15 1117.1 4706.94 1112.92 4706.94 1107.24V1093.39H4706.05C4705.28 1094.64 4704.19 1096.18 4702.77 1098.01C4701.37 1099.82 4699.36 1101.43 4696.73 1102.85C4694.12 1104.24 4690.6 1104.93 4686.16 1104.93C4680.66 1104.93 4675.72 1103.63 4671.34 1101.03C4666.99 1098.42 4663.54 1094.64 4661 1089.66C4658.48 1084.69 4657.22 1078.66 4657.22 1071.55C4657.22 1064.57 4658.45 1058.49 4660.91 1053.31C4663.36 1048.1 4666.78 1044.08 4671.16 1041.24C4675.54 1038.37 4680.6 1036.93 4686.34 1036.93C4690.78 1036.93 4694.3 1037.67 4696.91 1039.15C4699.54 1040.6 4701.55 1042.26 4702.94 1044.12C4704.36 1045.96 4705.46 1047.47 4706.23 1048.65H4707.29V1037.82H4717.41V1107.95C4717.41 1113.81 4716.08 1118.58 4713.42 1122.25C4710.79 1125.95 4707.23 1128.65 4702.77 1130.37C4698.33 1132.12 4693.38 1132.99 4687.94 1132.99ZM4687.58 1095.52C4691.79 1095.52 4695.34 1094.56 4698.24 1092.64C4701.14 1090.72 4703.34 1087.95 4704.85 1084.34C4706.36 1080.73 4707.12 1076.41 4707.12 1071.38C4707.12 1066.46 4706.38 1062.13 4704.9 1058.37C4703.42 1054.61 4701.23 1051.67 4698.33 1049.54C4695.43 1047.41 4691.85 1046.34 4687.58 1046.34C4683.15 1046.34 4679.45 1047.47 4676.49 1049.71C4673.56 1051.96 4671.35 1054.98 4669.87 1058.77C4668.42 1062.56 4667.7 1066.76 4667.7 1071.38C4667.7 1076.11 4668.44 1080.3 4669.92 1083.94C4671.43 1087.55 4673.65 1090.39 4676.58 1092.46C4679.54 1094.5 4683.2 1095.52 4687.58 1095.52ZM4765.18 1107.42C4758.61 1107.42 4752.94 1105.97 4748.18 1103.07C4743.44 1100.14 4739.79 1096.06 4737.21 1090.82C4734.67 1085.55 4733.39 1079.43 4733.39 1072.44C4733.39 1065.46 4734.67 1059.3 4737.21 1053.98C4739.79 1048.62 4743.37 1044.45 4747.95 1041.46C4752.57 1038.44 4757.96 1036.93 4764.11 1036.93C4767.66 1036.93 4771.17 1037.52 4774.63 1038.71C4778.09 1039.89 4781.25 1041.81 4784.09 1044.48C4786.93 1047.11 4789.19 1050.6 4790.88 1054.95C4792.56 1059.3 4793.41 1064.66 4793.41 1071.02V1075.46H4740.85V1066.4H4782.75C4782.75 1062.56 4781.99 1059.12 4780.45 1056.11C4778.94 1053.09 4776.78 1050.71 4773.97 1048.96C4771.18 1047.21 4767.9 1046.34 4764.11 1046.34C4759.94 1046.34 4756.33 1047.38 4753.28 1049.45C4750.26 1051.49 4747.94 1054.15 4746.31 1057.44C4744.68 1060.72 4743.87 1064.24 4743.87 1068V1074.04C4743.87 1079.19 4744.76 1083.55 4746.53 1087.13C4748.34 1090.69 4750.84 1093.39 4754.03 1095.26C4757.23 1097.09 4760.94 1098.01 4765.18 1098.01C4767.93 1098.01 4770.41 1097.63 4772.63 1096.86C4774.88 1096.06 4776.82 1094.87 4778.45 1093.3C4780.08 1091.71 4781.33 1089.72 4782.22 1087.36L4792.34 1090.2C4791.28 1093.63 4789.49 1096.65 4786.97 1099.25C4784.46 1101.83 4781.35 1103.84 4777.65 1105.29C4773.95 1106.71 4769.79 1107.42 4765.18 1107.42ZM4835.09 1107.42C4829.41 1107.42 4824.39 1105.99 4820.04 1103.11C4815.69 1100.21 4812.29 1096.13 4809.83 1090.86C4807.38 1085.57 4806.15 1079.31 4806.15 1072.09C4806.15 1064.93 4807.38 1058.71 4809.83 1053.44C4812.29 1048.18 4815.71 1044.11 4820.09 1041.24C4824.47 1038.37 4829.53 1036.93 4835.27 1036.93C4839.71 1036.93 4843.21 1037.67 4845.79 1039.15C4848.39 1040.6 4850.37 1042.26 4851.74 1044.12C4853.13 1045.96 4854.21 1047.47 4854.98 1048.65H4855.86V1015.09H4866.34V1106H4856.22V1095.52H4854.98C4854.21 1096.77 4853.11 1098.34 4851.69 1100.23C4850.27 1102.09 4848.24 1103.77 4845.61 1105.25C4842.98 1106.7 4839.47 1107.42 4835.09 1107.42ZM4836.51 1098.01C4840.71 1098.01 4844.26 1096.92 4847.16 1094.73C4850.06 1092.51 4852.27 1089.44 4853.78 1085.54C4855.29 1081.6 4856.04 1077.06 4856.04 1071.91C4856.04 1066.82 4855.3 1062.37 4853.82 1058.55C4852.34 1054.7 4850.15 1051.71 4847.25 1049.58C4844.35 1047.42 4840.77 1046.34 4836.51 1046.34C4832.07 1046.34 4828.37 1047.48 4825.41 1049.76C4822.48 1052.01 4820.28 1055.07 4818.8 1058.95C4817.35 1062.79 4816.62 1067.12 4816.62 1071.91C4816.62 1076.76 4817.36 1081.17 4818.84 1085.14C4820.35 1089.07 4822.57 1092.21 4825.5 1094.55C4828.46 1096.86 4832.13 1098.01 4836.51 1098.01ZM4923.56 1106V1015.09H4934.03V1048.65H4934.92C4935.69 1047.47 4936.76 1045.96 4938.12 1044.12C4939.51 1042.26 4941.49 1040.6 4944.07 1039.15C4946.67 1037.67 4950.19 1036.93 4954.63 1036.93C4960.37 1036.93 4965.43 1038.37 4969.81 1041.24C4974.19 1044.11 4977.61 1048.18 4980.06 1053.44C4982.52 1058.71 4983.75 1064.93 4983.75 1072.09C4983.75 1079.31 4982.52 1085.57 4980.06 1090.86C4977.61 1096.13 4974.21 1100.21 4969.86 1103.11C4965.51 1105.99 4960.49 1107.42 4954.81 1107.42C4950.43 1107.42 4946.92 1106.7 4944.29 1105.25C4941.65 1103.77 4939.63 1102.09 4938.21 1100.23C4936.79 1098.34 4935.69 1096.77 4934.92 1095.52H4933.68V1106H4923.56ZM4933.86 1071.91C4933.86 1077.06 4934.61 1081.6 4936.12 1085.54C4937.63 1089.44 4939.83 1092.51 4942.73 1094.73C4945.63 1096.92 4949.18 1098.01 4953.39 1098.01C4957.77 1098.01 4961.42 1096.86 4964.35 1094.55C4967.31 1092.21 4969.53 1089.07 4971.01 1085.14C4972.52 1081.17 4973.27 1076.76 4973.27 1071.91C4973.27 1067.12 4972.53 1062.79 4971.05 1058.95C4969.6 1055.07 4967.4 1052.01 4964.44 1049.76C4961.51 1047.48 4957.83 1046.34 4953.39 1046.34C4949.13 1046.34 4945.54 1047.42 4942.64 1049.58C4939.74 1051.71 4937.55 1054.7 4936.08 1058.55C4934.6 1062.37 4933.86 1066.82 4933.86 1071.91ZM5019.84 1107.6C5015.52 1107.6 5011.6 1106.78 5008.07 1105.16C5004.55 1103.5 5001.76 1101.12 4999.68 1098.01C4997.61 1094.87 4996.58 1091.09 4996.58 1086.65C4996.58 1082.74 4997.35 1079.57 4998.89 1077.15C5000.42 1074.69 5002.48 1072.77 5005.06 1071.38C5007.63 1069.99 5010.47 1068.95 5013.58 1068.27C5016.72 1067.56 5019.87 1067 5023.03 1066.58C5027.18 1066.05 5030.54 1065.65 5033.11 1065.38C5035.71 1065.09 5037.61 1064.6 5038.79 1063.92C5040.01 1063.24 5040.61 1062.05 5040.61 1060.37V1060.01C5040.61 1055.63 5039.41 1052.23 5037.02 1049.8C5034.65 1047.38 5031.05 1046.16 5026.23 1046.16C5021.23 1046.16 5017.31 1047.26 5014.47 1049.45C5011.63 1051.64 5009.63 1053.98 5008.47 1056.46L4998.53 1052.91C5000.31 1048.77 5002.67 1045.54 5005.63 1043.23C5008.62 1040.9 5011.88 1039.27 5015.4 1038.35C5018.95 1037.4 5022.44 1036.93 5025.87 1036.93C5028.06 1036.93 5030.58 1037.2 5033.42 1037.73C5036.29 1038.23 5039.06 1039.28 5041.72 1040.88C5044.41 1042.48 5046.65 1044.89 5048.42 1048.12C5050.2 1051.34 5051.09 1055.66 5051.09 1061.08V1106H5040.61V1096.77H5040.08C5039.37 1098.25 5038.19 1099.83 5036.53 1101.52C5034.87 1103.2 5032.67 1104.64 5029.91 1105.82C5027.16 1107.01 5023.8 1107.6 5019.84 1107.6ZM5021.44 1098.19C5025.58 1098.19 5029.07 1097.37 5031.91 1095.75C5034.78 1094.12 5036.94 1092.02 5038.39 1089.44C5039.87 1086.87 5040.61 1084.16 5040.61 1081.32V1071.73C5040.17 1072.26 5039.19 1072.75 5037.68 1073.2C5036.2 1073.61 5034.49 1073.98 5032.53 1074.31C5030.61 1074.6 5028.73 1074.87 5026.9 1075.11C5025.09 1075.31 5023.63 1075.49 5022.5 1075.64C5019.78 1075.99 5017.23 1076.57 5014.87 1077.37C5012.53 1078.14 5010.63 1079.31 5009.18 1080.88C5007.76 1082.41 5007.05 1084.52 5007.05 1087.18C5007.05 1090.82 5008.4 1093.57 5011.09 1095.44C5013.82 1097.27 5017.26 1098.19 5021.44 1098.19ZM5097.91 1107.42C5091.52 1107.42 5086.01 1105.91 5081.39 1102.89C5076.78 1099.87 5073.23 1095.72 5070.74 1090.42C5068.26 1085.12 5067.01 1079.07 5067.01 1072.26C5067.01 1065.34 5068.28 1059.23 5070.83 1053.93C5073.4 1048.6 5076.98 1044.45 5081.57 1041.46C5086.19 1038.44 5091.57 1036.93 5097.73 1036.93C5102.52 1036.93 5106.84 1037.82 5110.69 1039.59C5114.54 1041.37 5117.69 1043.86 5120.15 1047.05C5122.6 1050.25 5124.13 1053.98 5124.72 1058.24H5114.24C5113.44 1055.13 5111.67 1052.38 5108.92 1049.98C5106.19 1047.55 5102.52 1046.34 5097.91 1046.34C5093.82 1046.34 5090.24 1047.41 5087.16 1049.54C5084.12 1051.64 5081.73 1054.61 5080.02 1058.46C5078.33 1062.28 5077.49 1066.76 5077.49 1071.91C5077.49 1077.18 5078.32 1081.76 5079.97 1085.67C5081.66 1089.58 5084.03 1092.61 5087.08 1094.77C5090.15 1096.93 5093.76 1098.01 5097.91 1098.01C5100.63 1098.01 5103.1 1097.54 5105.32 1096.59C5107.54 1095.64 5109.42 1094.28 5110.96 1092.51C5112.5 1090.73 5113.59 1088.6 5114.24 1086.11H5124.72C5124.13 1090.14 5122.66 1093.76 5120.32 1096.99C5118.02 1100.19 5114.95 1102.73 5111.14 1104.62C5107.35 1106.49 5102.94 1107.42 5097.91 1107.42ZM5149.8 1081.14L5149.62 1068.18H5151.75L5181.58 1037.82H5194.54L5162.76 1069.96H5161.87L5149.8 1081.14ZM5140.03 1106V1015.09H5150.51V1106H5140.03ZM5183.36 1106L5156.72 1072.26L5164.18 1064.98L5196.67 1106H5183.36ZM4434.59 1257V1188.82H4445.06V1257H4434.59ZM4439.91 1177.45C4437.87 1177.45 4436.11 1176.76 4434.63 1175.37C4433.18 1173.98 4432.46 1172.31 4432.46 1170.35C4432.46 1168.4 4433.18 1166.73 4434.63 1165.34C4436.11 1163.95 4437.87 1163.25 4439.91 1163.25C4441.96 1163.25 4443.7 1163.95 4445.15 1165.34C4446.63 1166.73 4447.37 1168.4 4447.37 1170.35C4447.37 1172.31 4446.63 1173.98 4445.15 1175.37C4443.7 1176.76 4441.96 1177.45 4439.91 1177.45ZM4474.73 1215.98V1257H4464.25V1188.82H4474.37V1199.47H4475.26C4476.86 1196.01 4479.28 1193.23 4482.54 1191.13C4485.79 1189 4490 1187.93 4495.15 1187.93C4499.76 1187.93 4503.8 1188.88 4507.26 1190.77C4510.73 1192.64 4513.42 1195.48 4515.34 1199.29C4517.27 1203.08 4518.23 1207.88 4518.23 1213.68V1257H4507.75V1214.39C4507.75 1209.03 4506.36 1204.86 4503.58 1201.87C4500.8 1198.85 4496.98 1197.34 4492.13 1197.34C4488.78 1197.34 4485.79 1198.07 4483.16 1199.52C4480.56 1200.97 4478.5 1203.08 4476.99 1205.86C4475.48 1208.65 4474.73 1212.02 4474.73 1215.98ZM4567.02 1188.82V1197.7H4531.69V1188.82H4567.02ZM4541.99 1172.48H4552.46V1237.47C4552.46 1240.43 4552.89 1242.65 4553.75 1244.13C4554.64 1245.58 4555.76 1246.55 4557.12 1247.06C4558.52 1247.53 4559.98 1247.77 4561.52 1247.77C4562.67 1247.77 4563.62 1247.71 4564.36 1247.59C4565.1 1247.44 4565.69 1247.32 4566.14 1247.23L4568.27 1256.64C4567.56 1256.91 4566.56 1257.18 4565.29 1257.44C4564.02 1257.74 4562.41 1257.89 4560.45 1257.89C4557.49 1257.89 4554.59 1257.25 4551.75 1255.98C4548.94 1254.71 4546.6 1252.77 4544.74 1250.16C4542.91 1247.56 4541.99 1244.28 4541.99 1240.31V1172.48ZM4609.75 1258.42C4603.59 1258.42 4598.19 1256.96 4593.55 1254.03C4588.93 1251.1 4585.32 1247 4582.71 1241.73C4580.14 1236.46 4578.85 1230.31 4578.85 1223.26C4578.85 1216.16 4580.14 1209.96 4582.71 1204.67C4585.32 1199.37 4588.93 1195.25 4593.55 1192.32C4598.19 1189.4 4603.59 1187.93 4609.75 1187.93C4615.9 1187.93 4621.29 1189.4 4625.91 1192.32C4630.55 1195.25 4634.16 1199.37 4636.74 1204.67C4639.34 1209.96 4640.64 1216.16 4640.64 1223.26C4640.64 1230.31 4639.34 1236.46 4636.74 1241.73C4634.16 1247 4630.55 1251.1 4625.91 1254.03C4621.29 1256.96 4615.9 1258.42 4609.75 1258.42ZM4609.75 1249.01C4614.42 1249.01 4618.27 1247.81 4621.29 1245.41C4624.31 1243.02 4626.54 1239.87 4627.99 1235.96C4629.44 1232.05 4630.17 1227.82 4630.17 1223.26C4630.17 1218.71 4629.44 1214.46 4627.99 1210.52C4626.54 1206.59 4624.31 1203.41 4621.29 1200.98C4618.27 1198.55 4614.42 1197.34 4609.75 1197.34C4605.07 1197.34 4601.23 1198.55 4598.21 1200.98C4595.19 1203.41 4592.95 1206.59 4591.5 1210.52C4590.05 1214.46 4589.33 1218.71 4589.33 1223.26C4589.33 1227.82 4590.05 1232.05 4591.5 1235.96C4592.95 1239.87 4595.19 1243.02 4598.21 1245.41C4601.23 1247.81 4605.07 1249.01 4609.75 1249.01ZM4691.79 1257V1188.82H4701.91V1199.47H4702.8C4704.22 1195.83 4706.51 1193.01 4709.68 1190.99C4712.85 1188.95 4716.65 1187.93 4721.09 1187.93C4725.59 1187.93 4729.33 1188.95 4732.32 1190.99C4735.34 1193.01 4737.69 1195.83 4739.38 1199.47H4740.09C4741.83 1195.95 4744.45 1193.15 4747.94 1191.08C4751.43 1188.98 4755.62 1187.93 4760.5 1187.93C4766.6 1187.93 4771.59 1189.84 4775.46 1193.66C4779.34 1197.44 4781.28 1203.35 4781.28 1211.37V1257H4770.8V1211.37C4770.8 1206.34 4769.43 1202.74 4766.67 1200.58C4763.92 1198.42 4760.68 1197.34 4756.95 1197.34C4752.16 1197.34 4748.45 1198.79 4745.81 1201.69C4743.18 1204.56 4741.86 1208.2 4741.86 1212.61V1257H4731.21V1210.3C4731.21 1206.43 4729.95 1203.3 4727.43 1200.94C4724.92 1198.54 4721.68 1197.34 4717.71 1197.34C4714.99 1197.34 4712.45 1198.07 4710.08 1199.52C4707.74 1200.97 4705.85 1202.98 4704.4 1205.55C4702.98 1208.1 4702.27 1211.04 4702.27 1214.39V1257H4691.79ZM4820.5 1258.6C4816.18 1258.6 4812.26 1257.78 4808.73 1256.16C4805.21 1254.5 4802.42 1252.12 4800.34 1249.01C4798.27 1245.87 4797.24 1242.09 4797.24 1237.65C4797.24 1233.74 4798.01 1230.57 4799.55 1228.15C4801.08 1225.69 4803.14 1223.77 4805.72 1222.38C4808.29 1220.99 4811.13 1219.95 4814.24 1219.27C4817.37 1218.56 4820.53 1218 4823.69 1217.58C4827.84 1217.05 4831.19 1216.65 4833.77 1216.38C4836.37 1216.09 4838.27 1215.6 4839.45 1214.92C4840.66 1214.24 4841.27 1213.05 4841.27 1211.37V1211.01C4841.27 1206.63 4840.07 1203.23 4837.68 1200.8C4835.31 1198.38 4831.71 1197.16 4826.89 1197.16C4821.89 1197.16 4817.97 1198.26 4815.13 1200.45C4812.28 1202.64 4810.29 1204.98 4809.13 1207.46L4799.19 1203.91C4800.97 1199.77 4803.33 1196.54 4806.29 1194.23C4809.28 1191.9 4812.54 1190.27 4816.06 1189.35C4819.61 1188.4 4823.1 1187.93 4826.53 1187.93C4828.72 1187.93 4831.24 1188.2 4834.08 1188.73C4836.95 1189.23 4839.72 1190.28 4842.38 1191.88C4845.07 1193.48 4847.31 1195.89 4849.08 1199.12C4850.86 1202.34 4851.75 1206.66 4851.75 1212.08V1257H4841.27V1247.77H4840.74C4840.03 1249.25 4838.84 1250.83 4837.19 1252.52C4835.53 1254.2 4833.33 1255.64 4830.57 1256.82C4827.82 1258.01 4824.46 1258.6 4820.5 1258.6ZM4822.09 1249.19C4826.24 1249.19 4829.73 1248.37 4832.57 1246.75C4835.44 1245.12 4837.6 1243.02 4839.05 1240.44C4840.53 1237.87 4841.27 1235.16 4841.27 1232.32V1222.73C4840.83 1223.26 4839.85 1223.75 4838.34 1224.2C4836.86 1224.61 4835.15 1224.98 4833.19 1225.31C4831.27 1225.6 4829.39 1225.87 4827.55 1226.11C4825.75 1226.31 4824.28 1226.49 4823.16 1226.64C4820.44 1226.99 4817.89 1227.57 4815.53 1228.37C4813.19 1229.14 4811.29 1230.31 4809.84 1231.88C4808.42 1233.41 4807.71 1235.52 4807.71 1238.18C4807.71 1241.82 4809.06 1244.57 4811.75 1246.44C4814.47 1248.27 4817.92 1249.19 4822.09 1249.19ZM4870.87 1257V1188.82H4881.34V1257H4870.87ZM4876.19 1177.45C4874.15 1177.45 4872.39 1176.76 4870.91 1175.37C4869.46 1173.98 4868.74 1172.31 4868.74 1170.35C4868.74 1168.4 4869.46 1166.73 4870.91 1165.34C4872.39 1163.95 4874.15 1163.25 4876.19 1163.25C4878.24 1163.25 4879.98 1163.95 4881.43 1165.34C4882.91 1166.73 4883.65 1168.4 4883.65 1170.35C4883.65 1172.31 4882.91 1173.98 4881.43 1175.37C4879.98 1176.76 4878.24 1177.45 4876.19 1177.45ZM4911.01 1215.98V1257H4900.53V1188.82H4910.65V1199.47H4911.54C4913.14 1196.01 4915.56 1193.23 4918.82 1191.13C4922.07 1189 4926.28 1187.93 4931.43 1187.93C4936.04 1187.93 4940.08 1188.88 4943.54 1190.77C4947.01 1192.64 4949.7 1195.48 4951.62 1199.29C4953.55 1203.08 4954.51 1207.88 4954.51 1213.68V1257H4944.03V1214.39C4944.03 1209.03 4942.64 1204.86 4939.86 1201.87C4937.08 1198.85 4933.26 1197.34 4928.41 1197.34C4925.06 1197.34 4922.07 1198.07 4919.44 1199.52C4916.84 1200.97 4914.78 1203.08 4913.27 1205.86C4911.76 1208.65 4911.01 1212.02 4911.01 1215.98ZM5010.23 1257V1166.09H5020.7V1199.65H5021.59C5022.36 1198.47 5023.43 1196.96 5024.79 1195.12C5026.18 1193.26 5028.16 1191.6 5030.74 1190.15C5033.34 1188.67 5036.86 1187.93 5041.3 1187.93C5047.04 1187.93 5052.1 1189.37 5056.48 1192.24C5060.86 1195.11 5064.28 1199.18 5066.73 1204.44C5069.19 1209.71 5070.42 1215.93 5070.42 1223.09C5070.42 1230.31 5069.19 1236.57 5066.73 1241.86C5064.28 1247.13 5060.88 1251.21 5056.53 1254.11C5052.18 1256.99 5047.16 1258.42 5041.48 1258.42C5037.1 1258.42 5033.59 1257.7 5030.96 1256.25C5028.32 1254.77 5026.3 1253.09 5024.88 1251.23C5023.46 1249.34 5022.36 1247.77 5021.59 1246.52H5020.35V1257H5010.23ZM5020.53 1222.91C5020.53 1228.06 5021.28 1232.6 5022.79 1236.54C5024.3 1240.44 5026.5 1243.51 5029.4 1245.73C5032.3 1247.92 5035.85 1249.01 5040.06 1249.01C5044.44 1249.01 5048.09 1247.86 5051.02 1245.55C5053.98 1243.21 5056.2 1240.07 5057.68 1236.14C5059.19 1232.17 5059.94 1227.76 5059.94 1222.91C5059.94 1218.12 5059.2 1213.79 5057.72 1209.95C5056.27 1206.07 5054.07 1203.01 5051.11 1200.76C5048.18 1198.48 5044.5 1197.34 5040.06 1197.34C5035.8 1197.34 5032.21 1198.42 5029.31 1200.58C5026.41 1202.71 5024.22 1205.7 5022.75 1209.55C5021.27 1213.37 5020.53 1217.82 5020.53 1222.91ZM5086.44 1257V1188.82H5096.56V1199.12H5097.27C5098.52 1195.74 5100.77 1193.01 5104.02 1190.9C5107.28 1188.8 5110.95 1187.75 5115.03 1187.75C5115.8 1187.75 5116.76 1187.77 5117.92 1187.8C5119.07 1187.83 5119.94 1187.87 5120.53 1187.93V1198.58C5120.18 1198.5 5119.37 1198.36 5118.09 1198.18C5116.85 1197.98 5115.53 1197.87 5114.14 1197.87C5110.83 1197.87 5107.87 1198.57 5105.26 1199.96C5102.69 1201.32 5100.65 1203.22 5099.14 1205.64C5097.66 1208.04 5096.92 1210.78 5096.92 1213.85V1257H5086.44ZM5153.02 1258.6C5148.7 1258.6 5144.77 1257.78 5141.25 1256.16C5137.73 1254.5 5134.94 1252.12 5132.86 1249.01C5130.79 1245.87 5129.76 1242.09 5129.76 1237.65C5129.76 1233.74 5130.53 1230.57 5132.06 1228.15C5133.6 1225.69 5135.66 1223.77 5138.23 1222.38C5140.81 1220.99 5143.65 1219.95 5146.76 1219.27C5149.89 1218.56 5153.05 1218 5156.21 1217.58C5160.36 1217.05 5163.71 1216.65 5166.29 1216.38C5168.89 1216.09 5170.79 1215.6 5171.97 1214.92C5173.18 1214.24 5173.79 1213.05 5173.79 1211.37V1211.01C5173.79 1206.63 5172.59 1203.23 5170.19 1200.8C5167.83 1198.38 5164.23 1197.16 5159.41 1197.16C5154.41 1197.16 5150.49 1198.26 5147.65 1200.45C5144.8 1202.64 5142.81 1204.98 5141.65 1207.46L5131.71 1203.91C5133.48 1199.77 5135.85 1196.54 5138.81 1194.23C5141.8 1191.9 5145.06 1190.27 5148.58 1189.35C5152.13 1188.4 5155.62 1187.93 5159.05 1187.93C5161.24 1187.93 5163.76 1188.2 5166.6 1188.73C5169.47 1189.23 5172.24 1190.28 5174.9 1191.88C5177.59 1193.48 5179.83 1195.89 5181.6 1199.12C5183.38 1202.34 5184.27 1206.66 5184.27 1212.08V1257H5173.79V1247.77H5173.26C5172.55 1249.25 5171.36 1250.83 5169.71 1252.52C5168.05 1254.2 5165.84 1255.64 5163.09 1256.82C5160.34 1258.01 5156.98 1258.6 5153.02 1258.6ZM5154.61 1249.19C5158.76 1249.19 5162.25 1248.37 5165.09 1246.75C5167.96 1245.12 5170.12 1243.02 5171.57 1240.44C5173.05 1237.87 5173.79 1235.16 5173.79 1232.32V1222.73C5173.35 1223.26 5172.37 1223.75 5170.86 1224.2C5169.38 1224.61 5167.66 1224.98 5165.71 1225.31C5163.79 1225.6 5161.91 1225.87 5160.07 1226.11C5158.27 1226.31 5156.8 1226.49 5155.68 1226.64C5152.96 1226.99 5150.41 1227.57 5148.04 1228.37C5145.71 1229.14 5143.81 1230.31 5142.36 1231.88C5140.94 1233.41 5140.23 1235.52 5140.23 1238.18C5140.23 1241.82 5141.58 1244.57 5144.27 1246.44C5146.99 1248.27 5150.44 1249.19 5154.61 1249.19ZM5213.86 1215.98V1257H5203.39V1188.82H5213.51V1199.47H5214.4C5215.99 1196.01 5218.42 1193.23 5221.68 1191.13C5224.93 1189 5229.13 1187.93 5234.28 1187.93C5238.9 1187.93 5242.94 1188.88 5246.4 1190.77C5249.86 1192.64 5252.56 1195.48 5254.48 1199.29C5256.4 1203.08 5257.36 1207.88 5257.36 1213.68V1257H5246.89V1214.39C5246.89 1209.03 5245.5 1204.86 5242.72 1201.87C5239.93 1198.85 5236.12 1197.34 5231.26 1197.34C5227.92 1197.34 5224.93 1198.07 5222.3 1199.52C5219.69 1200.97 5217.64 1203.08 5216.13 1205.86C5214.62 1208.65 5213.86 1212.02 5213.86 1215.98ZM5304.21 1258.42C5297.81 1258.42 5292.31 1256.91 5287.69 1253.89C5283.08 1250.87 5279.53 1246.72 5277.04 1241.42C5274.55 1236.12 5273.31 1230.07 5273.31 1223.26C5273.31 1216.34 5274.58 1210.23 5277.13 1204.93C5279.7 1199.6 5283.28 1195.45 5287.87 1192.46C5292.49 1189.44 5297.87 1187.93 5304.03 1187.93C5308.82 1187.93 5313.14 1188.82 5316.99 1190.59C5320.84 1192.37 5323.99 1194.86 5326.44 1198.05C5328.9 1201.25 5330.43 1204.98 5331.02 1209.24H5320.54C5319.74 1206.13 5317.97 1203.38 5315.21 1200.98C5312.49 1198.55 5308.82 1197.34 5304.21 1197.34C5300.12 1197.34 5296.54 1198.41 5293.46 1200.54C5290.42 1202.64 5288.03 1205.61 5286.32 1209.46C5284.63 1213.28 5283.79 1217.76 5283.79 1222.91C5283.79 1228.18 5284.62 1232.76 5286.27 1236.67C5287.96 1240.58 5290.33 1243.61 5293.37 1245.77C5296.45 1247.93 5300.06 1249.01 5304.21 1249.01C5306.93 1249.01 5309.4 1248.54 5311.62 1247.59C5313.84 1246.64 5315.72 1245.28 5317.26 1243.51C5318.8 1241.73 5319.89 1239.6 5320.54 1237.11H5331.02C5330.43 1241.14 5328.96 1244.76 5326.62 1247.99C5324.31 1251.19 5321.25 1253.73 5317.43 1255.62C5313.65 1257.49 5309.24 1258.42 5304.21 1258.42ZM5356.81 1215.98V1257H5346.33V1166.09H5356.81V1199.47H5357.69C5359.29 1195.95 5361.69 1193.15 5364.89 1191.08C5368.11 1188.98 5372.4 1187.93 5377.76 1187.93C5382.4 1187.93 5386.47 1188.86 5389.97 1190.73C5393.46 1192.56 5396.17 1195.39 5398.09 1199.21C5400.04 1202.99 5401.02 1207.82 5401.02 1213.68V1257H5390.54V1214.39C5390.54 1208.97 5389.14 1204.78 5386.33 1201.82C5383.54 1198.84 5379.68 1197.34 5374.74 1197.34C5371.31 1197.34 5368.23 1198.07 5365.51 1199.52C5362.81 1200.97 5360.68 1203.08 5359.12 1205.86C5357.58 1208.65 5356.81 1212.02 5356.81 1215.98Z" fill="#979593"/>
<path d="M4240.5 1155.96C4240.48 1160.1 4243.82 1163.48 4247.96 1163.5L4315.46 1163.87C4319.6 1163.89 4322.98 1160.55 4323 1156.41C4323.02 1152.27 4319.68 1148.89 4315.54 1148.87L4255.54 1148.54L4255.87 1088.54C4255.89 1084.4 4252.55 1081.02 4248.41 1081C4244.27 1080.98 4240.89 1084.32 4240.87 1088.46L4240.5 1155.96ZM4378.6 1016.27L4242.73 1150.67L4253.27 1161.33L4389.14 1026.93L4378.6 1016.27Z" fill="#ADADAD"/>
<path d="M2686 830C2686 934.934 2600.93 1020 2496 1020C2391.07 1020 2306 934.934 2306 830C2306 725.066 2391.07 640 2496 640C2600.93 640 2686 725.066 2686 830Z" fill="#75AADB" stroke="#EEEEEE" stroke-width="20"/>
<path d="M3342 830C3342 934.934 3256.93 1020 3152 1020C3047.07 1020 2962 934.934 2962 830C2962 725.066 3047.07 640 3152 640C3256.93 640 3342 725.066 3342 830Z" fill="#75AADB" stroke="#EEEEEE" stroke-width="20"/>
<path d="M3958 830C3958 934.934 3872.93 1020 3768 1020C3663.07 1020 3578 934.934 3578 830C3578 725.066 3663.07 640 3768 640C3872.93 640 3958 725.066 3958 830Z" fill="#75AADB" stroke="#EEEEEE" stroke-width="20"/>
</svg>
