<svg width="5891" height="2025" viewBox="0 0 5891 2025" fill="none" xmlns="http://www.w3.org/2000/svg">
<path d="M301.435 1933.48H320.966C318.48 1915.5 302.633 1902.85 282.081 1902.85C258.066 1902.85 239.556 1920.16 239.556 1949.63C239.556 1978.4 256.868 1996.24 282.481 1996.24C305.43 1996.24 321.809 1981.73 321.809 1957.8V1946.35H283.768V1960.82H303.299C303.033 1972.1 295.353 1979.24 282.569 1979.24C268.143 1979.24 259.043 1968.46 259.043 1949.46C259.043 1930.55 268.498 1919.85 282.392 1919.85C292.291 1919.85 298.993 1924.95 301.435 1933.48ZM355.334 1996.29C365.411 1996.29 371.936 1991.89 375.265 1985.55H375.798V1995H393.731V1949.01C393.731 1932.77 379.97 1925.93 364.789 1925.93C348.454 1925.93 337.712 1933.74 335.093 1946.17L352.582 1947.59C353.869 1943.06 357.909 1939.74 364.7 1939.74C371.137 1939.74 374.821 1942.98 374.821 1948.57V1948.84C374.821 1953.23 370.16 1953.81 358.308 1954.96C344.814 1956.2 332.696 1960.73 332.696 1975.96C332.696 1989.45 342.328 1996.29 355.334 1996.29ZM360.75 1983.24C354.935 1983.24 350.762 1980.53 350.762 1975.34C350.762 1970.01 355.157 1967.39 361.815 1966.46C365.943 1965.88 372.691 1964.9 374.954 1963.39V1970.63C374.954 1977.78 369.051 1983.24 360.75 1983.24ZM408.757 1995H427.4V1984.08H428.244C430.863 1989.76 436.589 1996.11 447.597 1996.11C463.134 1996.11 475.252 1983.81 475.252 1961C475.252 1937.56 462.601 1925.93 447.642 1925.93C436.234 1925.93 430.774 1932.72 428.244 1938.27H427.667V1904.09H408.757V1995ZM427.267 1960.91C427.267 1948.75 432.416 1940.98 441.605 1940.98C450.971 1940.98 455.942 1949.1 455.942 1960.91C455.942 1972.81 450.882 1981.06 441.605 1981.06C432.505 1981.06 427.267 1973.07 427.267 1960.91ZM487.869 1995H506.779V1956.43C506.779 1948.04 512.905 1942.27 521.25 1942.27C523.869 1942.27 527.465 1942.71 529.24 1943.29V1926.51C527.553 1926.11 525.201 1925.84 523.292 1925.84C515.657 1925.84 509.398 1930.28 506.912 1938.71H506.202V1926.82H487.869V1995ZM539.017 1995H557.927V1926.82H539.017V1995ZM548.516 1918.03C554.154 1918.03 558.77 1913.72 558.77 1908.44C558.77 1903.2 554.154 1898.9 548.516 1898.9C542.923 1898.9 538.307 1903.2 538.307 1908.44C538.307 1913.72 542.923 1918.03 548.516 1918.03ZM604.147 1996.33C621.015 1996.33 632.378 1988.12 635.042 1975.47L617.552 1974.31C615.644 1979.51 610.761 1982.22 604.458 1982.22C595.003 1982.22 589.01 1975.96 589.01 1965.79V1965.75H635.441V1960.55C635.441 1937.38 621.414 1925.93 603.392 1925.93C583.328 1925.93 570.322 1940.18 570.322 1961.22C570.322 1982.84 583.151 1996.33 604.147 1996.33ZM589.01 1954.03C589.41 1946.26 595.313 1940.05 603.703 1940.05C611.915 1940.05 617.597 1945.91 617.641 1954.03H589.01ZM666.691 1904.09H647.782V1995H666.691V1904.09ZM701.282 1996.29C711.358 1996.29 717.883 1991.89 721.212 1985.55H721.745V1995H739.678V1949.01C739.678 1932.77 725.918 1925.93 710.737 1925.93C694.401 1925.93 683.659 1933.74 681.04 1946.17L698.529 1947.59C699.817 1943.06 703.856 1939.74 710.648 1939.74C717.084 1939.74 720.768 1942.98 720.768 1948.57V1948.84C720.768 1953.23 716.108 1953.81 704.256 1954.96C690.761 1956.2 678.643 1960.73 678.643 1975.96C678.643 1989.45 688.276 1996.29 701.282 1996.29ZM706.697 1983.24C700.882 1983.24 696.71 1980.53 696.71 1975.34C696.71 1970.01 701.104 1967.39 707.762 1966.46C711.891 1965.88 718.638 1964.9 720.902 1963.39V1970.63C720.902 1977.78 714.998 1983.24 706.697 1983.24ZM791.547 1995H802.023V1952.39C802.023 1942.4 809.303 1935.34 817.47 1935.34C825.416 1935.34 830.965 1940.53 830.965 1948.3V1995H841.618V1950.61C841.618 1941.82 847.122 1935.34 856.71 1935.34C864.168 1935.34 870.56 1939.29 870.56 1949.37V1995H881.036V1949.37C881.036 1933.34 872.424 1925.93 860.262 1925.93C850.496 1925.93 843.349 1930.41 839.843 1937.47H839.132C835.759 1930.19 829.811 1925.93 820.844 1925.93C811.966 1925.93 805.396 1930.19 802.556 1937.47H801.668V1926.82H791.547V1995ZM920.254 1996.6C932.15 1996.6 938.364 1990.21 940.495 1985.77H941.028V1995H951.504V1950.08C951.504 1928.42 934.991 1925.93 926.29 1925.93C915.992 1925.93 904.273 1929.48 898.947 1941.91L908.89 1945.46C911.198 1940.49 916.658 1935.16 926.646 1935.16C936.278 1935.16 941.028 1940.27 941.028 1949.01V1949.37C941.028 1954.43 935.879 1953.98 923.45 1955.58C910.799 1957.22 896.994 1960.02 896.994 1975.65C896.994 1988.96 907.292 1996.6 920.254 1996.6ZM921.852 1987.19C913.506 1987.19 907.469 1983.46 907.469 1976.18C907.469 1968.19 914.749 1965.7 922.917 1964.64C927.356 1964.11 939.252 1962.86 941.028 1960.73V1970.32C941.028 1978.84 934.281 1987.19 921.852 1987.19ZM996.37 1996.42C1009.51 1996.42 1013.95 1988.25 1016.26 1984.52H1017.5V1995H1027.62V1904.09H1017.14V1937.65H1016.26C1013.95 1934.1 1009.86 1925.93 996.547 1925.93C979.324 1925.93 967.428 1939.6 967.428 1961.09C967.428 1982.75 979.324 1996.42 996.37 1996.42ZM997.79 1987.01C984.651 1987.01 977.904 1975.47 977.904 1960.91C977.904 1946.53 984.474 1935.34 997.79 1935.34C1010.57 1935.34 1017.32 1945.64 1017.32 1960.91C1017.32 1976.36 1010.4 1987.01 997.79 1987.01ZM1076.85 1996.42C1090.7 1996.42 1100.82 1989.5 1104.01 1979.2L1093.89 1976.36C1091.23 1983.46 1085.06 1987.01 1076.85 1987.01C1064.55 1987.01 1056.07 1979.06 1055.59 1964.46H1105.08V1960.02C1105.08 1934.63 1089.99 1925.93 1075.78 1925.93C1057.32 1925.93 1045.06 1940.49 1045.06 1961.44C1045.06 1982.39 1057.14 1996.42 1076.85 1996.42ZM1055.59 1955.4C1056.3 1944.8 1063.8 1935.34 1075.78 1935.34C1087.15 1935.34 1094.43 1943.86 1094.43 1955.4H1055.59ZM1185.82 1926.82H1171.26V1910.48H1160.79V1926.82H1150.49V1935.7H1160.79V1978.31C1160.79 1990.21 1170.38 1995.89 1179.25 1995.89C1183.16 1995.89 1185.65 1995.18 1187.07 1994.64L1184.94 1985.23C1184.05 1985.41 1182.63 1985.77 1180.32 1985.77C1175.7 1985.77 1171.26 1984.35 1171.26 1975.47V1935.7H1185.82V1926.82ZM1213.52 1953.98C1213.52 1942.09 1221.11 1935.34 1231.46 1935.34C1241.31 1935.34 1247.26 1941.56 1247.26 1952.39V1995H1257.73V1951.68C1257.73 1934.14 1248.41 1925.93 1234.47 1925.93C1223.73 1925.93 1217.61 1930.41 1214.41 1937.47H1213.52V1904.09H1203.05V1995H1213.52V1953.98ZM1305.49 1996.42C1319.33 1996.42 1329.46 1989.5 1332.65 1979.2L1322.53 1976.36C1319.87 1983.46 1313.7 1987.01 1305.49 1987.01C1293.19 1987.01 1284.71 1979.06 1284.22 1964.46H1333.72V1960.02C1333.72 1934.63 1318.62 1925.93 1304.42 1925.93C1285.95 1925.93 1273.7 1940.49 1273.7 1961.44C1273.7 1982.39 1285.78 1996.42 1305.49 1996.42ZM1284.22 1955.4C1284.93 1944.8 1292.43 1935.34 1304.42 1935.34C1315.78 1935.34 1323.06 1943.86 1323.06 1955.4H1284.22ZM1397.95 1942.09C1394.66 1932.41 1387.29 1925.93 1373.8 1925.93C1359.42 1925.93 1348.76 1934.1 1348.76 1945.64C1348.76 1955.05 1354.36 1961.35 1366.88 1964.28L1378.24 1966.95C1385.12 1968.54 1388.36 1971.83 1388.36 1976.53C1388.36 1982.39 1382.15 1987.19 1372.38 1987.19C1363.81 1987.19 1358.44 1983.5 1356.58 1976.18L1346.63 1978.66C1349.08 1990.25 1358.62 1996.42 1372.56 1996.42C1388.4 1996.42 1399.19 1987.76 1399.19 1976C1399.19 1966.5 1393.24 1960.51 1381.08 1957.54L1370.96 1955.05C1362.88 1953.05 1359.24 1950.34 1359.24 1945.11C1359.24 1939.25 1365.46 1934.99 1373.8 1934.99C1382.94 1934.99 1386.72 1940.05 1388.54 1944.75L1397.95 1942.09ZM1443.55 1996.42C1457.4 1996.42 1467.52 1989.5 1470.71 1979.2L1460.59 1976.36C1457.93 1983.46 1451.76 1987.01 1443.55 1987.01C1431.25 1987.01 1422.77 1979.06 1422.28 1964.46H1471.78V1960.02C1471.78 1934.63 1456.69 1925.93 1442.48 1925.93C1424.02 1925.93 1411.76 1940.49 1411.76 1961.44C1411.76 1982.39 1423.84 1996.42 1443.55 1996.42ZM1422.28 1955.4C1422.99 1944.8 1430.5 1935.34 1442.48 1935.34C1453.85 1935.34 1461.12 1943.86 1461.12 1955.4H1422.28ZM1550.57 1996.42C1565.66 1996.42 1575.6 1987.19 1577.38 1975.11H1566.9C1564.95 1982.57 1558.74 1987.01 1550.57 1987.01C1538.14 1987.01 1530.15 1976.71 1530.15 1960.91C1530.15 1945.46 1538.32 1935.34 1550.57 1935.34C1559.8 1935.34 1565.31 1941.02 1566.9 1947.24H1577.38C1575.6 1934.45 1564.77 1925.93 1550.39 1925.93C1531.93 1925.93 1519.67 1940.49 1519.67 1961.26C1519.67 1981.68 1531.39 1996.42 1550.57 1996.42ZM1603.17 1953.98C1603.17 1942.09 1610.76 1935.34 1621.1 1935.34C1630.96 1935.34 1636.91 1941.56 1636.91 1952.39V1995H1647.38V1951.68C1647.38 1934.14 1638.06 1925.93 1624.12 1925.93C1613.38 1925.93 1607.25 1930.41 1604.06 1937.47H1603.17V1904.09H1592.69V1995H1603.17V1953.98ZM1686.61 1996.6C1698.51 1996.6 1704.72 1990.21 1706.85 1985.77H1707.39V1995H1717.86V1950.08C1717.86 1928.42 1701.35 1925.93 1692.65 1925.93C1682.35 1925.93 1670.63 1929.48 1665.3 1941.91L1675.25 1945.46C1677.56 1940.49 1683.02 1935.16 1693 1935.16C1702.64 1935.16 1707.39 1940.27 1707.39 1949.01V1949.37C1707.39 1954.43 1702.24 1953.98 1689.81 1955.58C1677.16 1957.22 1663.35 1960.02 1663.35 1975.65C1663.35 1988.96 1673.65 1996.6 1686.61 1996.6ZM1688.21 1987.19C1679.86 1987.19 1673.83 1983.46 1673.83 1976.18C1673.83 1968.19 1681.11 1965.7 1689.27 1964.64C1693.71 1964.11 1705.61 1962.86 1707.39 1960.73V1970.32C1707.39 1978.84 1700.64 1987.19 1688.21 1987.19ZM1747.46 1953.98C1747.46 1942.09 1754.83 1935.34 1764.86 1935.34C1774.58 1935.34 1780.48 1941.69 1780.48 1952.39V1995H1790.96V1951.68C1790.96 1934.28 1781.68 1925.93 1767.88 1925.93C1757.58 1925.93 1751.19 1930.55 1747.99 1937.47H1747.1V1926.82H1736.98V1995H1747.46V1953.98ZM1837.62 2021.99C1853.96 2021.99 1867.1 2014.53 1867.1 1996.95V1926.82H1856.98V1937.65H1855.91C1853.6 1934.1 1849.34 1925.93 1836.03 1925.93C1818.8 1925.93 1806.91 1939.6 1806.91 1960.55C1806.91 1981.86 1819.33 1993.93 1835.85 1993.93C1849.16 1993.93 1853.43 1986.12 1855.73 1982.39H1856.62V1996.24C1856.62 2007.61 1848.63 2012.76 1837.62 2012.76C1825.24 2012.76 1820.89 2006.23 1818.09 2002.46L1809.75 2008.32C1814.01 2015.46 1822.4 2021.99 1837.62 2021.99ZM1837.27 1984.52C1824.13 1984.52 1817.38 1974.58 1817.38 1960.38C1817.38 1946.53 1823.95 1935.34 1837.27 1935.34C1850.05 1935.34 1856.8 1945.64 1856.8 1960.38C1856.8 1975.47 1849.87 1984.52 1837.27 1984.52ZM1914.86 1996.42C1928.71 1996.42 1938.83 1989.5 1942.03 1979.2L1931.91 1976.36C1929.24 1983.46 1923.07 1987.01 1914.86 1987.01C1902.56 1987.01 1894.09 1979.06 1893.6 1964.46H1943.09V1960.02C1943.09 1934.63 1928 1925.93 1913.79 1925.93C1895.33 1925.93 1883.08 1940.49 1883.08 1961.44C1883.08 1982.39 1895.15 1996.42 1914.86 1996.42ZM1893.6 1955.4C1894.31 1944.8 1901.81 1935.34 1913.79 1935.34C1925.16 1935.34 1932.44 1943.86 1932.44 1955.4H1893.6ZM2007.32 1942.09C2004.04 1932.41 1996.67 1925.93 1983.18 1925.93C1968.79 1925.93 1958.14 1934.1 1958.14 1945.64C1958.14 1955.05 1963.73 1961.35 1976.25 1964.28L1987.61 1966.95C1994.49 1968.54 1997.73 1971.83 1997.73 1976.53C1997.73 1982.39 1991.52 1987.19 1981.75 1987.19C1973.19 1987.19 1967.82 1983.5 1965.95 1976.18L1956.01 1978.66C1958.45 1990.25 1967.99 1996.42 1981.93 1996.42C1997.78 1996.42 2008.57 1987.76 2008.57 1976C2008.57 1966.5 2002.62 1960.51 1990.46 1957.54L1980.33 1955.05C1972.26 1953.05 1968.62 1950.34 1968.62 1945.11C1968.62 1939.25 1974.83 1934.99 1983.18 1934.99C1992.32 1934.99 1996.09 1940.05 1997.91 1944.75L2007.32 1942.09Z" fill="#FF7400"/>
<path d="M828.071 1481.93C824.166 1478.02 817.834 1478.02 813.929 1481.93L750.289 1545.57C746.384 1549.47 746.384 1555.81 750.289 1559.71C754.195 1563.62 760.526 1563.62 764.431 1559.71L821 1503.14L877.569 1559.71C881.474 1563.62 887.805 1563.62 891.711 1559.71C895.616 1555.81 895.616 1549.47 891.711 1545.57L828.071 1481.93ZM831 1824V1489H811V1824H831Z" fill="#FF7400"/>
<path d="M1340.07 1481.93C1336.17 1478.02 1329.83 1478.02 1325.93 1481.93L1262.29 1545.57C1258.38 1549.47 1258.38 1555.81 1262.29 1559.71C1266.19 1563.62 1272.53 1563.62 1276.43 1559.71L1333 1503.14L1389.57 1559.71C1393.47 1563.62 1399.81 1563.62 1403.71 1559.71C1407.62 1555.81 1407.62 1549.47 1403.71 1545.57L1340.07 1481.93ZM1343 1824V1489H1323V1824H1343Z" fill="#FF7400"/>
<circle cx="821" cy="1209" r="190" fill="#EEEEEE" stroke="#FF7400" stroke-width="20"/>
<path d="M1523 1209C1523 1313.93 1437.93 1399 1333 1399C1228.07 1399 1143 1313.93 1143 1209C1143 1104.07 1228.07 1019 1333 1019C1437.93 1019 1523 1104.07 1523 1209Z" fill="#EEEEEE" stroke="#FF7400" stroke-width="20"/>
<path d="M1410.05 358.091V449H1428.7V389.607H1429.45L1452.98 448.556H1465.67L1489.2 389.829H1489.95V449H1508.6V358.091H1484.89L1459.86 419.17H1458.79L1433.76 358.091H1410.05ZM1554.88 450.332C1575.57 450.332 1588.44 436.172 1588.44 415.175C1588.44 394.046 1575.57 379.93 1554.88 379.93C1534.2 379.93 1521.32 394.046 1521.32 415.175C1521.32 436.172 1534.2 450.332 1554.88 450.332ZM1554.97 435.683C1545.43 435.683 1540.54 426.939 1540.54 415.042C1540.54 403.146 1545.43 394.357 1554.97 394.357C1564.34 394.357 1569.22 403.146 1569.22 415.042C1569.22 426.939 1564.34 435.683 1554.97 435.683ZM1619.65 409.582C1619.69 400.793 1625.06 395.644 1632.79 395.644C1640.46 395.644 1644.99 400.571 1644.95 408.961V449H1663.86V405.587C1663.9 389.607 1654.49 379.93 1640.29 379.93C1629.94 379.93 1623.02 384.813 1619.91 392.848H1619.11V358.091H1600.74V449H1619.65V409.582ZM1698.18 450.287C1708.26 450.287 1714.78 445.893 1718.11 439.545H1718.65V449H1736.58V403.013C1736.58 386.766 1722.82 379.93 1707.64 379.93C1691.3 379.93 1680.56 387.743 1677.94 400.172L1695.43 401.592C1696.72 397.065 1700.76 393.735 1707.55 393.735C1713.98 393.735 1717.67 396.976 1717.67 402.569V402.835C1717.67 407.23 1713.01 407.807 1701.16 408.961C1687.66 410.204 1675.54 414.732 1675.54 429.957C1675.54 443.451 1685.18 450.287 1698.18 450.287ZM1703.6 437.237C1697.78 437.237 1693.61 434.529 1693.61 429.336C1693.61 424.009 1698 421.39 1704.66 420.458C1708.79 419.881 1715.54 418.904 1717.8 417.395V424.63C1717.8 431.777 1711.9 437.237 1703.6 437.237ZM1751.25 449H1770.16V408.073C1770.16 400.527 1774.95 395.511 1781.26 395.511C1787.47 395.511 1791.64 399.772 1791.64 406.475V449H1809.98V407.363C1809.98 400.305 1814.02 395.511 1820.9 395.511C1826.93 395.511 1831.46 399.284 1831.46 406.875V449H1850.33V403.146C1850.33 388.364 1841.54 379.93 1828.84 379.93C1818.85 379.93 1811.09 385.035 1808.29 392.848H1807.58C1805.4 384.946 1798.44 379.93 1789.07 379.93C1779.88 379.93 1772.91 384.813 1770.07 392.848H1769.27V380.818H1751.25V449ZM1865.26 449H1884.17V408.073C1884.17 400.527 1888.97 395.511 1895.27 395.511C1901.48 395.511 1905.66 399.772 1905.66 406.475V449H1923.99V407.363C1923.99 400.305 1928.03 395.511 1934.91 395.511C1940.95 395.511 1945.47 399.284 1945.47 406.875V449H1964.34V403.146C1964.34 388.364 1955.55 379.93 1942.86 379.93C1932.87 379.93 1925.1 385.035 1922.3 392.848H1921.59C1919.42 384.946 1912.45 379.93 1903.08 379.93C1893.89 379.93 1886.92 384.813 1884.08 392.848H1883.28V380.818H1865.26V449ZM2010.35 450.332C2027.22 450.332 2038.58 442.12 2041.24 429.469L2023.75 428.315C2021.85 433.508 2016.96 436.216 2010.66 436.216C2001.2 436.216 1995.21 429.957 1995.21 419.792V419.748H2041.64V414.554C2041.64 391.383 2027.62 379.93 2009.59 379.93C1989.53 379.93 1976.52 394.179 1976.52 415.22C1976.52 436.837 1989.35 450.332 2010.35 450.332ZM1995.21 408.029C1995.61 400.261 2001.52 394.046 2009.91 394.046C2018.12 394.046 2023.8 399.906 2023.84 408.029H1995.21ZM2079.11 450.11C2090.12 450.11 2095.84 443.762 2098.46 438.08H2099.26V449H2117.9V358.091H2099.04V392.271H2098.46C2095.93 386.722 2090.47 379.93 2079.06 379.93C2064.1 379.93 2051.45 391.56 2051.45 414.998C2051.45 437.814 2063.57 450.11 2079.11 450.11ZM2085.1 435.062C2075.82 435.062 2070.76 426.805 2070.76 414.909C2070.76 403.102 2075.73 394.978 2085.1 394.978C2094.29 394.978 2099.44 402.746 2099.44 414.909C2099.44 427.072 2094.2 435.062 2085.1 435.062ZM2170.65 449H2181.13V406.386C2181.13 396.399 2188.41 389.341 2196.57 389.341C2204.52 389.341 2210.07 394.534 2210.07 402.303V449H2220.72V404.611C2220.72 395.822 2226.22 389.341 2235.81 389.341C2243.27 389.341 2249.66 393.292 2249.66 403.368V449H2260.14V403.368C2260.14 387.343 2251.53 379.93 2239.36 379.93C2229.6 379.93 2222.45 384.414 2218.95 391.472H2218.23C2214.86 384.192 2208.91 379.93 2199.95 379.93C2191.07 379.93 2184.5 384.192 2181.66 391.472H2180.77V380.818H2170.65V449ZM2299.36 450.598C2311.25 450.598 2317.47 444.206 2319.6 439.767H2320.13V449H2330.61V404.078C2330.61 382.416 2314.09 379.93 2305.39 379.93C2295.09 379.93 2283.38 383.482 2278.05 395.911L2287.99 399.462C2290.3 394.49 2295.76 389.163 2305.75 389.163C2315.38 389.163 2320.13 394.268 2320.13 403.013V403.368C2320.13 408.428 2314.98 407.984 2302.55 409.582C2289.9 411.225 2276.1 414.021 2276.1 429.646C2276.1 442.963 2286.39 450.598 2299.36 450.598ZM2300.95 441.188C2292.61 441.188 2286.57 437.459 2286.57 430.179C2286.57 422.189 2293.85 419.703 2302.02 418.638C2306.46 418.105 2318.35 416.862 2320.13 414.732V424.32C2320.13 432.842 2313.38 441.188 2300.95 441.188ZM2375.47 450.42C2388.61 450.42 2393.05 442.253 2395.36 438.524H2396.6V449H2406.72V358.091H2396.25V391.649H2395.36C2393.05 388.098 2388.97 379.93 2375.65 379.93C2358.43 379.93 2346.53 393.602 2346.53 415.087C2346.53 436.749 2358.43 450.42 2375.47 450.42ZM2376.89 441.01C2363.75 441.01 2357.01 429.469 2357.01 414.909C2357.01 400.527 2363.58 389.341 2376.89 389.341C2389.68 389.341 2396.42 399.639 2396.42 414.909C2396.42 430.357 2389.5 441.01 2376.89 441.01ZM2455.95 450.42C2469.8 450.42 2479.92 443.496 2483.12 433.197L2473 430.357C2470.33 437.459 2464.16 441.01 2455.95 441.01C2443.65 441.01 2435.18 433.064 2434.69 418.46H2484.18V414.021C2484.18 388.631 2469.09 379.93 2454.88 379.93C2436.42 379.93 2424.17 394.49 2424.17 415.442C2424.17 436.393 2436.24 450.42 2455.95 450.42ZM2434.69 409.405C2435.4 398.796 2442.9 389.341 2454.88 389.341C2466.25 389.341 2473.53 397.864 2473.53 409.405H2434.69ZM2564.93 380.818H2550.37V364.483H2539.89V380.818H2529.59V389.696H2539.89V432.31C2539.89 444.206 2549.48 449.888 2558.36 449.888C2562.26 449.888 2564.75 449.178 2566.17 448.645L2564.04 439.234C2563.15 439.412 2561.73 439.767 2559.42 439.767C2554.8 439.767 2550.37 438.347 2550.37 429.469V389.696H2564.93V380.818ZM2592.62 407.984C2592.62 396.088 2600.22 389.341 2610.56 389.341C2620.41 389.341 2626.36 395.555 2626.36 406.386V449H2636.84V405.676C2636.84 388.142 2627.51 379.93 2613.58 379.93C2602.83 379.93 2596.71 384.414 2593.51 391.472H2592.62V358.091H2582.15V449H2592.62V407.984ZM2684.59 450.42C2698.44 450.42 2708.56 443.496 2711.75 433.197L2701.63 430.357C2698.97 437.459 2692.8 441.01 2684.59 441.01C2672.29 441.01 2663.81 433.064 2663.33 418.46H2712.82V414.021C2712.82 388.631 2697.73 379.93 2683.52 379.93C2665.06 379.93 2652.81 394.49 2652.81 415.442C2652.81 436.393 2664.88 450.42 2684.59 450.42ZM2663.33 409.405C2664.04 398.796 2671.54 389.341 2683.52 389.341C2694.89 389.341 2702.17 397.864 2702.17 409.405H2663.33ZM2777.05 396.088C2773.77 386.411 2766.4 379.93 2752.9 379.93C2738.52 379.93 2727.87 388.098 2727.87 399.639C2727.87 409.05 2733.46 415.353 2745.98 418.283L2757.34 420.946C2764.22 422.544 2767.46 425.829 2767.46 430.534C2767.46 436.393 2761.25 441.188 2751.48 441.188C2742.92 441.188 2737.54 437.503 2735.68 430.179L2725.74 432.665C2728.18 444.25 2737.72 450.42 2751.66 450.42C2767.51 450.42 2778.29 441.765 2778.29 430.001C2778.29 420.502 2772.35 414.51 2760.18 411.536L2750.06 409.05C2741.98 407.052 2738.34 404.344 2738.34 399.107C2738.34 393.247 2744.56 388.986 2752.9 388.986C2762.05 388.986 2765.82 394.046 2767.64 398.751L2777.05 396.088ZM2822.65 450.42C2836.5 450.42 2846.62 443.496 2849.82 433.197L2839.69 430.357C2837.03 437.459 2830.86 441.01 2822.65 441.01C2810.35 441.01 2801.88 433.064 2801.39 418.46H2850.88V414.021C2850.88 388.631 2835.79 379.93 2821.58 379.93C2803.12 379.93 2790.87 394.49 2790.87 415.442C2790.87 436.393 2802.94 450.42 2822.65 450.42ZM2801.39 409.405C2802.1 398.796 2809.6 389.341 2821.58 389.341C2832.95 389.341 2840.23 397.864 2840.23 409.405H2801.39ZM2929.67 450.42C2944.76 450.42 2954.71 441.188 2956.48 429.114H2946.01C2944.05 436.571 2937.84 441.01 2929.67 441.01C2917.24 441.01 2909.25 430.712 2909.25 414.909C2909.25 399.462 2917.42 389.341 2929.67 389.341C2938.9 389.341 2944.41 395.023 2946.01 401.237H2956.48C2954.71 388.453 2943.88 379.93 2929.49 379.93C2911.03 379.93 2898.78 394.49 2898.78 415.264C2898.78 435.683 2910.5 450.42 2929.67 450.42ZM2982.27 407.984C2982.27 396.088 2989.86 389.341 3000.21 389.341C3010.06 389.341 3016.01 395.555 3016.01 406.386V449H3026.48V405.676C3026.48 388.142 3017.16 379.93 3003.22 379.93C2992.48 379.93 2986.36 384.414 2983.16 391.472H2982.27V358.091H2971.8V449H2982.27V407.984ZM3065.71 450.598C3077.61 450.598 3083.82 444.206 3085.95 439.767H3086.49V449H3096.96V404.078C3096.96 382.416 3080.45 379.93 3071.75 379.93C3061.45 379.93 3049.73 383.482 3044.41 395.911L3054.35 399.462C3056.66 394.49 3062.12 389.163 3072.11 389.163C3081.74 389.163 3086.49 394.268 3086.49 403.013V403.368C3086.49 408.428 3081.34 407.984 3068.91 409.582C3056.26 411.225 3042.45 414.021 3042.45 429.646C3042.45 442.963 3052.75 450.598 3065.71 450.598ZM3067.31 441.188C3058.97 441.188 3052.93 437.459 3052.93 430.179C3052.93 422.189 3060.21 419.703 3068.38 418.638C3072.82 418.105 3084.71 416.862 3086.49 414.732V424.32C3086.49 432.842 3079.74 441.188 3067.31 441.188ZM3126.56 407.984C3126.56 396.088 3133.93 389.341 3143.96 389.341C3153.68 389.341 3159.59 395.689 3159.59 406.386V449H3170.06V405.676C3170.06 388.276 3160.78 379.93 3146.98 379.93C3136.68 379.93 3130.29 384.547 3127.09 391.472H3126.2V380.818H3116.08V449H3126.56V407.984ZM3216.73 475.989C3233.06 475.989 3246.2 468.531 3246.2 450.953V380.818H3236.08V391.649H3235.01C3232.71 388.098 3228.44 379.93 3215.13 379.93C3197.9 379.93 3186.01 393.602 3186.01 414.554C3186.01 435.861 3198.44 447.935 3214.95 447.935C3228.27 447.935 3232.53 440.122 3234.84 436.393H3235.72V450.243C3235.72 461.607 3227.73 466.756 3216.73 466.756C3204.34 466.756 3199.99 460.23 3197.19 456.457L3188.85 462.317C3193.11 469.463 3201.5 475.989 3216.73 475.989ZM3216.37 438.524C3203.23 438.524 3196.48 428.581 3196.48 414.376C3196.48 400.527 3203.05 389.341 3216.37 389.341C3229.15 389.341 3235.9 399.639 3235.9 414.376C3235.9 429.469 3228.98 438.524 3216.37 438.524ZM3293.96 450.42C3307.81 450.42 3317.93 443.496 3321.13 433.197L3311.01 430.357C3308.34 437.459 3302.17 441.01 3293.96 441.01C3281.67 441.01 3273.19 433.064 3272.7 418.46H3322.19V414.021C3322.19 388.631 3307.1 379.93 3292.9 379.93C3274.43 379.93 3262.18 394.49 3262.18 415.442C3262.18 436.393 3274.25 450.42 3293.96 450.42ZM3272.7 409.405C3273.41 398.796 3280.91 389.341 3292.9 389.341C3304.26 389.341 3311.54 397.864 3311.54 409.405H3272.7ZM3386.43 396.088C3383.14 386.411 3375.77 379.93 3362.28 379.93C3347.9 379.93 3337.24 388.098 3337.24 399.639C3337.24 409.05 3342.84 415.353 3355.35 418.283L3366.72 420.946C3373.6 422.544 3376.84 425.829 3376.84 430.534C3376.84 436.393 3370.62 441.188 3360.86 441.188C3352.29 441.188 3346.92 437.503 3345.05 430.179L3335.11 432.665C3337.55 444.25 3347.1 450.42 3361.03 450.42C3376.88 450.42 3387.67 441.765 3387.67 430.001C3387.67 420.502 3381.72 414.51 3369.56 411.536L3359.44 409.05C3351.36 407.052 3347.72 404.344 3347.72 399.107C3347.72 393.247 3353.93 388.986 3362.28 388.986C3371.42 388.986 3375.2 394.046 3377.02 398.751L3386.43 396.088Z" fill="#FF7400"/>
<path d="M2349.93 888.071C2353.83 891.976 2360.17 891.976 2364.07 888.071L2427.71 824.431C2431.62 820.526 2431.62 814.195 2427.71 810.289C2423.81 806.384 2417.47 806.384 2413.57 810.289L2357 866.858L2300.43 810.289C2296.53 806.384 2290.19 806.384 2286.29 810.289C2282.38 814.195 2282.38 820.526 2286.29 824.431L2349.93 888.071ZM2347 546V881H2367V546H2347Z" fill="#FF7400"/>
<path d="M2861.93 888.071C2865.83 891.976 2872.17 891.976 2876.07 888.071L2939.71 824.431C2943.62 820.526 2943.62 814.195 2939.71 810.289C2935.81 806.384 2929.47 806.384 2925.57 810.289L2869 866.858L2812.43 810.289C2808.53 806.384 2802.19 806.384 2798.29 810.289C2794.38 814.195 2794.38 820.526 2798.29 824.431L2861.93 888.071ZM2859 546V881H2879V546H2859Z" fill="#FF7400"/>
<path d="M1845.93 888.071C1849.83 891.976 1856.17 891.976 1860.07 888.071L1923.71 824.431C1927.62 820.526 1927.62 814.195 1923.71 810.289C1919.81 806.384 1913.47 806.384 1909.57 810.289L1853 866.858L1796.43 810.289C1792.53 806.384 1786.19 806.384 1782.29 810.289C1778.38 814.195 1778.38 820.526 1782.29 824.431L1845.93 888.071ZM1843 546V881H1863V546H1843Z" fill="#FF7400"/>
<path d="M2035 1209C2035 1313.93 1949.93 1399 1845 1399C1740.07 1399 1655 1313.93 1655 1209C1655 1104.07 1740.07 1019 1845 1019C1949.93 1019 2035 1104.07 2035 1209Z" fill="#EEEEEE" stroke="#FF7400" stroke-width="20"/>
<circle cx="2357" cy="1209" r="190" fill="#EEEEEE" stroke="#FF7400" stroke-width="20"/>
<path d="M3059 1209C3059 1313.93 2973.93 1399 2869 1399C2764.07 1399 2679 1313.93 2679 1209C2679 1104.07 2764.07 1019 2869 1019C2973.93 1019 3059 1104.07 3059 1209Z" fill="#EEEEEE" stroke="#FF7400" stroke-width="20"/>
<path d="M3096.63 1995H3154.82V1979.15H3115.85V1904.09H3096.63V1995ZM3198.27 1996.33C3215.13 1996.33 3226.5 1988.12 3229.16 1975.47L3211.67 1974.31C3209.76 1979.51 3204.88 1982.22 3198.58 1982.22C3189.12 1982.22 3183.13 1975.96 3183.13 1965.79V1965.75H3229.56V1960.55C3229.56 1937.38 3215.53 1925.93 3197.51 1925.93C3177.45 1925.93 3164.44 1940.18 3164.44 1961.22C3164.44 1982.84 3177.27 1996.33 3198.27 1996.33ZM3183.13 1954.03C3183.53 1946.26 3189.43 1940.05 3197.82 1940.05C3206.03 1940.05 3211.72 1945.91 3211.76 1954.03H3183.13ZM3272.97 1996.33C3289.84 1996.33 3301.21 1988.12 3303.87 1975.47L3286.38 1974.31C3284.47 1979.51 3279.59 1982.22 3273.28 1982.22C3263.83 1982.22 3257.84 1975.96 3257.84 1965.79V1965.75H3304.27V1960.55C3304.27 1937.38 3290.24 1925.93 3272.22 1925.93C3252.16 1925.93 3239.15 1940.18 3239.15 1961.22C3239.15 1982.84 3251.98 1996.33 3272.97 1996.33ZM3257.84 1954.03C3258.24 1946.26 3264.14 1940.05 3272.53 1940.05C3280.74 1940.05 3286.42 1945.91 3286.47 1954.03H3257.84ZM3335.52 1955.58C3335.56 1946.79 3340.8 1941.64 3348.44 1941.64C3356.03 1941.64 3360.6 1946.62 3360.55 1954.96V1995H3379.46V1951.59C3379.46 1935.7 3370.14 1925.93 3355.94 1925.93C3345.82 1925.93 3338.49 1930.9 3335.43 1938.85H3334.63V1926.82H3316.61V1995H3335.52V1955.58ZM3413.81 1996.29C3423.89 1996.29 3430.41 1991.89 3433.74 1985.55H3434.27V1995H3452.21V1949.01C3452.21 1932.77 3438.45 1925.93 3423.26 1925.93C3406.93 1925.93 3396.19 1933.74 3393.57 1946.17L3411.06 1947.59C3412.34 1943.06 3416.38 1939.74 3423.18 1939.74C3429.61 1939.74 3433.3 1942.98 3433.3 1948.57V1948.84C3433.3 1953.23 3428.64 1953.81 3416.78 1954.96C3403.29 1956.2 3391.17 1960.73 3391.17 1975.96C3391.17 1989.45 3400.8 1996.29 3413.81 1996.29ZM3419.22 1983.24C3413.41 1983.24 3409.24 1980.53 3409.24 1975.34C3409.24 1970.01 3413.63 1967.39 3420.29 1966.46C3424.42 1965.88 3431.17 1964.9 3433.43 1963.39V1970.63C3433.43 1977.78 3427.53 1983.24 3419.22 1983.24ZM3504.07 1995H3514.55V1952.39C3514.55 1942.4 3521.83 1935.34 3530 1935.34C3537.94 1935.34 3543.49 1940.53 3543.49 1948.3V1995H3554.15V1950.61C3554.15 1941.82 3559.65 1935.34 3569.24 1935.34C3576.7 1935.34 3583.09 1939.29 3583.09 1949.37V1995H3593.56V1949.37C3593.56 1933.34 3584.95 1925.93 3572.79 1925.93C3563.02 1925.93 3555.88 1930.41 3552.37 1937.47H3551.66C3548.29 1930.19 3542.34 1925.93 3533.37 1925.93C3524.49 1925.93 3517.92 1930.19 3515.08 1937.47H3514.2V1926.82H3504.07V1995ZM3632.78 1996.6C3644.68 1996.6 3650.89 1990.21 3653.02 1985.77H3653.56V1995H3664.03V1950.08C3664.03 1928.42 3647.52 1925.93 3638.82 1925.93C3628.52 1925.93 3616.8 1929.48 3611.47 1941.91L3621.42 1945.46C3623.73 1940.49 3629.19 1935.16 3639.17 1935.16C3648.81 1935.16 3653.56 1940.27 3653.56 1949.01V1949.37C3653.56 1954.43 3648.41 1953.98 3635.98 1955.58C3623.33 1957.22 3609.52 1960.02 3609.52 1975.65C3609.52 1988.96 3619.82 1996.6 3632.78 1996.6ZM3634.38 1987.19C3626.03 1987.19 3620 1983.46 3620 1976.18C3620 1968.19 3627.28 1965.7 3635.44 1964.64C3639.88 1964.11 3651.78 1962.86 3653.56 1960.73V1970.32C3653.56 1978.84 3646.81 1987.19 3634.38 1987.19ZM3708.9 1996.42C3722.04 1996.42 3726.48 1988.25 3728.78 1984.52H3730.03V1995H3740.15V1904.09H3729.67V1937.65H3728.78C3726.48 1934.1 3722.39 1925.93 3709.08 1925.93C3691.85 1925.93 3679.96 1939.6 3679.96 1961.09C3679.96 1982.75 3691.85 1996.42 3708.9 1996.42ZM3710.32 1987.01C3697.18 1987.01 3690.43 1975.47 3690.43 1960.91C3690.43 1946.53 3697 1935.34 3710.32 1935.34C3723.1 1935.34 3729.85 1945.64 3729.85 1960.91C3729.85 1976.36 3722.92 1987.01 3710.32 1987.01ZM3789.38 1996.42C3803.22 1996.42 3813.35 1989.5 3816.54 1979.2L3806.42 1976.36C3803.76 1983.46 3797.59 1987.01 3789.38 1987.01C3777.08 1987.01 3768.6 1979.06 3768.11 1964.46H3817.61V1960.02C3817.61 1934.63 3802.51 1925.93 3788.31 1925.93C3769.84 1925.93 3757.59 1940.49 3757.59 1961.44C3757.59 1982.39 3769.67 1996.42 3789.38 1996.42ZM3768.11 1955.4C3768.82 1944.8 3776.32 1935.34 3788.31 1935.34C3799.67 1935.34 3806.95 1943.86 3806.95 1955.4H3768.11ZM3898.35 1926.82H3883.79V1910.48H3873.32V1926.82H3863.02V1935.7H3873.32V1978.31C3873.32 1990.21 3882.9 1995.89 3891.78 1995.89C3895.69 1995.89 3898.17 1995.18 3899.59 1994.64L3897.46 1985.23C3896.58 1985.41 3895.15 1985.77 3892.85 1985.77C3888.23 1985.77 3883.79 1984.35 3883.79 1975.47V1935.7H3898.35V1926.82ZM3926.05 1953.98C3926.05 1942.09 3933.64 1935.34 3943.98 1935.34C3953.84 1935.34 3959.79 1941.56 3959.79 1952.39V1995H3970.26V1951.68C3970.26 1934.14 3960.94 1925.93 3947 1925.93C3936.26 1925.93 3930.13 1930.41 3926.94 1937.47H3926.05V1904.09H3915.57V1995H3926.05V1953.98ZM4018.01 1996.42C4031.86 1996.42 4041.98 1989.5 4045.18 1979.2L4035.06 1976.36C4032.4 1983.46 4026.23 1987.01 4018.01 1987.01C4005.72 1987.01 3997.24 1979.06 3996.75 1964.46H4046.24V1960.02C4046.24 1934.63 4031.15 1925.93 4016.95 1925.93C3998.48 1925.93 3986.23 1940.49 3986.23 1961.44C3986.23 1982.39 3998.3 1996.42 4018.01 1996.42ZM3996.75 1955.4C3997.46 1944.8 4004.96 1935.34 4016.95 1935.34C4028.31 1935.34 4035.59 1943.86 4035.59 1955.4H3996.75ZM4110.48 1942.09C4107.19 1932.41 4099.82 1925.93 4086.33 1925.93C4071.95 1925.93 4061.29 1934.1 4061.29 1945.64C4061.29 1955.05 4066.89 1961.35 4079.4 1964.28L4090.77 1966.95C4097.65 1968.54 4100.89 1971.83 4100.89 1976.53C4100.89 1982.39 4094.67 1987.19 4084.91 1987.19C4076.34 1987.19 4070.97 1983.5 4069.11 1976.18L4059.16 1978.66C4061.6 1990.25 4071.15 1996.42 4085.09 1996.42C4100.93 1996.42 4111.72 1987.76 4111.72 1976C4111.72 1966.5 4105.77 1960.51 4093.61 1957.54L4083.49 1955.05C4075.41 1953.05 4071.77 1950.34 4071.77 1945.11C4071.77 1939.25 4077.98 1934.99 4086.33 1934.99C4095.47 1934.99 4099.25 1940.05 4101.07 1944.75L4110.48 1942.09ZM4156.07 1996.42C4169.92 1996.42 4180.04 1989.5 4183.24 1979.2L4173.12 1976.36C4170.46 1983.46 4164.29 1987.01 4156.07 1987.01C4143.78 1987.01 4135.3 1979.06 4134.81 1964.46H4184.31V1960.02C4184.31 1934.63 4169.21 1925.93 4155.01 1925.93C4136.54 1925.93 4124.29 1940.49 4124.29 1961.44C4124.29 1982.39 4136.37 1996.42 4156.07 1996.42ZM4134.81 1955.4C4135.52 1944.8 4143.02 1935.34 4155.01 1935.34C4166.37 1935.34 4173.65 1943.86 4173.65 1955.4H4134.81ZM4263.1 1996.42C4278.19 1996.42 4288.13 1987.19 4289.91 1975.11H4279.43C4277.48 1982.57 4271.26 1987.01 4263.1 1987.01C4250.67 1987.01 4242.68 1976.71 4242.68 1960.91C4242.68 1945.46 4250.85 1935.34 4263.1 1935.34C4272.33 1935.34 4277.83 1941.02 4279.43 1947.24H4289.91C4288.13 1934.45 4277.3 1925.93 4262.92 1925.93C4244.45 1925.93 4232.2 1940.49 4232.2 1961.26C4232.2 1981.68 4243.92 1996.42 4263.1 1996.42ZM4315.7 1953.98C4315.7 1942.09 4323.29 1935.34 4333.63 1935.34C4343.49 1935.34 4349.43 1941.56 4349.43 1952.39V1995H4359.91V1951.68C4359.91 1934.14 4350.59 1925.93 4336.65 1925.93C4325.91 1925.93 4319.78 1930.41 4316.59 1937.47H4315.7V1904.09H4305.22V1995H4315.7V1953.98ZM4399.14 1996.6C4411.04 1996.6 4417.25 1990.21 4419.38 1985.77H4419.91V1995H4430.39V1950.08C4430.39 1928.42 4413.88 1925.93 4405.18 1925.93C4394.88 1925.93 4383.16 1929.48 4377.83 1941.91L4387.78 1945.46C4390.08 1940.49 4395.54 1935.16 4405.53 1935.16C4415.16 1935.16 4419.91 1940.27 4419.91 1949.01V1949.37C4419.91 1954.43 4414.76 1953.98 4402.33 1955.58C4389.68 1957.22 4375.88 1960.02 4375.88 1975.65C4375.88 1988.96 4386.18 1996.6 4399.14 1996.6ZM4400.74 1987.19C4392.39 1987.19 4386.35 1983.46 4386.35 1976.18C4386.35 1968.19 4393.63 1965.7 4401.8 1964.64C4406.24 1964.11 4418.14 1962.86 4419.91 1960.73V1970.32C4419.91 1978.84 4413.17 1987.19 4400.74 1987.19ZM4459.99 1953.98C4459.99 1942.09 4467.35 1935.34 4477.39 1935.34C4487.11 1935.34 4493.01 1941.69 4493.01 1952.39V1995H4503.49V1951.68C4503.49 1934.28 4494.21 1925.93 4480.4 1925.93C4470.11 1925.93 4463.71 1930.55 4460.52 1937.47H4459.63V1926.82H4449.51V1995H4459.99V1953.98ZM4550.15 2021.99C4566.49 2021.99 4579.63 2014.53 4579.63 1996.95V1926.82H4569.5V1937.65H4568.44C4566.13 1934.1 4561.87 1925.93 4548.55 1925.93C4531.33 1925.93 4519.43 1939.6 4519.43 1960.55C4519.43 1981.86 4531.86 1993.93 4548.38 1993.93C4561.69 1993.93 4565.95 1986.12 4568.26 1982.39H4569.15V1996.24C4569.15 2007.61 4561.16 2012.76 4550.15 2012.76C4537.77 2012.76 4533.42 2006.23 4530.62 2002.46L4522.27 2008.32C4526.54 2015.46 4534.93 2021.99 4550.15 2021.99ZM4549.8 1984.52C4536.66 1984.52 4529.91 1974.58 4529.91 1960.38C4529.91 1946.53 4536.48 1935.34 4549.8 1935.34C4562.58 1935.34 4569.33 1945.64 4569.33 1960.38C4569.33 1975.47 4562.4 1984.52 4549.8 1984.52ZM4627.39 1996.42C4641.24 1996.42 4651.36 1989.5 4654.55 1979.2L4644.43 1976.36C4641.77 1983.46 4635.6 1987.01 4627.39 1987.01C4615.09 1987.01 4606.61 1979.06 4606.13 1964.46H4655.62V1960.02C4655.62 1934.63 4640.53 1925.93 4626.32 1925.93C4607.86 1925.93 4595.61 1940.49 4595.61 1961.44C4595.61 1982.39 4607.68 1996.42 4627.39 1996.42ZM4606.13 1955.4C4606.84 1944.8 4614.34 1935.34 4626.32 1935.34C4637.69 1935.34 4644.97 1943.86 4644.97 1955.4H4606.13ZM4719.85 1942.09C4716.57 1932.41 4709.2 1925.93 4695.7 1925.93C4681.32 1925.93 4670.67 1934.1 4670.67 1945.64C4670.67 1955.05 4676.26 1961.35 4688.78 1964.28L4700.14 1966.95C4707.02 1968.54 4710.26 1971.83 4710.26 1976.53C4710.26 1982.39 4704.05 1987.19 4694.28 1987.19C4685.72 1987.19 4680.34 1983.5 4678.48 1976.18L4668.54 1978.66C4670.98 1990.25 4680.52 1996.42 4694.46 1996.42C4710.31 1996.42 4721.09 1987.76 4721.09 1976C4721.09 1966.5 4715.15 1960.51 4702.98 1957.54L4692.86 1955.05C4684.78 1953.05 4681.14 1950.34 4681.14 1945.11C4681.14 1939.25 4687.36 1934.99 4695.7 1934.99C4704.85 1934.99 4708.62 1940.05 4710.44 1944.75L4719.85 1942.09Z" fill="#FF7400"/>
<path d="M3388.07 1481.93C3384.17 1478.02 3377.83 1478.02 3373.93 1481.93L3310.29 1545.57C3306.38 1549.47 3306.38 1555.81 3310.29 1559.71C3314.19 1563.62 3320.53 1563.62 3324.43 1559.71L3381 1503.14L3437.57 1559.71C3441.47 1563.62 3447.81 1563.62 3451.71 1559.71C3455.62 1555.81 3455.62 1549.47 3451.71 1545.57L3388.07 1481.93ZM3391 1824V1489H3371V1824H3391Z" fill="#FF7400"/>
<path d="M3921.07 1481.93C3917.17 1478.02 3910.83 1478.02 3906.93 1481.93L3843.29 1545.57C3839.38 1549.47 3839.38 1555.81 3843.29 1559.71C3847.19 1563.62 3853.53 1563.62 3857.43 1559.71L3914 1503.14L3970.57 1559.71C3974.47 1563.62 3980.81 1563.62 3984.71 1559.71C3988.62 1555.81 3988.62 1549.47 3984.71 1545.57L3921.07 1481.93ZM3924 1824V1489H3904V1824H3924Z" fill="#FF7400"/>
<path d="M4433.07 1481.93C4429.17 1478.02 4422.83 1478.02 4418.93 1481.93L4355.29 1545.57C4351.38 1549.47 4351.38 1555.81 4355.29 1559.71C4359.19 1563.62 4365.53 1563.62 4369.43 1559.71L4426 1503.14L4482.57 1559.71C4486.47 1563.62 4492.81 1563.62 4496.71 1559.71C4500.62 1555.81 4500.62 1549.47 4496.71 1545.57L4433.07 1481.93ZM4436 1824V1489H4416V1824H4436Z" fill="#FF7400"/>
<path d="M3571 1209C3571 1313.93 3485.93 1399 3381 1399C3276.07 1399 3191 1313.93 3191 1209C3191 1104.07 3276.07 1019 3381 1019C3485.93 1019 3571 1104.07 3571 1209Z" fill="#EEEEEE" stroke="#FF7400" stroke-width="20"/>
<circle cx="3914" cy="1209" r="190" fill="#EEEEEE" stroke="#FF7400" stroke-width="20"/>
<path d="M4616 1209C4616 1313.93 4530.93 1399 4426 1399C4321.07 1399 4236 1313.93 4236 1209C4236 1104.07 4321.07 1019 4426 1019C4530.93 1019 4616 1104.07 4616 1209Z" fill="#EEEEEE" stroke="#FF7400" stroke-width="20"/>
<path d="M4930.93 952.071C4934.83 955.976 4941.17 955.976 4945.07 952.071L5008.71 888.431C5012.62 884.526 5012.62 878.195 5008.71 874.289C5004.81 870.384 4998.47 870.384 4994.57 874.289L4938 930.858L4881.43 874.289C4877.53 870.384 4871.19 870.384 4867.29 874.289C4863.38 878.195 4863.38 884.526 4867.29 888.431L4930.93 952.071ZM4928 610V945H4948V610H4928Z" fill="#FF7400"/>
<path d="M4121.83 146H4197.9V124.587H4148.2V102.161H4194.01V80.6946H4148.2V58.3224H4197.9V36.9091H4121.83V146ZM4293.78 64.1818H4266.34L4251.22 120.538H4250.36L4235.29 64.1818H4207.86L4235.88 146H4265.7L4293.78 64.1818ZM4339.37 147.545C4360.84 147.545 4374.96 137.158 4377.94 121.071L4354.02 120.379C4352 125.812 4346.67 128.741 4339.85 128.741C4329.84 128.741 4323.66 122.083 4323.66 112.069V111.376H4378.2V104.878C4378.2 77.9247 4361.8 63.1165 4338.57 63.1165C4313.86 63.1165 4297.98 80.0554 4297.98 105.411C4297.98 131.618 4313.65 147.545 4339.37 147.545ZM4323.66 96.2486C4324.03 88.0987 4330.48 81.9197 4339.11 81.9197C4347.68 81.9197 4353.86 87.8857 4353.97 96.2486H4323.66ZM4391.51 146H4417.56V101.575C4417.56 91.8274 4424.48 85.2756 4433.8 85.2756C4436.89 85.2756 4441.53 85.8082 4444.03 86.6605V64.022C4441.85 63.4361 4439.13 63.0632 4436.73 63.0632C4427.78 63.0632 4420.65 68.2834 4417.66 79.0966H4416.81V64.1818H4391.51V146ZM4473.06 176.682C4491.81 176.682 4501.13 167.2 4505.66 153.83L4536.5 64.2351L4509.07 64.1818L4493.78 122.562H4492.93L4477.85 64.1818H4450.58L4479.67 148.983L4478.65 151.433C4476.15 157.559 4470.5 157.665 4462.83 155.162L4457.08 174.072C4461.02 175.67 4466.83 176.682 4473.06 176.682ZM4582.04 147.545C4607.77 147.545 4623.38 130.553 4623.38 105.357C4623.38 80.1087 4607.77 63.1165 4582.04 63.1165C4556.32 63.1165 4540.71 80.1087 4540.71 105.357C4540.71 130.553 4556.32 147.545 4582.04 147.545ZM4582.2 127.889C4572.56 127.889 4567.24 118.727 4567.24 105.197C4567.24 91.6143 4572.56 82.3991 4582.2 82.3991C4591.53 82.3991 4596.85 91.6143 4596.85 105.197C4596.85 118.727 4591.53 127.889 4582.2 127.889ZM4662.77 99.3381C4662.82 90.0163 4668.26 84.4766 4676.51 84.4766C4684.77 84.4766 4689.67 89.9098 4689.62 98.9652V146H4715.66V93.8516C4715.72 75.4212 4704.48 63.1165 4687.27 63.1165C4675.18 63.1165 4666.02 69.2422 4662.4 79.2031H4661.49V64.1818H4636.72V146H4662.77V99.3381ZM4770.04 147.545C4791.5 147.545 4805.62 137.158 4808.6 121.071L4784.69 120.379C4782.66 125.812 4777.33 128.741 4770.52 128.741C4760.5 128.741 4754.32 122.083 4754.32 112.069V111.376H4808.87V104.878C4808.87 77.9247 4792.46 63.1165 4769.24 63.1165C4744.52 63.1165 4728.65 80.0554 4728.65 105.411C4728.65 131.618 4744.31 147.545 4770.04 147.545ZM4754.32 96.2486C4754.7 88.0987 4761.14 81.9197 4769.77 81.9197C4778.35 81.9197 4784.53 87.8857 4784.63 96.2486H4754.32ZM4880.45 99.3381C4880.5 90.0163 4886.04 84.4766 4894.3 84.4766C4902.66 84.4766 4907.51 89.8565 4907.45 98.9652V146H4933.5V93.8516C4933.55 75.3146 4922.26 63.1165 4905.06 63.1165C4892.8 63.1165 4884.18 69.1357 4880.5 79.2031H4879.59V36.9091H4854.4V146H4880.45V99.3381ZM4972.82 147.385C4984.22 147.385 4992.11 142.964 4996.58 134.601H4997.22V146H5021.72V90.3892C5021.72 73.0774 5006.33 63.1165 4985.5 63.1165C4963.5 63.1165 4951.04 74.196 4948.96 89.1108L4972.98 89.9631C4974.1 84.7429 4978.42 81.5469 4985.29 81.5469C4991.68 81.5469 4995.73 84.6364 4995.73 90.1229V90.3892C4995.73 95.3963 4990.3 96.4616 4976.34 97.6868C4959.77 99.0717 4945.93 105.197 4945.93 123.308C4945.93 139.501 4957.16 147.385 4972.82 147.385ZM4980.87 130.339C4974.85 130.339 4970.59 127.463 4970.59 122.03C4970.59 116.756 4974.74 113.56 4982.15 112.442C4986.99 111.749 4992.96 110.684 4995.89 109.139V116.916C4995.89 124.906 4989.18 130.339 4980.87 130.339ZM5109.08 89.1641C5107.7 72.9709 5094.43 63.1165 5072.27 63.1165C5050.12 63.1165 5036 72.7578 5036.11 89.1641C5036 101.735 5044.04 109.832 5060.4 112.868L5074.67 115.585C5081.44 116.916 5084.53 119.047 5084.63 122.669C5084.53 126.771 5079.94 129.487 5073.29 129.487C5065.88 129.487 5060.88 126.291 5059.76 120.325L5034.03 120.964C5035.89 137.158 5049.8 147.545 5073.18 147.545C5095.07 147.545 5111 136.625 5111.11 119.793C5111 107.861 5103.12 100.776 5086.82 97.6335L5071.05 94.6506C5064.12 93.2656 5061.89 90.8153 5061.94 87.6726C5061.89 83.5178 5066.73 80.9609 5072.75 80.9609C5079.63 80.9609 5084.42 84.6364 5085.17 89.8033L5109.08 89.1641ZM5179.22 147.385C5190.62 147.385 5198.5 142.964 5202.98 134.601H5203.62V146H5228.12V90.3892C5228.12 73.0774 5212.73 63.1165 5191.9 63.1165C5169.9 63.1165 5157.44 74.196 5155.36 89.1108L5179.38 89.9631C5180.5 84.7429 5184.81 81.5469 5191.69 81.5469C5198.08 81.5469 5202.13 84.6364 5202.13 90.1229V90.3892C5202.13 95.3963 5196.69 96.4616 5182.74 97.6868C5166.17 99.0717 5152.32 105.197 5152.32 123.308C5152.32 139.501 5163.56 147.385 5179.22 147.385ZM5187.26 130.339C5181.25 130.339 5176.98 127.463 5176.98 122.03C5176.98 116.756 5181.14 113.56 5188.54 112.442C5193.39 111.749 5199.36 110.684 5202.29 109.139V116.916C5202.29 124.906 5195.57 130.339 5187.26 130.339ZM5282.24 147.545C5305.25 147.545 5319.53 134.175 5320.22 113.933H5295.88C5294.92 122.616 5289.7 127.357 5282.56 127.357C5273.4 127.357 5267.43 119.633 5267.43 105.091C5267.43 90.6555 5273.45 82.9318 5282.56 82.9318C5290.02 82.9318 5294.86 87.9922 5295.88 96.3551H5320.22C5319.63 76.2202 5304.93 63.1165 5282.19 63.1165C5256.46 63.1165 5240.9 80.2685 5240.9 105.357C5240.9 130.339 5256.35 147.545 5282.24 147.545ZM5371.74 147.545C5394.75 147.545 5409.03 134.175 5409.72 113.933H5385.38C5384.42 122.616 5379.2 127.357 5372.06 127.357C5362.9 127.357 5356.93 119.633 5356.93 105.091C5356.93 90.6555 5362.95 82.9318 5372.06 82.9318C5379.52 82.9318 5384.37 87.9922 5385.38 96.3551H5409.72C5409.14 76.2202 5394.43 63.1165 5371.69 63.1165C5345.96 63.1165 5330.41 80.2685 5330.41 105.357C5330.41 130.339 5345.85 147.545 5371.74 147.545ZM5461.3 147.545C5482.76 147.545 5496.88 137.158 5499.86 121.071L5475.95 120.379C5473.92 125.812 5468.59 128.741 5461.78 128.741C5451.76 128.741 5445.58 122.083 5445.58 112.069V111.376H5500.13V104.878C5500.13 77.9247 5483.72 63.1165 5460.5 63.1165C5435.78 63.1165 5419.91 80.0554 5419.91 105.411C5419.91 131.618 5435.57 147.545 5461.3 147.545ZM5445.58 96.2486C5445.96 88.0987 5452.4 81.9197 5461.03 81.9197C5469.61 81.9197 5475.79 87.8857 5475.89 96.2486H5445.58ZM5584.86 89.1641C5583.48 72.9709 5570.21 63.1165 5548.06 63.1165C5525.9 63.1165 5511.78 72.7578 5511.89 89.1641C5511.78 101.735 5519.82 109.832 5536.18 112.868L5550.45 115.585C5557.22 116.916 5560.31 119.047 5560.41 122.669C5560.31 126.771 5555.73 129.487 5549.07 129.487C5541.66 129.487 5536.66 126.291 5535.54 120.325L5509.81 120.964C5511.67 137.158 5525.58 147.545 5548.96 147.545C5570.85 147.545 5586.78 136.625 5586.89 119.793C5586.78 107.861 5578.9 100.776 5562.6 97.6335L5546.83 94.6506C5539.91 93.2656 5537.67 90.8153 5537.72 87.6726C5537.67 83.5178 5542.52 80.9609 5548.54 80.9609C5555.41 80.9609 5560.2 84.6364 5560.95 89.8033L5584.86 89.1641ZM5671.14 89.1641C5669.76 72.9709 5656.49 63.1165 5634.34 63.1165C5612.18 63.1165 5598.06 72.7578 5598.17 89.1641C5598.06 101.735 5606.1 109.832 5622.46 112.868L5636.73 115.585C5643.5 116.916 5646.59 119.047 5646.69 122.669C5646.59 126.771 5642.01 129.487 5635.35 129.487C5627.94 129.487 5622.94 126.291 5621.82 120.325L5596.09 120.964C5597.95 137.158 5611.86 147.545 5635.24 147.545C5657.13 147.545 5673.06 136.625 5673.17 119.793C5673.06 107.861 5665.18 100.776 5648.88 97.6335L5633.11 94.6506C5626.19 93.2656 5623.95 90.8153 5624 87.6726C5623.95 83.5178 5628.8 80.9609 5634.81 80.9609C5641.69 80.9609 5646.48 84.6364 5647.23 89.8033L5671.14 89.1641ZM5764.4 64.1818H5749.64V44.5795H5723.6V64.1818H5712.78V83.358H5723.6V123.148C5723.44 139.714 5734.2 148.024 5752.57 147.172C5758.86 146.852 5763.39 145.574 5765.89 144.828L5761.95 126.025C5760.83 126.291 5758.22 126.824 5756.25 126.824C5752.04 126.824 5749.64 125.119 5749.64 120.272V83.358H5764.4V64.1818ZM5815 147.545C5840.73 147.545 5856.34 130.553 5856.34 105.357C5856.34 80.1087 5840.73 63.1165 5815 63.1165C5789.28 63.1165 5773.67 80.1087 5773.67 105.357C5773.67 130.553 5789.28 147.545 5815 147.545ZM5815.16 127.889C5805.52 127.889 5800.2 118.727 5800.2 105.197C5800.2 91.6143 5805.52 82.3991 5815.16 82.3991C5824.49 82.3991 5829.81 91.6143 5829.81 105.197C5829.81 118.727 5824.49 127.889 5815.16 127.889ZM4199.14 246.182H4184.39V226.58H4158.34V246.182H4147.53V265.358H4158.34V305.148C4158.18 321.714 4168.94 330.024 4187.32 329.172C4193.6 328.852 4198.13 327.574 4200.63 326.828L4196.69 308.025C4195.57 308.291 4192.96 308.824 4190.99 308.824C4186.78 308.824 4184.39 307.119 4184.39 302.272V265.358H4199.14V246.182ZM4240.24 281.338C4240.29 272.016 4245.83 266.477 4254.09 266.477C4262.45 266.477 4267.3 271.857 4267.24 280.965V328H4293.29V275.852C4293.34 257.315 4282.05 245.116 4264.85 245.116C4252.59 245.116 4243.97 251.136 4240.29 261.203H4239.38V218.909H4214.19V328H4240.24V281.338ZM4347.8 329.545C4369.26 329.545 4383.38 319.158 4386.36 303.071L4362.44 302.379C4360.42 307.812 4355.09 310.741 4348.28 310.741C4338.26 310.741 4332.08 304.083 4332.08 294.069V293.376H4386.63V286.878C4386.63 259.925 4370.22 245.116 4347 245.116C4322.28 245.116 4306.41 262.055 4306.41 287.411C4306.41 313.618 4322.07 329.545 4347.8 329.545ZM4332.08 278.249C4332.46 270.099 4338.9 263.92 4347.53 263.92C4356.11 263.92 4362.28 269.886 4362.39 278.249H4332.08ZM4484.95 292.684C4484.95 302.219 4478.87 307.545 4471.15 307.545C4463.16 307.545 4458.26 302.112 4458.21 293.217V246.182H4432.16V298.33C4432.21 316.814 4443.45 329.065 4460.28 329.065C4472.53 329.065 4481.64 322.78 4485.27 312.766H4486.12V328H4510.94V246.182H4484.95V292.684ZM4527.52 358.682H4553.57V314.737H4554.1C4557.4 322.3 4564.75 329.172 4577.11 329.172C4595.22 329.172 4609.82 315.003 4609.82 287.144C4609.82 258.273 4594.37 245.116 4577.27 245.116C4564.33 245.116 4557.24 252.68 4554.1 260.191H4553.3V246.182H4527.52V358.682ZM4553.03 287.091C4553.03 273.721 4558.57 265.464 4568.11 265.464C4577.75 265.464 4583.08 273.934 4583.08 287.091C4583.08 300.301 4577.75 308.877 4568.11 308.877C4558.57 308.877 4553.03 300.354 4553.03 287.091ZM4675.83 273.827H4625.33V293.909H4675.83V273.827ZM4740.4 246.182H4725.65V226.58H4699.6V246.182H4688.79V265.358H4699.6V305.148C4699.44 321.714 4710.2 330.024 4728.58 329.172C4734.86 328.852 4739.39 327.574 4741.89 326.828L4737.95 308.025C4736.83 308.291 4734.22 308.824 4732.25 308.824C4728.04 308.824 4725.65 307.119 4725.65 302.272V265.358H4740.4V246.182ZM4791 329.545C4816.73 329.545 4832.34 312.553 4832.34 287.357C4832.34 262.109 4816.73 245.116 4791 245.116C4765.28 245.116 4749.67 262.109 4749.67 287.357C4749.67 312.553 4765.28 329.545 4791 329.545ZM4791.16 309.889C4781.52 309.889 4776.2 300.727 4776.2 287.197C4776.2 273.614 4781.52 264.399 4791.16 264.399C4800.49 264.399 4805.81 273.614 4805.81 287.197C4805.81 300.727 4800.49 309.889 4791.16 309.889ZM4898.04 273.827H4847.55V293.909H4898.04V273.827ZM4946.32 329.172C4958.68 329.172 4966.03 322.3 4969.33 314.737H4970.13V328H4995.91V218.909H4969.86V260.191H4969.33C4966.24 252.68 4959.1 245.116 4946.21 245.116C4929.11 245.116 4913.61 258.273 4913.61 287.144C4913.61 315.003 4928.26 329.172 4946.32 329.172ZM4955.37 308.877C4945.73 308.877 4940.35 300.301 4940.35 287.091C4940.35 273.934 4945.68 265.464 4955.37 265.464C4964.91 265.464 4970.45 273.721 4970.45 287.091C4970.45 300.354 4964.85 308.877 4955.37 308.877ZM5035.45 329.385C5046.85 329.385 5054.73 324.964 5059.2 316.601H5059.84V328H5084.35V272.389C5084.35 255.077 5068.95 245.116 5048.12 245.116C5026.13 245.116 5013.66 256.196 5011.58 271.111L5035.61 271.963C5036.73 266.743 5041.04 263.547 5047.91 263.547C5054.3 263.547 5058.35 266.636 5058.35 272.123V272.389C5058.35 277.396 5052.92 278.462 5038.96 279.687C5022.4 281.072 5008.55 287.197 5008.55 305.308C5008.55 321.501 5019.79 329.385 5035.45 329.385ZM5043.49 312.339C5037.47 312.339 5033.21 309.463 5033.21 304.03C5033.21 298.756 5037.36 295.56 5044.77 294.442C5049.62 293.749 5055.58 292.684 5058.51 291.139V298.916C5058.51 306.906 5051.8 312.339 5043.49 312.339ZM5146.46 246.182H5131.7V226.58H5105.65V246.182H5094.84V265.358H5105.65V305.148C5105.49 321.714 5116.25 330.024 5134.63 329.172C5140.92 328.852 5145.44 327.574 5147.95 326.828L5144.01 308.025C5142.89 308.291 5140.28 308.824 5138.31 308.824C5134.1 308.824 5131.7 307.119 5131.7 302.272V265.358H5146.46V246.182ZM5197.11 329.545C5218.58 329.545 5232.69 319.158 5235.68 303.071L5211.76 302.379C5209.74 307.812 5204.41 310.741 5197.59 310.741C5187.58 310.741 5181.4 304.083 5181.4 294.069V293.376H5235.94V286.878C5235.94 259.925 5219.54 245.116 5196.31 245.116C5171.6 245.116 5155.72 262.055 5155.72 287.411C5155.72 313.618 5171.38 329.545 5197.11 329.545ZM5181.4 278.249C5181.77 270.099 5188.22 263.92 5196.85 263.92C5205.42 263.92 5211.6 269.886 5211.71 278.249H5181.4ZM5360.84 246.182H5333.41L5318.28 302.538H5317.43L5302.35 246.182H5274.92L5302.94 328H5332.77L5360.84 246.182ZM5406.44 329.545C5427.91 329.545 5442.02 319.158 5445 303.071L5421.09 302.379C5419.06 307.812 5413.74 310.741 5406.92 310.741C5396.9 310.741 5390.72 304.083 5390.72 294.069V293.376H5445.27V286.878C5445.27 259.925 5428.86 245.116 5405.64 245.116C5380.92 245.116 5365.05 262.055 5365.05 287.411C5365.05 313.618 5380.71 329.545 5406.44 329.545ZM5390.72 278.249C5391.1 270.099 5397.54 263.92 5406.17 263.92C5414.75 263.92 5420.93 269.886 5421.03 278.249H5390.72ZM5458.57 328H5484.62V283.575C5484.62 273.827 5491.55 267.276 5500.87 267.276C5503.96 267.276 5508.59 267.808 5511.1 268.661V246.022C5508.91 245.436 5506.19 245.063 5503.8 245.063C5494.85 245.063 5487.71 250.283 5484.73 261.097H5483.88V246.182H5458.57V328ZM5593.14 271.164C5591.75 254.971 5578.49 245.116 5556.33 245.116C5534.17 245.116 5520.06 254.758 5520.16 271.164C5520.06 283.735 5528.1 291.832 5544.45 294.868L5558.73 297.585C5565.49 298.916 5568.58 301.047 5568.69 304.669C5568.58 308.771 5564 311.487 5557.34 311.487C5549.94 311.487 5544.93 308.291 5543.81 302.325L5518.09 302.964C5519.95 319.158 5533.85 329.545 5557.24 329.545C5579.13 329.545 5595.06 318.625 5595.16 301.793C5595.06 289.861 5587.17 282.776 5570.87 279.634L5555.11 276.651C5548.18 275.266 5545.95 272.815 5546 269.673C5545.95 265.518 5550.79 262.961 5556.81 262.961C5563.68 262.961 5568.48 266.636 5569.22 271.803L5593.14 271.164ZM5607.99 328H5634.04V246.182H5607.99V328ZM5621.04 236.647C5628.44 236.647 5634.41 231.054 5634.41 224.183C5634.41 217.311 5628.44 211.771 5621.04 211.771C5613.69 211.771 5607.67 217.311 5607.67 224.183C5607.67 231.054 5613.69 236.647 5621.04 236.647ZM5688.81 329.545C5714.54 329.545 5730.14 312.553 5730.14 287.357C5730.14 262.109 5714.54 245.116 5688.81 245.116C5663.08 245.116 5647.47 262.109 5647.47 287.357C5647.47 312.553 5663.08 329.545 5688.81 329.545ZM5688.97 309.889C5679.33 309.889 5674 300.727 5674 287.197C5674 273.614 5679.33 264.399 5688.97 264.399C5698.29 264.399 5703.62 273.614 5703.62 287.197C5703.62 300.727 5698.29 309.889 5688.97 309.889ZM5769.53 281.338C5769.59 272.016 5775.02 266.477 5783.28 266.477C5791.53 266.477 5796.43 271.91 5796.38 280.965V328H5822.43V275.852C5822.48 257.421 5811.24 245.116 5794.04 245.116C5781.94 245.116 5772.78 251.242 5769.16 261.203H5768.26V246.182H5743.49V328H5769.53V281.338ZM4617.93 511.545C4643.66 511.545 4659.27 494.553 4659.27 469.357C4659.27 444.109 4643.66 427.116 4617.93 427.116C4592.21 427.116 4576.6 444.109 4576.6 469.357C4576.6 494.553 4592.21 511.545 4617.93 511.545ZM4618.09 491.889C4608.45 491.889 4603.12 482.727 4603.12 469.197C4603.12 455.614 4608.45 446.399 4618.09 446.399C4627.41 446.399 4632.74 455.614 4632.74 469.197C4632.74 482.727 4627.41 491.889 4618.09 491.889ZM4719.11 428.182H4703.51V423.601C4703.51 418.913 4705.42 416.037 4711.5 416.037C4713.95 416.037 4716.93 416.57 4718.85 417.156L4723 398.086C4719.91 397.234 4712.83 395.795 4705.64 395.795C4688.96 395.795 4677.51 405.064 4677.51 424.027V428.182H4666.49V447.358H4677.51V510H4703.51V447.358H4719.11V428.182ZM4810.05 428.182H4795.3V408.58H4769.25V428.182H4758.44V447.358H4769.25V487.148C4769.09 503.714 4779.85 512.024 4798.23 511.172C4804.51 510.852 4809.04 509.574 4811.55 508.828L4807.6 490.025C4806.49 490.291 4803.88 490.824 4801.9 490.824C4797.7 490.824 4795.3 489.119 4795.3 484.272V447.358H4810.05V428.182ZM4851.15 463.338C4851.2 454.016 4856.74 448.477 4865 448.477C4873.36 448.477 4878.21 453.857 4878.16 462.965V510H4904.2V457.852C4904.26 439.315 4892.96 427.116 4875.76 427.116C4863.51 427.116 4854.88 433.136 4851.2 443.203H4850.3V400.909H4825.1V510H4851.15V463.338ZM4958.71 511.545C4980.18 511.545 4994.29 501.158 4997.27 485.071L4973.36 484.379C4971.33 489.812 4966.01 492.741 4959.19 492.741C4949.17 492.741 4943 486.083 4943 476.069V475.376H4997.54V468.878C4997.54 441.925 4981.13 427.116 4957.91 427.116C4933.19 427.116 4917.32 444.055 4917.32 469.411C4917.32 495.618 4932.98 511.545 4958.71 511.545ZM4943 460.249C4943.37 452.099 4949.81 445.92 4958.44 445.92C4967.02 445.92 4973.2 451.886 4973.3 460.249H4943ZM5081.26 511.545C5104.27 511.545 5118.55 498.175 5119.24 477.933H5094.9C5093.94 486.616 5088.72 491.357 5081.58 491.357C5072.42 491.357 5066.46 483.633 5066.46 469.091C5066.46 454.656 5072.47 446.932 5081.58 446.932C5089.04 446.932 5093.89 451.992 5094.9 460.355H5119.24C5118.66 440.22 5103.96 427.116 5081.21 427.116C5055.48 427.116 5039.93 444.268 5039.93 469.357C5039.93 494.339 5055.38 511.545 5081.26 511.545ZM5170.77 511.545C5196.49 511.545 5212.1 494.553 5212.1 469.357C5212.1 444.109 5196.49 427.116 5170.77 427.116C5145.04 427.116 5129.43 444.109 5129.43 469.357C5129.43 494.553 5145.04 511.545 5170.77 511.545ZM5170.93 491.889C5161.28 491.889 5155.96 482.727 5155.96 469.197C5155.96 455.614 5161.28 446.399 5170.93 446.399C5180.25 446.399 5185.57 455.614 5185.57 469.197C5185.57 482.727 5180.25 491.889 5170.93 491.889ZM5255.33 511.172C5267.68 511.172 5275.04 504.3 5278.34 496.737H5279.14V510H5304.92V400.909H5278.87V442.191H5278.34C5275.25 434.68 5268.11 427.116 5255.22 427.116C5238.12 427.116 5222.62 440.273 5222.62 469.144C5222.62 497.003 5237.27 511.172 5255.33 511.172ZM5264.38 490.877C5254.74 490.877 5249.36 482.301 5249.36 469.091C5249.36 455.934 5254.69 447.464 5264.38 447.464C5273.92 447.464 5279.46 455.721 5279.46 469.091C5279.46 482.354 5273.86 490.877 5264.38 490.877ZM5359.64 511.545C5381.1 511.545 5395.22 501.158 5398.2 485.071L5374.29 484.379C5372.26 489.812 5366.93 492.741 5360.12 492.741C5350.1 492.741 5343.92 486.083 5343.92 476.069V475.376H5398.47V468.878C5398.47 441.925 5382.06 427.116 5358.84 427.116C5334.12 427.116 5318.25 444.055 5318.25 469.411C5318.25 495.618 5333.91 511.545 5359.64 511.545ZM5343.92 460.249C5344.3 452.099 5350.74 445.92 5359.37 445.92C5367.95 445.92 5374.13 451.886 5374.23 460.249H5343.92Z" fill="#FF7400"/>
<path d="M5138 1209C5138 1319.46 5048.46 1409 4938 1409C4827.54 1409 4738 1319.46 4738 1209C4738 1098.54 4827.54 1009 4938 1009C5048.46 1009 5138 1098.54 5138 1209Z" fill="#FF7400"/>
</svg>
