<svg width="5891" height="2025" viewBox="0 0 5891 2025" fill="none" xmlns="http://www.w3.org/2000/svg">
<circle cx="821" cy="1209" r="190" fill="#EEEEEE" stroke="#FF7400" stroke-width="20"/>
<path d="M1523 1209C1523 1313.93 1437.93 1399 1333 1399C1228.07 1399 1143 1313.93 1143 1209C1143 1104.07 1228.07 1019 1333 1019C1437.93 1019 1523 1104.07 1523 1209Z" fill="#EEEEEE" stroke="#FF7400" stroke-width="20"/>
<path d="M2035 1209C2035 1313.93 1949.93 1399 1845 1399C1740.07 1399 1655 1313.93 1655 1209C1655 1104.07 1740.07 1019 1845 1019C1949.93 1019 2035 1104.07 2035 1209Z" fill="#EEEEEE" stroke="#FF7400" stroke-width="20"/>
<circle cx="2357" cy="1209" r="190" fill="#EEEEEE" stroke="#FF7400" stroke-width="20"/>
<path d="M3059 1209C3059 1313.93 2973.93 1399 2869 1399C2764.07 1399 2679 1313.93 2679 1209C2679 1104.07 2764.07 1019 2869 1019C2973.93 1019 3059 1104.07 3059 1209Z" fill="#EEEEEE" stroke="#FF7400" stroke-width="20"/>
<path d="M3571 1209C3571 1313.93 3485.93 1399 3381 1399C3276.07 1399 3191 1313.93 3191 1209C3191 1104.07 3276.07 1019 3381 1019C3485.93 1019 3571 1104.07 3571 1209Z" fill="#EEEEEE" stroke="#FF7400" stroke-width="20"/>
<circle cx="3914" cy="1209" r="190" fill="#EEEEEE" stroke="#FF7400" stroke-width="20"/>
<path d="M4616 1209C4616 1313.93 4530.93 1399 4426 1399C4321.07 1399 4236 1313.93 4236 1209C4236 1104.07 4321.07 1019 4426 1019C4530.93 1019 4616 1104.07 4616 1209Z" fill="#EEEEEE" stroke="#FF7400" stroke-width="20"/>
<path d="M5138 1209C5138 1319.46 5048.46 1409 4938 1409C4827.54 1409 4738 1319.46 4738 1209C4738 1098.54 4827.54 1009 4938 1009C5048.46 1009 5138 1098.54 5138 1209Z" fill="#FF7400"/>
<path d="M4121.83 146H4197.9V124.587H4148.2V102.161H4194.01V80.6946H4148.2V58.3224H4197.9V36.9091H4121.83V146ZM4293.78 64.1818H4266.34L4251.22 120.538H4250.36L4235.29 64.1818H4207.86L4235.88 146H4265.7L4293.78 64.1818ZM4339.37 147.545C4360.84 147.545 4374.96 137.158 4377.94 121.071L4354.02 120.379C4352 125.812 4346.67 128.741 4339.85 128.741C4329.84 128.741 4323.66 122.083 4323.66 112.069V111.376H4378.2V104.878C4378.2 77.9247 4361.8 63.1165 4338.57 63.1165C4313.86 63.1165 4297.98 80.0554 4297.98 105.411C4297.98 131.618 4313.65 147.545 4339.37 147.545ZM4323.66 96.2486C4324.03 88.0987 4330.48 81.9197 4339.11 81.9197C4347.68 81.9197 4353.86 87.8857 4353.97 96.2486H4323.66ZM4391.51 146H4417.56V101.575C4417.56 91.8274 4424.48 85.2756 4433.8 85.2756C4436.89 85.2756 4441.53 85.8082 4444.03 86.6605V64.022C4441.85 63.4361 4439.13 63.0632 4436.73 63.0632C4427.78 63.0632 4420.65 68.2834 4417.66 79.0966H4416.81V64.1818H4391.51V146ZM4473.06 176.682C4491.81 176.682 4501.13 167.2 4505.66 153.83L4536.5 64.2351L4509.07 64.1818L4493.78 122.562H4492.93L4477.85 64.1818H4450.58L4479.67 148.983L4478.65 151.433C4476.15 157.559 4470.5 157.665 4462.83 155.162L4457.08 174.072C4461.02 175.67 4466.83 176.682 4473.06 176.682ZM4582.04 147.545C4607.77 147.545 4623.38 130.553 4623.38 105.357C4623.38 80.1087 4607.77 63.1165 4582.04 63.1165C4556.32 63.1165 4540.71 80.1087 4540.71 105.357C4540.71 130.553 4556.32 147.545 4582.04 147.545ZM4582.2 127.889C4572.56 127.889 4567.24 118.727 4567.24 105.197C4567.24 91.6143 4572.56 82.3991 4582.2 82.3991C4591.53 82.3991 4596.85 91.6143 4596.85 105.197C4596.85 118.727 4591.53 127.889 4582.2 127.889ZM4662.77 99.3381C4662.82 90.0163 4668.26 84.4766 4676.51 84.4766C4684.77 84.4766 4689.67 89.9098 4689.62 98.9652V146H4715.66V93.8516C4715.72 75.4212 4704.48 63.1165 4687.27 63.1165C4675.18 63.1165 4666.02 69.2422 4662.4 79.2031H4661.49V64.1818H4636.72V146H4662.77V99.3381ZM4770.04 147.545C4791.5 147.545 4805.62 137.158 4808.6 121.071L4784.69 120.379C4782.66 125.812 4777.33 128.741 4770.52 128.741C4760.5 128.741 4754.32 122.083 4754.32 112.069V111.376H4808.87V104.878C4808.87 77.9247 4792.46 63.1165 4769.24 63.1165C4744.52 63.1165 4728.65 80.0554 4728.65 105.411C4728.65 131.618 4744.31 147.545 4770.04 147.545ZM4754.32 96.2486C4754.7 88.0987 4761.14 81.9197 4769.77 81.9197C4778.35 81.9197 4784.53 87.8857 4784.63 96.2486H4754.32ZM4880.45 99.3381C4880.5 90.0163 4886.04 84.4766 4894.3 84.4766C4902.66 84.4766 4907.51 89.8565 4907.45 98.9652V146H4933.5V93.8516C4933.55 75.3146 4922.26 63.1165 4905.06 63.1165C4892.8 63.1165 4884.18 69.1357 4880.5 79.2031H4879.59V36.9091H4854.4V146H4880.45V99.3381ZM4972.82 147.385C4984.22 147.385 4992.11 142.964 4996.58 134.601H4997.22V146H5021.72V90.3892C5021.72 73.0774 5006.33 63.1165 4985.5 63.1165C4963.5 63.1165 4951.04 74.196 4948.96 89.1108L4972.98 89.9631C4974.1 84.7429 4978.42 81.5469 4985.29 81.5469C4991.68 81.5469 4995.73 84.6364 4995.73 90.1229V90.3892C4995.73 95.3963 4990.3 96.4616 4976.34 97.6868C4959.77 99.0717 4945.93 105.197 4945.93 123.308C4945.93 139.501 4957.16 147.385 4972.82 147.385ZM4980.87 130.339C4974.85 130.339 4970.59 127.463 4970.59 122.03C4970.59 116.756 4974.74 113.56 4982.15 112.442C4986.99 111.749 4992.96 110.684 4995.89 109.139V116.916C4995.89 124.906 4989.18 130.339 4980.87 130.339ZM5109.08 89.1641C5107.7 72.9709 5094.43 63.1165 5072.27 63.1165C5050.12 63.1165 5036 72.7578 5036.11 89.1641C5036 101.735 5044.04 109.832 5060.4 112.868L5074.67 115.585C5081.44 116.916 5084.53 119.047 5084.63 122.669C5084.53 126.771 5079.94 129.487 5073.29 129.487C5065.88 129.487 5060.88 126.291 5059.76 120.325L5034.03 120.964C5035.89 137.158 5049.8 147.545 5073.18 147.545C5095.07 147.545 5111 136.625 5111.11 119.793C5111 107.861 5103.12 100.776 5086.82 97.6335L5071.05 94.6506C5064.12 93.2656 5061.89 90.8153 5061.94 87.6726C5061.89 83.5178 5066.73 80.9609 5072.75 80.9609C5079.63 80.9609 5084.42 84.6364 5085.17 89.8033L5109.08 89.1641ZM5179.22 147.385C5190.62 147.385 5198.5 142.964 5202.98 134.601H5203.62V146H5228.12V90.3892C5228.12 73.0774 5212.73 63.1165 5191.9 63.1165C5169.9 63.1165 5157.44 74.196 5155.36 89.1108L5179.38 89.9631C5180.5 84.7429 5184.81 81.5469 5191.69 81.5469C5198.08 81.5469 5202.13 84.6364 5202.13 90.1229V90.3892C5202.13 95.3963 5196.69 96.4616 5182.74 97.6868C5166.17 99.0717 5152.32 105.197 5152.32 123.308C5152.32 139.501 5163.56 147.385 5179.22 147.385ZM5187.26 130.339C5181.25 130.339 5176.98 127.463 5176.98 122.03C5176.98 116.756 5181.14 113.56 5188.54 112.442C5193.39 111.749 5199.36 110.684 5202.29 109.139V116.916C5202.29 124.906 5195.57 130.339 5187.26 130.339ZM5282.24 147.545C5305.25 147.545 5319.53 134.175 5320.22 113.933H5295.88C5294.92 122.616 5289.7 127.357 5282.56 127.357C5273.4 127.357 5267.43 119.633 5267.43 105.091C5267.43 90.6555 5273.45 82.9318 5282.56 82.9318C5290.02 82.9318 5294.86 87.9922 5295.88 96.3551H5320.22C5319.63 76.2202 5304.93 63.1165 5282.19 63.1165C5256.46 63.1165 5240.9 80.2685 5240.9 105.357C5240.9 130.339 5256.35 147.545 5282.24 147.545ZM5371.74 147.545C5394.75 147.545 5409.03 134.175 5409.72 113.933H5385.38C5384.42 122.616 5379.2 127.357 5372.06 127.357C5362.9 127.357 5356.93 119.633 5356.93 105.091C5356.93 90.6555 5362.95 82.9318 5372.06 82.9318C5379.52 82.9318 5384.37 87.9922 5385.38 96.3551H5409.72C5409.14 76.2202 5394.43 63.1165 5371.69 63.1165C5345.96 63.1165 5330.41 80.2685 5330.41 105.357C5330.41 130.339 5345.85 147.545 5371.74 147.545ZM5461.3 147.545C5482.76 147.545 5496.88 137.158 5499.86 121.071L5475.95 120.379C5473.92 125.812 5468.59 128.741 5461.78 128.741C5451.76 128.741 5445.58 122.083 5445.58 112.069V111.376H5500.13V104.878C5500.13 77.9247 5483.72 63.1165 5460.5 63.1165C5435.78 63.1165 5419.91 80.0554 5419.91 105.411C5419.91 131.618 5435.57 147.545 5461.3 147.545ZM5445.58 96.2486C5445.96 88.0987 5452.4 81.9197 5461.03 81.9197C5469.61 81.9197 5475.79 87.8857 5475.89 96.2486H5445.58ZM5584.86 89.1641C5583.48 72.9709 5570.21 63.1165 5548.06 63.1165C5525.9 63.1165 5511.78 72.7578 5511.89 89.1641C5511.78 101.735 5519.82 109.832 5536.18 112.868L5550.45 115.585C5557.22 116.916 5560.31 119.047 5560.41 122.669C5560.31 126.771 5555.73 129.487 5549.07 129.487C5541.66 129.487 5536.66 126.291 5535.54 120.325L5509.81 120.964C5511.67 137.158 5525.58 147.545 5548.96 147.545C5570.85 147.545 5586.78 136.625 5586.89 119.793C5586.78 107.861 5578.9 100.776 5562.6 97.6335L5546.83 94.6506C5539.91 93.2656 5537.67 90.8153 5537.72 87.6726C5537.67 83.5178 5542.52 80.9609 5548.54 80.9609C5555.41 80.9609 5560.2 84.6364 5560.95 89.8033L5584.86 89.1641ZM5671.14 89.1641C5669.76 72.9709 5656.49 63.1165 5634.34 63.1165C5612.18 63.1165 5598.06 72.7578 5598.17 89.1641C5598.06 101.735 5606.1 109.832 5622.46 112.868L5636.73 115.585C5643.5 116.916 5646.59 119.047 5646.69 122.669C5646.59 126.771 5642.01 129.487 5635.35 129.487C5627.94 129.487 5622.94 126.291 5621.82 120.325L5596.09 120.964C5597.95 137.158 5611.86 147.545 5635.24 147.545C5657.13 147.545 5673.06 136.625 5673.17 119.793C5673.06 107.861 5665.18 100.776 5648.88 97.6335L5633.11 94.6506C5626.19 93.2656 5623.95 90.8153 5624 87.6726C5623.95 83.5178 5628.8 80.9609 5634.81 80.9609C5641.69 80.9609 5646.48 84.6364 5647.23 89.8033L5671.14 89.1641ZM5764.4 64.1818H5749.64V44.5795H5723.6V64.1818H5712.78V83.358H5723.6V123.148C5723.44 139.714 5734.2 148.024 5752.57 147.172C5758.86 146.852 5763.39 145.574 5765.89 144.828L5761.95 126.025C5760.83 126.291 5758.22 126.824 5756.25 126.824C5752.04 126.824 5749.64 125.119 5749.64 120.272V83.358H5764.4V64.1818ZM5815 147.545C5840.73 147.545 5856.34 130.553 5856.34 105.357C5856.34 80.1087 5840.73 63.1165 5815 63.1165C5789.28 63.1165 5773.67 80.1087 5773.67 105.357C5773.67 130.553 5789.28 147.545 5815 147.545ZM5815.16 127.889C5805.52 127.889 5800.2 118.727 5800.2 105.197C5800.2 91.6143 5805.52 82.3991 5815.16 82.3991C5824.49 82.3991 5829.81 91.6143 5829.81 105.197C5829.81 118.727 5824.49 127.889 5815.16 127.889ZM4199.14 246.182H4184.39V226.58H4158.34V246.182H4147.53V265.358H4158.34V305.148C4158.18 321.714 4168.94 330.024 4187.32 329.172C4193.6 328.852 4198.13 327.574 4200.63 326.828L4196.69 308.025C4195.57 308.291 4192.96 308.824 4190.99 308.824C4186.78 308.824 4184.39 307.119 4184.39 302.272V265.358H4199.14V246.182ZM4240.24 281.338C4240.29 272.016 4245.83 266.477 4254.09 266.477C4262.45 266.477 4267.3 271.857 4267.24 280.965V328H4293.29V275.852C4293.34 257.315 4282.05 245.116 4264.85 245.116C4252.59 245.116 4243.97 251.136 4240.29 261.203H4239.38V218.909H4214.19V328H4240.24V281.338ZM4347.8 329.545C4369.26 329.545 4383.38 319.158 4386.36 303.071L4362.44 302.379C4360.42 307.812 4355.09 310.741 4348.28 310.741C4338.26 310.741 4332.08 304.083 4332.08 294.069V293.376H4386.63V286.878C4386.63 259.925 4370.22 245.116 4347 245.116C4322.28 245.116 4306.41 262.055 4306.41 287.411C4306.41 313.618 4322.07 329.545 4347.8 329.545ZM4332.08 278.249C4332.46 270.099 4338.9 263.92 4347.53 263.92C4356.11 263.92 4362.28 269.886 4362.39 278.249H4332.08ZM4484.95 292.684C4484.95 302.219 4478.87 307.545 4471.15 307.545C4463.16 307.545 4458.26 302.112 4458.21 293.217V246.182H4432.16V298.33C4432.21 316.814 4443.45 329.065 4460.28 329.065C4472.53 329.065 4481.64 322.78 4485.27 312.766H4486.12V328H4510.94V246.182H4484.95V292.684ZM4527.52 358.682H4553.57V314.737H4554.1C4557.4 322.3 4564.75 329.172 4577.11 329.172C4595.22 329.172 4609.82 315.003 4609.82 287.144C4609.82 258.273 4594.37 245.116 4577.27 245.116C4564.33 245.116 4557.24 252.68 4554.1 260.191H4553.3V246.182H4527.52V358.682ZM4553.03 287.091C4553.03 273.721 4558.57 265.464 4568.11 265.464C4577.75 265.464 4583.08 273.934 4583.08 287.091C4583.08 300.301 4577.75 308.877 4568.11 308.877C4558.57 308.877 4553.03 300.354 4553.03 287.091ZM4675.83 273.827H4625.33V293.909H4675.83V273.827ZM4740.4 246.182H4725.65V226.58H4699.6V246.182H4688.79V265.358H4699.6V305.148C4699.44 321.714 4710.2 330.024 4728.58 329.172C4734.86 328.852 4739.39 327.574 4741.89 326.828L4737.95 308.025C4736.83 308.291 4734.22 308.824 4732.25 308.824C4728.04 308.824 4725.65 307.119 4725.65 302.272V265.358H4740.4V246.182ZM4791 329.545C4816.73 329.545 4832.34 312.553 4832.34 287.357C4832.34 262.109 4816.73 245.116 4791 245.116C4765.28 245.116 4749.67 262.109 4749.67 287.357C4749.67 312.553 4765.28 329.545 4791 329.545ZM4791.16 309.889C4781.52 309.889 4776.2 300.727 4776.2 287.197C4776.2 273.614 4781.52 264.399 4791.16 264.399C4800.49 264.399 4805.81 273.614 4805.81 287.197C4805.81 300.727 4800.49 309.889 4791.16 309.889ZM4898.04 273.827H4847.55V293.909H4898.04V273.827ZM4946.32 329.172C4958.68 329.172 4966.03 322.3 4969.33 314.737H4970.13V328H4995.91V218.909H4969.86V260.191H4969.33C4966.24 252.68 4959.1 245.116 4946.21 245.116C4929.11 245.116 4913.61 258.273 4913.61 287.144C4913.61 315.003 4928.26 329.172 4946.32 329.172ZM4955.37 308.877C4945.73 308.877 4940.35 300.301 4940.35 287.091C4940.35 273.934 4945.68 265.464 4955.37 265.464C4964.91 265.464 4970.45 273.721 4970.45 287.091C4970.45 300.354 4964.85 308.877 4955.37 308.877ZM5035.45 329.385C5046.85 329.385 5054.73 324.964 5059.2 316.601H5059.84V328H5084.35V272.389C5084.35 255.077 5068.95 245.116 5048.12 245.116C5026.13 245.116 5013.66 256.196 5011.58 271.111L5035.61 271.963C5036.73 266.743 5041.04 263.547 5047.91 263.547C5054.3 263.547 5058.35 266.636 5058.35 272.123V272.389C5058.35 277.396 5052.92 278.462 5038.96 279.687C5022.4 281.072 5008.55 287.197 5008.55 305.308C5008.55 321.501 5019.79 329.385 5035.45 329.385ZM5043.49 312.339C5037.47 312.339 5033.21 309.463 5033.21 304.03C5033.21 298.756 5037.36 295.56 5044.77 294.442C5049.62 293.749 5055.58 292.684 5058.51 291.139V298.916C5058.51 306.906 5051.8 312.339 5043.49 312.339ZM5146.46 246.182H5131.7V226.58H5105.65V246.182H5094.84V265.358H5105.65V305.148C5105.49 321.714 5116.25 330.024 5134.63 329.172C5140.92 328.852 5145.44 327.574 5147.95 326.828L5144.01 308.025C5142.89 308.291 5140.28 308.824 5138.31 308.824C5134.1 308.824 5131.7 307.119 5131.7 302.272V265.358H5146.46V246.182ZM5197.11 329.545C5218.58 329.545 5232.69 319.158 5235.68 303.071L5211.76 302.379C5209.74 307.812 5204.41 310.741 5197.59 310.741C5187.58 310.741 5181.4 304.083 5181.4 294.069V293.376H5235.94V286.878C5235.94 259.925 5219.54 245.116 5196.31 245.116C5171.6 245.116 5155.72 262.055 5155.72 287.411C5155.72 313.618 5171.38 329.545 5197.11 329.545ZM5181.4 278.249C5181.77 270.099 5188.22 263.92 5196.85 263.92C5205.42 263.92 5211.6 269.886 5211.71 278.249H5181.4ZM5360.84 246.182H5333.41L5318.28 302.538H5317.43L5302.35 246.182H5274.92L5302.94 328H5332.77L5360.84 246.182ZM5406.44 329.545C5427.91 329.545 5442.02 319.158 5445 303.071L5421.09 302.379C5419.06 307.812 5413.74 310.741 5406.92 310.741C5396.9 310.741 5390.72 304.083 5390.72 294.069V293.376H5445.27V286.878C5445.27 259.925 5428.86 245.116 5405.64 245.116C5380.92 245.116 5365.05 262.055 5365.05 287.411C5365.05 313.618 5380.71 329.545 5406.44 329.545ZM5390.72 278.249C5391.1 270.099 5397.54 263.92 5406.17 263.92C5414.75 263.92 5420.93 269.886 5421.03 278.249H5390.72ZM5458.57 328H5484.62V283.575C5484.62 273.827 5491.55 267.276 5500.87 267.276C5503.96 267.276 5508.59 267.808 5511.1 268.661V246.022C5508.91 245.436 5506.19 245.063 5503.8 245.063C5494.85 245.063 5487.71 250.283 5484.73 261.097H5483.88V246.182H5458.57V328ZM5593.14 271.164C5591.75 254.971 5578.49 245.116 5556.33 245.116C5534.17 245.116 5520.06 254.758 5520.16 271.164C5520.06 283.735 5528.1 291.832 5544.45 294.868L5558.73 297.585C5565.49 298.916 5568.58 301.047 5568.69 304.669C5568.58 308.771 5564 311.487 5557.34 311.487C5549.94 311.487 5544.93 308.291 5543.81 302.325L5518.09 302.964C5519.95 319.158 5533.85 329.545 5557.24 329.545C5579.13 329.545 5595.06 318.625 5595.16 301.793C5595.06 289.861 5587.17 282.776 5570.87 279.634L5555.11 276.651C5548.18 275.266 5545.95 272.815 5546 269.673C5545.95 265.518 5550.79 262.961 5556.81 262.961C5563.68 262.961 5568.48 266.636 5569.22 271.803L5593.14 271.164ZM5607.99 328H5634.04V246.182H5607.99V328ZM5621.04 236.647C5628.44 236.647 5634.41 231.054 5634.41 224.183C5634.41 217.311 5628.44 211.771 5621.04 211.771C5613.69 211.771 5607.67 217.311 5607.67 224.183C5607.67 231.054 5613.69 236.647 5621.04 236.647ZM5688.81 329.545C5714.54 329.545 5730.14 312.553 5730.14 287.357C5730.14 262.109 5714.54 245.116 5688.81 245.116C5663.08 245.116 5647.47 262.109 5647.47 287.357C5647.47 312.553 5663.08 329.545 5688.81 329.545ZM5688.97 309.889C5679.33 309.889 5674 300.727 5674 287.197C5674 273.614 5679.33 264.399 5688.97 264.399C5698.29 264.399 5703.62 273.614 5703.62 287.197C5703.62 300.727 5698.29 309.889 5688.97 309.889ZM5769.53 281.338C5769.59 272.016 5775.02 266.477 5783.28 266.477C5791.53 266.477 5796.43 271.91 5796.38 280.965V328H5822.43V275.852C5822.48 257.421 5811.24 245.116 5794.04 245.116C5781.94 245.116 5772.78 251.242 5769.16 261.203H5768.26V246.182H5743.49V328H5769.53V281.338ZM4617.93 511.545C4643.66 511.545 4659.27 494.553 4659.27 469.357C4659.27 444.109 4643.66 427.116 4617.93 427.116C4592.21 427.116 4576.6 444.109 4576.6 469.357C4576.6 494.553 4592.21 511.545 4617.93 511.545ZM4618.09 491.889C4608.45 491.889 4603.12 482.727 4603.12 469.197C4603.12 455.614 4608.45 446.399 4618.09 446.399C4627.41 446.399 4632.74 455.614 4632.74 469.197C4632.74 482.727 4627.41 491.889 4618.09 491.889ZM4719.11 428.182H4703.51V423.601C4703.51 418.913 4705.42 416.037 4711.5 416.037C4713.95 416.037 4716.93 416.57 4718.85 417.156L4723 398.086C4719.91 397.234 4712.83 395.795 4705.64 395.795C4688.96 395.795 4677.51 405.064 4677.51 424.027V428.182H4666.49V447.358H4677.51V510H4703.51V447.358H4719.11V428.182ZM4810.05 428.182H4795.3V408.58H4769.25V428.182H4758.44V447.358H4769.25V487.148C4769.09 503.714 4779.85 512.024 4798.23 511.172C4804.51 510.852 4809.04 509.574 4811.55 508.828L4807.6 490.025C4806.49 490.291 4803.88 490.824 4801.9 490.824C4797.7 490.824 4795.3 489.119 4795.3 484.272V447.358H4810.05V428.182ZM4851.15 463.338C4851.2 454.016 4856.74 448.477 4865 448.477C4873.36 448.477 4878.21 453.857 4878.16 462.965V510H4904.2V457.852C4904.26 439.315 4892.96 427.116 4875.76 427.116C4863.51 427.116 4854.88 433.136 4851.2 443.203H4850.3V400.909H4825.1V510H4851.15V463.338ZM4958.71 511.545C4980.18 511.545 4994.29 501.158 4997.27 485.071L4973.36 484.379C4971.33 489.812 4966.01 492.741 4959.19 492.741C4949.17 492.741 4943 486.083 4943 476.069V475.376H4997.54V468.878C4997.54 441.925 4981.13 427.116 4957.91 427.116C4933.19 427.116 4917.32 444.055 4917.32 469.411C4917.32 495.618 4932.98 511.545 4958.71 511.545ZM4943 460.249C4943.37 452.099 4949.81 445.92 4958.44 445.92C4967.02 445.92 4973.2 451.886 4973.3 460.249H4943ZM5081.26 511.545C5104.27 511.545 5118.55 498.175 5119.24 477.933H5094.9C5093.94 486.616 5088.72 491.357 5081.58 491.357C5072.42 491.357 5066.46 483.633 5066.46 469.091C5066.46 454.656 5072.47 446.932 5081.58 446.932C5089.04 446.932 5093.89 451.992 5094.9 460.355H5119.24C5118.66 440.22 5103.96 427.116 5081.21 427.116C5055.48 427.116 5039.93 444.268 5039.93 469.357C5039.93 494.339 5055.38 511.545 5081.26 511.545ZM5170.77 511.545C5196.49 511.545 5212.1 494.553 5212.1 469.357C5212.1 444.109 5196.49 427.116 5170.77 427.116C5145.04 427.116 5129.43 444.109 5129.43 469.357C5129.43 494.553 5145.04 511.545 5170.77 511.545ZM5170.93 491.889C5161.28 491.889 5155.96 482.727 5155.96 469.197C5155.96 455.614 5161.28 446.399 5170.93 446.399C5180.25 446.399 5185.57 455.614 5185.57 469.197C5185.57 482.727 5180.25 491.889 5170.93 491.889ZM5255.33 511.172C5267.68 511.172 5275.04 504.3 5278.34 496.737H5279.14V510H5304.92V400.909H5278.87V442.191H5278.34C5275.25 434.68 5268.11 427.116 5255.22 427.116C5238.12 427.116 5222.62 440.273 5222.62 469.144C5222.62 497.003 5237.27 511.172 5255.33 511.172ZM5264.38 490.877C5254.74 490.877 5249.36 482.301 5249.36 469.091C5249.36 455.934 5254.69 447.464 5264.38 447.464C5273.92 447.464 5279.46 455.721 5279.46 469.091C5279.46 482.354 5273.86 490.877 5264.38 490.877ZM5359.64 511.545C5381.1 511.545 5395.22 501.158 5398.2 485.071L5374.29 484.379C5372.26 489.812 5366.93 492.741 5360.12 492.741C5350.1 492.741 5343.92 486.083 5343.92 476.069V475.376H5398.47V468.878C5398.47 441.925 5382.06 427.116 5358.84 427.116C5334.12 427.116 5318.25 444.055 5318.25 469.411C5318.25 495.618 5333.91 511.545 5359.64 511.545ZM5343.92 460.249C5344.3 452.099 5350.74 445.92 5359.37 445.92C5367.95 445.92 5374.13 451.886 5374.23 460.249H5343.92Z" fill="#FF7400"/>
<path d="M318.186 1932.5H329.55C326.176 1914.92 311.439 1902.85 292.263 1902.85C268.958 1902.85 252.49 1920.78 252.49 1949.55C252.49 1978.31 268.825 1996.24 292.973 1996.24C314.635 1996.24 330.082 1981.82 330.082 1959.31V1949.55H295.459V1959.31H319.429C319.118 1975.65 308.376 1985.94 292.973 1985.94C276.105 1985.94 263.144 1973.16 263.144 1949.55C263.144 1925.93 276.105 1913.15 292.263 1913.15C305.402 1913.15 314.324 1920.56 318.186 1932.5ZM367.58 1996.6C379.477 1996.6 385.691 1990.21 387.822 1985.77H388.354V1995H398.83V1950.08C398.83 1928.42 382.317 1925.93 373.617 1925.93C363.319 1925.93 351.6 1929.48 346.273 1941.91L356.217 1945.46C358.525 1940.49 363.985 1935.16 373.972 1935.16C383.605 1935.16 388.354 1940.27 388.354 1949.01V1949.37C388.354 1954.43 383.205 1953.98 370.776 1955.58C358.125 1957.22 344.32 1960.02 344.32 1975.65C344.32 1988.96 354.619 1996.6 367.58 1996.6ZM369.178 1987.19C360.833 1987.19 354.796 1983.46 354.796 1976.18C354.796 1968.19 362.076 1965.7 370.244 1964.64C374.682 1964.11 386.579 1962.86 388.354 1960.73V1970.32C388.354 1978.84 381.607 1987.19 369.178 1987.19ZM419.371 1995H429.492V1984.52H430.735C433.043 1988.25 437.482 1996.42 450.621 1996.42C467.667 1996.42 479.563 1982.75 479.563 1961.09C479.563 1939.6 467.667 1925.93 450.444 1925.93C437.127 1925.93 433.043 1934.1 430.735 1937.65H429.847V1904.09H419.371V1995ZM429.67 1960.91C429.67 1945.64 436.417 1935.34 449.201 1935.34C462.518 1935.34 469.087 1946.53 469.087 1960.91C469.087 1975.47 462.34 1987.01 449.201 1987.01C436.594 1987.01 429.67 1976.36 429.67 1960.91ZM495.588 1995H506.063V1951.85C506.063 1942.62 513.343 1935.87 523.286 1935.87C526.083 1935.87 528.968 1936.41 529.678 1936.58V1925.93C528.48 1925.84 525.728 1925.75 524.174 1925.75C516.007 1925.75 508.904 1930.37 506.419 1937.12H505.708V1926.82H495.588V1995ZM542.096 1995H552.572V1926.82H542.096V1995ZM547.423 1915.45C551.507 1915.45 554.88 1912.26 554.88 1908.35C554.88 1904.45 551.507 1901.25 547.423 1901.25C543.339 1901.25 539.966 1904.45 539.966 1908.35C539.966 1912.26 543.339 1915.45 547.423 1915.45ZM600.346 1996.42C614.196 1996.42 624.316 1989.5 627.512 1979.2L617.392 1976.36C614.728 1983.46 608.558 1987.01 600.346 1987.01C588.05 1987.01 579.572 1979.06 579.084 1964.46H628.578V1960.02C628.578 1934.63 613.485 1925.93 599.281 1925.93C580.815 1925.93 568.563 1940.49 568.563 1961.44C568.563 1982.39 580.637 1996.42 600.346 1996.42ZM579.084 1955.4C579.794 1944.8 587.296 1935.34 599.281 1935.34C610.644 1935.34 617.924 1943.86 617.924 1955.4H579.084ZM654.989 1904.09H644.513V1995H654.989V1904.09ZM694.24 1996.6C706.137 1996.6 712.351 1990.21 714.482 1985.77H715.015V1995H725.49V1950.08C725.49 1928.42 708.978 1925.93 700.277 1925.93C689.979 1925.93 678.26 1929.48 672.934 1941.91L682.877 1945.46C685.185 1940.49 690.645 1935.16 700.632 1935.16C710.265 1935.16 715.015 1940.27 715.015 1949.01V1949.37C715.015 1954.43 709.865 1953.98 697.436 1955.58C684.785 1957.22 670.98 1960.02 670.98 1975.65C670.98 1988.96 681.279 1996.6 694.24 1996.6ZM695.838 1987.19C687.493 1987.19 681.456 1983.46 681.456 1976.18C681.456 1968.19 688.736 1965.7 696.904 1964.64C701.343 1964.11 713.239 1962.86 715.015 1960.73V1970.32C715.015 1978.84 708.267 1987.19 695.838 1987.19ZM779.767 1995H790.243V1952.39C790.243 1942.4 797.523 1935.34 805.691 1935.34C813.636 1935.34 819.185 1940.53 819.185 1948.3V1995H829.838V1950.61C829.838 1941.82 835.343 1935.34 844.931 1935.34C852.388 1935.34 858.78 1939.29 858.78 1949.37V1995H869.256V1949.37C869.256 1933.34 860.644 1925.93 848.482 1925.93C838.716 1925.93 831.569 1930.41 828.063 1937.47H827.352C823.979 1930.19 818.031 1925.93 809.064 1925.93C800.186 1925.93 793.617 1930.19 790.776 1937.47H789.888V1926.82H779.767V1995ZM908.474 1996.6C920.37 1996.6 926.585 1990.21 928.715 1985.77H929.248V1995H939.724V1950.08C939.724 1928.42 923.211 1925.93 914.511 1925.93C904.212 1925.93 892.494 1929.48 887.167 1941.91L897.11 1945.46C899.418 1940.49 904.878 1935.16 914.866 1935.16C924.498 1935.16 929.248 1940.27 929.248 1949.01V1949.37C929.248 1954.43 924.099 1953.98 911.67 1955.58C899.019 1957.22 885.214 1960.02 885.214 1975.65C885.214 1988.96 895.512 1996.6 908.474 1996.6ZM910.072 1987.19C901.727 1987.19 895.69 1983.46 895.69 1976.18C895.69 1968.19 902.97 1965.7 911.137 1964.64C915.576 1964.11 927.472 1962.86 929.248 1960.73V1970.32C929.248 1978.84 922.501 1987.19 910.072 1987.19ZM984.59 1996.42C997.729 1996.42 1002.17 1988.25 1004.48 1984.52H1005.72V1995H1015.84V1904.09H1005.36V1937.65H1004.48C1002.17 1934.1 998.084 1925.93 984.768 1925.93C967.545 1925.93 955.648 1939.6 955.648 1961.09C955.648 1982.75 967.545 1996.42 984.59 1996.42ZM986.011 1987.01C972.871 1987.01 966.124 1975.47 966.124 1960.91C966.124 1946.53 972.694 1935.34 986.011 1935.34C998.795 1935.34 1005.54 1945.64 1005.54 1960.91C1005.54 1976.36 998.617 1987.01 986.011 1987.01ZM1065.07 1996.42C1078.92 1996.42 1089.04 1989.5 1092.23 1979.2L1082.11 1976.36C1079.45 1983.46 1073.28 1987.01 1065.07 1987.01C1052.77 1987.01 1044.29 1979.06 1043.81 1964.46H1093.3V1960.02C1093.3 1934.63 1078.21 1925.93 1064 1925.93C1045.54 1925.93 1033.29 1940.49 1033.29 1961.44C1033.29 1982.39 1045.36 1996.42 1065.07 1996.42ZM1043.81 1955.4C1044.52 1944.8 1052.02 1935.34 1064 1935.34C1075.37 1935.34 1082.65 1943.86 1082.65 1955.4H1043.81ZM1174.04 1926.82H1159.48V1910.48H1149.01V1926.82H1138.71V1935.7H1149.01V1978.31C1149.01 1990.21 1158.6 1995.89 1167.47 1995.89C1171.38 1995.89 1173.87 1995.18 1175.29 1994.64L1173.16 1985.23C1172.27 1985.41 1170.85 1985.77 1168.54 1985.77C1163.92 1985.77 1159.48 1984.35 1159.48 1975.47V1935.7H1174.04V1926.82ZM1201.74 1953.98C1201.74 1942.09 1209.33 1935.34 1219.68 1935.34C1229.53 1935.34 1235.48 1941.56 1235.48 1952.39V1995H1245.95V1951.68C1245.95 1934.14 1236.63 1925.93 1222.69 1925.93C1211.95 1925.93 1205.83 1930.41 1202.63 1937.47H1201.74V1904.09H1191.27V1995H1201.74V1953.98ZM1293.71 1996.42C1307.55 1996.42 1317.68 1989.5 1320.87 1979.2L1310.75 1976.36C1308.09 1983.46 1301.92 1987.01 1293.71 1987.01C1281.41 1987.01 1272.93 1979.06 1272.44 1964.46H1321.94V1960.02C1321.94 1934.63 1306.84 1925.93 1292.64 1925.93C1274.17 1925.93 1261.92 1940.49 1261.92 1961.44C1261.92 1982.39 1274 1996.42 1293.71 1996.42ZM1272.44 1955.4C1273.15 1944.8 1280.66 1935.34 1292.64 1935.34C1304 1935.34 1311.28 1943.86 1311.28 1955.4H1272.44ZM1386.17 1942.09C1382.88 1932.41 1375.51 1925.93 1362.02 1925.93C1347.64 1925.93 1336.98 1934.1 1336.98 1945.64C1336.98 1955.05 1342.58 1961.35 1355.1 1964.28L1366.46 1966.95C1373.34 1968.54 1376.58 1971.83 1376.58 1976.53C1376.58 1982.39 1370.37 1987.19 1360.6 1987.19C1352.03 1987.19 1346.66 1983.5 1344.8 1976.18L1334.85 1978.66C1337.3 1990.25 1346.84 1996.42 1360.78 1996.42C1376.62 1996.42 1387.41 1987.76 1387.41 1976C1387.41 1966.5 1381.46 1960.51 1369.3 1957.54L1359.18 1955.05C1351.1 1953.05 1347.46 1950.34 1347.46 1945.11C1347.46 1939.25 1353.68 1934.99 1362.02 1934.99C1371.16 1934.99 1374.94 1940.05 1376.76 1944.75L1386.17 1942.09ZM1431.77 1996.42C1445.62 1996.42 1455.74 1989.5 1458.93 1979.2L1448.81 1976.36C1446.15 1983.46 1439.98 1987.01 1431.77 1987.01C1419.47 1987.01 1410.99 1979.06 1410.5 1964.46H1460V1960.02C1460 1934.63 1444.91 1925.93 1430.7 1925.93C1412.24 1925.93 1399.98 1940.49 1399.98 1961.44C1399.98 1982.39 1412.06 1996.42 1431.77 1996.42ZM1410.5 1955.4C1411.21 1944.8 1418.72 1935.34 1430.7 1935.34C1442.07 1935.34 1449.35 1943.86 1449.35 1955.4H1410.5ZM1538.79 1996.42C1553.88 1996.42 1563.82 1987.19 1565.6 1975.11H1555.12C1553.17 1982.57 1546.96 1987.01 1538.79 1987.01C1526.36 1987.01 1518.37 1976.71 1518.37 1960.91C1518.37 1945.46 1526.54 1935.34 1538.79 1935.34C1548.02 1935.34 1553.53 1941.02 1555.12 1947.24H1565.6C1563.82 1934.45 1552.99 1925.93 1538.61 1925.93C1520.15 1925.93 1507.89 1940.49 1507.89 1961.26C1507.89 1981.68 1519.61 1996.42 1538.79 1996.42ZM1591.39 1953.98C1591.39 1942.09 1598.98 1935.34 1609.32 1935.34C1619.18 1935.34 1625.13 1941.56 1625.13 1952.39V1995H1635.6V1951.68C1635.6 1934.14 1626.28 1925.93 1612.34 1925.93C1601.6 1925.93 1595.47 1930.41 1592.28 1937.47H1591.39V1904.09H1580.91V1995H1591.39V1953.98ZM1674.83 1996.6C1686.73 1996.6 1692.94 1990.21 1695.07 1985.77H1695.61V1995H1706.08V1950.08C1706.08 1928.42 1689.57 1925.93 1680.87 1925.93C1670.57 1925.93 1658.85 1929.48 1653.52 1941.91L1663.47 1945.46C1665.78 1940.49 1671.24 1935.16 1681.22 1935.16C1690.86 1935.16 1695.61 1940.27 1695.61 1949.01V1949.37C1695.61 1954.43 1690.46 1953.98 1678.03 1955.58C1665.38 1957.22 1651.57 1960.02 1651.57 1975.65C1651.57 1988.96 1661.87 1996.6 1674.83 1996.6ZM1676.43 1987.19C1668.08 1987.19 1662.05 1983.46 1662.05 1976.18C1662.05 1968.19 1669.33 1965.7 1677.49 1964.64C1681.93 1964.11 1693.83 1962.86 1695.61 1960.73V1970.32C1695.61 1978.84 1688.86 1987.19 1676.43 1987.19ZM1735.68 1953.98C1735.68 1942.09 1743.05 1935.34 1753.08 1935.34C1762.8 1935.34 1768.7 1941.69 1768.7 1952.39V1995H1779.18V1951.68C1779.18 1934.28 1769.9 1925.93 1756.1 1925.93C1745.8 1925.93 1739.41 1930.55 1736.21 1937.47H1735.32V1926.82H1725.2V1995H1735.68V1953.98ZM1825.84 2021.99C1842.18 2021.99 1855.32 2014.53 1855.32 1996.95V1926.82H1845.2V1937.65H1844.13C1841.82 1934.1 1837.56 1925.93 1824.25 1925.93C1807.02 1925.93 1795.13 1939.6 1795.13 1960.55C1795.13 1981.86 1807.55 1993.93 1824.07 1993.93C1837.38 1993.93 1841.65 1986.12 1843.95 1982.39H1844.84V1996.24C1844.84 2007.61 1836.85 2012.76 1825.84 2012.76C1813.46 2012.76 1809.11 2006.23 1806.31 2002.46L1797.97 2008.32C1802.23 2015.46 1810.62 2021.99 1825.84 2021.99ZM1825.49 1984.52C1812.35 1984.52 1805.6 1974.58 1805.6 1960.38C1805.6 1946.53 1812.17 1935.34 1825.49 1935.34C1838.27 1935.34 1845.02 1945.64 1845.02 1960.38C1845.02 1975.47 1838.09 1984.52 1825.49 1984.52ZM1903.08 1996.42C1916.93 1996.42 1927.05 1989.5 1930.25 1979.2L1920.13 1976.36C1917.46 1983.46 1911.29 1987.01 1903.08 1987.01C1890.78 1987.01 1882.31 1979.06 1881.82 1964.46H1931.31V1960.02C1931.31 1934.63 1916.22 1925.93 1902.02 1925.93C1883.55 1925.93 1871.3 1940.49 1871.3 1961.44C1871.3 1982.39 1883.37 1996.42 1903.08 1996.42ZM1881.82 1955.4C1882.53 1944.8 1890.03 1935.34 1902.02 1935.34C1913.38 1935.34 1920.66 1943.86 1920.66 1955.4H1881.82ZM1995.54 1942.09C1992.26 1932.41 1984.89 1925.93 1971.4 1925.93C1957.01 1925.93 1946.36 1934.1 1946.36 1945.64C1946.36 1955.05 1951.95 1961.35 1964.47 1964.28L1975.83 1966.95C1982.71 1968.54 1985.96 1971.83 1985.96 1976.53C1985.96 1982.39 1979.74 1987.19 1969.98 1987.19C1961.41 1987.19 1956.04 1983.5 1954.17 1976.18L1944.23 1978.66C1946.67 1990.25 1956.21 1996.42 1970.15 1996.42C1986 1996.42 1996.79 1987.76 1996.79 1976C1996.79 1966.5 1990.84 1960.51 1978.68 1957.54L1968.55 1955.05C1960.48 1953.05 1956.84 1950.34 1956.84 1945.11C1956.84 1939.25 1963.05 1934.99 1971.4 1934.99C1980.54 1934.99 1984.31 1940.05 1986.13 1944.75L1995.54 1942.09Z" fill="#FF7400"/>
<path d="M828.071 1481.93C824.166 1478.02 817.834 1478.02 813.929 1481.93L750.289 1545.57C746.384 1549.47 746.384 1555.81 750.289 1559.71C754.195 1563.62 760.526 1563.62 764.431 1559.71L821 1503.14L877.569 1559.71C881.474 1563.62 887.805 1563.62 891.711 1559.71C895.616 1555.81 895.616 1549.47 891.711 1545.57L828.071 1481.93ZM831 1824V1489H811V1824H831Z" fill="#FF7400"/>
<path d="M1340.07 1481.93C1336.17 1478.02 1329.83 1478.02 1325.93 1481.93L1262.29 1545.57C1258.38 1549.47 1258.38 1555.81 1262.29 1559.71C1266.19 1563.62 1272.53 1563.62 1276.43 1559.71L1333 1503.14L1389.57 1559.71C1393.47 1563.62 1399.81 1563.62 1403.71 1559.71C1407.62 1555.81 1407.62 1549.47 1403.71 1545.57L1340.07 1481.93ZM1343 1824V1489H1323V1824H1343Z" fill="#FF7400"/>
<path d="M1426.16 358.091V449H1436.46V379.93H1437.35L1465.75 449H1475.7L1504.11 379.93H1504.99V449H1515.29V358.091H1502.15L1471.26 433.553H1470.19L1439.3 358.091H1426.16ZM1563.64 450.42C1582.11 450.42 1594.54 436.393 1594.54 415.264C1594.54 393.957 1582.11 379.93 1563.64 379.93C1545.18 379.93 1532.75 393.957 1532.75 415.264C1532.75 436.393 1545.18 450.42 1563.64 450.42ZM1563.64 441.01C1549.62 441.01 1543.22 428.936 1543.22 415.264C1543.22 401.592 1549.62 389.341 1563.64 389.341C1577.67 389.341 1584.06 401.592 1584.06 415.264C1584.06 428.936 1577.67 441.01 1563.64 441.01ZM1621.01 407.984C1621.01 396.088 1628.6 389.341 1638.94 389.341C1648.79 389.341 1654.74 395.555 1654.74 406.386V449H1665.22V405.676C1665.22 388.142 1655.9 379.93 1641.96 379.93C1631.22 379.93 1625.09 384.414 1621.89 391.472H1621.01V358.091H1610.53V449H1621.01V407.984ZM1704.45 450.598C1716.34 450.598 1722.56 444.206 1724.69 439.767H1725.22V449H1735.7V404.078C1735.7 382.416 1719.18 379.93 1710.48 379.93C1700.19 379.93 1688.47 383.482 1683.14 395.911L1693.08 399.462C1695.39 394.49 1700.85 389.163 1710.84 389.163C1720.47 389.163 1725.22 394.268 1725.22 403.013V403.368C1725.22 408.428 1720.07 407.984 1707.64 409.582C1694.99 411.225 1681.19 414.021 1681.19 429.646C1681.19 442.963 1691.48 450.598 1704.45 450.598ZM1706.04 441.188C1697.7 441.188 1691.66 437.459 1691.66 430.179C1691.66 422.189 1698.94 419.703 1707.11 418.638C1711.55 418.105 1723.45 416.862 1725.22 414.732V424.32C1725.22 432.842 1718.47 441.188 1706.04 441.188ZM1754.82 449H1765.29V406.386C1765.29 396.399 1772.57 389.341 1780.74 389.341C1788.69 389.341 1794.23 394.534 1794.23 402.303V449H1804.89V404.611C1804.89 395.822 1810.39 389.341 1819.98 389.341C1827.44 389.341 1833.83 393.292 1833.83 403.368V449H1844.31V403.368C1844.31 387.343 1835.69 379.93 1823.53 379.93C1813.77 379.93 1806.62 384.414 1803.11 391.472H1802.4C1799.03 384.192 1793.08 379.93 1784.11 379.93C1775.24 379.93 1768.67 384.192 1765.83 391.472H1764.94V380.818H1754.82V449ZM1863.46 449H1873.94V406.386C1873.94 396.399 1881.22 389.341 1889.38 389.341C1897.33 389.341 1902.88 394.534 1902.88 402.303V449H1913.53V404.611C1913.53 395.822 1919.03 389.341 1928.62 389.341C1936.08 389.341 1942.47 393.292 1942.47 403.368V449H1952.95V403.368C1952.95 387.343 1944.34 379.93 1932.17 379.93C1922.41 379.93 1915.26 384.414 1911.76 391.472H1911.04C1907.67 384.192 1901.72 379.93 1892.76 379.93C1883.88 379.93 1877.31 384.192 1874.47 391.472H1873.58V380.818H1863.46V449ZM2000.69 450.42C2014.54 450.42 2024.66 443.496 2027.86 433.197L2017.73 430.357C2015.07 437.459 2008.9 441.01 2000.69 441.01C1988.39 441.01 1979.91 433.064 1979.43 418.46H2028.92V414.021C2028.92 388.631 2013.83 379.93 1999.62 379.93C1981.16 379.93 1968.91 394.49 1968.91 415.442C1968.91 436.393 1980.98 450.42 2000.69 450.42ZM1979.43 409.405C1980.14 398.796 1987.64 389.341 1999.62 389.341C2010.99 389.341 2018.27 397.864 2018.27 409.405H1979.43ZM2070.6 450.42C2083.74 450.42 2088.18 442.253 2090.49 438.524H2091.73V449H2101.85V358.091H2091.38V391.649H2090.49C2088.18 388.098 2084.1 379.93 2070.78 379.93C2053.56 379.93 2041.66 393.602 2041.66 415.087C2041.66 436.749 2053.56 450.42 2070.6 450.42ZM2072.02 441.01C2058.88 441.01 2052.14 429.469 2052.14 414.909C2052.14 400.527 2058.71 389.341 2072.02 389.341C2084.81 389.341 2091.55 399.639 2091.55 414.909C2091.55 430.357 2084.63 441.01 2072.02 441.01ZM2157.65 449H2168.12V406.386C2168.12 396.399 2175.4 389.341 2183.57 389.341C2191.52 389.341 2197.07 394.534 2197.07 402.303V449H2207.72V404.611C2207.72 395.822 2213.22 389.341 2222.81 389.341C2230.27 389.341 2236.66 393.292 2236.66 403.368V449H2247.14V403.368C2247.14 387.343 2238.53 379.93 2226.36 379.93C2216.6 379.93 2209.45 384.414 2205.94 391.472H2205.23C2201.86 384.192 2195.91 379.93 2186.95 379.93C2178.07 379.93 2171.5 384.192 2168.66 391.472H2167.77V380.818H2157.65V449ZM2286.36 450.598C2298.25 450.598 2304.47 444.206 2306.6 439.767H2307.13V449H2317.61V404.078C2317.61 382.416 2301.09 379.93 2292.39 379.93C2282.09 379.93 2270.38 383.482 2265.05 395.911L2274.99 399.462C2277.3 394.49 2282.76 389.163 2292.75 389.163C2302.38 389.163 2307.13 394.268 2307.13 403.013V403.368C2307.13 408.428 2301.98 407.984 2289.55 409.582C2276.9 411.225 2263.1 414.021 2263.1 429.646C2263.1 442.963 2273.39 450.598 2286.36 450.598ZM2287.95 441.188C2279.61 441.188 2273.57 437.459 2273.57 430.179C2273.57 422.189 2280.85 419.703 2289.02 418.638C2293.46 418.105 2305.35 416.862 2307.13 414.732V424.32C2307.13 432.842 2300.38 441.188 2287.95 441.188ZM2362.47 450.42C2375.61 450.42 2380.05 442.253 2382.36 438.524H2383.6V449H2393.72V358.091H2383.25V391.649H2382.36C2380.05 388.098 2375.97 379.93 2362.65 379.93C2345.43 379.93 2333.53 393.602 2333.53 415.087C2333.53 436.749 2345.43 450.42 2362.47 450.42ZM2363.89 441.01C2350.75 441.01 2344.01 429.469 2344.01 414.909C2344.01 400.527 2350.58 389.341 2363.89 389.341C2376.68 389.341 2383.42 399.639 2383.42 414.909C2383.42 430.357 2376.5 441.01 2363.89 441.01ZM2442.95 450.42C2456.8 450.42 2466.92 443.496 2470.12 433.197L2460 430.357C2457.33 437.459 2451.16 441.01 2442.95 441.01C2430.65 441.01 2422.18 433.064 2421.69 418.46H2471.18V414.021C2471.18 388.631 2456.09 379.93 2441.88 379.93C2423.42 379.93 2411.17 394.49 2411.17 415.442C2411.17 436.393 2423.24 450.42 2442.95 450.42ZM2421.69 409.405C2422.4 398.796 2429.9 389.341 2441.88 389.341C2453.25 389.341 2460.53 397.864 2460.53 409.405H2421.69ZM2551.93 380.818H2537.37V364.483H2526.89V380.818H2516.59V389.696H2526.89V432.31C2526.89 444.206 2536.48 449.888 2545.36 449.888C2549.26 449.888 2551.75 449.178 2553.17 448.645L2551.04 439.234C2550.15 439.412 2548.73 439.767 2546.42 439.767C2541.8 439.767 2537.37 438.347 2537.37 429.469V389.696H2551.93V380.818ZM2579.62 407.984C2579.62 396.088 2587.21 389.341 2597.56 389.341C2607.41 389.341 2613.36 395.555 2613.36 406.386V449H2623.84V405.676C2623.84 388.142 2614.51 379.93 2600.58 379.93C2589.83 379.93 2583.71 384.414 2580.51 391.472H2579.62V358.091H2569.15V449H2579.62V407.984ZM2671.59 450.42C2685.44 450.42 2695.56 443.496 2698.75 433.197L2688.63 430.357C2685.97 437.459 2679.8 441.01 2671.59 441.01C2659.29 441.01 2650.81 433.064 2650.32 418.46H2699.82V414.021C2699.82 388.631 2684.73 379.93 2670.52 379.93C2652.06 379.93 2639.8 394.49 2639.8 415.442C2639.8 436.393 2651.88 450.42 2671.59 450.42ZM2650.32 409.405C2651.04 398.796 2658.54 389.341 2670.52 389.341C2681.89 389.341 2689.17 397.864 2689.17 409.405H2650.32ZM2764.05 396.088C2760.77 386.411 2753.4 379.93 2739.9 379.93C2725.52 379.93 2714.87 388.098 2714.87 399.639C2714.87 409.05 2720.46 415.353 2732.98 418.283L2744.34 420.946C2751.22 422.544 2754.46 425.829 2754.46 430.534C2754.46 436.393 2748.25 441.188 2738.48 441.188C2729.91 441.188 2724.54 437.503 2722.68 430.179L2712.74 432.665C2715.18 444.25 2724.72 450.42 2738.66 450.42C2754.51 450.42 2765.29 441.765 2765.29 430.001C2765.29 420.502 2759.34 414.51 2747.18 411.536L2737.06 409.05C2728.98 407.052 2725.34 404.344 2725.34 399.107C2725.34 393.247 2731.56 388.986 2739.9 388.986C2749.05 388.986 2752.82 394.046 2754.64 398.751L2764.05 396.088ZM2809.65 450.42C2823.5 450.42 2833.62 443.496 2836.82 433.197L2826.69 430.357C2824.03 437.459 2817.86 441.01 2809.65 441.01C2797.35 441.01 2788.87 433.064 2788.39 418.46H2837.88V414.021C2837.88 388.631 2822.79 379.93 2808.58 379.93C2790.12 379.93 2777.87 394.49 2777.87 415.442C2777.87 436.393 2789.94 450.42 2809.65 450.42ZM2788.39 409.405C2789.1 398.796 2796.6 389.341 2808.58 389.341C2819.95 389.341 2827.23 397.864 2827.23 409.405H2788.39ZM2916.67 450.42C2931.76 450.42 2941.71 441.188 2943.48 429.114H2933.01C2931.05 436.571 2924.84 441.01 2916.67 441.01C2904.24 441.01 2896.25 430.712 2896.25 414.909C2896.25 399.462 2904.42 389.341 2916.67 389.341C2925.9 389.341 2931.41 395.023 2933.01 401.237H2943.48C2941.71 388.453 2930.88 379.93 2916.49 379.93C2898.03 379.93 2885.78 394.49 2885.78 415.264C2885.78 435.683 2897.5 450.42 2916.67 450.42ZM2969.27 407.984C2969.27 396.088 2976.86 389.341 2987.21 389.341C2997.06 389.341 3003.01 395.555 3003.01 406.386V449H3013.48V405.676C3013.48 388.142 3004.16 379.93 2990.22 379.93C2979.48 379.93 2973.36 384.414 2970.16 391.472H2969.27V358.091H2958.8V449H2969.27V407.984ZM3052.71 450.598C3064.61 450.598 3070.82 444.206 3072.95 439.767H3073.49V449H3083.96V404.078C3083.96 382.416 3067.45 379.93 3058.75 379.93C3048.45 379.93 3036.73 383.482 3031.41 395.911L3041.35 399.462C3043.66 394.49 3049.12 389.163 3059.11 389.163C3068.74 389.163 3073.49 394.268 3073.49 403.013V403.368C3073.49 408.428 3068.34 407.984 3055.91 409.582C3043.26 411.225 3029.45 414.021 3029.45 429.646C3029.45 442.963 3039.75 450.598 3052.71 450.598ZM3054.31 441.188C3045.97 441.188 3039.93 437.459 3039.93 430.179C3039.93 422.189 3047.21 419.703 3055.38 418.638C3059.82 418.105 3071.71 416.862 3073.49 414.732V424.32C3073.49 432.842 3066.74 441.188 3054.31 441.188ZM3113.56 407.984C3113.56 396.088 3120.93 389.341 3130.96 389.341C3140.68 389.341 3146.59 395.689 3146.59 406.386V449H3157.06V405.676C3157.06 388.276 3147.78 379.93 3133.98 379.93C3123.68 379.93 3117.29 384.547 3114.09 391.472H3113.2V380.818H3103.08V449H3113.56V407.984ZM3203.73 475.989C3220.06 475.989 3233.2 468.531 3233.2 450.953V380.818H3223.08V391.649H3222.01C3219.71 388.098 3215.44 379.93 3202.13 379.93C3184.9 379.93 3173.01 393.602 3173.01 414.554C3173.01 435.861 3185.44 447.935 3201.95 447.935C3215.27 447.935 3219.53 440.122 3221.84 436.393H3222.72V450.243C3222.72 461.607 3214.73 466.756 3203.73 466.756C3191.34 466.756 3186.99 460.23 3184.19 456.457L3175.85 462.317C3180.11 469.463 3188.5 475.989 3203.73 475.989ZM3203.37 438.524C3190.23 438.524 3183.48 428.581 3183.48 414.376C3183.48 400.527 3190.05 389.341 3203.37 389.341C3216.15 389.341 3222.9 399.639 3222.9 414.376C3222.9 429.469 3215.98 438.524 3203.37 438.524ZM3280.96 450.42C3294.81 450.42 3304.93 443.496 3308.13 433.197L3298.01 430.357C3295.34 437.459 3289.17 441.01 3280.96 441.01C3268.67 441.01 3260.19 433.064 3259.7 418.46H3309.19V414.021C3309.19 388.631 3294.1 379.93 3279.9 379.93C3261.43 379.93 3249.18 394.49 3249.18 415.442C3249.18 436.393 3261.25 450.42 3280.96 450.42ZM3259.7 409.405C3260.41 398.796 3267.91 389.341 3279.9 389.341C3291.26 389.341 3298.54 397.864 3298.54 409.405H3259.7ZM3373.43 396.088C3370.14 386.411 3362.77 379.93 3349.28 379.93C3334.9 379.93 3324.24 388.098 3324.24 399.639C3324.24 409.05 3329.83 415.353 3342.35 418.283L3353.72 420.946C3360.6 422.544 3363.84 425.829 3363.84 430.534C3363.84 436.393 3357.62 441.188 3347.86 441.188C3339.29 441.188 3333.92 437.503 3332.05 430.179L3322.11 432.665C3324.55 444.25 3334.1 450.42 3348.03 450.42C3363.88 450.42 3374.67 441.765 3374.67 430.001C3374.67 420.502 3368.72 414.51 3356.56 411.536L3346.44 409.05C3338.36 407.052 3334.72 404.344 3334.72 399.107C3334.72 393.247 3340.93 388.986 3349.28 388.986C3358.42 388.986 3362.19 394.046 3364.01 398.751L3373.43 396.088Z" fill="#FF7400"/>
<path d="M2349.93 888.071C2353.83 891.976 2360.17 891.976 2364.07 888.071L2427.71 824.431C2431.62 820.526 2431.62 814.195 2427.71 810.289C2423.81 806.384 2417.47 806.384 2413.57 810.289L2357 866.858L2300.43 810.289C2296.53 806.384 2290.19 806.384 2286.29 810.289C2282.38 814.195 2282.38 820.526 2286.29 824.431L2349.93 888.071ZM2347 546V881H2367V546H2347Z" fill="#FF7400"/>
<path d="M2861.93 888.071C2865.83 891.976 2872.17 891.976 2876.07 888.071L2939.71 824.431C2943.62 820.526 2943.62 814.195 2939.71 810.289C2935.81 806.384 2929.47 806.384 2925.57 810.289L2869 866.858L2812.43 810.289C2808.53 806.384 2802.19 806.384 2798.29 810.289C2794.38 814.195 2794.38 820.526 2798.29 824.431L2861.93 888.071ZM2859 546V881H2879V546H2859Z" fill="#FF7400"/>
<path d="M1845.93 888.071C1849.83 891.976 1856.17 891.976 1860.07 888.071L1923.71 824.431C1927.62 820.526 1927.62 814.195 1923.71 810.289C1919.81 806.384 1913.47 806.384 1909.57 810.289L1853 866.858L1796.43 810.289C1792.53 806.384 1786.19 806.384 1782.29 810.289C1778.38 814.195 1778.38 820.526 1782.29 824.431L1845.93 888.071ZM1843 546V881H1863V546H1843Z" fill="#FF7400"/>
<path d="M3105.35 1995H3158.62V1985.23H3116.36V1904.09H3105.35V1995ZM3202.83 1996.42C3216.68 1996.42 3226.8 1989.5 3229.99 1979.2L3219.87 1976.36C3217.21 1983.46 3211.04 1987.01 3202.83 1987.01C3190.53 1987.01 3182.05 1979.06 3181.57 1964.46H3231.06V1960.02C3231.06 1934.63 3215.97 1925.93 3201.76 1925.93C3183.3 1925.93 3171.04 1940.49 3171.04 1961.44C3171.04 1982.39 3183.12 1996.42 3202.83 1996.42ZM3181.57 1955.4C3182.28 1944.8 3189.78 1935.34 3201.76 1935.34C3213.13 1935.34 3220.41 1943.86 3220.41 1955.4H3181.57ZM3275.58 1996.42C3289.43 1996.42 3299.55 1989.5 3302.75 1979.2L3292.63 1976.36C3289.96 1983.46 3283.79 1987.01 3275.58 1987.01C3263.29 1987.01 3254.81 1979.06 3254.32 1964.46H3303.81V1960.02C3303.81 1934.63 3288.72 1925.93 3274.52 1925.93C3256.05 1925.93 3243.8 1940.49 3243.8 1961.44C3243.8 1982.39 3255.87 1996.42 3275.58 1996.42ZM3254.32 1955.4C3255.03 1944.8 3262.53 1935.34 3274.52 1935.34C3285.88 1935.34 3293.16 1943.86 3293.16 1955.4H3254.32ZM3330.22 1953.98C3330.22 1942.09 3337.59 1935.34 3347.63 1935.34C3357.35 1935.34 3363.25 1941.69 3363.25 1952.39V1995H3373.73V1951.68C3373.73 1934.28 3364.45 1925.93 3350.64 1925.93C3340.35 1925.93 3333.95 1930.55 3330.76 1937.47H3329.87V1926.82H3319.75V1995H3330.22V1953.98ZM3412.93 1996.6C3424.83 1996.6 3431.04 1990.21 3433.17 1985.77H3433.71V1995H3444.18V1950.08C3444.18 1928.42 3427.67 1925.93 3418.97 1925.93C3408.67 1925.93 3396.95 1929.48 3391.63 1941.91L3401.57 1945.46C3403.88 1940.49 3409.34 1935.16 3419.32 1935.16C3428.96 1935.16 3433.71 1940.27 3433.71 1949.01V1949.37C3433.71 1954.43 3428.56 1953.98 3416.13 1955.58C3403.48 1957.22 3389.67 1960.02 3389.67 1975.65C3389.67 1988.96 3399.97 1996.6 3412.93 1996.6ZM3414.53 1987.19C3406.19 1987.19 3400.15 1983.46 3400.15 1976.18C3400.15 1968.19 3407.43 1965.7 3415.6 1964.64C3420.04 1964.11 3431.93 1962.86 3433.71 1960.73V1970.32C3433.71 1978.84 3426.96 1987.19 3414.53 1987.19ZM3498.46 1995H3508.94V1952.39C3508.94 1942.4 3516.22 1935.34 3524.38 1935.34C3532.33 1935.34 3537.88 1940.53 3537.88 1948.3V1995H3548.53V1950.61C3548.53 1941.82 3554.03 1935.34 3563.62 1935.34C3571.08 1935.34 3577.47 1939.29 3577.47 1949.37V1995H3587.95V1949.37C3587.95 1933.34 3579.34 1925.93 3567.17 1925.93C3557.41 1925.93 3550.26 1930.41 3546.76 1937.47H3546.04C3542.67 1930.19 3536.72 1925.93 3527.76 1925.93C3518.88 1925.93 3512.31 1930.19 3509.47 1937.47H3508.58V1926.82H3498.46V1995ZM3627.17 1996.6C3639.06 1996.6 3645.28 1990.21 3647.41 1985.77H3647.94V1995H3658.42V1950.08C3658.42 1928.42 3641.9 1925.93 3633.2 1925.93C3622.9 1925.93 3611.19 1929.48 3605.86 1941.91L3615.8 1945.46C3618.11 1940.49 3623.57 1935.16 3633.56 1935.16C3643.19 1935.16 3647.94 1940.27 3647.94 1949.01V1949.37C3647.94 1954.43 3642.79 1953.98 3630.36 1955.58C3617.71 1957.22 3603.91 1960.02 3603.91 1975.65C3603.91 1988.96 3614.2 1996.6 3627.17 1996.6ZM3628.76 1987.19C3620.42 1987.19 3614.38 1983.46 3614.38 1976.18C3614.38 1968.19 3621.66 1965.7 3629.83 1964.64C3634.27 1964.11 3646.16 1962.86 3647.94 1960.73V1970.32C3647.94 1978.84 3641.19 1987.19 3628.76 1987.19ZM3703.28 1996.42C3716.42 1996.42 3720.86 1988.25 3723.17 1984.52H3724.41V1995H3734.53V1904.09H3724.06V1937.65H3723.17C3720.86 1934.1 3716.78 1925.93 3703.46 1925.93C3686.24 1925.93 3674.34 1939.6 3674.34 1961.09C3674.34 1982.75 3686.24 1996.42 3703.28 1996.42ZM3704.7 1987.01C3691.56 1987.01 3684.82 1975.47 3684.82 1960.91C3684.82 1946.53 3691.39 1935.34 3704.7 1935.34C3717.49 1935.34 3724.23 1945.64 3724.23 1960.91C3724.23 1976.36 3717.31 1987.01 3704.7 1987.01ZM3783.76 1996.42C3797.61 1996.42 3807.73 1989.5 3810.93 1979.2L3800.81 1976.36C3798.14 1983.46 3791.97 1987.01 3783.76 1987.01C3771.46 1987.01 3762.99 1979.06 3762.5 1964.46H3811.99V1960.02C3811.99 1934.63 3796.9 1925.93 3782.69 1925.93C3764.23 1925.93 3751.98 1940.49 3751.98 1961.44C3751.98 1982.39 3764.05 1996.42 3783.76 1996.42ZM3762.5 1955.4C3763.21 1944.8 3770.71 1935.34 3782.69 1935.34C3794.06 1935.34 3801.34 1943.86 3801.34 1955.4H3762.5ZM3892.74 1926.82H3878.18V1910.48H3867.7V1926.82H3857.4V1935.7H3867.7V1978.31C3867.7 1990.21 3877.29 1995.89 3886.17 1995.89C3890.07 1995.89 3892.56 1995.18 3893.98 1994.64L3891.85 1985.23C3890.96 1985.41 3889.54 1985.77 3887.23 1985.77C3882.61 1985.77 3878.18 1984.35 3878.18 1975.47V1935.7H3892.74V1926.82ZM3920.43 1953.98C3920.43 1942.09 3928.03 1935.34 3938.37 1935.34C3948.22 1935.34 3954.17 1941.56 3954.17 1952.39V1995H3964.65V1951.68C3964.65 1934.14 3955.32 1925.93 3941.39 1925.93C3930.64 1925.93 3924.52 1930.41 3921.32 1937.47H3920.43V1904.09H3909.96V1995H3920.43V1953.98ZM4012.4 1996.42C4026.25 1996.42 4036.37 1989.5 4039.56 1979.2L4029.44 1976.36C4026.78 1983.46 4020.61 1987.01 4012.4 1987.01C4000.1 1987.01 3991.62 1979.06 3991.14 1964.46H4040.63V1960.02C4040.63 1934.63 4025.54 1925.93 4011.33 1925.93C3992.87 1925.93 3980.62 1940.49 3980.62 1961.44C3980.62 1982.39 3992.69 1996.42 4012.4 1996.42ZM3991.14 1955.4C3991.85 1944.8 3999.35 1935.34 4011.33 1935.34C4022.7 1935.34 4029.98 1943.86 4029.98 1955.4H3991.14ZM4104.86 1942.09C4101.58 1932.41 4094.21 1925.93 4080.71 1925.93C4066.33 1925.93 4055.68 1934.1 4055.68 1945.64C4055.68 1955.05 4061.27 1961.35 4073.79 1964.28L4085.15 1966.95C4092.03 1968.54 4095.27 1971.83 4095.27 1976.53C4095.27 1982.39 4089.06 1987.19 4079.29 1987.19C4070.73 1987.19 4065.35 1983.5 4063.49 1976.18L4053.55 1978.66C4055.99 1990.25 4065.53 1996.42 4079.47 1996.42C4095.32 1996.42 4106.1 1987.76 4106.1 1976C4106.1 1966.5 4100.16 1960.51 4087.99 1957.54L4077.87 1955.05C4069.79 1953.05 4066.15 1950.34 4066.15 1945.11C4066.15 1939.25 4072.37 1934.99 4080.71 1934.99C4089.86 1934.99 4093.63 1940.05 4095.45 1944.75L4104.86 1942.09ZM4150.46 1996.42C4164.31 1996.42 4174.43 1989.5 4177.63 1979.2L4167.5 1976.36C4164.84 1983.46 4158.67 1987.01 4150.46 1987.01C4138.16 1987.01 4129.69 1979.06 4129.2 1964.46H4178.69V1960.02C4178.69 1934.63 4163.6 1925.93 4149.39 1925.93C4130.93 1925.93 4118.68 1940.49 4118.68 1961.44C4118.68 1982.39 4130.75 1996.42 4150.46 1996.42ZM4129.2 1955.4C4129.91 1944.8 4137.41 1935.34 4149.39 1935.34C4160.76 1935.34 4168.04 1943.86 4168.04 1955.4H4129.2ZM4257.48 1996.42C4272.57 1996.42 4282.52 1987.19 4284.29 1975.11H4273.82C4271.86 1982.57 4265.65 1987.01 4257.48 1987.01C4245.05 1987.01 4237.06 1976.71 4237.06 1960.91C4237.06 1945.46 4245.23 1935.34 4257.48 1935.34C4266.71 1935.34 4272.22 1941.02 4273.82 1947.24H4284.29C4282.52 1934.45 4271.69 1925.93 4257.3 1925.93C4238.84 1925.93 4226.59 1940.49 4226.59 1961.26C4226.59 1981.68 4238.31 1996.42 4257.48 1996.42ZM4310.08 1953.98C4310.08 1942.09 4317.67 1935.34 4328.02 1935.34C4337.87 1935.34 4343.82 1941.56 4343.82 1952.39V1995H4354.29V1951.68C4354.29 1934.14 4344.97 1925.93 4331.03 1925.93C4320.29 1925.93 4314.17 1930.41 4310.97 1937.47H4310.08V1904.09H4299.61V1995H4310.08V1953.98ZM4393.52 1996.6C4405.42 1996.6 4411.63 1990.21 4413.77 1985.77H4414.3V1995H4424.77V1950.08C4424.77 1928.42 4408.26 1925.93 4399.56 1925.93C4389.26 1925.93 4377.54 1929.48 4372.22 1941.91L4382.16 1945.46C4384.47 1940.49 4389.93 1935.16 4399.92 1935.16C4409.55 1935.16 4414.3 1940.27 4414.3 1949.01V1949.37C4414.3 1954.43 4409.15 1953.98 4396.72 1955.58C4384.07 1957.22 4370.26 1960.02 4370.26 1975.65C4370.26 1988.96 4380.56 1996.6 4393.52 1996.6ZM4395.12 1987.19C4386.78 1987.19 4380.74 1983.46 4380.74 1976.18C4380.74 1968.19 4388.02 1965.7 4396.19 1964.64C4400.63 1964.11 4412.52 1962.86 4414.3 1960.73V1970.32C4414.3 1978.84 4407.55 1987.19 4395.12 1987.19ZM4454.37 1953.98C4454.37 1942.09 4461.74 1935.34 4471.77 1935.34C4481.49 1935.34 4487.4 1941.69 4487.4 1952.39V1995H4497.87V1951.68C4497.87 1934.28 4488.59 1925.93 4474.79 1925.93C4464.49 1925.93 4458.1 1930.55 4454.9 1937.47H4454.01V1926.82H4443.89V1995H4454.37V1953.98ZM4544.54 2021.99C4560.87 2021.99 4574.01 2014.53 4574.01 1996.95V1926.82H4563.89V1937.65H4562.82C4560.52 1934.1 4556.25 1925.93 4542.94 1925.93C4525.71 1925.93 4513.82 1939.6 4513.82 1960.55C4513.82 1981.86 4526.25 1993.93 4542.76 1993.93C4556.08 1993.93 4560.34 1986.12 4562.65 1982.39H4563.53V1996.24C4563.53 2007.61 4555.54 2012.76 4544.54 2012.76C4532.15 2012.76 4527.8 2006.23 4525 2002.46L4516.66 2008.32C4520.92 2015.46 4529.31 2021.99 4544.54 2021.99ZM4544.18 1984.52C4531.04 1984.52 4524.29 1974.58 4524.29 1960.38C4524.29 1946.53 4530.86 1935.34 4544.18 1935.34C4556.96 1935.34 4563.71 1945.64 4563.71 1960.38C4563.71 1975.47 4556.79 1984.52 4544.18 1984.52ZM4621.77 1996.42C4635.62 1996.42 4645.74 1989.5 4648.94 1979.2L4638.82 1976.36C4636.15 1983.46 4629.98 1987.01 4621.77 1987.01C4609.48 1987.01 4601 1979.06 4600.51 1964.46H4650V1960.02C4650 1934.63 4634.91 1925.93 4620.71 1925.93C4602.24 1925.93 4589.99 1940.49 4589.99 1961.44C4589.99 1982.39 4602.06 1996.42 4621.77 1996.42ZM4600.51 1955.4C4601.22 1944.8 4608.72 1935.34 4620.71 1935.34C4632.07 1935.34 4639.35 1943.86 4639.35 1955.4H4600.51ZM4714.24 1942.09C4710.95 1932.41 4703.58 1925.93 4690.09 1925.93C4675.71 1925.93 4665.05 1934.1 4665.05 1945.64C4665.05 1955.05 4670.65 1961.35 4683.16 1964.28L4694.53 1966.95C4701.41 1968.54 4704.65 1971.83 4704.65 1976.53C4704.65 1982.39 4698.43 1987.19 4688.67 1987.19C4680.1 1987.19 4674.73 1983.5 4672.86 1976.18L4662.92 1978.66C4665.36 1990.25 4674.91 1996.42 4688.84 1996.42C4704.69 1996.42 4715.48 1987.76 4715.48 1976C4715.48 1966.5 4709.53 1960.51 4697.37 1957.54L4687.25 1955.05C4679.17 1953.05 4675.53 1950.34 4675.53 1945.11C4675.53 1939.25 4681.74 1934.99 4690.09 1934.99C4699.23 1934.99 4703.01 1940.05 4704.83 1944.75L4714.24 1942.09Z" fill="#FF7400"/>
<path d="M3388.07 1481.93C3384.17 1478.02 3377.83 1478.02 3373.93 1481.93L3310.29 1545.57C3306.38 1549.47 3306.38 1555.81 3310.29 1559.71C3314.19 1563.62 3320.53 1563.62 3324.43 1559.71L3381 1503.14L3437.57 1559.71C3441.47 1563.62 3447.81 1563.62 3451.71 1559.71C3455.62 1555.81 3455.62 1549.47 3451.71 1545.57L3388.07 1481.93ZM3391 1824V1489H3371V1824H3391Z" fill="#FF7400"/>
<path d="M3921.07 1481.93C3917.17 1478.02 3910.83 1478.02 3906.93 1481.93L3843.29 1545.57C3839.38 1549.47 3839.38 1555.81 3843.29 1559.71C3847.19 1563.62 3853.53 1563.62 3857.43 1559.71L3914 1503.14L3970.57 1559.71C3974.47 1563.62 3980.81 1563.62 3984.71 1559.71C3988.62 1555.81 3988.62 1549.47 3984.71 1545.57L3921.07 1481.93ZM3924 1824V1489H3904V1824H3924Z" fill="#FF7400"/>
<path d="M4433.07 1481.93C4429.17 1478.02 4422.83 1478.02 4418.93 1481.93L4355.29 1545.57C4351.38 1549.47 4351.38 1555.81 4355.29 1559.71C4359.19 1563.62 4365.53 1563.62 4369.43 1559.71L4426 1503.14L4482.57 1559.71C4486.47 1563.62 4492.81 1563.62 4496.71 1559.71C4500.62 1555.81 4500.62 1549.47 4496.71 1545.57L4433.07 1481.93ZM4436 1824V1489H4416V1824H4436Z" fill="#FF7400"/>
<path d="M4930.93 952.071C4934.83 955.976 4941.17 955.976 4945.07 952.071L5008.71 888.431C5012.62 884.526 5012.62 878.195 5008.71 874.289C5004.81 870.384 4998.47 870.384 4994.57 874.289L4938 930.858L4881.43 874.289C4877.53 870.384 4871.19 870.384 4867.29 874.289C4863.38 878.195 4863.38 884.526 4867.29 888.431L4930.93 952.071ZM4928 610V945H4948V610H4928Z" fill="#FF7400"/>
</svg>
