<svg width="4944" height="1738" viewBox="0 0 4944 1738" fill="none" xmlns="http://www.w3.org/2000/svg">
<circle cx="234" cy="1039" r="190" fill="#EEEEEE" stroke="#FF7400" stroke-width="20"/>
<path d="M936 1039C936 1143.93 850.934 1229 746 1229C641.066 1229 556 1143.93 556 1039C556 934.066 641.066 849 746 849C850.934 849 936 934.066 936 1039Z" fill="#EEEEEE" stroke="#FF7400" stroke-width="20"/>
<path d="M1448 1039C1448 1143.93 1362.93 1229 1258 1229C1153.07 1229 1068 1143.93 1068 1039C1068 934.066 1153.07 849 1258 849C1362.93 849 1448 934.066 1448 1039Z" fill="#EEEEEE" stroke="#FF7400" stroke-width="20"/>
<circle cx="1770" cy="1039" r="190" fill="#EEEEEE" stroke="#FF7400" stroke-width="20"/>
<path d="M2472 1039C2472 1143.93 2386.93 1229 2282 1229C2177.07 1229 2092 1143.93 2092 1039C2092 934.066 2177.07 849 2282 849C2386.93 849 2472 934.066 2472 1039Z" fill="#EEEEEE" stroke="#FF7400" stroke-width="20"/>
<path d="M2984 1039C2984 1143.93 2898.93 1229 2794 1229C2689.07 1229 2604 1143.93 2604 1039C2604 934.066 2689.07 849 2794 849C2898.93 849 2984 934.066 2984 1039Z" fill="#EEEEEE" stroke="#FF7400" stroke-width="20"/>
<circle cx="3327" cy="1039" r="190" fill="#EEEEEE" stroke="#FF7400" stroke-width="20"/>
<path d="M4029 1039C4029 1143.93 3943.93 1229 3839 1229C3734.07 1229 3649 1143.93 3649 1039C3649 934.066 3734.07 849 3839 849C3943.93 849 4029 934.066 4029 1039Z" fill="#EEEEEE" stroke="#FF7400" stroke-width="20"/>
<path d="M4551 1039C4551 1149.46 4461.46 1239 4351 1239C4240.54 1239 4151 1149.46 4151 1039C4151 928.543 4240.54 839 4351 839C4461.46 839 4551 928.543 4551 1039Z" fill="#FF7400"/>
<path d="M3866.4 76.4332C3863.73 50.3324 3844.29 35.4176 3817.92 35.4176C3788.84 35.4176 3766.2 55.3928 3766.2 91.4545C3766.2 127.357 3788.31 147.491 3817.92 147.491C3847.86 147.491 3864.43 127.143 3866.4 107.808L3839.76 107.648C3837.9 118.141 3830.02 124.374 3818.46 124.374C3802.9 124.374 3793.1 113.134 3793.1 91.4545C3793.1 70.6271 3802.69 58.5355 3818.62 58.5355C3830.6 58.5355 3838.43 65.5135 3839.76 76.4332H3866.4ZM3934.27 110.684C3934.27 120.219 3928.2 125.545 3920.48 125.545C3912.49 125.545 3907.59 120.112 3907.53 111.217V64.1818H3881.48V116.33C3881.54 134.814 3892.78 147.065 3909.61 147.065C3921.86 147.065 3930.97 140.78 3934.59 130.766H3935.44V146H3960.27V64.1818H3934.27V110.684ZM3976.85 146H4002.89V101.575C4002.89 91.8274 4009.82 85.2756 4019.14 85.2756C4022.23 85.2756 4026.86 85.8082 4029.37 86.6605V64.022C4027.18 63.4361 4024.47 63.0632 4022.07 63.0632C4013.12 63.0632 4005.98 68.2834 4003 79.0966H4002.15V64.1818H3976.85V146ZM4039.98 146H4066.03V101.575C4066.03 91.8274 4072.95 85.2756 4082.28 85.2756C4085.36 85.2756 4090 85.8082 4092.5 86.6605V64.022C4090.32 63.4361 4087.6 63.0632 4085.2 63.0632C4076.26 63.0632 4069.12 68.2834 4066.14 79.0966H4065.28V64.1818H4039.98V146ZM4137.11 147.545C4158.58 147.545 4172.7 137.158 4175.68 121.071L4151.76 120.379C4149.74 125.812 4144.41 128.741 4137.59 128.741C4127.58 128.741 4121.4 122.083 4121.4 112.069V111.376H4175.95V104.878C4175.95 77.9247 4159.54 63.1165 4136.31 63.1165C4111.6 63.1165 4095.72 80.0554 4095.72 105.411C4095.72 131.618 4111.39 147.545 4137.11 147.545ZM4121.4 96.2486C4121.77 88.0987 4128.22 81.9197 4136.85 81.9197C4145.42 81.9197 4151.6 87.8857 4151.71 96.2486H4121.4ZM4215.3 99.3381C4215.35 90.0163 4220.78 84.4766 4229.04 84.4766C4237.3 84.4766 4242.2 89.9098 4242.14 98.9652V146H4268.19V93.8516C4268.24 75.4212 4257 63.1165 4239.8 63.1165C4227.71 63.1165 4218.55 69.2422 4214.92 79.2031H4214.02V64.1818H4189.25V146H4215.3V99.3381ZM4330.5 64.1818H4315.74V44.5795H4289.7V64.1818H4278.88V83.358H4289.7V123.148C4289.54 139.714 4300.3 148.024 4318.67 147.172C4324.96 146.852 4329.49 145.574 4331.99 144.828L4328.05 126.025C4326.93 126.291 4324.32 126.824 4322.35 126.824C4318.14 126.824 4315.74 125.119 4315.74 120.272V83.358H4330.5V64.1818ZM4400.79 36.9091H4371.28L4408.08 146H4443.19L4479.99 36.9091H4450.48L4426.09 116.81H4425.18L4400.79 36.9091ZM4520.02 147.545C4541.49 147.545 4555.61 137.158 4558.59 121.071L4534.67 120.379C4532.65 125.812 4527.32 128.741 4520.5 128.741C4510.49 128.741 4504.31 122.083 4504.31 112.069V111.376H4558.86V104.878C4558.86 77.9247 4542.45 63.1165 4519.22 63.1165C4494.51 63.1165 4478.64 80.0554 4478.64 105.411C4478.64 131.618 4494.3 147.545 4520.02 147.545ZM4504.31 96.2486C4504.68 88.0987 4511.13 81.9197 4519.76 81.9197C4528.33 81.9197 4534.51 87.8857 4534.62 96.2486H4504.31ZM4572.16 146H4598.21V101.575C4598.21 91.8274 4605.13 85.2756 4614.45 85.2756C4617.54 85.2756 4622.18 85.8082 4624.68 86.6605V64.022C4622.5 63.4361 4619.78 63.0632 4617.38 63.0632C4608.43 63.0632 4601.3 68.2834 4598.31 79.0966H4597.46V64.1818H4572.16V146ZM4706.72 89.1641C4705.34 72.9709 4692.08 63.1165 4669.92 63.1165C4647.76 63.1165 4633.64 72.7578 4633.75 89.1641C4633.64 101.735 4641.69 109.832 4658.04 112.868L4672.31 115.585C4679.08 116.916 4682.17 119.047 4682.28 122.669C4682.17 126.771 4677.59 129.487 4670.93 129.487C4663.53 129.487 4658.52 126.291 4657.4 120.325L4631.67 120.964C4633.54 137.158 4647.44 147.545 4670.82 147.545C4692.72 147.545 4708.64 136.625 4708.75 119.793C4708.64 107.861 4700.76 100.776 4684.46 97.6335L4668.69 94.6506C4661.77 93.2656 4659.53 90.8153 4659.58 87.6726C4659.53 83.5178 4664.38 80.9609 4670.4 80.9609C4677.27 80.9609 4682.06 84.6364 4682.81 89.8033L4706.72 89.1641ZM4721.57 146H4747.62V64.1818H4721.57V146ZM4734.62 54.647C4742.03 54.647 4747.99 49.054 4747.99 42.1825C4747.99 35.3111 4742.03 29.7713 4734.62 29.7713C4727.27 29.7713 4721.25 35.3111 4721.25 42.1825C4721.25 49.054 4727.27 54.647 4734.62 54.647ZM4802.39 147.545C4828.12 147.545 4843.73 130.553 4843.73 105.357C4843.73 80.1087 4828.12 63.1165 4802.39 63.1165C4776.66 63.1165 4761.06 80.1087 4761.06 105.357C4761.06 130.553 4776.66 147.545 4802.39 147.545ZM4802.55 127.889C4792.91 127.889 4787.58 118.727 4787.58 105.197C4787.58 91.6143 4792.91 82.3991 4802.55 82.3991C4811.87 82.3991 4817.2 91.6143 4817.2 105.197C4817.2 118.727 4811.87 127.889 4802.55 127.889ZM4883.12 99.3381C4883.17 90.0163 4888.6 84.4766 4896.86 84.4766C4905.12 84.4766 4910.02 89.9098 4909.97 98.9652V146H4936.01V93.8516C4936.07 75.4212 4924.83 63.1165 4907.62 63.1165C4895.53 63.1165 4886.37 69.2422 4882.75 79.2031H4881.84V64.1818H4857.07V146H4883.12V99.3381ZM3921.07 329.545C3946.8 329.545 3962.4 312.553 3962.4 287.357C3962.4 262.109 3946.8 245.116 3921.07 245.116C3895.34 245.116 3879.73 262.109 3879.73 287.357C3879.73 312.553 3895.34 329.545 3921.07 329.545ZM3921.23 309.889C3911.59 309.889 3906.26 300.727 3906.26 287.197C3906.26 273.614 3911.59 264.399 3921.23 264.399C3930.55 264.399 3935.88 273.614 3935.88 287.197C3935.88 300.727 3930.55 309.889 3921.23 309.889ZM4022.25 246.182H4006.64V241.601C4006.64 236.913 4008.56 234.037 4014.63 234.037C4017.08 234.037 4020.07 234.57 4021.98 235.156L4026.14 216.086C4023.05 215.234 4015.96 213.795 4008.77 213.795C3992.1 213.795 3980.65 223.064 3980.65 242.027V246.182H3969.62V265.358H3980.65V328H4006.64V265.358H4022.25V246.182ZM4061.57 218.909L4101.47 291.565V328H4127.68V291.565L4167.58 218.909H4138.12L4115.05 264.559H4114.1L4091.03 218.909H4061.57ZM4197.92 329.545C4223.65 329.545 4239.26 312.553 4239.26 287.357C4239.26 262.109 4223.65 245.116 4197.92 245.116C4172.2 245.116 4156.59 262.109 4156.59 287.357C4156.59 312.553 4172.2 329.545 4197.92 329.545ZM4198.08 309.889C4188.44 309.889 4183.12 300.727 4183.12 287.197C4183.12 273.614 4188.44 264.399 4198.08 264.399C4207.41 264.399 4212.73 273.614 4212.73 287.197C4212.73 300.727 4207.41 309.889 4198.08 309.889ZM4305.39 292.684C4305.39 302.219 4299.32 307.545 4291.59 307.545C4283.6 307.545 4278.7 302.112 4278.65 293.217V246.182H4252.6V298.33C4252.66 316.814 4263.9 329.065 4280.73 329.065C4292.98 329.065 4302.09 322.78 4305.71 312.766H4306.56V328H4331.39V246.182H4305.39V292.684ZM4347.96 328H4374.01V283.575C4374.01 273.827 4380.94 267.276 4390.26 267.276C4393.35 267.276 4397.98 267.808 4400.49 268.661V246.022C4398.3 245.436 4395.59 245.063 4393.19 245.063C4384.24 245.063 4377.1 250.283 4374.12 261.097H4373.27V246.182H4347.96V328ZM4542.35 258.433C4539.69 232.332 4520.24 217.418 4493.88 217.418C4464.79 217.418 4442.15 237.393 4442.15 273.455C4442.15 309.357 4464.26 329.491 4493.88 329.491C4523.81 329.491 4540.38 309.143 4542.35 289.808L4515.72 289.648C4513.85 300.141 4505.97 306.374 4494.41 306.374C4478.85 306.374 4469.05 295.134 4469.05 273.455C4469.05 252.627 4478.64 240.536 4494.57 240.536C4506.55 240.536 4514.38 247.513 4515.72 258.433H4542.35ZM4595.63 329.545C4621.36 329.545 4636.96 312.553 4636.96 287.357C4636.96 262.109 4621.36 245.116 4595.63 245.116C4569.9 245.116 4554.29 262.109 4554.29 287.357C4554.29 312.553 4569.9 329.545 4595.63 329.545ZM4595.79 309.889C4586.15 309.889 4580.82 300.727 4580.82 287.197C4580.82 273.614 4586.15 264.399 4595.79 264.399C4605.11 264.399 4610.44 273.614 4610.44 287.197C4610.44 300.727 4605.11 309.889 4595.79 309.889ZM4680.19 329.172C4692.55 329.172 4699.9 322.3 4703.2 314.737H4704V328H4729.78V218.909H4703.73V260.191H4703.2C4700.11 252.68 4692.98 245.116 4680.08 245.116C4662.99 245.116 4647.48 258.273 4647.48 287.144C4647.48 315.003 4662.13 329.172 4680.19 329.172ZM4689.25 308.877C4679.61 308.877 4674.23 300.301 4674.23 287.091C4674.23 273.934 4679.55 265.464 4689.25 265.464C4698.78 265.464 4704.32 273.721 4704.32 287.091C4704.32 300.354 4698.73 308.877 4689.25 308.877ZM4784.5 329.545C4805.97 329.545 4820.08 319.158 4823.07 303.071L4799.15 302.379C4797.13 307.812 4791.8 310.741 4784.98 310.741C4774.97 310.741 4768.79 304.083 4768.79 294.069V293.376H4823.33V286.878C4823.33 259.925 4806.93 245.116 4783.7 245.116C4758.99 245.116 4743.11 262.055 4743.11 287.411C4743.11 313.618 4758.77 329.545 4784.5 329.545ZM4768.79 278.249C4769.16 270.099 4775.61 263.92 4784.23 263.92C4792.81 263.92 4798.99 269.886 4799.1 278.249H4768.79Z" fill="#FF7400"/>
<path d="M1102.21 1702H1115.42V1662.16H1139.28C1164.69 1662.16 1176.14 1646.71 1176.14 1627.43C1176.14 1608.14 1164.69 1592.91 1139.07 1592.91H1102.21V1702ZM1115.42 1650.44V1604.63H1138.64C1156.38 1604.63 1163.15 1614.32 1163.15 1627.43C1163.15 1640.53 1156.38 1650.44 1138.86 1650.44H1115.42ZM1219.8 1703.92C1234.07 1703.92 1241.53 1696.25 1244.09 1690.92H1244.73V1702H1257.3V1648.09C1257.3 1622.1 1237.48 1619.12 1227.04 1619.12C1214.68 1619.12 1200.62 1623.38 1194.23 1638.29L1206.16 1642.55C1208.93 1636.59 1215.48 1630.2 1227.47 1630.2C1239.03 1630.2 1244.73 1636.32 1244.73 1646.82V1647.24C1244.73 1653.31 1238.55 1652.78 1223.63 1654.7C1208.45 1656.67 1191.89 1660.03 1191.89 1678.78C1191.89 1694.76 1204.24 1703.92 1219.8 1703.92ZM1221.71 1692.62C1211.7 1692.62 1204.46 1688.15 1204.46 1679.41C1204.46 1669.83 1213.19 1666.84 1222.99 1665.57C1228.32 1664.93 1242.6 1663.43 1244.73 1660.88V1672.38C1244.73 1682.61 1236.63 1692.62 1221.71 1692.62ZM1338.2 1638.51C1334.25 1626.89 1325.41 1619.12 1309.22 1619.12C1291.96 1619.12 1279.18 1628.92 1279.18 1642.77C1279.18 1654.06 1285.89 1661.62 1300.91 1665.14L1314.55 1668.34C1322.8 1670.25 1326.69 1674.19 1326.69 1679.84C1326.69 1686.87 1319.23 1692.62 1307.51 1692.62C1297.23 1692.62 1290.79 1688.2 1288.55 1679.41L1276.62 1682.4C1279.55 1696.3 1291 1703.7 1307.73 1703.7C1326.74 1703.7 1339.69 1693.32 1339.69 1679.2C1339.69 1667.8 1332.55 1660.61 1317.96 1657.04L1305.81 1654.06C1296.12 1651.66 1291.75 1648.41 1291.75 1642.13C1291.75 1635.1 1299.21 1629.98 1309.22 1629.98C1320.19 1629.98 1324.72 1636.06 1326.9 1641.7L1338.2 1638.51ZM1394.19 1620.18H1376.72V1600.58H1364.15V1620.18H1351.79V1630.84H1364.15V1681.97C1364.15 1696.25 1375.66 1703.07 1386.31 1703.07C1391 1703.07 1393.98 1702.21 1395.69 1701.57L1393.13 1690.28C1392.06 1690.49 1390.36 1690.92 1387.59 1690.92C1382.05 1690.92 1376.72 1689.22 1376.72 1678.56V1630.84H1394.19V1620.18ZM1461.47 1592.91H1447.62L1487.68 1702H1501.31L1541.37 1592.91H1527.52L1495.13 1684.74H1493.86L1461.47 1592.91ZM1583.34 1703.7C1599.96 1703.7 1612.11 1695.39 1615.94 1683.04L1603.8 1679.63C1600.6 1688.15 1593.2 1692.41 1583.34 1692.41C1568.59 1692.41 1558.42 1682.88 1557.83 1665.35H1617.22V1660.03C1617.22 1629.56 1599.11 1619.12 1582.07 1619.12C1559.91 1619.12 1545.21 1636.59 1545.21 1661.73C1545.21 1686.87 1559.69 1703.7 1583.34 1703.7ZM1557.83 1654.49C1558.68 1641.75 1567.68 1630.41 1582.07 1630.41C1595.7 1630.41 1604.44 1640.64 1604.44 1654.49H1557.83ZM1636.35 1702H1648.92V1650.22C1648.92 1639.14 1657.65 1631.05 1669.58 1631.05C1672.94 1631.05 1676.4 1631.69 1677.25 1631.9V1619.12C1675.82 1619.01 1672.51 1618.9 1670.65 1618.9C1660.85 1618.9 1652.33 1624.44 1649.34 1632.54H1648.49V1620.18H1636.35V1702ZM1750.11 1638.51C1746.17 1626.89 1737.33 1619.12 1721.13 1619.12C1703.87 1619.12 1691.09 1628.92 1691.09 1642.77C1691.09 1654.06 1697.8 1661.62 1712.82 1665.14L1726.46 1668.34C1734.72 1670.25 1738.6 1674.19 1738.6 1679.84C1738.6 1686.87 1731.15 1692.62 1719.43 1692.62C1709.15 1692.62 1702.7 1688.2 1700.47 1679.41L1688.53 1682.4C1691.46 1696.3 1702.92 1703.7 1719.64 1703.7C1738.66 1703.7 1751.6 1693.32 1751.6 1679.2C1751.6 1667.8 1744.46 1660.61 1729.87 1657.04L1717.72 1654.06C1708.03 1651.66 1703.66 1648.41 1703.66 1642.13C1703.66 1635.1 1711.12 1629.98 1721.13 1629.98C1732.11 1629.98 1736.63 1636.06 1738.82 1641.7L1750.11 1638.51ZM1770.53 1702H1783.1V1620.18H1770.53V1702ZM1776.92 1606.55C1781.82 1606.55 1785.87 1602.71 1785.87 1598.02C1785.87 1593.34 1781.82 1589.5 1776.92 1589.5C1772.02 1589.5 1767.97 1593.34 1767.97 1598.02C1767.97 1602.71 1772.02 1606.55 1776.92 1606.55ZM1839.36 1703.7C1861.52 1703.7 1876.43 1686.87 1876.43 1661.52C1876.43 1635.95 1861.52 1619.12 1839.36 1619.12C1817.2 1619.12 1802.29 1635.95 1802.29 1661.52C1802.29 1686.87 1817.2 1703.7 1839.36 1703.7ZM1839.36 1692.41C1822.53 1692.41 1814.86 1677.92 1814.86 1661.52C1814.86 1645.11 1822.53 1630.41 1839.36 1630.41C1856.19 1630.41 1863.86 1645.11 1863.86 1661.52C1863.86 1677.92 1856.19 1692.41 1839.36 1692.41ZM1908.19 1652.78C1908.19 1638.51 1917.04 1630.41 1929.07 1630.41C1940.74 1630.41 1947.82 1638.03 1947.82 1650.86V1702H1960.4V1650.01C1960.4 1629.13 1949.26 1619.12 1932.7 1619.12C1920.34 1619.12 1912.67 1624.66 1908.83 1632.97H1907.77V1620.18H1895.62V1702H1908.19V1652.78ZM2041.32 1638.51C2037.38 1626.89 2028.54 1619.12 2012.34 1619.12C1995.09 1619.12 1982.3 1628.92 1982.3 1642.77C1982.3 1654.06 1989.01 1661.62 2004.03 1665.14L2017.67 1668.34C2025.93 1670.25 2029.82 1674.19 2029.82 1679.84C2029.82 1686.87 2022.36 1692.62 2010.64 1692.62C2000.36 1692.62 1993.91 1688.2 1991.68 1679.41L1979.74 1682.4C1982.67 1696.3 1994.13 1703.7 2010.85 1703.7C2029.87 1703.7 2042.81 1693.32 2042.81 1679.2C2042.81 1667.8 2035.68 1660.61 2021.08 1657.04L2008.94 1654.06C1999.24 1651.66 1994.87 1648.41 1994.87 1642.13C1994.87 1635.1 2002.33 1629.98 2012.34 1629.98C2023.32 1629.98 2027.84 1636.06 2030.03 1641.7L2041.32 1638.51ZM2137.16 1703.7C2159.32 1703.7 2174.24 1686.87 2174.24 1661.52C2174.24 1635.95 2159.32 1619.12 2137.16 1619.12C2115 1619.12 2100.09 1635.95 2100.09 1661.52C2100.09 1686.87 2115 1703.7 2137.16 1703.7ZM2137.16 1692.41C2120.33 1692.41 2112.66 1677.92 2112.66 1661.52C2112.66 1645.11 2120.33 1630.41 2137.16 1630.41C2153.99 1630.41 2161.67 1645.11 2161.67 1661.52C2161.67 1677.92 2153.99 1692.41 2137.16 1692.41ZM2229.86 1620.18H2211.54V1611.87C2211.54 1603.78 2214.95 1599.51 2223.26 1599.51C2226.88 1599.51 2229.01 1600.37 2230.29 1600.79L2233.91 1589.93C2231.99 1589.07 2228.16 1587.8 2221.98 1587.8C2210.26 1587.8 2198.97 1594.83 2198.97 1608.89V1620.18H2185.76V1630.84H2198.97V1702H2211.54V1630.84H2229.86V1620.18ZM2282 1592.91L2321.41 1657.04V1702H2334.62V1657.04L2374.04 1592.91H2358.91L2328.66 1643.83H2327.38L2297.12 1592.91H2282ZM2411.09 1703.7C2433.25 1703.7 2448.16 1686.87 2448.16 1661.52C2448.16 1635.95 2433.25 1619.12 2411.09 1619.12C2388.93 1619.12 2374.01 1635.95 2374.01 1661.52C2374.01 1686.87 2388.93 1703.7 2411.09 1703.7ZM2411.09 1692.41C2394.26 1692.41 2386.59 1677.92 2386.59 1661.52C2386.59 1645.11 2394.26 1630.41 2411.09 1630.41C2427.92 1630.41 2435.59 1645.11 2435.59 1661.52C2435.59 1677.92 2427.92 1692.41 2411.09 1692.41ZM2518.91 1668.55C2518.91 1683.89 2507.2 1690.92 2497.82 1690.92C2487.38 1690.92 2479.92 1683.25 2479.92 1671.32V1620.18H2467.35V1672.17C2467.35 1693.05 2478.43 1703.07 2493.77 1703.07C2506.13 1703.07 2514.23 1696.46 2518.06 1688.15H2518.91V1702H2531.48V1620.18H2518.91V1668.55ZM2554.51 1702H2567.08V1650.22C2567.08 1639.14 2575.82 1631.05 2587.75 1631.05C2591.1 1631.05 2594.57 1631.69 2595.42 1631.9V1619.12C2593.98 1619.01 2590.68 1618.9 2588.81 1618.9C2579.01 1618.9 2570.49 1624.44 2567.51 1632.54H2566.65V1620.18H2554.51V1702ZM2742 1627C2737.95 1604.63 2720.05 1591.42 2698.1 1591.42C2670.19 1591.42 2649.95 1612.94 2649.95 1647.45C2649.95 1681.97 2670.19 1703.49 2698.1 1703.49C2720.05 1703.49 2737.95 1690.28 2742 1667.91H2728.79C2725.59 1683.04 2712.59 1691.13 2698.1 1691.13C2678.29 1691.13 2662.73 1675.79 2662.73 1647.45C2662.73 1619.12 2678.29 1603.78 2698.1 1603.78C2712.59 1603.78 2725.59 1611.87 2728.79 1627H2742ZM2794.88 1703.7C2817.04 1703.7 2831.95 1686.87 2831.95 1661.52C2831.95 1635.95 2817.04 1619.12 2794.88 1619.12C2772.72 1619.12 2757.8 1635.95 2757.8 1661.52C2757.8 1686.87 2772.72 1703.7 2794.88 1703.7ZM2794.88 1692.41C2778.04 1692.41 2770.37 1677.92 2770.37 1661.52C2770.37 1645.11 2778.04 1630.41 2794.88 1630.41C2811.71 1630.41 2819.38 1645.11 2819.38 1661.52C2819.38 1677.92 2811.71 1692.41 2794.88 1692.41ZM2882.04 1703.7C2897.8 1703.7 2903.13 1693.9 2905.9 1689.43H2907.39V1702H2919.54V1592.91H2906.96V1633.18H2905.9C2903.13 1628.92 2898.23 1619.12 2882.25 1619.12C2861.58 1619.12 2847.31 1635.52 2847.31 1661.3C2847.31 1687.3 2861.58 1703.7 2882.04 1703.7ZM2883.74 1692.41C2867.97 1692.41 2859.88 1678.56 2859.88 1661.09C2859.88 1643.83 2867.76 1630.41 2883.74 1630.41C2899.08 1630.41 2907.18 1642.77 2907.18 1661.09C2907.18 1679.63 2898.87 1692.41 2883.74 1692.41ZM2978.61 1703.7C2995.23 1703.7 3007.37 1695.39 3011.21 1683.04L2999.06 1679.63C2995.87 1688.15 2988.46 1692.41 2978.61 1692.41C2963.85 1692.41 2953.68 1682.88 2953.09 1665.35H3012.49V1660.03C3012.49 1629.56 2994.38 1619.12 2977.33 1619.12C2955.17 1619.12 2940.47 1636.59 2940.47 1661.73C2940.47 1686.87 2954.96 1703.7 2978.61 1703.7ZM2953.09 1654.49C2953.95 1641.75 2962.95 1630.41 2977.33 1630.41C2990.97 1630.41 2999.7 1640.64 2999.7 1654.49H2953.09Z" fill="#FF7400"/>
<path d="M4338.93 766.071C4342.83 769.976 4349.17 769.976 4353.07 766.071L4416.71 702.431C4420.62 698.526 4420.62 692.195 4416.71 688.289C4412.81 684.384 4406.47 684.384 4402.57 688.289L4346 744.858L4289.43 688.289C4285.53 684.384 4279.19 684.384 4275.29 688.289C4271.38 692.195 4271.38 698.526 4275.29 702.431L4338.93 766.071ZM4336 424V759H4356V424H4336Z" fill="#FF7400"/>
<line y1="1449" x2="4111" y2="1449" stroke="#FF7400" stroke-width="20"/>
<path d="M10 1181V1439" stroke="#FF7400" stroke-width="20"/>
<path d="M4111 1201V1459" stroke="#FF7400" stroke-width="20"/>
</svg>
