<svg width="1221" height="448" viewBox="0 0 1221 448" fill="none" xmlns="http://www.w3.org/2000/svg">
<g clip-path="url(#clip0)">
<path d="M225.275 74.4387C217.033 74.4387 210.896 78.4857 210.896 88.2259C210.896 95.5645 214.941 100.659 224.832 100.659C233.215 100.659 238.908 95.7192 238.908 87.9228C238.908 79.0875 233.813 74.4392 225.275 74.4392V74.4387ZM208.792 143.21C206.841 145.603 204.898 148.146 204.898 151.148C204.898 157.136 212.534 158.938 223.023 158.938C231.712 158.938 243.548 158.329 243.548 150.25C243.548 145.449 237.854 145.151 230.659 144.7L208.791 143.21H208.792ZM253.135 74.8917C255.827 78.3384 258.677 83.1332 258.677 90.0244C258.677 106.653 245.644 116.39 226.772 116.39C221.973 116.39 217.628 115.792 214.935 115.044L209.989 122.983L224.669 123.88C250.588 125.531 265.864 126.281 265.864 146.199C265.864 163.432 250.737 173.164 224.669 173.164C197.554 173.164 187.218 166.272 187.218 154.438C187.218 147.694 190.215 144.107 195.458 139.155C190.513 137.065 188.867 133.322 188.867 129.275C188.867 125.977 190.513 122.982 193.213 120.133C195.909 117.29 198.904 114.439 202.5 111.145C195.16 107.55 189.616 99.7596 189.616 88.6723C189.616 71.4465 201.003 59.616 223.919 59.616C230.362 59.616 234.259 60.209 237.705 61.1135H266.919V73.8439L253.135 74.8929" fill="#413000"/>
<path d="M293.289 47.6684C284.748 47.6684 279.806 42.7203 279.806 34.178C279.806 25.6465 284.748 20.9989 293.289 20.9989C301.978 20.9989 306.922 25.6465 306.922 34.178C306.922 42.7201 301.978 47.6684 293.289 47.6684ZM273.96 137.696V125.867L281.603 124.821C283.701 124.517 283.999 124.072 283.999 121.819V77.7762C283.999 76.1317 283.552 75.0785 282.049 74.6326L273.96 71.7837L275.608 59.6537H306.621V121.82C306.621 124.222 306.765 124.519 309.018 124.822L316.659 125.868V137.697H273.959" fill="#413000"/>
<path d="M375.899 131.89C369.455 135.032 360.019 137.879 351.476 137.879C333.649 137.879 326.91 130.695 326.91 113.76V74.5132C326.91 73.6162 326.91 73.0144 325.707 73.0144H315.222V59.6821C328.409 58.18 333.649 51.5871 335.297 35.2583H349.53V56.5382C349.53 57.5831 349.53 58.0357 350.73 58.0357H371.852V73.0141H349.531V108.817C349.531 117.657 351.631 121.099 359.716 121.099C363.916 121.099 368.255 120.054 371.851 118.704L375.9 131.891" fill="#413000"/>
<path d="M153.929 92.5761L85.4267 24.082C81.4852 20.137 75.0873 20.137 71.1409 24.082L56.9171 38.3072L74.9595 56.3496C79.154 54.9334 83.9616 55.8829 87.3035 59.2255C90.6627 62.5888 91.6055 67.4375 90.1538 71.646L107.543 89.0356C111.751 87.5858 116.605 88.5225 119.964 91.8878C124.661 96.5831 124.661 104.191 119.964 108.888C115.267 113.586 107.658 113.586 102.958 108.888C99.427 105.354 98.5535 100.165 100.342 95.8136L84.1244 79.5958L84.123 122.273C85.268 122.839 86.3486 123.596 87.3028 124.546C91.9981 129.241 91.9981 136.848 87.3028 141.55C82.6062 146.245 74.9945 146.245 70.3028 141.55C65.6069 136.848 65.6069 129.241 70.3028 124.546C71.4634 123.388 72.8062 122.511 74.2391 121.923V78.8496C72.8055 78.2643 71.4643 77.394 70.302 76.2262C66.745 72.672 65.8884 67.4515 67.7126 63.0836L49.9263 45.2946L2.95988 92.2596C-0.986397 96.2077 -0.986397 102.606 2.95988 106.551L71.4582 175.045C75.4019 178.99 81.7975 178.99 85.7467 175.045L153.928 106.874C157.873 102.928 157.873 96.5277 153.928 92.5819" fill="#F05133"/>
</g>
<path d="M832.536 69.0066H792.18C791.139 69.0066 790.295 69.8519 790.295 70.8945V90.6239C790.295 91.6652 791.139 92.5132 792.18 92.5132H807.923V117.027C807.923 117.027 804.388 118.232 794.615 118.232C783.085 118.232 766.979 114.019 766.979 78.5999C766.979 43.1759 783.751 38.5146 799.496 38.5146C813.127 38.5146 818.997 40.9132 822.735 42.0692C823.909 42.4292 824.995 41.2612 824.995 40.2186L829.496 21.1546C829.496 20.6679 829.331 20.0799 828.776 19.6813C827.259 18.5999 818.001 13.4199 794.615 13.4199C767.675 13.4199 740.039 24.8812 740.039 79.9826C740.039 135.084 771.679 143.295 798.341 143.295C820.417 143.295 833.809 133.861 833.809 133.861C834.361 133.556 834.421 132.785 834.421 132.431V70.8945C834.421 69.8519 833.577 69.0066 832.536 69.0066" fill="#161312"/>
<path d="M1040.51 20.0212C1040.51 18.9719 1039.68 18.1239 1038.64 18.1239H1015.92C1014.88 18.1239 1014.04 18.9719 1014.04 20.0212C1014.04 20.0266 1014.04 63.9346 1014.04 63.9346H978.623V20.0212C978.623 18.9719 977.788 18.1239 976.748 18.1239H954.027C952.993 18.1239 952.149 18.9719 952.149 20.0212V138.925C952.149 139.975 952.993 140.828 954.027 140.828H976.748C977.788 140.828 978.623 139.975 978.623 138.925V88.0665H1014.04C1014.04 88.0665 1013.98 138.921 1013.98 138.925C1013.98 139.975 1014.82 140.828 1015.86 140.828H1038.64C1039.68 140.828 1040.51 139.975 1040.51 138.925V20.0212" fill="#161312"/>
<path d="M875.415 35.6239C875.415 27.4426 868.856 20.8305 860.763 20.8305C852.677 20.8305 846.112 27.4426 846.112 35.6239C846.112 43.7986 852.677 50.4279 860.763 50.4279C868.856 50.4279 875.415 43.7986 875.415 35.6239Z" fill="#161312"/>
<path d="M873.791 113.844C873.791 110.796 873.791 58.9572 873.791 58.9572C873.791 57.9146 872.949 57.0626 871.911 57.0626H849.259C848.22 57.0626 847.291 58.1346 847.291 59.1759C847.291 59.1759 847.291 125.223 847.291 137.812C847.291 140.123 848.731 140.811 850.593 140.811C850.593 140.811 860.263 140.811 871.001 140.811C873.241 140.811 873.791 139.711 873.791 137.775C873.791 133.56 873.791 117.048 873.791 113.844" fill="#161312"/>
<path d="M1126.87 57.2412H1104.32C1103.29 57.2412 1102.45 58.0946 1102.45 59.1426V117.445C1102.45 117.445 1096.72 121.636 1088.59 121.636C1080.46 121.636 1078.3 117.947 1078.3 109.985C1078.3 102.015 1078.3 59.1426 1078.3 59.1426C1078.3 58.0946 1077.46 57.2412 1076.42 57.2412H1053.54C1052.51 57.2412 1051.66 58.0946 1051.66 59.1426C1051.66 59.1426 1051.66 90.1906 1051.66 113.836C1051.66 137.483 1064.84 143.267 1082.97 143.267C1097.84 143.267 1109.83 135.051 1109.83 135.051C1109.83 135.051 1110.41 139.381 1110.66 139.895C1110.92 140.407 1111.59 140.924 1112.32 140.924L1126.88 140.859C1127.91 140.859 1128.76 140.005 1128.76 138.961L1128.75 59.1426C1128.75 58.0946 1127.91 57.2412 1126.87 57.2412" fill="#161312"/>
<path d="M1179.61 121.564C1171.79 121.327 1166.48 117.777 1166.48 117.777V80.1226C1166.48 80.1226 1171.71 76.9146 1178.13 76.3412C1186.25 75.6146 1194.08 78.0666 1194.08 97.4372C1194.08 117.863 1190.55 121.895 1179.61 121.564ZM1188.5 54.5706C1175.69 54.5706 1166.98 60.2852 1166.98 60.2852V20.0212C1166.98 18.9719 1166.14 18.1239 1165.11 18.1239H1142.32C1141.28 18.1239 1140.44 18.9719 1140.44 20.0212V138.925C1140.44 139.975 1141.28 140.828 1142.32 140.828C1142.33 140.828 1158.13 140.828 1158.13 140.828C1158.85 140.828 1159.38 140.461 1159.78 139.819C1160.18 139.179 1160.74 134.336 1160.74 134.336C1160.74 134.336 1170.06 143.165 1187.7 143.165C1208.41 143.165 1220.28 132.663 1220.28 96.0119C1220.28 59.3599 1201.32 54.5706 1188.5 54.5706" fill="#161312"/>
<path d="M939.097 57.0519H922.052C922.052 57.0519 922.027 34.5386 922.027 34.5346C922.027 33.6813 921.587 33.2559 920.601 33.2559H897.375C896.471 33.2559 895.987 33.6532 895.987 34.5212V57.7906C895.987 57.7906 884.347 60.5999 883.559 60.8279C882.776 61.0545 882.199 61.7773 882.199 62.6399V77.2626C882.199 78.3146 883.039 79.1626 884.077 79.1626H895.987C895.987 79.1626 895.987 94.4572 895.987 114.341C895.987 140.471 914.315 143.037 926.681 143.037C932.333 143.037 939.093 141.223 940.209 140.811C940.884 140.563 941.276 139.863 941.276 139.105L941.296 123.019C941.296 121.971 940.409 121.121 939.412 121.121C938.417 121.121 935.877 121.525 933.261 121.525C924.888 121.525 922.052 117.633 922.052 112.593C922.052 107.559 922.051 79.1626 922.051 79.1626H939.097C940.136 79.1626 940.977 78.3146 940.977 77.2626V58.9466C940.977 57.8972 940.136 57.0519 939.097 57.0519" fill="#161312"/>
<path fill-rule="evenodd" clip-rule="evenodd" d="M619.517 8.34416e-06C575.055 8.34416e-06 539 36.048 539 80.5173C539 116.092 562.071 146.273 594.063 156.92C598.087 157.665 599.564 155.173 599.564 153.047C599.564 151.127 599.489 144.784 599.455 138.056C577.055 142.927 572.328 128.556 572.328 128.556C568.665 119.249 563.388 116.775 563.388 116.775C556.083 111.777 563.939 111.88 563.939 111.88C572.024 112.447 576.281 120.179 576.281 120.179C583.463 132.487 595.117 128.928 599.712 126.871C600.435 121.667 602.521 118.113 604.824 116.104C586.94 114.068 568.14 107.164 568.14 76.312C568.14 67.5213 571.285 60.3387 576.436 54.7C575.6 52.6707 572.844 44.4827 577.216 33.392C577.216 33.392 583.977 31.228 599.364 41.6453C605.787 39.8613 612.675 38.9667 619.517 38.936C626.36 38.9667 633.253 39.8613 639.688 41.6453C655.056 31.228 661.808 33.392 661.808 33.392C666.191 44.4827 663.433 52.6707 662.597 54.7C667.76 60.3387 670.884 67.5213 670.884 76.312C670.884 107.237 652.048 114.047 634.119 116.04C637.007 118.539 639.58 123.439 639.58 130.951C639.58 141.724 639.487 150.395 639.487 153.047C639.487 155.189 640.936 157.7 645.017 156.909C676.992 146.251 700.033 116.08 700.033 80.5173C700.033 36.048 663.984 8.34416e-06 619.517 8.34416e-06" fill="#1B1817"/>
<path d="M729.321 211.679C729.321 208.918 727.082 206.679 724.321 206.679H679.321C676.559 206.679 674.321 208.918 674.321 211.679C674.321 214.441 676.559 216.679 679.321 216.679H719.321V256.679C719.321 259.441 721.559 261.679 724.321 261.679C727.082 261.679 729.321 259.441 729.321 256.679V211.679ZM576.536 366.536L727.856 215.215L720.785 208.144L569.464 359.464L576.536 366.536Z" fill="#FF7400"/>
<path d="M300 206.679C297.239 206.679 295 208.918 295 211.679V256.679C295 259.441 297.239 261.679 300 261.679C302.761 261.679 305 259.441 305 256.679V216.679H345C347.761 216.679 350 214.441 350 211.679C350 208.918 347.761 206.679 345 206.679H300ZM454.856 359.464L303.536 208.144L296.464 215.215L447.785 366.536L454.856 359.464Z" fill="#FF7400"/>
<path d="M307.7 399.636H298.929V420.588H298.627L284.316 399.636H276.752V436H285.541V415.013H285.772L300.243 436H307.7V399.636ZM325.958 436.515C334.534 436.515 339.736 430.851 339.736 422.452C339.736 414.036 334.534 408.372 325.958 408.372C317.382 408.372 312.179 414.036 312.179 422.452C312.179 430.851 317.382 436.515 325.958 436.515ZM326.011 429.963C322.797 429.963 321.021 426.909 321.021 422.399C321.021 417.871 322.797 414.8 326.011 414.8C329.118 414.8 330.894 417.871 330.894 422.399C330.894 426.909 329.118 429.963 326.011 429.963ZM359.578 408.727H354.66V402.193H345.977V408.727H342.373V415.119H345.977V428.383C345.924 433.905 349.51 436.675 355.636 436.391C357.731 436.284 359.241 435.858 360.075 435.609L358.761 429.342C358.388 429.43 357.518 429.608 356.861 429.608C355.459 429.608 354.66 429.04 354.66 427.424V415.119H359.578V408.727ZM390.144 408.727H385.226V402.193H376.544V408.727H372.939V415.119H376.544V428.383C376.49 433.905 380.077 436.675 386.203 436.391C388.298 436.284 389.807 435.858 390.642 435.609L389.328 429.342C388.955 429.43 388.085 429.608 387.428 429.608C386.025 429.608 385.226 429.04 385.226 427.424V415.119H390.144V408.727ZM403.843 420.446C403.861 417.339 405.707 415.492 408.459 415.492C411.247 415.492 412.863 417.286 412.845 420.322V436H421.528V418.617C421.545 412.438 417.781 408.372 412.046 408.372C407.962 408.372 405.086 410.379 403.861 413.734H403.559V399.636H395.16V436H403.843V420.446ZM439.696 436.515C446.852 436.515 451.557 433.053 452.551 427.69L444.579 427.46C443.904 429.271 442.129 430.247 439.856 430.247C436.518 430.247 434.458 428.028 434.458 424.69V424.459H452.64V422.293C452.64 413.308 447.171 408.372 439.43 408.372C431.191 408.372 425.9 414.018 425.9 422.47C425.9 431.206 431.12 436.515 439.696 436.515ZM434.458 419.416C434.582 416.7 436.731 414.64 439.607 414.64C442.466 414.64 444.526 416.629 444.561 419.416H434.458ZM491.627 417.055C491.165 411.657 486.744 408.372 479.358 408.372C471.971 408.372 467.266 411.586 467.302 417.055C467.266 421.245 469.947 423.944 475.398 424.956L480.157 425.862C482.412 426.305 483.442 427.016 483.477 428.223C483.442 429.59 481.915 430.496 479.695 430.496C477.227 430.496 475.558 429.43 475.185 427.442L466.609 427.655C467.231 433.053 471.865 436.515 479.66 436.515C486.957 436.515 492.266 432.875 492.302 427.264C492.266 423.287 489.638 420.925 484.205 419.878L478.949 418.884C476.641 418.422 475.895 417.605 475.913 416.558C475.895 415.173 477.511 414.32 479.518 414.32C481.808 414.32 483.406 415.545 483.655 417.268L491.627 417.055ZM504.265 436.462C508.064 436.462 510.692 434.988 512.184 432.2H512.397V436H520.564V417.463C520.564 411.692 515.433 408.372 508.49 408.372C501.157 408.372 497.002 412.065 496.31 417.037L504.318 417.321C504.691 415.581 506.129 414.516 508.419 414.516C510.55 414.516 511.9 415.545 511.9 417.374V417.463C511.9 419.132 510.088 419.487 505.436 419.896C499.914 420.357 495.298 422.399 495.298 428.436C495.298 433.834 499.044 436.462 504.265 436.462ZM506.946 430.78C504.939 430.78 503.519 429.821 503.519 428.01C503.519 426.252 504.904 425.187 507.372 424.814C508.988 424.583 510.976 424.228 511.953 423.713V426.305C511.953 428.969 509.716 430.78 506.946 430.78ZM525.873 436H534.556V419.86C534.556 417.161 536.136 415.439 538.409 415.439C540.664 415.439 542.155 417.019 542.155 419.54V436H550.5V419.718C550.5 417.108 551.939 415.439 554.336 415.439C556.537 415.439 558.1 416.913 558.1 419.629V436H566.782V417.641C566.782 411.87 563.231 408.372 558.082 408.372C554.051 408.372 550.873 410.485 549.861 413.734H549.577C548.849 410.467 545.919 408.372 542.137 408.372C538.409 408.372 535.568 410.414 534.431 413.734H534.13V408.727H525.873V436ZM584.911 436.515C592.066 436.515 596.772 433.053 597.766 427.69L589.794 427.46C589.119 429.271 587.343 430.247 585.071 430.247C581.733 430.247 579.673 428.028 579.673 424.69V424.459H597.855V422.293C597.855 413.308 592.386 408.372 584.645 408.372C576.406 408.372 571.115 414.018 571.115 422.47C571.115 431.206 576.335 436.515 584.911 436.515ZM579.673 419.416C579.797 416.7 581.946 414.64 584.822 414.64C587.681 414.64 589.74 416.629 589.776 419.416H579.673ZM628.426 408.727H623.507V402.193H614.825V408.727H611.22V415.119H614.825V428.383C614.771 433.905 618.358 436.675 624.484 436.391C626.579 436.284 628.088 435.858 628.923 435.609L627.609 429.342C627.236 429.43 626.366 429.608 625.709 429.608C624.306 429.608 623.507 429.04 623.507 427.424V415.119H628.426V408.727ZM642.124 420.446C642.142 417.339 643.988 415.492 646.741 415.492C649.528 415.492 651.144 417.286 651.126 420.322V436H659.809V418.617C659.827 412.438 656.062 408.372 650.327 408.372C646.243 408.372 643.367 410.379 642.142 413.734H641.84V399.636H633.442V436H642.124V420.446ZM665.229 436H673.911V408.727H665.229V436ZM669.579 405.549C672.047 405.549 674.036 403.685 674.036 401.394C674.036 399.104 672.047 397.257 669.579 397.257C667.129 397.257 665.122 399.104 665.122 401.394C665.122 403.685 667.129 405.549 669.579 405.549ZM688.12 420.446C688.138 417.339 689.949 415.492 692.701 415.492C695.453 415.492 697.087 417.303 697.069 420.322V436H705.752V418.617C705.769 412.474 702.023 408.372 696.288 408.372C692.257 408.372 689.203 410.414 687.996 413.734H687.694V408.727H679.438V436H688.12V420.446ZM723.84 446.795C732.061 446.795 737.672 443.049 737.672 436.107V408.727H729.025V413.397H728.776C727.729 410.893 725.349 408.372 721.053 408.372C715.353 408.372 710.186 412.758 710.186 422.328C710.186 431.597 715.104 435.627 721.088 435.627C725.101 435.627 727.782 433.763 728.812 431.241H729.114V436.036C729.114 439.516 726.983 440.776 724.071 440.776C721.283 440.776 719.614 439.711 719.153 438.024L710.932 438.486C711.571 443.262 716.063 446.795 723.84 446.795ZM724.107 429.306C720.893 429.306 719.099 426.696 719.099 422.328C719.099 417.978 720.875 415.155 724.107 415.155C727.285 415.155 729.131 417.907 729.131 422.328C729.131 426.714 727.267 429.306 724.107 429.306Z" fill="#FF7400"/>
<defs>
<clipPath id="clip0">
<rect width="375.886" height="157" fill="white" transform="translate(0 21)"/>
</clipPath>
</defs>
</svg>
