<svg width="273" height="115" viewBox="0 0 273 115" fill="none" xmlns="http://www.w3.org/2000/svg">
<g clip-path="url(#clip0)">
<path d="M163.59 38.806C157.605 38.806 153.148 41.7449 153.148 48.818C153.148 54.1471 156.086 57.8464 163.268 57.8464C169.356 57.8464 173.49 54.2595 173.49 48.5979C173.49 42.1819 169.79 38.8064 163.59 38.8064V38.806ZM151.62 88.746C150.204 90.4842 148.793 92.331 148.793 94.5106C148.793 98.8588 154.338 100.167 161.955 100.167C168.265 100.167 176.86 99.7255 176.86 93.8589C176.86 90.372 172.725 90.1561 167.5 89.8285L151.62 88.746H151.62ZM183.821 39.135C185.776 41.6379 187.846 45.1198 187.846 50.124C187.846 62.199 178.381 69.27 164.677 69.27C161.192 69.27 158.037 68.8359 156.081 68.2929L152.49 74.0577L163.15 74.7089C181.972 75.9081 193.065 76.4531 193.065 90.9169C193.065 103.431 182.08 110.498 163.15 110.498C143.46 110.498 135.954 105.493 135.954 96.8999C135.954 92.0024 138.13 89.3974 141.937 85.8019C138.346 84.2839 137.151 81.5657 137.151 78.6271C137.151 76.2321 138.346 74.0569 140.307 71.9885C142.265 69.9235 144.44 67.8537 147.051 65.4611C141.721 62.8507 137.695 57.1935 137.695 49.1421C137.695 36.6331 145.964 28.0421 162.605 28.0421C167.284 28.0421 170.114 28.4727 172.616 29.1295H193.831V38.3741L183.821 39.1359" fill="#413000"/>
<path d="M212.98 19.366C206.777 19.366 203.189 15.7728 203.189 9.5696C203.189 3.3742 206.778 -0.000799179 212.98 -0.000799179C219.29 -0.000799179 222.88 3.3742 222.88 9.5696C222.88 15.7727 219.29 19.366 212.98 19.366ZM198.944 84.742V76.1521L204.494 75.3929C206.018 75.1721 206.234 74.8483 206.234 73.2126V41.2297C206.234 40.0355 205.909 39.2707 204.818 38.9469L198.944 36.8781L200.14 28.0695H222.661V73.2134C222.661 74.9572 222.766 75.1729 224.402 75.3936L229.951 76.1529V84.7428H198.943" fill="#413000"/>
<path d="M272.97 80.526C268.29 82.8078 261.438 84.8751 255.234 84.8751C242.289 84.8751 237.395 79.6583 237.395 67.3601V38.8601C237.395 38.2087 237.395 37.7717 236.521 37.7717H228.907V28.0901C238.484 26.9993 242.288 22.2117 243.485 10.3541H253.821V25.8071C253.821 26.5658 253.821 26.8945 254.693 26.8945H270.031V37.7715H253.822V63.7705C253.822 70.1899 255.347 72.6899 261.218 72.6899C264.268 72.6899 267.419 71.9306 270.03 70.9507L272.97 80.5268" fill="#413000"/>
<path d="M111.78 51.977L62.035 2.2381C59.1728 -0.626699 54.5268 -0.626699 51.661 2.2381L41.332 12.5681L54.434 25.6701C57.4799 24.6417 60.9711 25.3312 63.3979 27.7585C65.8373 30.2009 66.5219 33.7219 65.4677 36.778L78.0957 49.406C81.1508 48.3532 84.6757 49.0334 87.1152 51.4772C90.5258 54.8868 90.5258 60.4117 87.1152 63.8222C83.7041 67.2338 78.1792 67.2338 74.7662 63.8222C72.2017 61.2557 71.5674 57.4877 72.8663 54.328L61.0893 42.551L61.0883 73.542C61.9198 73.9536 62.7045 74.503 63.3974 75.1929C66.807 78.6021 66.807 84.126 63.3974 87.5409C59.9868 90.95 54.4594 90.95 51.0524 87.5409C47.6423 84.1263 47.6423 78.6024 51.0524 75.1929C51.8951 74.3517 52.8703 73.7149 53.9108 73.2881V42.0091C52.8698 41.5841 51.8958 40.9521 51.0518 40.1041C48.4688 37.5231 47.8467 33.7321 49.1714 30.5602L36.2554 17.6422L2.1494 51.7472C-0.716303 54.6142 -0.716303 59.2602 2.1494 62.1252L51.8914 111.864C54.7552 114.729 59.3996 114.729 62.2674 111.864L111.779 62.3602C114.644 59.494 114.644 54.8466 111.779 51.9812" fill="#F05133"/>
</g>
<defs>
<clipPath id="clip0">
<rect width="272.96" height="114.01" fill="white"/>
</clipPath>
</defs>
</svg>
