<svg width="2248" height="1016" viewBox="0 0 2248 1016" fill="none" xmlns="http://www.w3.org/2000/svg">
<path d="M301.435 924.477H320.966C318.48 906.499 302.633 893.848 282.081 893.848C258.066 893.848 239.556 911.16 239.556 940.634C239.556 969.398 256.868 987.243 282.481 987.243C305.43 987.243 321.809 972.728 321.809 948.802V937.349H283.768V951.82H303.299C303.033 963.095 295.353 970.242 282.569 970.242C268.143 970.242 259.043 959.455 259.043 940.457C259.043 921.547 268.498 910.849 282.392 910.849C292.291 910.849 298.993 915.954 301.435 924.477ZM355.334 987.287C365.411 987.287 371.936 982.893 375.265 976.545H375.798V986H393.731V940.013C393.731 923.766 379.97 916.93 364.789 916.93C348.454 916.93 337.712 924.743 335.093 937.172L352.582 938.592C353.869 934.065 357.909 930.735 364.7 930.735C371.137 930.735 374.821 933.976 374.821 939.569V939.835C374.821 944.23 370.16 944.807 358.308 945.961C344.814 947.204 332.696 951.732 332.696 966.957C332.696 980.451 342.328 987.287 355.334 987.287ZM360.75 974.237C354.935 974.237 350.762 971.529 350.762 966.336C350.762 961.009 355.157 958.39 361.815 957.458C365.943 956.881 372.691 955.904 374.954 954.395V961.63C374.954 968.777 369.051 974.237 360.75 974.237ZM408.757 986H427.4V975.08H428.244C430.863 980.762 436.589 987.11 447.597 987.11C463.134 987.11 475.252 974.814 475.252 951.998C475.252 928.56 462.601 916.93 447.642 916.93C436.234 916.93 430.774 923.722 428.244 929.271H427.667V895.091H408.757V986ZM427.267 951.909C427.267 939.746 432.416 931.978 441.605 931.978C450.971 931.978 455.942 940.102 455.942 951.909C455.942 963.805 450.882 972.062 441.605 972.062C432.505 972.062 427.267 964.072 427.267 951.909ZM487.869 986H506.779V947.426C506.779 939.036 512.905 933.266 521.25 933.266C523.869 933.266 527.465 933.71 529.24 934.287V917.507C527.553 917.108 525.201 916.842 523.292 916.842C515.657 916.842 509.398 921.281 506.912 929.714H506.202V917.818H487.869V986ZM539.017 986H557.927V917.818H539.017V986ZM548.516 909.029C554.154 909.029 558.77 904.723 558.77 899.441C558.77 894.203 554.154 889.897 548.516 889.897C542.923 889.897 538.307 894.203 538.307 899.441C538.307 904.723 542.923 909.029 548.516 909.029ZM604.147 987.332C621.015 987.332 632.378 979.12 635.042 966.469L617.552 965.315C615.644 970.508 610.761 973.216 604.458 973.216C595.003 973.216 589.01 966.957 589.01 956.792V956.748H635.441V951.554C635.441 928.383 621.414 916.93 603.392 916.93C583.328 916.93 570.322 931.179 570.322 952.22C570.322 973.837 583.151 987.332 604.147 987.332ZM589.01 945.029C589.41 937.261 595.313 931.046 603.703 931.046C611.915 931.046 617.597 936.906 617.641 945.029H589.01ZM666.691 895.091H647.782V986H666.691V895.091ZM701.282 987.287C711.358 987.287 717.883 982.893 721.212 976.545H721.745V986H739.678V940.013C739.678 923.766 725.918 916.93 710.737 916.93C694.401 916.93 683.659 924.743 681.04 937.172L698.529 938.592C699.817 934.065 703.856 930.735 710.648 930.735C717.084 930.735 720.768 933.976 720.768 939.569V939.835C720.768 944.23 716.108 944.807 704.256 945.961C690.761 947.204 678.643 951.732 678.643 966.957C678.643 980.451 688.276 987.287 701.282 987.287ZM706.697 974.237C700.882 974.237 696.71 971.529 696.71 966.336C696.71 961.009 701.104 958.39 707.762 957.458C711.891 956.881 718.638 955.904 720.902 954.395V961.63C720.902 968.777 714.998 974.237 706.697 974.237ZM791.547 986H802.023V943.386C802.023 933.399 809.303 926.341 817.47 926.341C825.416 926.341 830.965 931.534 830.965 939.303V986H841.618V941.611C841.618 932.822 847.122 926.341 856.71 926.341C864.168 926.341 870.56 930.292 870.56 940.368V986H881.036V940.368C881.036 924.343 872.424 916.93 860.262 916.93C850.496 916.93 843.349 921.414 839.843 928.472H839.132C835.759 921.192 829.811 916.93 820.844 916.93C811.966 916.93 805.396 921.192 802.556 928.472H801.668V917.818H791.547V986ZM920.254 987.598C932.15 987.598 938.364 981.206 940.495 976.767H941.028V986H951.504V941.078C951.504 919.416 934.991 916.93 926.29 916.93C915.992 916.93 904.273 920.482 898.947 932.911L908.89 936.462C911.198 931.49 916.658 926.163 926.646 926.163C936.278 926.163 941.028 931.268 941.028 940.013V940.368C941.028 945.428 935.879 944.984 923.45 946.582C910.799 948.225 896.994 951.021 896.994 966.646C896.994 979.963 907.292 987.598 920.254 987.598ZM921.852 978.188C913.506 978.188 907.469 974.459 907.469 967.179C907.469 959.189 914.749 956.703 922.917 955.638C927.356 955.105 939.252 953.862 941.028 951.732V961.32C941.028 969.842 934.281 978.188 921.852 978.188ZM996.37 987.42C1009.51 987.42 1013.95 979.253 1016.26 975.524H1017.5V986H1027.62V895.091H1017.14V928.649H1016.26C1013.95 925.098 1009.86 916.93 996.547 916.93C979.324 916.93 967.428 930.602 967.428 952.087C967.428 973.749 979.324 987.42 996.37 987.42ZM997.79 978.01C984.651 978.01 977.904 966.469 977.904 951.909C977.904 937.527 984.474 926.341 997.79 926.341C1010.57 926.341 1017.32 936.639 1017.32 951.909C1017.32 967.357 1010.4 978.01 997.79 978.01ZM1076.85 987.42C1090.7 987.42 1100.82 980.496 1104.01 970.197L1093.89 967.357C1091.23 974.459 1085.06 978.01 1076.85 978.01C1064.55 978.01 1056.07 970.064 1055.59 955.46H1105.08V951.021C1105.08 925.631 1089.99 916.93 1075.78 916.93C1057.32 916.93 1045.06 931.49 1045.06 952.442C1045.06 973.393 1057.14 987.42 1076.85 987.42ZM1055.59 946.405C1056.3 935.796 1063.8 926.341 1075.78 926.341C1087.15 926.341 1094.43 934.864 1094.43 946.405H1055.59ZM1185.82 917.818H1171.26V901.483H1160.79V917.818H1150.49V926.696H1160.79V969.31C1160.79 981.206 1170.38 986.888 1179.25 986.888C1183.16 986.888 1185.65 986.178 1187.07 985.645L1184.94 976.234C1184.05 976.412 1182.63 976.767 1180.32 976.767C1175.7 976.767 1171.26 975.347 1171.26 966.469V926.696H1185.82V917.818ZM1213.52 944.984C1213.52 933.088 1221.11 926.341 1231.46 926.341C1241.31 926.341 1247.26 932.555 1247.26 943.386V986H1257.73V942.676C1257.73 925.142 1248.41 916.93 1234.47 916.93C1223.73 916.93 1217.61 921.414 1214.41 928.472H1213.52V895.091H1203.05V986H1213.52V944.984ZM1305.49 987.42C1319.33 987.42 1329.46 980.496 1332.65 970.197L1322.53 967.357C1319.87 974.459 1313.7 978.01 1305.49 978.01C1293.19 978.01 1284.71 970.064 1284.22 955.46H1333.72V951.021C1333.72 925.631 1318.62 916.93 1304.42 916.93C1285.95 916.93 1273.7 931.49 1273.7 952.442C1273.7 973.393 1285.78 987.42 1305.49 987.42ZM1284.22 946.405C1284.93 935.796 1292.43 926.341 1304.42 926.341C1315.78 926.341 1323.06 934.864 1323.06 946.405H1284.22ZM1397.95 933.088C1394.66 923.411 1387.29 916.93 1373.8 916.93C1359.42 916.93 1348.76 925.098 1348.76 936.639C1348.76 946.05 1354.36 952.353 1366.88 955.283L1378.24 957.946C1385.12 959.544 1388.36 962.829 1388.36 967.534C1388.36 973.393 1382.15 978.188 1372.38 978.188C1363.81 978.188 1358.44 974.503 1356.58 967.179L1346.63 969.665C1349.08 981.25 1358.62 987.42 1372.56 987.42C1388.4 987.42 1399.19 978.765 1399.19 967.001C1399.19 957.502 1393.24 951.51 1381.08 948.536L1370.96 946.05C1362.88 944.052 1359.24 941.344 1359.24 936.107C1359.24 930.247 1365.46 925.986 1373.8 925.986C1382.94 925.986 1386.72 931.046 1388.54 935.751L1397.95 933.088ZM1443.55 987.42C1457.4 987.42 1467.52 980.496 1470.71 970.197L1460.59 967.357C1457.93 974.459 1451.76 978.01 1443.55 978.01C1431.25 978.01 1422.77 970.064 1422.28 955.46H1471.78V951.021C1471.78 925.631 1456.69 916.93 1442.48 916.93C1424.02 916.93 1411.76 931.49 1411.76 952.442C1411.76 973.393 1423.84 987.42 1443.55 987.42ZM1422.28 946.405C1422.99 935.796 1430.5 926.341 1442.48 926.341C1453.85 926.341 1461.12 934.864 1461.12 946.405H1422.28ZM1550.57 987.42C1565.66 987.42 1575.6 978.188 1577.38 966.114H1566.9C1564.95 973.571 1558.74 978.01 1550.57 978.01C1538.14 978.01 1530.15 967.712 1530.15 951.909C1530.15 936.462 1538.32 926.341 1550.57 926.341C1559.8 926.341 1565.31 932.023 1566.9 938.237H1577.38C1575.6 925.453 1564.77 916.93 1550.39 916.93C1531.93 916.93 1519.67 931.49 1519.67 952.264C1519.67 972.683 1531.39 987.42 1550.57 987.42ZM1603.17 944.984C1603.17 933.088 1610.76 926.341 1621.1 926.341C1630.96 926.341 1636.91 932.555 1636.91 943.386V986H1647.38V942.676C1647.38 925.142 1638.06 916.93 1624.12 916.93C1613.38 916.93 1607.25 921.414 1604.06 928.472H1603.17V895.091H1592.69V986H1603.17V944.984ZM1686.61 987.598C1698.51 987.598 1704.72 981.206 1706.85 976.767H1707.39V986H1717.86V941.078C1717.86 919.416 1701.35 916.93 1692.65 916.93C1682.35 916.93 1670.63 920.482 1665.3 932.911L1675.25 936.462C1677.56 931.49 1683.02 926.163 1693 926.163C1702.64 926.163 1707.39 931.268 1707.39 940.013V940.368C1707.39 945.428 1702.24 944.984 1689.81 946.582C1677.16 948.225 1663.35 951.021 1663.35 966.646C1663.35 979.963 1673.65 987.598 1686.61 987.598ZM1688.21 978.188C1679.86 978.188 1673.83 974.459 1673.83 967.179C1673.83 959.189 1681.11 956.703 1689.27 955.638C1693.71 955.105 1705.61 953.862 1707.39 951.732V961.32C1707.39 969.842 1700.64 978.188 1688.21 978.188ZM1747.46 944.984C1747.46 933.088 1754.83 926.341 1764.86 926.341C1774.58 926.341 1780.48 932.689 1780.48 943.386V986H1790.96V942.676C1790.96 925.276 1781.68 916.93 1767.88 916.93C1757.58 916.93 1751.19 921.547 1747.99 928.472H1747.1V917.818H1736.98V986H1747.46V944.984ZM1837.62 1012.99C1853.96 1012.99 1867.1 1005.53 1867.1 987.953V917.818H1856.98V928.649H1855.91C1853.6 925.098 1849.34 916.93 1836.03 916.93C1818.8 916.93 1806.91 930.602 1806.91 951.554C1806.91 972.861 1819.33 984.935 1835.85 984.935C1849.16 984.935 1853.43 977.122 1855.73 973.393H1856.62V987.243C1856.62 998.607 1848.63 1003.76 1837.62 1003.76C1825.24 1003.76 1820.89 997.23 1818.09 993.457L1809.75 999.317C1814.01 1006.46 1822.4 1012.99 1837.62 1012.99ZM1837.27 975.524C1824.13 975.524 1817.38 965.581 1817.38 951.376C1817.38 937.527 1823.95 926.341 1837.27 926.341C1850.05 926.341 1856.8 936.639 1856.8 951.376C1856.8 966.469 1849.87 975.524 1837.27 975.524ZM1914.86 987.42C1928.71 987.42 1938.83 980.496 1942.03 970.197L1931.91 967.357C1929.24 974.459 1923.07 978.01 1914.86 978.01C1902.56 978.01 1894.09 970.064 1893.6 955.46H1943.09V951.021C1943.09 925.631 1928 916.93 1913.79 916.93C1895.33 916.93 1883.08 931.49 1883.08 952.442C1883.08 973.393 1895.15 987.42 1914.86 987.42ZM1893.6 946.405C1894.31 935.796 1901.81 926.341 1913.79 926.341C1925.16 926.341 1932.44 934.864 1932.44 946.405H1893.6ZM2007.32 933.088C2004.04 923.411 1996.67 916.93 1983.18 916.93C1968.79 916.93 1958.14 925.098 1958.14 936.639C1958.14 946.05 1963.73 952.353 1976.25 955.283L1987.61 957.946C1994.49 959.544 1997.73 962.829 1997.73 967.534C1997.73 973.393 1991.52 978.188 1981.75 978.188C1973.19 978.188 1967.82 974.503 1965.95 967.179L1956.01 969.665C1958.45 981.25 1967.99 987.42 1981.93 987.42C1997.78 987.42 2008.57 978.765 2008.57 967.001C2008.57 957.502 2002.62 951.51 1990.46 948.536L1980.33 946.05C1972.26 944.052 1968.62 941.344 1968.62 936.107C1968.62 930.247 1974.83 925.986 1983.18 925.986C1992.32 925.986 1996.09 931.046 1997.91 935.751L2007.32 933.088Z" fill="#FF7400"/>
<path d="M828.071 472.929C824.166 469.024 817.834 469.024 813.929 472.929L750.289 536.569C746.384 540.474 746.384 546.805 750.289 550.711C754.195 554.616 760.526 554.616 764.431 550.711L821 494.142L877.569 550.711C881.474 554.616 887.805 554.616 891.711 550.711C895.616 546.805 895.616 540.474 891.711 536.569L828.071 472.929ZM831 815V480H811V815H831Z" fill="#FF7400"/>
<path d="M1340.07 472.929C1336.17 469.024 1329.83 469.024 1325.93 472.929L1262.29 536.569C1258.38 540.474 1258.38 546.805 1262.29 550.711C1266.19 554.616 1272.53 554.616 1276.43 550.711L1333 494.142L1389.57 550.711C1393.47 554.616 1399.81 554.616 1403.71 550.711C1407.62 546.805 1407.62 540.474 1403.71 536.569L1340.07 472.929ZM1343 815V480H1323V815H1343Z" fill="#FF7400"/>
<circle cx="821" cy="200" r="190" fill="#EEEEEE" stroke="#FF7400" stroke-width="20"/>
<path d="M1523 200C1523 304.934 1437.93 390 1333 390C1228.07 390 1143 304.934 1143 200C1143 95.0659 1228.07 10 1333 10C1437.93 10 1523 95.0659 1523 200Z" fill="#EEEEEE" stroke="#FF7400" stroke-width="20"/>
</svg>
