<svg width="1185" height="1239" viewBox="0 0 1185 1239" fill="none" xmlns="http://www.w3.org/2000/svg">
<path d="M792 1039C792 1149.46 702.457 1239 592 1239C481.543 1239 392 1149.46 392 1039C392 928.543 481.543 839 592 839C702.457 839 792 928.543 792 1039Z" fill="#FF7400"/>
<path d="M107.397 76.4332C104.734 50.3324 85.2912 35.4176 58.924 35.4176C29.8402 35.4176 7.2017 55.3928 7.2017 91.4545C7.2017 127.357 29.3075 147.491 58.924 147.491C88.8601 147.491 105.426 127.143 107.397 107.808L80.7635 107.648C78.8991 118.141 71.0156 124.374 59.4567 124.374C43.9027 124.374 34.1016 113.134 34.1016 91.4545C34.1016 70.6271 43.6896 58.5355 59.6165 58.5355C71.6016 58.5355 79.4318 65.5135 80.7635 76.4332H107.397ZM175.273 110.684C175.273 120.219 169.2 125.545 161.476 125.545C153.486 125.545 148.586 120.112 148.532 111.217V64.1818H122.485V116.33C122.538 134.814 133.778 147.065 150.61 147.065C162.861 147.065 171.97 140.78 175.592 130.766H176.444V146H201.267V64.1818H175.273V110.684ZM217.846 146H243.894V101.575C243.894 91.8274 250.819 85.2756 260.14 85.2756C263.23 85.2756 267.864 85.8082 270.368 86.6605V64.022C268.184 63.4361 265.467 63.0632 263.07 63.0632C254.121 63.0632 246.983 68.2834 244 79.0966H243.148V64.1818H217.846V146ZM280.981 146H307.029V101.575C307.029 91.8274 313.953 85.2756 323.275 85.2756C326.365 85.2756 330.999 85.8082 333.502 86.6605V64.022C331.318 63.4361 328.602 63.0632 326.205 63.0632C317.256 63.0632 310.118 68.2834 307.135 79.0966H306.283V64.1818H280.981V146ZM378.113 147.545C399.58 147.545 413.696 137.158 416.679 121.071L392.762 120.379C390.738 125.812 385.411 128.741 378.593 128.741C368.579 128.741 362.4 122.083 362.4 112.069V111.376H416.945V104.878C416.945 77.9247 400.539 63.1165 377.314 63.1165C352.599 63.1165 336.725 80.0554 336.725 105.411C336.725 131.618 352.385 147.545 378.113 147.545ZM362.4 96.2486C362.773 88.0987 369.218 81.9197 377.847 81.9197C386.423 81.9197 392.602 87.8857 392.709 96.2486H362.4ZM456.296 99.3381C456.349 90.0163 461.783 84.4766 470.039 84.4766C478.295 84.4766 483.196 89.9098 483.143 98.9652V146H509.19V93.8516C509.244 75.4212 498.004 63.1165 480.799 63.1165C468.707 63.1165 459.545 69.2422 455.923 79.2031H455.018V64.1818H430.249V146H456.296V99.3381ZM571.499 64.1818H556.744V44.5795H530.697V64.1818H519.884V83.358H530.697V123.148C530.537 139.714 541.297 148.024 559.674 147.172C565.96 146.852 570.487 145.574 572.991 144.828L569.049 126.025C567.931 126.291 565.32 126.824 563.35 126.824C559.142 126.824 556.744 125.119 556.744 120.272V83.358H571.499V64.1818ZM641.785 36.9091H612.275L649.083 146H684.186L720.993 36.9091H691.483L667.087 116.81H666.182L641.785 36.9091ZM761.024 147.545C782.49 147.545 796.606 137.158 799.589 121.071L775.672 120.379C773.648 125.812 768.321 128.741 761.503 128.741C751.489 128.741 745.31 122.083 745.31 112.069V111.376H799.855V104.878C799.855 77.9247 783.449 63.1165 760.225 63.1165C735.509 63.1165 719.635 80.0554 719.635 105.411C719.635 131.618 735.296 147.545 761.024 147.545ZM745.31 96.2486C745.683 88.0987 752.128 81.9197 760.757 81.9197C769.333 81.9197 775.512 87.8857 775.619 96.2486H745.31ZM813.159 146H839.206V101.575C839.206 91.8274 846.131 85.2756 855.453 85.2756C858.542 85.2756 863.176 85.8082 865.68 86.6605V64.022C863.496 63.4361 860.779 63.0632 858.382 63.0632C849.434 63.0632 842.296 68.2834 839.313 79.0966H838.461V64.1818H813.159V146ZM947.725 89.1641C946.34 72.9709 933.076 63.1165 910.917 63.1165C888.758 63.1165 874.642 72.7578 874.749 89.1641C874.642 101.735 882.686 109.832 899.039 112.868L913.314 115.585C920.079 116.916 923.169 119.047 923.275 122.669C923.169 126.771 918.588 129.487 911.929 129.487C904.525 129.487 899.518 126.291 898.399 120.325L872.671 120.964C874.536 137.158 888.438 147.545 911.823 147.545C933.715 147.545 949.642 136.625 949.749 119.793C949.642 107.861 941.759 100.776 925.459 97.6335L909.692 94.6506C902.767 93.2656 900.53 90.8153 900.583 87.6726C900.53 83.5178 905.377 80.9609 911.396 80.9609C918.268 80.9609 923.062 84.6364 923.808 89.8033L947.725 89.1641ZM962.573 146H988.62V64.1818H962.573V146ZM975.623 54.647C983.027 54.647 988.993 49.054 988.993 42.1825C988.993 35.3111 983.027 29.7713 975.623 29.7713C968.272 29.7713 962.253 35.3111 962.253 42.1825C962.253 49.054 968.272 54.647 975.623 54.647ZM1043.39 147.545C1069.12 147.545 1084.73 130.553 1084.73 105.357C1084.73 80.1087 1069.12 63.1165 1043.39 63.1165C1017.66 63.1165 1002.06 80.1087 1002.06 105.357C1002.06 130.553 1017.66 147.545 1043.39 147.545ZM1043.55 127.889C1033.91 127.889 1028.58 118.727 1028.58 105.197C1028.58 91.6143 1033.91 82.3991 1043.55 82.3991C1052.87 82.3991 1058.2 91.6143 1058.2 105.197C1058.2 118.727 1052.87 127.889 1043.55 127.889ZM1124.12 99.3381C1124.17 90.0163 1129.6 84.4766 1137.86 84.4766C1146.12 84.4766 1151.02 89.9098 1150.97 98.9652V146H1177.01V93.8516C1177.07 75.4212 1165.83 63.1165 1148.62 63.1165C1136.53 63.1165 1127.37 69.2422 1123.75 79.2031H1122.84V64.1818H1098.07V146H1124.12V99.3381ZM162.069 329.545C187.797 329.545 203.404 312.553 203.404 287.357C203.404 262.109 187.797 245.116 162.069 245.116C136.341 245.116 120.734 262.109 120.734 287.357C120.734 312.553 136.341 329.545 162.069 329.545ZM162.229 309.889C152.587 309.889 147.261 300.727 147.261 287.197C147.261 273.614 152.587 264.399 162.229 264.399C171.551 264.399 176.877 273.614 176.877 287.197C176.877 300.727 171.551 309.889 162.229 309.889ZM263.25 246.182H247.642V241.601C247.642 236.913 249.56 234.037 255.633 234.037C258.083 234.037 261.066 234.57 262.983 235.156L267.138 216.086C264.049 215.234 256.964 213.795 249.773 213.795C233.101 213.795 221.648 223.064 221.648 242.027V246.182H210.622V265.358H221.648V328H247.642V265.358H263.25V246.182ZM302.574 218.909L342.471 291.565V328H368.679V291.565L408.576 218.909H379.119L356.054 264.559H355.095L332.031 218.909H302.574ZM438.924 329.545C464.652 329.545 480.26 312.553 480.26 287.357C480.26 262.109 464.652 245.116 438.924 245.116C413.196 245.116 397.589 262.109 397.589 287.357C397.589 312.553 413.196 329.545 438.924 329.545ZM439.084 309.889C429.443 309.889 424.116 300.727 424.116 287.197C424.116 273.614 429.443 264.399 439.084 264.399C448.406 264.399 453.733 273.614 453.733 287.197C453.733 300.727 448.406 309.889 439.084 309.889ZM546.391 292.684C546.391 302.219 540.318 307.545 532.595 307.545C524.604 307.545 519.704 302.112 519.651 293.217V246.182H493.603V298.33C493.656 316.814 504.896 329.065 521.728 329.065C533.979 329.065 543.088 322.78 546.71 312.766H547.563V328H572.385V246.182H546.391V292.684ZM588.964 328H615.012V283.575C615.012 273.827 621.937 267.276 631.258 267.276C634.348 267.276 638.982 267.808 641.486 268.661V246.022C639.302 245.436 636.585 245.063 634.188 245.063C625.239 245.063 618.101 250.283 615.119 261.097H614.266V246.182H588.964V328ZM783.349 258.433C780.686 232.332 761.243 217.418 734.876 217.418C705.792 217.418 683.154 237.393 683.154 273.455C683.154 309.357 705.26 329.491 734.876 329.491C764.812 329.491 781.378 309.143 783.349 289.808L756.716 289.648C754.851 300.141 746.968 306.374 735.409 306.374C719.855 306.374 710.054 295.134 710.054 273.455C710.054 252.627 719.642 240.536 735.569 240.536C747.554 240.536 755.384 247.513 756.716 258.433H783.349ZM836.63 329.545C862.358 329.545 877.965 312.553 877.965 287.357C877.965 262.109 862.358 245.116 836.63 245.116C810.902 245.116 795.294 262.109 795.294 287.357C795.294 312.553 810.902 329.545 836.63 329.545ZM836.789 309.889C827.148 309.889 821.821 300.727 821.821 287.197C821.821 273.614 827.148 264.399 836.789 264.399C846.111 264.399 851.438 273.614 851.438 287.197C851.438 300.727 846.111 309.889 836.789 309.889ZM921.191 329.172C933.549 329.172 940.9 322.3 944.202 314.737H945.001V328H970.783V218.909H944.735V260.191H944.202C941.113 252.68 933.975 245.116 921.084 245.116C903.986 245.116 888.485 258.273 888.485 287.144C888.485 315.003 903.133 329.172 921.191 329.172ZM930.246 308.877C920.605 308.877 915.225 300.301 915.225 287.091C915.225 273.934 920.552 265.464 930.246 265.464C939.781 265.464 945.321 273.721 945.321 287.091C945.321 300.354 939.728 308.877 930.246 308.877ZM1025.5 329.545C1046.97 329.545 1061.08 319.158 1064.07 303.071L1040.15 302.379C1038.13 307.812 1032.8 310.741 1025.98 310.741C1015.97 310.741 1009.79 304.083 1009.79 294.069V293.376H1064.33V286.878C1064.33 259.925 1047.93 245.116 1024.7 245.116C999.986 245.116 984.113 262.055 984.113 287.411C984.113 313.618 999.773 329.545 1025.5 329.545ZM1009.79 278.249C1010.16 270.099 1016.61 263.92 1025.23 263.92C1033.81 263.92 1039.99 269.886 1040.1 278.249H1009.79Z" fill="#FF7400"/>
</svg>
