<svg width="2657" height="1298" viewBox="0 0 2657 1298" fill="none" xmlns="http://www.w3.org/2000/svg">
<g opacity="0.5" clip-path="url(#clip0)">
<path d="M978.463 1261.99C1024.91 1215.6 1024.91 1140.39 978.463 1093.99C932.012 1047.6 856.7 1047.6 810.248 1093.99C763.797 1140.39 763.797 1215.6 810.248 1261.99C856.7 1308.38 932.012 1308.38 978.463 1261.99Z" fill="#75AADB"/>
<path d="M1038.61 1213.22C1044.79 1217.17 1053.63 1220.16 1063.15 1220.16C1077.24 1220.16 1085.45 1212.72 1085.45 1201.98C1085.45 1192.21 1079.77 1186.34 1065.37 1180.97C1047.98 1174.64 1037.23 1165.48 1037.23 1150.64C1037.23 1134.04 1050.98 1121.73 1071.71 1121.73C1082.46 1121.73 1090.52 1124.26 1095.13 1126.94L1091.33 1138.18C1087.99 1136.11 1080.89 1133.12 1071.25 1133.12C1056.7 1133.12 1051.17 1141.82 1051.17 1149.07C1051.17 1159.04 1057.66 1163.91 1072.36 1169.62C1090.41 1176.56 1099.43 1185.27 1099.43 1200.91C1099.43 1217.32 1087.41 1231.7 1062.26 1231.7C1051.97 1231.7 1040.76 1228.56 1035.04 1224.76L1038.61 1213.22Z" fill="#4D4D4D"/>
<path d="M1134.18 1135.19V1153.52H1154.1V1164.1H1134.18V1205.32C1134.18 1214.79 1136.87 1220.16 1144.62 1220.16C1148.42 1220.16 1150.65 1219.85 1152.68 1219.2L1153.3 1229.78C1150.61 1230.74 1146.35 1231.66 1140.97 1231.66C1134.48 1231.66 1129.26 1229.44 1125.96 1225.83C1122.16 1221.58 1120.59 1214.79 1120.59 1205.78V1164.1H1108.72V1153.52H1120.59V1139.29L1134.18 1135.19Z" fill="#4D4D4D"/>
<path d="M1233.81 1208.96C1233.81 1217.02 1233.97 1223.96 1234.43 1229.98H1222.1L1221.3 1217.51H1220.99C1217.49 1223.69 1209.28 1231.74 1195.69 1231.74C1183.67 1231.74 1169.27 1224.95 1169.27 1198.26V1153.52H1183.21V1195.7C1183.21 1210.23 1187.78 1220.2 1200.29 1220.2C1209.62 1220.2 1216.11 1213.72 1218.65 1207.39C1219.45 1205.51 1219.91 1202.98 1219.91 1200.3V1153.52H1233.85V1208.96H1233.81Z" fill="#4D4D4D"/>
<path d="M1322.89 1117.82V1210.23C1322.89 1217.02 1323.19 1224.76 1323.5 1229.98H1311.18L1310.56 1216.71H1310.1C1305.99 1225.22 1296.82 1231.7 1284.3 1231.7C1265.79 1231.7 1251.4 1216.06 1251.4 1192.82C1251.24 1167.4 1267.22 1151.91 1285.72 1151.91C1297.59 1151.91 1305.34 1157.43 1308.84 1163.45H1309.14V1117.82H1322.89ZM1309.1 1184.61C1309.1 1182.89 1308.95 1180.51 1308.49 1178.79C1306.42 1170.08 1298.85 1162.83 1288.41 1162.83C1274.01 1162.83 1265.49 1175.49 1265.49 1192.21C1265.49 1207.7 1273.24 1220.5 1288.1 1220.5C1297.43 1220.5 1305.99 1214.18 1308.49 1203.9C1308.95 1202.02 1309.1 1200.11 1309.1 1197.88V1184.61Z" fill="#4D4D4D"/>
<path d="M1361.63 1132.01C1361.63 1136.76 1358.29 1140.52 1352.76 1140.52C1347.69 1140.52 1344.39 1136.72 1344.39 1132.01C1344.39 1127.25 1347.88 1123.3 1353.1 1123.3C1358.13 1123.34 1361.63 1127.14 1361.63 1132.01ZM1346.12 1229.98V1153.52H1360.05V1229.98H1346.12Z" fill="#4D4D4D"/>
<path d="M1452.43 1191.09C1452.43 1219.35 1432.66 1231.7 1414.31 1231.7C1393.73 1231.7 1377.6 1216.52 1377.6 1192.36C1377.6 1166.94 1394.53 1151.91 1415.57 1151.91C1437.57 1151.94 1452.43 1167.9 1452.43 1191.09ZM1391.84 1191.9C1391.84 1208.66 1401.33 1221.27 1414.96 1221.27C1428.24 1221.27 1438.23 1208.81 1438.23 1191.55C1438.23 1178.59 1431.74 1162.34 1415.3 1162.34C1398.95 1162.34 1391.84 1177.52 1391.84 1191.9Z" fill="#4D4D4D"/>
<path d="M935.062 1215.9H947.963V1225.91H928.267L895.631 1177.06H878.238V1215.9H895.247V1225.91H852.437V1215.9H867.142V1129.82L852.437 1128.02V1118.55C858.004 1119.81 862.842 1120.69 868.908 1120.69C878.046 1120.69 887.376 1118.55 896.514 1118.55C914.252 1118.55 930.724 1126.6 930.724 1146.27C930.724 1161.49 921.586 1171.16 907.418 1175.26L935.062 1215.9ZM878.238 1167.4L887.568 1167.59C910.336 1167.93 919.09 1159.19 919.09 1147.54C919.09 1133.92 909.223 1128.55 896.706 1128.55C890.793 1128.55 884.689 1129.09 878.238 1129.82V1167.4Z" fill="white"/>
<path d="M1444.6 1123.34C1439.65 1123.34 1435.61 1127.37 1435.61 1132.31C1435.61 1137.26 1439.65 1141.28 1444.6 1141.28C1449.55 1141.28 1453.58 1137.26 1453.58 1132.31C1453.58 1127.37 1449.55 1123.34 1444.6 1123.34ZM1452.12 1132.31C1452.12 1136.45 1448.75 1139.79 1444.64 1139.79C1440.49 1139.79 1437.15 1136.41 1437.15 1132.31C1437.15 1128.17 1440.53 1124.83 1444.64 1124.83C1448.75 1124.8 1452.12 1128.17 1452.12 1132.31Z" fill="#4D4D4D"/>
<path d="M1447.79 1135.95L1445.56 1132.7C1446.83 1132.24 1447.48 1131.32 1447.48 1130.01C1447.48 1128.06 1445.83 1127.37 1444.25 1127.37C1443.83 1127.37 1443.41 1127.4 1443.02 1127.48C1442.64 1127.52 1442.22 1127.56 1441.83 1127.56C1441.3 1127.56 1440.87 1127.48 1440.41 1127.37L1440.18 1127.33V1128.59L1441.49 1128.75V1135.95H1440.18V1137.26H1444.37V1135.95H1442.87V1132.93H1444.1L1446.9 1137.14L1446.98 1137.22H1449.01V1135.92H1447.79V1135.95ZM1446.06 1130.13C1446.06 1130.59 1445.87 1130.97 1445.52 1131.24C1445.1 1131.55 1444.44 1131.7 1443.6 1131.7H1442.87V1128.75C1443.41 1128.71 1443.87 1128.67 1444.29 1128.67C1445.1 1128.67 1446.06 1128.94 1446.06 1130.13Z" fill="#4D4D4D"/>
</g>
<path opacity="0.5" d="M5.50426 875H23.0824V850.107H32.1023L45.3835 875H64.5597L49.4673 847.301C57.4574 843.679 62.0739 836.541 62.0739 826.491C62.0739 811.541 51.8821 802.273 35.5469 802.273H5.50426V875ZM23.0824 836.257V816.442H31.7472C39.6307 816.442 43.8565 819.744 43.8565 826.491C43.8565 833.239 39.6307 836.257 31.7472 836.257H23.0824ZM111.026 824.077H127.859C127.717 810.476 116.886 801.278 99.9822 801.278C83.3629 801.278 71.3956 810.334 71.5021 823.864C71.4666 834.908 79.2081 841.122 91.7791 843.999L99.3786 845.774C107.369 847.621 110.955 849.787 111.026 853.871C110.955 858.31 106.8 861.399 99.7337 861.399C91.9567 861.399 86.843 857.777 86.4524 850.781H69.62C69.8331 867.791 81.6584 875.923 99.9467 875.923C118.058 875.923 128.782 867.72 128.853 853.906C128.782 842.294 120.934 835.192 106.587 832.031L100.337 830.611C93.7322 829.19 89.5419 826.989 89.6839 822.656C89.7195 818.679 93.1286 815.803 99.9467 815.803C106.8 815.803 110.565 818.892 111.026 824.077ZM168.519 820.455H158.683V807.386H141.317V820.455H134.109V833.239H141.317V859.766C141.211 870.81 148.384 876.349 160.636 875.781C164.826 875.568 167.844 874.716 169.513 874.219L166.886 861.683C166.14 861.861 164.4 862.216 163.086 862.216C160.281 862.216 158.683 861.08 158.683 857.848V833.239H168.519V820.455ZM212.571 851.456C212.571 857.812 208.523 861.364 203.374 861.364C198.047 861.364 194.78 857.741 194.744 851.811V820.455H177.379V855.22C177.415 867.543 184.908 875.71 196.129 875.71C204.297 875.71 210.369 871.52 212.784 864.844H213.352V875H229.901V820.455H212.571V851.456ZM260.875 875.781C269.114 875.781 274.015 871.2 276.216 866.158H276.749V875H293.936V802.273H276.571V829.794H276.216C274.157 824.787 269.398 819.744 260.804 819.744C249.405 819.744 239.071 828.516 239.071 847.763C239.071 866.335 248.837 875.781 260.875 875.781ZM266.912 862.251C260.485 862.251 256.898 856.534 256.898 847.727C256.898 838.956 260.449 833.31 266.912 833.31C273.269 833.31 276.962 838.814 276.962 847.727C276.962 856.57 273.233 862.251 266.912 862.251ZM304.918 875H322.283V820.455H304.918V875ZM313.619 814.098C318.555 814.098 322.532 810.369 322.532 805.788C322.532 801.207 318.555 797.514 313.619 797.514C308.718 797.514 304.705 801.207 304.705 805.788C304.705 810.369 308.718 814.098 313.619 814.098ZM358.798 876.03C375.95 876.03 386.355 864.702 386.355 847.905C386.355 831.072 375.95 819.744 358.798 819.744C341.646 819.744 331.241 831.072 331.241 847.905C331.241 864.702 341.646 876.03 358.798 876.03ZM358.904 862.926C352.477 862.926 348.926 856.818 348.926 847.798C348.926 838.743 352.477 832.599 358.904 832.599C365.119 832.599 368.67 838.743 368.67 847.798C368.67 856.818 365.119 862.926 358.904 862.926ZM416.735 895.455H434.1V866.158H434.455C436.657 871.2 441.557 875.781 449.796 875.781C461.87 875.781 471.6 866.335 471.6 847.763C471.6 828.516 461.301 819.744 449.902 819.744C441.273 819.744 436.55 824.787 434.455 829.794H433.922V820.455H416.735V895.455ZM433.745 847.727C433.745 838.814 437.438 833.31 443.794 833.31C450.222 833.31 453.773 838.956 453.773 847.727C453.773 856.534 450.222 862.251 443.794 862.251C437.438 862.251 433.745 856.57 433.745 847.727ZM480.7 875H498.065V845.384C498.065 838.885 502.681 834.517 508.896 834.517C510.955 834.517 514.045 834.872 515.714 835.44V820.348C514.258 819.957 512.447 819.709 510.849 819.709C504.883 819.709 500.124 823.189 498.136 830.398H497.567V820.455H480.7V875ZM545.419 876.03C562.571 876.03 572.976 864.702 572.976 847.905C572.976 831.072 562.571 819.744 545.419 819.744C528.267 819.744 517.862 831.072 517.862 847.905C517.862 864.702 528.267 876.03 545.419 876.03ZM545.526 862.926C539.098 862.926 535.547 856.818 535.547 847.798C535.547 838.743 539.098 832.599 545.526 832.599C551.74 832.599 555.291 838.743 555.291 847.798C555.291 856.818 551.74 862.926 545.526 862.926ZM581.871 820.455V876.918C581.871 880.575 580.273 882.315 575.515 882.315C574.84 882.315 574.237 882.28 573.384 882.173V895.348C574.663 895.419 575.657 895.455 576.9 895.455C590.501 895.455 599.237 890.767 599.237 877.273V820.455H581.871ZM590.536 814.098C595.472 814.098 599.45 810.369 599.45 805.788C599.45 801.207 595.472 797.514 590.536 797.514C585.636 797.514 581.623 801.207 581.623 805.788C581.623 810.369 585.636 814.098 590.536 814.098ZM635.787 876.03C650.098 876.03 659.508 869.105 661.497 858.381L645.552 857.919C644.203 861.541 640.652 863.494 636.106 863.494C629.43 863.494 625.311 859.055 625.311 852.379V851.918H661.674V847.585C661.674 829.616 650.737 819.744 635.254 819.744C618.777 819.744 608.194 831.037 608.194 847.94C608.194 865.412 618.635 876.03 635.787 876.03ZM625.311 841.832C625.559 836.399 629.856 832.28 635.609 832.28C641.326 832.28 645.446 836.257 645.517 841.832H625.311ZM696.005 876.03C711.346 876.03 720.863 867.116 721.325 853.622H705.096C704.457 859.411 700.977 862.571 696.218 862.571C690.11 862.571 686.133 857.422 686.133 847.727C686.133 838.104 690.146 832.955 696.218 832.955C701.19 832.955 704.421 836.328 705.096 841.903H721.325C720.934 828.48 711.133 819.744 695.969 819.744C678.817 819.744 668.448 831.179 668.448 847.905C668.448 864.56 678.746 876.03 696.005 876.03ZM761 820.455H751.163V807.386H733.798V820.455H726.589V833.239H733.798V859.766C733.691 870.81 740.865 876.349 753.116 875.781C757.306 875.568 760.325 874.716 761.994 874.219L759.366 861.683C758.62 861.861 756.88 862.216 755.566 862.216C752.761 862.216 751.163 861.08 751.163 857.848V833.239H761V820.455ZM816.806 876.03C833.958 876.03 844.363 864.702 844.363 847.905C844.363 831.072 833.958 819.744 816.806 819.744C799.654 819.744 789.249 831.072 789.249 847.905C789.249 864.702 799.654 876.03 816.806 876.03ZM816.912 862.926C810.485 862.926 806.934 856.818 806.934 847.798C806.934 838.743 810.485 832.599 816.912 832.599C823.127 832.599 826.678 838.743 826.678 847.798C826.678 856.818 823.127 862.926 816.912 862.926ZM870.623 843.892C870.659 837.678 874.281 833.984 879.785 833.984C885.289 833.984 888.556 837.607 888.521 843.643V875H905.886V840.234C905.922 827.947 898.429 819.744 886.958 819.744C878.897 819.744 872.789 823.828 870.375 830.469H869.771V820.455H853.258V875H870.623V843.892ZM16.1222 1016.45C28.6222 1016.45 34.8366 1010.13 37.8551 1001.22L58.4162 941.49L40.1278 941.455L29.9361 980.375H29.3679L19.3182 941.455H1.13636L20.5256 997.989L19.8509 999.622C18.1818 1003.71 14.4176 1003.78 9.30398 1002.11L5.46875 1014.71C8.09659 1015.78 11.9673 1016.45 16.1222 1016.45ZM88.7784 997.03C105.93 997.03 116.335 985.702 116.335 968.905C116.335 952.072 105.93 940.744 88.7784 940.744C71.6264 940.744 61.2216 952.072 61.2216 968.905C61.2216 985.702 71.6264 997.03 88.7784 997.03ZM88.8849 983.926C82.4574 983.926 78.9062 977.818 78.9062 968.798C78.9062 959.743 82.4574 953.599 88.8849 953.599C95.0994 953.599 98.6506 959.743 98.6506 968.798C98.6506 977.818 95.0994 983.926 88.8849 983.926ZM160.423 972.456C160.423 978.812 156.374 982.364 151.225 982.364C145.898 982.364 142.631 978.741 142.596 972.811V941.455H125.231V976.22C125.266 988.543 132.759 996.71 143.981 996.71C152.148 996.71 158.221 992.52 160.636 985.844H161.204V996H177.752V941.455H160.423V972.456ZM188.805 996H206.17V966.384C206.17 959.885 210.787 955.517 217.001 955.517C219.061 955.517 222.15 955.872 223.819 956.44V941.348C222.363 940.957 220.552 940.709 218.954 940.709C212.988 940.709 208.23 944.189 206.241 951.398H205.673V941.455H188.805V996ZM277.841 997.03C293.182 997.03 302.699 988.116 303.161 974.622H286.932C286.293 980.411 282.812 983.571 278.054 983.571C271.946 983.571 267.969 978.422 267.969 968.727C267.969 959.104 271.982 953.955 278.054 953.955C283.026 953.955 286.257 957.328 286.932 962.903H303.161C302.77 949.48 292.969 940.744 277.805 940.744C260.653 940.744 250.284 952.179 250.284 968.905C250.284 985.56 260.582 997.03 277.841 997.03ZM337.509 997.03C354.661 997.03 365.066 985.702 365.066 968.905C365.066 952.072 354.661 940.744 337.509 940.744C320.357 940.744 309.952 952.072 309.952 968.905C309.952 985.702 320.357 997.03 337.509 997.03ZM337.615 983.926C331.188 983.926 327.637 977.818 327.637 968.798C327.637 959.743 331.188 953.599 337.615 953.599C343.83 953.599 347.381 959.743 347.381 968.798C347.381 977.818 343.83 983.926 337.615 983.926ZM373.961 996H391.326V963.72C391.326 958.322 394.487 954.878 399.032 954.878C403.542 954.878 406.525 958.038 406.525 963.081V996H423.216V963.436C423.216 958.216 426.092 954.878 430.886 954.878C435.289 954.878 438.414 957.825 438.414 963.259V996H455.779V959.281C455.779 947.74 448.677 940.744 438.379 940.744C430.318 940.744 423.961 944.97 421.937 951.469H421.369C419.913 944.935 414.054 940.744 406.49 940.744C399.032 940.744 393.35 944.828 391.078 951.469H390.474V941.455H373.961V996ZM466.539 1016.45H483.904V987.158H484.26C486.461 992.2 491.362 996.781 499.6 996.781C511.674 996.781 521.404 987.335 521.404 968.763C521.404 949.516 511.106 940.744 499.707 940.744C491.078 940.744 486.355 945.787 484.26 950.794H483.727V941.455H466.539V1016.45ZM483.549 968.727C483.549 959.814 487.243 954.31 493.599 954.31C500.027 954.31 503.578 959.956 503.578 968.727C503.578 977.534 500.027 983.251 493.599 983.251C487.243 983.251 483.549 977.57 483.549 968.727ZM565.696 972.456C565.696 978.812 561.648 982.364 556.499 982.364C551.172 982.364 547.905 978.741 547.869 972.811V941.455H530.504V976.22C530.54 988.543 538.033 996.71 549.254 996.71C557.422 996.71 563.494 992.52 565.909 985.844H566.477V996H583.026V941.455H565.696V972.456ZM624.867 941.455H615.03V928.386H597.665V941.455H590.456V954.239H597.665V980.766C597.559 991.81 604.732 997.349 616.983 996.781C621.174 996.568 624.192 995.716 625.861 995.219L623.233 982.683C622.488 982.861 620.748 983.216 619.434 983.216C616.628 983.216 615.03 982.08 615.03 978.848V954.239H624.867V941.455ZM658.638 997.03C672.949 997.03 682.36 990.105 684.348 979.381L668.404 978.919C667.054 982.541 663.503 984.494 658.958 984.494C652.282 984.494 648.162 980.055 648.162 973.379V972.918H684.526V968.585C684.526 950.616 673.588 940.744 658.105 940.744C641.628 940.744 631.046 952.037 631.046 968.94C631.046 986.412 641.486 997.03 658.638 997.03ZM648.162 962.832C648.411 957.399 652.708 953.28 658.461 953.28C664.178 953.28 668.297 957.257 668.368 962.832H648.162ZM693.395 996H710.76V966.384C710.76 959.885 715.376 955.517 721.591 955.517C723.651 955.517 726.74 955.872 728.409 956.44V941.348C726.953 940.957 725.142 940.709 723.544 940.709C717.578 940.709 712.82 944.189 710.831 951.398H710.263V941.455H693.395V996Z" fill="black"/>
<path opacity="0.5" d="M1471.5 97H1489.08V72.1065H1498.1L1511.38 97H1530.56L1515.47 69.3011C1523.46 65.679 1528.07 58.5412 1528.07 48.4915C1528.07 33.5412 1517.88 24.2727 1501.55 24.2727H1471.5V97ZM1489.08 58.2571V38.4418H1497.75C1505.63 38.4418 1509.86 41.7443 1509.86 48.4915C1509.86 55.2386 1505.63 58.2571 1497.75 58.2571H1489.08ZM1562.14 98.0298C1576.45 98.0298 1585.86 91.1051 1587.85 80.3807L1571.9 79.919C1570.55 83.5412 1567 85.4943 1562.46 85.4943C1555.78 85.4943 1551.66 81.0554 1551.66 74.3793V73.9176H1588.03V69.5852C1588.03 51.6165 1577.09 41.7443 1561.61 41.7443C1545.13 41.7443 1534.55 53.0369 1534.55 69.9403C1534.55 87.4119 1544.99 98.0298 1562.14 98.0298ZM1551.66 63.8324C1551.91 58.3991 1556.21 54.2798 1561.96 54.2798C1567.68 54.2798 1571.8 58.2571 1571.87 63.8324H1551.66ZM1596.89 117.455H1614.26V88.1577H1614.62C1616.82 93.2003 1621.72 97.7812 1629.96 97.7812C1642.03 97.7812 1651.76 88.3352 1651.76 69.7628C1651.76 50.5156 1641.46 41.7443 1630.06 41.7443C1621.43 41.7443 1616.71 46.7869 1614.62 51.794H1614.08V42.4545H1596.89V117.455ZM1613.9 69.7273C1613.9 60.8139 1617.6 55.3097 1623.95 55.3097C1630.38 55.3097 1633.93 60.956 1633.93 69.7273C1633.93 78.5341 1630.38 84.2514 1623.95 84.2514C1617.6 84.2514 1613.9 78.5696 1613.9 69.7273ZM1686.32 98.0298C1703.47 98.0298 1713.88 86.7017 1713.88 69.9048C1713.88 53.0724 1703.47 41.7443 1686.32 41.7443C1669.17 41.7443 1658.76 53.0724 1658.76 69.9048C1658.76 86.7017 1669.17 98.0298 1686.32 98.0298ZM1686.43 84.9261C1680 84.9261 1676.45 78.8182 1676.45 69.7983C1676.45 60.7429 1680 54.5994 1686.43 54.5994C1692.64 54.5994 1696.19 60.7429 1696.19 69.7983C1696.19 78.8182 1692.64 84.9261 1686.43 84.9261ZM1770.39 59.1094C1769.47 48.3139 1760.63 41.7443 1745.86 41.7443C1731.08 41.7443 1721.67 48.1719 1721.74 59.1094C1721.67 67.4901 1727.04 72.8878 1737.94 74.9119L1747.45 76.723C1751.96 77.6108 1754.02 79.0312 1754.09 81.446C1754.02 84.1804 1750.97 85.9915 1746.53 85.9915C1741.59 85.9915 1738.26 83.8608 1737.51 79.8835L1720.36 80.3097C1721.6 91.1051 1730.87 98.0298 1746.46 98.0298C1761.06 98.0298 1771.67 90.75 1771.74 79.5284C1771.67 71.5739 1766.42 66.8509 1755.55 64.7557L1745.04 62.767C1740.42 61.8438 1738.93 60.2102 1738.97 58.1151C1738.93 55.3452 1742.16 53.6406 1746.18 53.6406C1750.76 53.6406 1753.95 56.0909 1754.45 59.5355L1770.39 59.1094ZM1780.29 97H1797.66V42.4545H1780.29V97ZM1788.99 36.098C1793.93 36.098 1797.91 32.3693 1797.91 27.7884C1797.91 23.2074 1793.93 19.5142 1788.99 19.5142C1784.09 19.5142 1780.08 23.2074 1780.08 27.7884C1780.08 32.3693 1784.09 36.098 1788.99 36.098ZM1839.5 42.4545H1829.66V29.3864H1812.3V42.4545H1805.09V55.2386H1812.3V81.7656C1812.19 92.8097 1819.36 98.3494 1831.62 97.7812C1835.81 97.5682 1838.82 96.7159 1840.49 96.2188L1837.87 83.6832C1837.12 83.8608 1835.38 84.2159 1834.07 84.2159C1831.26 84.2159 1829.66 83.0795 1829.66 79.848V55.2386H1839.5V42.4545ZM1873.24 98.0298C1890.39 98.0298 1900.79 86.7017 1900.79 69.9048C1900.79 53.0724 1890.39 41.7443 1873.24 41.7443C1856.08 41.7443 1845.68 53.0724 1845.68 69.9048C1845.68 86.7017 1856.08 98.0298 1873.24 98.0298ZM1873.34 84.9261C1866.91 84.9261 1863.36 78.8182 1863.36 69.7983C1863.36 60.7429 1866.91 54.5994 1873.34 54.5994C1879.56 54.5994 1883.11 60.7429 1883.11 69.7983C1883.11 78.8182 1879.56 84.9261 1873.34 84.9261ZM1909.69 97H1927.05V67.3835C1927.05 60.8849 1931.67 56.517 1937.88 56.517C1939.94 56.517 1943.03 56.8722 1944.7 57.4403V42.348C1943.25 41.9574 1941.44 41.7088 1939.84 41.7088C1933.87 41.7088 1929.11 45.1889 1927.12 52.3977H1926.56V42.4545H1909.69V97ZM1964.06 117.455C1976.56 117.455 1982.77 111.134 1985.79 102.22L2006.35 42.4901L1988.06 42.4545L1977.87 81.375H1977.3L1967.25 42.4545H1949.07L1968.46 98.9886L1967.78 100.622C1966.12 104.706 1962.35 104.777 1957.24 103.108L1953.4 115.714C1956.03 116.78 1959.9 117.455 1964.06 117.455ZM2059.95 98.0298C2077.11 98.0298 2087.51 86.7017 2087.51 69.9048C2087.51 53.0724 2077.11 41.7443 2059.95 41.7443C2042.8 41.7443 2032.4 53.0724 2032.4 69.9048C2032.4 86.7017 2042.8 98.0298 2059.95 98.0298ZM2060.06 84.9261C2053.63 84.9261 2050.08 78.8182 2050.08 69.7983C2050.08 60.7429 2053.63 54.5994 2060.06 54.5994C2066.28 54.5994 2069.83 60.7429 2069.83 69.7983C2069.83 78.8182 2066.28 84.9261 2060.06 84.9261ZM2113.77 65.892C2113.81 59.6776 2117.43 55.9844 2122.93 55.9844C2128.44 55.9844 2131.7 59.6065 2131.67 65.6435V97H2149.03V62.2344C2149.07 49.9474 2141.58 41.7443 2130.11 41.7443C2122.05 41.7443 2115.94 45.8281 2113.52 52.4688H2112.92V42.4545H2096.41V97H2113.77V65.892ZM1519.23 169.03H1537.02C1535.25 154.541 1522.32 144.278 1505.49 144.278C1486.06 144.278 1470.72 157.95 1470.72 181.743C1470.72 204.754 1484.86 218.994 1505.7 218.994C1524.42 218.994 1537.8 207.382 1537.8 187.851V178.227H1506.45V191.047H1520.87C1520.69 198.717 1515.36 203.582 1505.84 203.582C1494.94 203.582 1488.66 195.521 1488.66 181.53C1488.66 167.645 1495.3 159.69 1505.84 159.69C1512.88 159.69 1517.67 163.135 1519.23 169.03ZM1551.58 218H1568.95V163.455H1551.58V218ZM1560.28 157.098C1565.22 157.098 1569.2 153.369 1569.2 148.788C1569.2 144.207 1565.22 140.514 1560.28 140.514C1555.38 140.514 1551.37 144.207 1551.37 148.788C1551.37 153.369 1555.38 157.098 1560.28 157.098ZM1610.79 163.455H1600.95V150.386H1583.59V163.455H1576.38V176.239H1583.59V202.766C1583.48 213.81 1590.65 219.349 1602.91 218.781C1607.1 218.568 1610.11 217.716 1611.78 217.219L1609.16 204.683C1608.41 204.861 1606.67 205.216 1605.36 205.216C1602.55 205.216 1600.95 204.08 1600.95 200.848V176.239H1610.79V163.455ZM1620.82 218H1638.4V188.774H1667.06V218H1684.6V145.273H1667.06V174.463H1638.4V145.273H1620.82V218ZM1730.82 194.456C1730.82 200.812 1726.77 204.364 1721.62 204.364C1716.29 204.364 1713.03 200.741 1712.99 194.811V163.455H1695.63V198.22C1695.66 210.543 1703.15 218.71 1714.38 218.71C1722.54 218.71 1728.62 214.52 1731.03 207.844H1731.6V218H1748.15V163.455H1730.82V194.456ZM1759.2 218H1776.39V209.158H1776.92C1779.12 214.2 1784.02 218.781 1792.26 218.781C1804.33 218.781 1814.06 209.335 1814.06 190.763C1814.06 171.516 1803.77 162.744 1792.37 162.744C1783.74 162.744 1779.01 167.787 1776.92 172.794H1776.56V145.273H1759.2V218ZM1776.21 190.727C1776.21 181.814 1779.9 176.31 1786.26 176.31C1792.69 176.31 1796.24 181.956 1796.24 190.727C1796.24 199.534 1792.69 205.251 1786.26 205.251C1779.9 205.251 1776.21 199.57 1776.21 190.727Z" fill="black"/>
<g opacity="0.5">
<path d="M2268.54 269.006H2228.18C2227.14 269.006 2226.29 269.852 2226.29 270.894V290.624C2226.29 291.665 2227.14 292.513 2228.18 292.513H2243.92V317.026C2243.92 317.026 2240.39 318.232 2230.61 318.232C2219.09 318.232 2202.98 314.018 2202.98 278.6C2202.98 243.176 2219.75 238.514 2235.5 238.514C2249.13 238.514 2255 240.913 2258.73 242.069C2259.91 242.429 2260.99 241.261 2260.99 240.218L2265.5 221.154C2265.5 220.668 2265.33 220.08 2264.78 219.681C2263.26 218.6 2254 213.42 2230.61 213.42C2203.67 213.42 2176.04 224.881 2176.04 279.982C2176.04 335.084 2207.68 343.294 2234.34 343.294C2256.42 343.294 2269.81 333.861 2269.81 333.861C2270.36 333.556 2270.42 332.785 2270.42 332.43V270.894C2270.42 269.852 2269.58 269.006 2268.54 269.006" fill="#161312"/>
<path d="M2476.51 220.021C2476.51 218.972 2475.68 218.124 2474.64 218.124H2451.92C2450.88 218.124 2450.04 218.972 2450.04 220.021C2450.04 220.026 2450.04 263.934 2450.04 263.934H2414.62V220.021C2414.62 218.972 2413.79 218.124 2412.75 218.124H2390.03C2388.99 218.124 2388.15 218.972 2388.15 220.021V338.925C2388.15 339.974 2388.99 340.828 2390.03 340.828H2412.75C2413.79 340.828 2414.62 339.974 2414.62 338.925V288.066H2450.04C2450.04 288.066 2449.98 338.921 2449.98 338.925C2449.98 339.974 2450.82 340.828 2451.86 340.828H2474.64C2475.68 340.828 2476.51 339.974 2476.51 338.925V220.021" fill="#161312"/>
<path d="M2311.41 235.624C2311.41 227.442 2304.86 220.83 2296.76 220.83C2288.68 220.83 2282.11 227.442 2282.11 235.624C2282.11 243.798 2288.68 250.428 2296.76 250.428C2304.86 250.428 2311.41 243.798 2311.41 235.624Z" fill="#161312"/>
<path d="M2309.79 313.844C2309.79 310.796 2309.79 258.957 2309.79 258.957C2309.79 257.915 2308.95 257.063 2307.91 257.063H2285.26C2284.22 257.063 2283.29 258.135 2283.29 259.176C2283.29 259.176 2283.29 325.223 2283.29 337.812C2283.29 340.123 2284.73 340.811 2286.59 340.811C2286.59 340.811 2296.26 340.811 2307 340.811C2309.24 340.811 2309.79 339.711 2309.79 337.775C2309.79 333.56 2309.79 317.048 2309.79 313.844" fill="#161312"/>
<path d="M2562.87 257.241H2540.32C2539.29 257.241 2538.45 258.095 2538.45 259.143V317.445C2538.45 317.445 2532.72 321.636 2524.59 321.636C2516.46 321.636 2514.3 317.947 2514.3 309.985C2514.3 302.015 2514.3 259.143 2514.3 259.143C2514.3 258.095 2513.46 257.241 2512.42 257.241H2489.54C2488.51 257.241 2487.66 258.095 2487.66 259.143C2487.66 259.143 2487.66 290.191 2487.66 313.836C2487.66 337.483 2500.84 343.267 2518.97 343.267C2533.84 343.267 2545.83 335.051 2545.83 335.051C2545.83 335.051 2546.41 339.381 2546.66 339.895C2546.92 340.407 2547.59 340.924 2548.32 340.924L2562.88 340.859C2563.91 340.859 2564.76 340.005 2564.76 338.961L2564.75 259.143C2564.75 258.095 2563.91 257.241 2562.87 257.241" fill="#161312"/>
<path d="M2615.61 321.564C2607.79 321.326 2602.48 317.777 2602.48 317.777V280.122C2602.48 280.122 2607.71 276.914 2614.13 276.341C2622.25 275.614 2630.08 278.066 2630.08 297.437C2630.08 317.862 2626.55 321.894 2615.61 321.564ZM2624.5 254.57C2611.69 254.57 2602.98 260.285 2602.98 260.285V220.021C2602.98 218.972 2602.14 218.124 2601.11 218.124H2578.32C2577.28 218.124 2576.44 218.972 2576.44 220.021V338.925C2576.44 339.974 2577.28 340.828 2578.32 340.828C2578.33 340.828 2594.13 340.828 2594.13 340.828C2594.85 340.828 2595.38 340.461 2595.78 339.818C2596.18 339.178 2596.74 334.336 2596.74 334.336C2596.74 334.336 2606.06 343.165 2623.7 343.165C2644.41 343.165 2656.28 332.662 2656.28 296.012C2656.28 259.36 2637.32 254.57 2624.5 254.57" fill="#161312"/>
<path d="M2375.1 257.052H2358.05C2358.05 257.052 2358.03 234.538 2358.03 234.534C2358.03 233.681 2357.59 233.256 2356.6 233.256H2333.37C2332.47 233.256 2331.99 233.653 2331.99 234.521V257.79C2331.99 257.79 2320.35 260.6 2319.56 260.828C2318.78 261.054 2318.2 261.777 2318.2 262.64V277.262C2318.2 278.314 2319.04 279.162 2320.08 279.162H2331.99C2331.99 279.162 2331.99 294.457 2331.99 314.341C2331.99 340.47 2350.31 343.037 2362.68 343.037C2368.33 343.037 2375.09 341.222 2376.21 340.81C2376.88 340.562 2377.28 339.862 2377.28 339.105L2377.3 323.018C2377.3 321.97 2376.41 321.121 2375.41 321.121C2374.42 321.121 2371.88 321.525 2369.26 321.525C2360.89 321.525 2358.05 317.633 2358.05 312.593C2358.05 307.558 2358.05 279.162 2358.05 279.162H2375.1C2376.14 279.162 2376.98 278.314 2376.98 277.262V258.946C2376.98 257.897 2376.14 257.052 2375.1 257.052" fill="#161312"/>
<path fill-rule="evenodd" clip-rule="evenodd" d="M2055.52 200C2011.05 200 1975 236.048 1975 280.518C1975 316.092 1998.07 346.274 2030.06 356.92C2034.09 357.666 2035.56 355.174 2035.56 353.047C2035.56 351.127 2035.49 344.784 2035.45 338.056C2013.05 342.927 2008.33 328.556 2008.33 328.556C2004.67 319.25 1999.39 316.775 1999.39 316.775C1992.08 311.778 1999.94 311.88 1999.94 311.88C2008.02 312.447 2012.28 320.179 2012.28 320.179C2019.46 332.487 2031.12 328.928 2035.71 326.871C2036.43 321.667 2038.52 318.114 2040.82 316.104C2022.94 314.068 2004.14 307.164 2004.14 276.312C2004.14 267.522 2007.29 260.339 2012.44 254.7C2011.6 252.671 2008.84 244.483 2013.22 233.392C2013.22 233.392 2019.98 231.228 2035.36 241.646C2041.79 239.862 2048.67 238.967 2055.52 238.936C2062.36 238.967 2069.25 239.862 2075.69 241.646C2091.06 231.228 2097.81 233.392 2097.81 233.392C2102.19 244.483 2099.43 252.671 2098.6 254.7C2103.76 260.339 2106.88 267.522 2106.88 276.312C2106.88 307.238 2088.05 314.047 2070.12 316.04C2073.01 318.539 2075.58 323.439 2075.58 330.951C2075.58 341.724 2075.49 350.395 2075.49 353.047C2075.49 355.19 2076.94 357.7 2081.02 356.91C2112.99 346.251 2136.03 316.08 2136.03 280.518C2136.03 236.048 2099.98 200 2055.52 200" fill="#1B1817"/>
</g>
<path d="M679.165 389.545H644.009V535H679.165V389.545ZM735.965 472.784C736.036 460.355 743.281 452.969 754.289 452.969C765.298 452.969 771.832 460.213 771.761 472.287V535H806.491V465.469C806.562 440.895 791.576 424.489 768.636 424.489C752.513 424.489 740.298 432.656 735.468 445.938H734.261V425.909H701.235V535H735.965V472.784ZM966.203 459.219C964.357 437.628 946.672 424.489 917.126 424.489C887.581 424.489 868.76 437.344 868.902 459.219C868.76 475.98 879.484 486.776 901.288 490.824L920.322 494.446C929.342 496.222 933.462 499.062 933.604 503.892C933.462 509.361 927.354 512.983 918.476 512.983C908.604 512.983 901.928 508.722 900.436 500.767L866.132 501.619C868.618 523.21 887.155 537.06 918.334 537.06C947.524 537.06 968.76 522.5 968.902 500.057C968.76 484.148 958.249 474.702 936.516 470.511L915.493 466.534C906.26 464.688 903.277 461.42 903.348 457.23C903.277 451.69 909.74 448.281 917.766 448.281C926.928 448.281 933.32 453.182 934.314 460.071L966.203 459.219ZM1007.24 575.909C1032.24 575.909 1044.67 563.267 1050.7 545.44L1091.82 425.98L1055.25 425.909L1034.86 503.75H1033.73L1013.63 425.909H977.265L1016.04 538.977L1014.69 542.244C1011.36 550.412 1003.83 550.554 993.6 547.216L985.93 572.429C991.185 574.56 998.927 575.909 1007.24 575.909ZM1139.87 472.784C1139.94 460.355 1147.19 452.969 1158.2 452.969C1169.2 452.969 1175.74 460.213 1175.67 472.287V535H1210.4V465.469C1210.47 440.895 1195.48 424.489 1172.54 424.489C1156.42 424.489 1144.2 432.656 1139.37 445.938H1138.17V425.909H1105.14V535H1139.87V472.784ZM1282.82 537.06C1313.5 537.06 1332.54 519.233 1333.46 492.244H1301C1299.73 503.821 1292.77 510.142 1283.25 510.142C1271.03 510.142 1263.08 499.844 1263.08 480.455C1263.08 461.207 1271.1 450.909 1283.25 450.909C1293.19 450.909 1299.65 457.656 1301 468.807H1333.46C1332.68 441.96 1313.08 424.489 1282.75 424.489C1248.45 424.489 1227.71 447.358 1227.71 480.81C1227.71 514.119 1248.31 537.06 1282.82 537.06Z" fill="#FF7400"/>
<path d="M958.156 992.35L1055.15 929.69L952.387 877.024L958.156 992.35ZM1877.15 352.896L1780.16 415.555L1882.92 468.222L1877.15 352.896ZM1007.87 917.242C1042.87 856.121 1098.46 773.798 1168.63 718.581C1238.47 663.616 1321.35 636.386 1413.24 681.596L1422.07 663.65C1320.93 613.889 1229.79 645.002 1156.26 702.864C1083.05 760.473 1025.93 845.46 990.518 907.305L1007.87 917.242ZM1413.24 681.596C1514.37 731.356 1605.52 700.244 1679.04 642.382C1752.25 584.773 1809.38 499.785 1844.78 437.941L1827.43 428.003C1792.43 489.124 1736.84 571.447 1666.67 626.665C1596.83 681.63 1513.95 708.86 1422.07 663.65L1413.24 681.596Z" fill="#FF7400"/>
<defs>
<clipPath id="clip0">
<rect width="685" height="240" fill="white" transform="translate(772 1058)"/>
</clipPath>
</defs>
</svg>
