<svg width="683" height="158" viewBox="0 0 683 158" fill="none" xmlns="http://www.w3.org/2000/svg">
<path d="M294.497 69.5866H254.141C253.1 69.5866 252.256 70.4319 252.256 71.4746V91.204C252.256 92.2453 253.1 93.0933 254.141 93.0933H269.884V117.607C269.884 117.607 266.349 118.812 256.576 118.812C245.047 118.812 228.94 114.599 228.94 79.1799C228.94 43.7559 245.712 39.0947 261.457 39.0947C275.088 39.0947 280.959 41.4933 284.696 42.6493C285.871 43.0093 286.956 41.8413 286.956 40.7986L291.457 21.7346C291.457 21.248 291.292 20.66 290.737 20.2613C289.22 19.18 279.963 14 256.576 14C229.636 14 202 25.4613 202 80.5626C202 135.664 233.64 143.875 260.303 143.875C282.379 143.875 295.771 134.441 295.771 134.441C296.323 134.136 296.383 133.365 296.383 133.011V71.4746C296.383 70.4319 295.539 69.5866 294.497 69.5866" fill="#161312"/>
<path d="M502.476 20.6013C502.476 19.552 501.644 18.704 500.601 18.704H477.879C476.841 18.704 475.997 19.552 475.997 20.6013C475.997 20.6066 476.004 64.5146 476.004 64.5146H440.584V20.6013C440.584 19.552 439.749 18.704 438.709 18.704H415.988C414.955 18.704 414.111 19.552 414.111 20.6013V139.505C414.111 140.555 414.955 141.408 415.988 141.408H438.709C439.749 141.408 440.584 140.555 440.584 139.505V88.6466H476.004C476.004 88.6466 475.941 139.501 475.941 139.505C475.941 140.555 476.784 141.408 477.824 141.408H500.6C501.641 141.408 502.473 140.555 502.476 139.505V20.6013" fill="#161312"/>
<path d="M337.376 36.204C337.376 28.0226 330.817 21.4106 322.724 21.4106C314.639 21.4106 308.073 28.0226 308.073 36.204C308.073 44.3786 314.639 51.0079 322.724 51.0079C330.817 51.0079 337.376 44.3786 337.376 36.204Z" fill="#161312"/>
<path d="M335.752 114.424C335.752 111.376 335.752 59.5373 335.752 59.5373C335.752 58.4946 334.911 57.6426 333.872 57.6426H311.22C310.181 57.6426 309.252 58.7147 309.252 59.756C309.252 59.756 309.252 125.803 309.252 138.392C309.252 140.703 310.692 141.391 312.555 141.391C312.555 141.391 322.224 141.391 332.963 141.391C335.203 141.391 335.752 140.291 335.752 138.355C335.752 134.14 335.752 117.628 335.752 114.424" fill="#161312"/>
<path d="M588.832 57.8213H566.284C565.251 57.8213 564.408 58.6746 564.408 59.7226V118.025C564.408 118.025 558.679 122.216 550.548 122.216C542.419 122.216 540.261 118.527 540.261 110.565C540.261 102.595 540.261 59.7226 540.261 59.7226C540.261 58.6746 539.421 57.8213 538.385 57.8213H515.5C514.468 57.8213 513.621 58.6746 513.621 59.7226C513.621 59.7226 513.621 90.7706 513.621 114.416C513.621 138.063 526.8 143.847 544.929 143.847C559.804 143.847 571.796 135.631 571.796 135.631C571.796 135.631 572.367 139.961 572.625 140.475C572.883 140.987 573.556 141.504 574.284 141.504L588.843 141.439C589.875 141.439 590.721 140.585 590.721 139.541L590.713 59.7226C590.713 58.6746 589.872 57.8213 588.832 57.8213" fill="#161312"/>
<path d="M641.568 122.144C633.747 121.907 628.441 118.357 628.441 118.357V80.7027C628.441 80.7027 633.675 77.4946 640.096 76.9213C648.216 76.1946 656.04 78.6466 656.04 98.0173C656.04 118.443 652.509 122.475 641.568 122.144ZM650.461 55.1506C637.655 55.1506 628.944 60.8653 628.944 60.8653V20.6013C628.944 19.552 628.104 18.704 627.069 18.704H604.281C603.245 18.704 602.404 19.552 602.404 20.6013V139.505C602.404 140.555 603.245 141.408 604.284 141.408C604.287 141.408 620.089 141.408 620.095 141.408C620.807 141.408 621.345 141.041 621.744 140.399C622.137 139.759 622.704 134.916 622.704 134.916C622.704 134.916 632.021 143.745 649.66 143.745C670.369 143.745 682.245 133.243 682.245 96.592C682.245 59.94 663.277 55.1506 650.461 55.1506" fill="#161312"/>
<path d="M401.059 57.632H384.013C384.013 57.632 383.988 35.1186 383.988 35.1146C383.988 34.2613 383.548 33.836 382.563 33.836H359.336C358.432 33.836 357.948 34.2333 357.948 35.1013V58.3706C357.948 58.3706 346.308 61.1799 345.52 61.4079C344.737 61.6346 344.16 62.3573 344.16 63.22V77.8426C344.16 78.8946 345 79.7426 346.039 79.7426H357.948C357.948 79.7426 357.948 95.0373 357.948 114.921C357.948 141.051 376.276 143.617 388.643 143.617C394.295 143.617 401.055 141.803 402.171 141.391C402.845 141.143 403.237 140.443 403.237 139.685L403.257 123.599C403.257 122.551 402.371 121.701 401.373 121.701C400.379 121.701 397.839 122.105 395.223 122.105C386.849 122.105 384.013 118.213 384.013 113.173C384.013 108.139 384.012 79.7426 384.012 79.7426H401.059C402.097 79.7426 402.939 78.8946 402.939 77.8426V59.5266C402.939 58.4773 402.097 57.632 401.059 57.632" fill="#161312"/>
<path fill-rule="evenodd" clip-rule="evenodd" d="M81.4787 0.580071C37.016 0.580071 0.961334 36.6281 0.961334 81.0974C0.961334 116.672 24.032 146.853 56.024 157.5C60.048 158.245 61.5253 155.753 61.5253 153.627C61.5253 151.707 61.4507 145.364 61.416 138.636C39.016 143.507 34.2893 129.136 34.2893 129.136C30.6267 119.829 25.3494 117.355 25.3494 117.355C18.044 112.357 25.9 112.46 25.9 112.46C33.9853 113.027 38.2427 120.759 38.2427 120.759C45.424 133.067 57.0787 129.508 61.6733 127.451C62.396 122.247 64.4827 118.693 66.7853 116.684C48.9013 114.648 30.1013 107.744 30.1013 76.892C30.1013 68.1014 33.2467 60.9187 38.3973 55.2801C37.5613 53.2507 34.8053 45.0627 39.1773 33.9721C39.1773 33.9721 45.9387 31.808 61.3253 42.2254C67.748 40.4414 74.636 39.5467 81.4787 39.5161C88.3213 39.5467 95.2147 40.4414 101.649 42.2254C117.017 31.808 123.769 33.9721 123.769 33.9721C128.152 45.0627 125.395 53.2507 124.559 55.2801C129.721 60.9187 132.845 68.1014 132.845 76.892C132.845 107.817 114.009 114.627 96.08 116.62C98.968 119.119 101.541 124.019 101.541 131.531C101.541 142.304 101.448 150.975 101.448 153.627C101.448 155.769 102.897 158.28 106.979 157.489C138.953 146.831 161.995 116.66 161.995 81.0974C161.995 36.6281 125.945 0.580071 81.4787 0.580071" fill="#1B1817"/>
</svg>
