<svg width="788" height="100" viewBox="0 0 788 100" fill="none" xmlns="http://www.w3.org/2000/svg">
<g clip-path="url(#clip0)">
<path d="M588.027 84.9957C607.381 65.6662 607.381 34.3269 588.027 14.9975C568.672 -4.33203 537.292 -4.33203 517.937 14.9975C498.583 34.3269 498.583 65.6662 517.937 84.9957C537.292 104.325 568.672 104.325 588.027 84.9957Z" fill="#75AADB"/>
<path d="M613.089 64.6748C615.665 66.3204 619.344 67.5667 623.312 67.5667C629.183 67.5667 632.607 64.4671 632.607 59.9936C632.607 55.9194 630.239 53.4749 624.24 51.2382C616.993 48.602 612.513 44.7835 612.513 38.6004C612.513 31.6823 618.241 26.5537 626.879 26.5537C631.359 26.5537 634.718 27.6082 636.638 28.7266L635.054 33.4078C633.663 32.5451 630.703 31.2989 626.687 31.2989C620.624 31.2989 618.321 34.9257 618.321 37.9453C618.321 42.0993 621.024 44.1284 627.151 46.509C634.67 49.4008 638.43 53.0276 638.43 59.5462C638.43 66.3844 633.423 72.3757 622.944 72.3757C618.657 72.3757 613.985 71.0656 611.602 69.4839L613.089 64.6748Z" fill="#4D4D4D"/>
<path d="M652.907 32.1616V39.7986H661.21V44.2083H652.907V61.3835C652.907 65.3298 654.027 67.5666 657.259 67.5666C658.842 67.5666 659.77 67.4388 660.618 67.1672L660.874 71.5768C659.754 71.9763 657.979 72.3597 655.739 72.3597C653.035 72.3597 650.86 71.4331 649.484 69.9312C647.9 68.1578 647.244 65.3298 647.244 61.5753V44.2083H642.301V39.7986H647.244V33.8712L652.907 32.1616Z" fill="#4D4D4D"/>
<path d="M694.422 62.9011C694.422 66.2562 694.486 69.1481 694.678 71.6565H689.542L689.206 66.4639H689.078C687.623 69.0362 684.199 72.3914 678.536 72.3914C673.528 72.3914 667.529 69.5635 667.529 58.4435V39.7983H673.337V57.373C673.337 63.4283 675.24 67.5823 680.456 67.5823C684.343 67.5823 687.047 64.8822 688.102 62.246C688.438 61.4631 688.63 60.4087 688.63 59.2903V39.7983H694.438V62.9011H694.422Z" fill="#4D4D4D"/>
<path d="M731.536 24.9238V63.4284C731.536 66.2563 731.664 69.4837 731.792 71.6565H726.657L726.401 66.1285H726.209C724.497 69.6754 720.674 72.3755 715.459 72.3755C707.748 72.3755 701.749 65.8569 701.749 56.1748C701.685 45.5821 708.34 39.1274 716.051 39.1274C720.994 39.1274 724.225 41.4281 725.681 43.9364H725.809V24.9238H731.536ZM725.793 52.7557C725.793 52.0368 725.729 51.0462 725.537 50.3272C724.673 46.7005 721.522 43.6808 717.17 43.6808C711.171 43.6808 707.62 48.9532 707.62 55.9192C707.62 62.3739 710.851 67.7102 717.042 67.7102C720.93 67.7102 724.497 65.074 725.537 60.7922C725.729 60.0093 725.793 59.2104 725.793 58.2838V52.7557Z" fill="#4D4D4D"/>
<path d="M747.679 30.8353C747.679 32.8164 746.287 34.3822 743.984 34.3822C741.872 34.3822 740.496 32.8004 740.496 30.8353C740.496 28.8541 741.952 27.2085 744.128 27.2085C746.223 27.2245 747.679 28.8062 747.679 30.8353ZM741.216 71.6565V39.7984H747.023V71.6565H741.216Z" fill="#4D4D4D"/>
<path d="M785.514 55.4559C785.514 67.231 777.275 72.3756 769.628 72.3756C761.053 72.3756 754.334 66.0487 754.334 55.9832C754.334 45.3904 761.389 39.1274 770.156 39.1274C779.323 39.1434 785.514 45.7898 785.514 55.4559ZM760.269 55.7914C760.269 62.7734 764.221 68.0298 769.9 68.0298C775.435 68.0298 779.595 62.8373 779.595 55.6476C779.595 50.2474 776.891 43.4732 770.044 43.4732C763.229 43.4732 760.269 49.8001 760.269 55.7914Z" fill="#4D4D4D"/>
<path d="M569.943 65.7931H575.318V69.9631H567.111L553.513 49.6084H546.266V65.7931H553.353V69.9631H535.516V65.7931H541.643V29.9248L535.516 29.1739V25.2275C537.835 25.7548 539.851 26.1223 542.379 26.1223C546.186 26.1223 550.074 25.2275 553.881 25.2275C561.272 25.2275 568.135 28.5827 568.135 36.7789C568.135 43.1218 564.328 47.148 558.424 48.8575L569.943 65.7931ZM546.266 45.5822L550.154 45.6621C559.64 45.8059 563.288 42.1632 563.288 37.3061C563.288 31.6343 559.176 29.3975 553.961 29.3975C551.497 29.3975 548.954 29.6212 546.266 29.9248V45.5822Z" fill="white"/>
<path d="M782.251 27.2246C780.188 27.2246 778.508 28.9022 778.508 30.9632C778.508 33.0243 780.188 34.7018 782.251 34.7018C784.315 34.7018 785.995 33.0243 785.995 30.9632C785.995 28.9022 784.315 27.2246 782.251 27.2246ZM785.387 30.9632C785.387 32.6887 783.979 34.0787 782.267 34.0787C780.54 34.0787 779.148 32.6728 779.148 30.9632C779.148 29.2377 780.556 27.8477 782.267 27.8477C783.979 27.8317 785.387 29.2377 785.387 30.9632Z" fill="#4D4D4D"/>
<path d="M783.58 32.4811L782.652 31.123C783.18 30.9313 783.452 30.5478 783.452 30.0046C783.452 29.1898 782.764 28.9022 782.108 28.9022C781.932 28.9022 781.756 28.9182 781.596 28.9501C781.436 28.9661 781.26 28.9821 781.1 28.9821C780.876 28.9821 780.7 28.9501 780.508 28.9022L780.412 28.8862V29.4135L780.956 29.4774V32.4811H780.412V33.0243H782.156V32.4811H781.532V31.2189H782.044L783.212 32.9763L783.244 33.0083H784.092V32.4651H783.58V32.4811ZM782.86 30.0526C782.86 30.2443 782.78 30.404 782.636 30.5159C782.46 30.6437 782.188 30.7076 781.836 30.7076H781.532V29.4774C781.756 29.4614 781.948 29.4454 782.124 29.4454C782.46 29.4454 782.86 29.5573 782.86 30.0526Z" fill="#4D4D4D"/>
</g>
<path d="M122.794 45.8672H105.912C105.476 45.8672 105.123 46.2208 105.123 46.657V54.9103C105.123 55.3459 105.476 55.7007 105.912 55.7007H112.497V65.9552C112.497 65.9552 111.019 66.4595 106.93 66.4595C102.107 66.4595 95.3693 64.6969 95.3693 49.8803C95.3693 35.0615 102.386 33.1116 108.972 33.1116C114.674 33.1116 117.13 34.115 118.694 34.5986C119.185 34.7492 119.639 34.2606 119.639 33.8244L121.522 25.8494C121.522 25.6459 121.453 25.3999 121.221 25.2331C120.586 24.7808 116.713 22.6138 106.93 22.6138C95.6605 22.6138 84.0996 27.4084 84.0996 50.4588C84.0996 73.5091 97.3355 76.9438 108.489 76.9438C117.724 76.9438 123.326 72.9976 123.326 72.9976C123.557 72.8699 123.582 72.5475 123.582 72.3991V46.657C123.582 46.2208 123.229 45.8672 122.794 45.8672" fill="#161312"/>
<path d="M209.798 25.375C209.798 24.936 209.45 24.5813 209.013 24.5813H199.508C199.074 24.5813 198.721 24.936 198.721 25.375C198.721 25.3772 198.724 43.7451 198.724 43.7451H183.907V25.375C183.907 24.936 183.557 24.5813 183.122 24.5813H173.617C173.185 24.5813 172.832 24.936 172.832 25.375V75.1157C172.832 75.5546 173.185 75.9116 173.617 75.9116H183.122C183.557 75.9116 183.907 75.5546 183.907 75.1157V53.8401H198.724C198.724 53.8401 198.697 75.114 198.697 75.1157C198.697 75.5546 199.05 75.9116 199.485 75.9116H209.013C209.448 75.9116 209.796 75.5546 209.798 75.1157V25.375" fill="#161312"/>
<path d="M140.733 31.9023C140.733 28.4799 137.989 25.7139 134.603 25.7139C131.221 25.7139 128.475 28.4799 128.475 31.9023C128.475 35.322 131.221 38.0952 134.603 38.0952C137.989 38.0952 140.733 35.322 140.733 31.9023Z" fill="#161312"/>
<path d="M140.052 64.6239C140.052 63.3489 140.052 41.6634 140.052 41.6634C140.052 41.2272 139.701 40.8708 139.266 40.8708H129.79C129.356 40.8708 128.967 41.3192 128.967 41.7549C128.967 41.7549 128.967 69.3839 128.967 74.6504C128.967 75.617 129.569 75.9048 130.348 75.9048C130.348 75.9048 134.393 75.9048 138.886 75.9048C139.823 75.9048 140.052 75.4446 140.052 74.6347C140.052 72.8716 140.052 65.9642 140.052 64.6239" fill="#161312"/>
<path d="M245.922 40.9454H236.489C236.057 40.9454 235.704 41.3024 235.704 41.7408V66.1304C235.704 66.1304 233.308 67.8834 229.906 67.8834C226.506 67.8834 225.603 66.3401 225.603 63.0097C225.603 59.6753 225.603 41.7408 225.603 41.7408C225.603 41.3024 225.252 40.9454 224.818 40.9454H215.245C214.813 40.9454 214.459 41.3024 214.459 41.7408C214.459 41.7408 214.459 54.729 214.459 64.6205C214.459 74.5125 219.972 76.9321 227.556 76.9321C233.778 76.9321 238.795 73.4952 238.795 73.4952C238.795 73.4952 239.034 75.3068 239.142 75.5215C239.25 75.7357 239.531 75.9521 239.836 75.9521L245.926 75.9248C246.358 75.9248 246.712 75.5678 246.712 75.1311L246.709 41.7408C246.709 41.3024 246.357 40.9454 245.922 40.9454" fill="#161312"/>
<path d="M267.983 67.8532C264.711 67.754 262.492 66.2692 262.492 66.2692V50.5172C262.492 50.5172 264.681 49.1752 267.367 48.9354C270.764 48.6314 274.037 49.6572 274.037 57.7604C274.037 66.3049 272.56 67.9916 267.983 67.8532ZM271.703 39.8282C266.346 39.8282 262.702 42.2187 262.702 42.2187V25.3752C262.702 24.9363 262.351 24.5815 261.918 24.5815H252.385C251.952 24.5815 251.6 24.9363 251.6 25.3752V75.1159C251.6 75.5549 251.952 75.9119 252.386 75.9119C252.387 75.9119 258.998 75.9119 259 75.9119C259.298 75.9119 259.523 75.7585 259.69 75.4896C259.855 75.2219 260.092 73.1961 260.092 73.1961C260.092 73.1961 263.989 76.8896 271.368 76.8896C280.031 76.8896 284.999 72.4961 284.999 57.1642C284.999 41.8317 277.065 39.8282 271.703 39.8282" fill="#161312"/>
<path d="M167.373 40.866H160.242C160.242 40.866 160.231 31.4481 160.231 31.4464C160.231 31.0894 160.047 30.9115 159.635 30.9115H149.919C149.541 30.9115 149.338 31.0777 149.338 31.4408V41.175C149.338 41.175 144.469 42.3502 144.139 42.4456C143.812 42.5404 143.57 42.8427 143.57 43.2036V49.3206C143.57 49.7607 143.922 50.1155 144.356 50.1155H149.338C149.338 50.1155 149.338 56.5136 149.338 64.8316C149.338 75.7622 157.005 76.8359 162.179 76.8359C164.543 76.8359 167.371 76.0768 167.838 75.9045C168.12 75.8007 168.284 75.5079 168.284 75.1911L168.292 68.4616C168.292 68.0232 167.921 67.6679 167.504 67.6679C167.088 67.6679 166.026 67.8369 164.931 67.8369C161.428 67.8369 160.242 66.2088 160.242 64.1004C160.242 61.9943 160.241 50.1155 160.241 50.1155H167.373C167.807 50.1155 168.159 49.7607 168.159 49.3206V41.6586C168.159 41.2196 167.807 40.866 167.373 40.866" fill="#161312"/>
<path fill-rule="evenodd" clip-rule="evenodd" d="M33.6825 17C15.0826 17 0 32.0798 0 50.6825C0 65.5643 9.65107 78.19 23.0342 82.6438C24.7175 82.9556 25.3355 81.9131 25.3355 81.0235C25.3355 80.2203 25.3043 77.567 25.2898 74.7525C15.9193 76.79 13.942 70.7784 13.942 70.7784C12.4098 66.8851 10.2022 65.8499 10.2022 65.8499C7.14614 63.7594 10.4325 63.8023 10.4325 63.8023C13.8148 64.0394 15.5958 67.2739 15.5958 67.2739C18.5999 72.4227 23.4754 70.934 25.3974 70.0733C25.6998 67.8964 26.5727 66.4099 27.5359 65.5694C20.0546 64.7176 12.19 61.8295 12.19 48.9233C12.19 45.2459 13.5058 42.2412 15.6605 39.8824C15.3108 39.0335 14.1578 35.6083 15.9868 30.9687C15.9868 30.9687 18.8152 30.0635 25.2519 34.4213C27.9386 33.675 30.8201 33.3008 33.6825 33.2879C36.545 33.3008 39.4287 33.675 42.1205 34.4213C48.5493 30.0635 51.3738 30.9687 51.3738 30.9687C53.2072 35.6083 52.0538 39.0335 51.704 39.8824C53.8637 42.2412 55.1706 45.2459 55.1706 48.9233C55.1706 61.8602 47.291 64.7087 39.7907 65.5426C40.9988 66.5878 42.0753 68.6376 42.0753 71.7801C42.0753 76.2869 42.0362 79.9141 42.0362 81.0235C42.0362 81.9198 42.6425 82.9701 44.3499 82.6393C57.7257 78.1805 67.3645 65.5593 67.3645 50.6825C67.3645 32.0798 52.2841 17 33.6825 17" fill="#1B1817"/>
<path d="M478.536 53.5355C480.488 51.5829 480.488 48.4171 478.536 46.4645L446.716 14.6447C444.763 12.692 441.597 12.692 439.645 14.6447C437.692 16.5973 437.692 19.7631 439.645 21.7157L467.929 50L439.645 78.2843C437.692 80.2369 437.692 83.4027 439.645 85.3553C441.597 87.308 444.763 87.308 446.716 85.3553L478.536 53.5355ZM312 55H475V45H312V55Z" fill="#FF7400"/>
<defs>
<clipPath id="clip0">
<rect width="285.417" height="100" fill="white" transform="translate(502)"/>
</clipPath>
</defs>
</svg>
