<svg width="486" height="46" viewBox="0 0 486 46" fill="none" xmlns="http://www.w3.org/2000/svg">
<path d="M25.78 27.9195C27.977 26.9366 29.8223 25.3076 31.07 23.2495C32.3384 21.0338 32.9715 18.5115 32.9 15.9595C32.9618 13.3945 32.3443 10.8588 31.11 8.60945C29.8956 6.50244 28.0725 4.81182 25.88 3.75946C23.305 2.55151 20.4832 1.9625 17.64 2.03945H2.22C1.85135 2.03945 1.4978 2.18591 1.23712 2.44658C0.976446 2.70726 0.830002 3.0608 0.830002 3.42945V43.2595C0.829997 43.4415 0.866013 43.6218 0.935989 43.7899C1.00597 43.958 1.10851 44.1105 1.23772 44.2388C1.36692 44.3671 1.52024 44.4685 1.68883 44.5373C1.85741 44.6061 2.03794 44.6408 2.22 44.6395H8.46001C8.82601 44.6395 9.17701 44.4941 9.43581 44.2353C9.69461 43.9765 9.84 43.6255 9.84 43.2595V29.5395H16.41L24.09 43.9095C24.208 44.1304 24.3838 44.3151 24.5988 44.4437C24.8137 44.5723 25.0595 44.6399 25.31 44.6395H32.09C32.3234 44.6346 32.5518 44.5711 32.7541 44.4547C32.9565 44.3383 33.1262 44.1729 33.2478 43.9736C33.3693 43.7743 33.4388 43.5477 33.4496 43.3145C33.4605 43.0813 33.4125 42.8492 33.31 42.6395L25.38 28.1195C25.51 28.0195 25.65 27.9795 25.78 27.9195ZM9.84 9.40946H15.91C17.3861 9.3623 18.8562 9.61752 20.23 10.1595C21.2979 10.608 22.1948 11.3858 22.79 12.3795C23.3818 13.4775 23.6716 14.7128 23.63 15.9595C23.6733 17.184 23.3829 18.3972 22.79 19.4695C22.1958 20.437 21.2997 21.182 20.24 21.5895C18.8707 22.1061 17.4128 22.3474 15.95 22.2995H9.84V9.40946Z" fill="#6CAADD"/>
<path d="M52.89 44.6395H56.34C56.5221 44.6408 56.7026 44.6061 56.8712 44.5373C57.0398 44.4686 57.1931 44.3671 57.3223 44.2388C57.4515 44.1106 57.554 43.958 57.624 43.7899C57.694 43.6218 57.73 43.4415 57.73 43.2595V17.6795H63.23C63.596 17.6795 63.947 17.5341 64.2058 17.2753C64.4646 17.0165 64.61 16.6655 64.61 16.2995V14.0695C64.61 13.7035 64.4646 13.3525 64.2058 13.0937C63.947 12.8349 63.596 12.6895 63.23 12.6895H57.73V9.83948C57.6635 8.67445 58.0185 7.5244 58.73 6.59948C59.1556 6.18714 59.6659 5.87244 60.2254 5.6773C60.785 5.48215 61.3803 5.41124 61.97 5.46947C62.5291 5.44867 63.0883 5.50931 63.63 5.64947C63.7657 5.70732 63.9124 5.73445 64.0598 5.72892C64.2071 5.72339 64.3515 5.68533 64.4824 5.61748C64.6133 5.54962 64.7276 5.45365 64.8171 5.33643C64.9066 5.21922 64.9691 5.08366 65 4.93948L65.79 2.21947C65.8412 2.04019 65.8557 1.85246 65.8328 1.66743C65.8099 1.48241 65.7501 1.30389 65.6568 1.14248C65.5635 0.981069 65.4386 0.840079 65.2897 0.727897C65.1408 0.615715 64.9709 0.534632 64.79 0.489478L64.17 0.349479C63.1175 0.13266 62.0444 0.0320546 60.97 0.0494757C59.3498 0.0419976 57.7469 0.383041 56.27 1.04948C54.8481 1.69375 53.643 2.73564 52.8 4.04948C51.8721 5.54719 51.4157 7.28919 51.49 9.04948V12.7495H47.92C47.554 12.7495 47.203 12.8949 46.9442 13.1537C46.6854 13.4125 46.54 13.7635 46.54 14.1295V16.3595C46.54 16.7255 46.6854 17.0765 46.9442 17.3353C47.203 17.5941 47.554 17.7395 47.92 17.7395H51.49V43.3195C51.5056 43.6785 51.6606 44.0172 51.922 44.2637C52.1834 44.5102 52.5307 44.645 52.89 44.6395Z" fill="#6CAADD"/>
<path d="M71.37 43.2195C73.7623 44.5698 76.4629 45.2793 79.21 45.2793C81.9571 45.2793 84.6576 44.5698 87.05 43.2195C89.2946 41.8316 91.0982 39.8339 92.25 37.4595C93.4697 34.7318 94.1001 31.7775 94.1001 28.7895C94.1001 25.8015 93.4697 22.8472 92.25 20.1195C91.1018 17.7374 89.2978 15.7323 87.05 14.3395C84.6576 12.9892 81.9571 12.2797 79.21 12.2797C76.4629 12.2797 73.7623 12.9892 71.37 14.3395C69.1174 15.7267 67.3121 17.7333 66.17 20.1195C64.9442 22.8455 64.3103 25.8005 64.3103 28.7895C64.3103 31.7785 64.9442 34.7335 66.17 37.4595C67.3158 39.838 69.1207 41.8373 71.37 43.2195ZM71.52 23.1595C72.0715 21.5494 73.058 20.1235 74.37 19.0395C75.7562 17.9642 77.477 17.4119 79.23 17.4795C80.9707 17.4127 82.6786 17.9655 84.05 19.0395C85.3591 20.124 86.3422 21.5501 86.89 23.1595C88.1298 26.8139 88.1298 30.7751 86.89 34.4295C86.3444 36.0316 85.3605 37.4485 84.05 38.5195C82.6738 39.5825 80.9676 40.1276 79.23 40.0595C77.4799 40.1294 75.7605 39.5846 74.37 38.5195C73.0566 37.4491 72.0693 36.0323 71.52 34.4295C70.2935 30.7729 70.2935 26.8161 71.52 23.1595Z" fill="#6CAADD"/>
<path d="M103.5 25.1295C103.476 23.8232 103.823 22.537 104.5 21.4195C105.152 20.3295 106.089 19.4377 107.21 18.8395C108.418 18.2047 109.766 17.8848 111.13 17.9095C111.773 17.9063 112.415 17.9531 113.05 18.0495C113.205 18.1041 113.372 18.1195 113.534 18.0943C113.697 18.0692 113.851 18.0043 113.983 17.9053C114.114 17.8064 114.219 17.6765 114.289 17.5272C114.358 17.3779 114.389 17.2138 114.38 17.0495V13.4995C114.381 13.3341 114.35 13.1701 114.287 13.0172C114.224 12.8643 114.131 12.7255 114.013 12.609C113.896 12.4926 113.756 12.4007 113.603 12.339C113.45 12.2772 113.285 12.2468 113.12 12.2495C112.58 12.2495 112.12 12.2495 111.74 12.2495C109.961 12.2312 108.219 12.7505 106.74 13.7395C105.284 14.7124 104.196 16.1454 103.65 17.8095H103.32V14.1095C103.32 13.7435 103.175 13.3925 102.916 13.1337C102.657 12.8749 102.306 12.7295 101.94 12.7295H98.69C98.324 12.7295 97.973 12.8749 97.7142 13.1337C97.4554 13.3925 97.31 13.7435 97.31 14.1095V43.2995C97.31 43.6655 97.4554 44.0165 97.7142 44.2753C97.973 44.5341 98.324 44.6795 98.69 44.6795H102.15C102.516 44.6795 102.867 44.5341 103.126 44.2753C103.385 44.0165 103.53 43.6655 103.53 43.2995L103.5 25.1295Z" fill="#6CAADD"/>
<path d="M131.59 36.5494C131.521 38.2463 131.979 39.9229 132.9 41.3494C133.743 42.6068 134.935 43.5904 136.33 44.1794C137.773 44.7952 139.332 45.092 140.9 45.0494C141.739 45.0532 142.576 44.9761 143.4 44.8194L143.63 44.7594C143.978 44.6718 144.278 44.4508 144.466 44.144C144.653 43.8373 144.712 43.4693 144.63 43.1194C144.63 43.1194 144.02 40.3894 143.96 40.0294C143.939 39.916 143.894 39.8085 143.827 39.7142C143.761 39.6199 143.675 39.541 143.575 39.4831C143.475 39.4252 143.364 39.3895 143.25 39.3785C143.135 39.3675 143.019 39.3815 142.91 39.4194C142.478 39.4976 142.039 39.5311 141.6 39.5194C140.959 39.5249 140.323 39.4166 139.72 39.1994C139.122 38.9647 138.624 38.53 138.31 37.9694C137.898 37.1282 137.712 36.1943 137.77 35.2594V17.6794H143C143.182 17.6807 143.363 17.646 143.531 17.5773C143.7 17.5085 143.853 17.4071 143.982 17.2788C144.111 17.1505 144.214 16.9979 144.284 16.8299C144.354 16.6618 144.39 16.4815 144.39 16.2994V14.0694C144.39 13.8874 144.354 13.7071 144.284 13.539C144.214 13.3709 144.111 13.2183 143.982 13.0901C143.853 12.9618 143.7 12.8604 143.531 12.7916C143.363 12.7228 143.182 12.6881 143 12.6894H137.8V6.41943C137.8 6.05343 137.655 5.70243 137.396 5.44363C137.137 5.18483 136.786 5.03943 136.42 5.03943H133C132.634 5.03943 132.283 5.18483 132.024 5.44363C131.765 5.70243 131.62 6.05343 131.62 6.41943V12.6894H128.32C127.954 12.6894 127.603 12.8348 127.344 13.0936C127.085 13.3524 126.94 13.7034 126.94 14.0694V16.2994C126.94 16.6654 127.085 17.0164 127.344 17.2752C127.603 17.534 127.954 17.6794 128.32 17.6794H131.62L131.59 36.5494Z" fill="#6CAADD"/>
<path d="M153.18 25.6695C153.14 24.1614 153.484 22.6678 154.18 21.3295C154.796 20.1702 155.743 19.2201 156.9 18.5995C158.113 17.9579 159.468 17.6345 160.84 17.6595C161.768 17.6194 162.693 17.777 163.555 18.1218C164.417 18.4667 165.196 18.9908 165.84 19.6595C167.124 21.1783 167.773 23.1343 167.65 25.1195V43.3095C167.65 43.6755 167.795 44.0265 168.054 44.2853C168.313 44.5441 168.664 44.6895 169.03 44.6895H172.48C172.846 44.6895 173.197 44.5441 173.456 44.2853C173.715 44.0265 173.86 43.6755 173.86 43.3095V24.3195C173.939 22.02 173.473 19.7345 172.5 17.6495C171.665 15.9574 170.332 14.5615 168.68 13.6495C166.931 12.7243 164.978 12.2532 163 12.2795C160.896 12.1881 158.81 12.7128 157 13.7895C155.477 14.7879 154.284 16.2144 153.57 17.8895H153.18V3.41946C153.18 3.2374 153.144 3.05712 153.074 2.88904C153.004 2.72095 152.901 2.56838 152.772 2.4401C152.643 2.31183 152.49 2.21038 152.321 2.14162C152.153 2.07286 151.972 2.03814 151.79 2.03946H148.42C148.235 2.03411 148.052 2.06585 147.88 2.1328C147.708 2.19976 147.551 2.30056 147.418 2.42924C147.286 2.55792 147.181 2.71186 147.109 2.88195C147.037 3.05204 147 3.23482 147 3.41946V43.2595C147 43.6255 147.145 43.9765 147.404 44.2353C147.663 44.4941 148.014 44.6395 148.38 44.6395H151.84C152.206 44.6395 152.557 44.4941 152.816 44.2353C153.075 43.9765 153.22 43.6255 153.22 43.2595L153.18 25.6695Z" fill="#6CAADD"/>
<path d="M203.84 36.3595L200.61 35.7795C200.32 35.7285 200.022 35.7708 199.758 35.9001C199.494 36.0295 199.277 36.2394 199.14 36.4995C198.827 37.0981 198.418 37.6419 197.93 38.1095C197.212 38.7974 196.352 39.3196 195.41 39.6395C194.373 39.9905 193.284 40.1629 192.19 40.1495C190.527 40.1847 188.884 39.7775 187.43 38.9695C186.054 38.1739 184.949 36.9821 184.26 35.5495C183.519 33.9871 183.136 32.2788 183.14 30.5495H204.45C204.632 30.5508 204.813 30.5161 204.981 30.4473C205.15 30.3786 205.303 30.2771 205.432 30.1488C205.561 30.0206 205.664 29.868 205.734 29.6999C205.804 29.5318 205.84 29.3515 205.84 29.1695V28.3395C205.903 25.8254 205.507 23.321 204.67 20.9495C204 19.0644 202.913 17.3551 201.49 15.9495C200.186 14.701 198.632 13.7432 196.93 13.1395C195.247 12.5443 193.475 12.2432 191.69 12.2495C188.952 12.1871 186.254 12.9163 183.92 14.3495C181.689 15.7733 179.904 17.7974 178.77 20.1895C177.55 22.9136 176.92 25.8647 176.92 28.8495C176.92 31.8342 177.55 34.7853 178.77 37.5095C179.919 39.8877 181.741 41.8765 184.01 43.2295C186.483 44.6246 189.292 45.3163 192.13 45.2295C194.256 45.268 196.369 44.905 198.36 44.1595C200.083 43.5141 201.638 42.4887 202.91 41.1595C203.741 40.279 204.417 39.2648 204.91 38.1595C204.974 37.971 204.996 37.7711 204.975 37.5733C204.954 37.3755 204.89 37.1846 204.788 37.0137C204.687 36.8427 204.549 36.6958 204.386 36.5828C204.222 36.4699 204.036 36.3937 203.84 36.3595ZM184.17 22.0195C184.857 20.6633 185.893 19.5141 187.17 18.6895C188.529 17.8191 190.117 17.3735 191.73 17.4095C193.23 17.3653 194.711 17.7504 196 18.5195C197.189 19.2428 198.155 20.2811 198.79 21.5195C199.477 22.8683 199.821 24.366 199.79 25.8795H183.16C183.219 24.5358 183.564 23.22 184.17 22.0195Z" fill="#6CAADD"/>
<path d="M246 27.9395C248.197 26.9567 250.042 25.3276 251.29 23.2695C252.558 21.0538 253.192 18.5315 253.12 15.9795C253.184 13.4131 252.562 10.8761 251.32 8.62948C250.107 6.52513 248.288 4.83505 246.1 3.77948C243.525 2.57259 240.703 1.98363 237.86 2.05948H222.46C222.278 2.05947 222.098 2.0955 221.93 2.16547C221.761 2.23545 221.609 2.33799 221.481 2.4672C221.352 2.59641 221.251 2.74972 221.182 2.9183C221.113 3.08689 221.079 3.26741 221.08 3.44948V43.2795C221.08 43.6455 221.225 43.9965 221.484 44.2553C221.743 44.5141 222.094 44.6595 222.46 44.6595H228.71C229.076 44.6595 229.427 44.5141 229.686 44.2553C229.945 43.9965 230.09 43.6455 230.09 43.2795V29.5595H236.66L244.34 43.9295C244.458 44.1504 244.634 44.3351 244.849 44.4637C245.064 44.5923 245.31 44.66 245.56 44.6595H252.34C252.573 44.6546 252.802 44.5911 253.004 44.4747C253.206 44.3584 253.376 44.1929 253.498 43.9936C253.619 43.7944 253.689 43.5677 253.7 43.3345C253.711 43.1013 253.662 42.8692 253.56 42.6595L245.63 28.1395C245.76 28.0395 245.9 27.9995 246 27.9395ZM230.09 9.42947H236.16C237.637 9.38118 239.108 9.63998 240.48 10.1895C241.534 10.6384 242.417 11.4128 243 12.3995C243.592 13.4975 243.882 14.7328 243.84 15.9795C243.883 17.204 243.593 18.4172 243 19.4895C242.406 20.457 241.51 21.202 240.45 21.6095C239.081 22.1262 237.623 22.3674 236.16 22.3195H230.05L230.09 9.42947Z" fill="#6CAADD"/>
<path d="M281.46 16.3295C280.098 15.0005 278.469 13.9777 276.68 13.3295C274.789 12.6451 272.791 12.3064 270.78 12.3295C267.914 12.259 265.084 12.9787 262.6 14.4095C260.279 15.7824 258.404 17.7964 257.2 20.2095C255.942 22.9373 255.29 25.9055 255.29 28.9095C255.29 31.9135 255.942 34.8817 257.2 37.6095C258.413 40.0099 260.314 41.9944 262.66 43.3095C265.262 44.6998 268.181 45.389 271.13 45.3095C273.519 45.3589 275.896 44.9481 278.13 44.0995C280.026 43.3688 281.722 42.2004 283.08 40.6895C283.94 39.6962 284.617 38.5586 285.08 37.3295C285.158 37.1251 285.188 36.9054 285.167 36.6876C285.145 36.4697 285.074 36.2599 284.957 36.0746C284.841 35.8892 284.683 35.7336 284.496 35.6199C284.309 35.5062 284.098 35.4376 283.88 35.4195L278.34 35.0595C278.083 35.0391 277.825 35.0934 277.598 35.2158C277.371 35.3382 277.184 35.5235 277.06 35.7495C276.795 36.2257 276.458 36.6576 276.06 37.0295C275.464 37.6006 274.746 38.0281 273.96 38.2795C273.089 38.5675 272.177 38.7094 271.26 38.6995C269.916 38.736 268.586 38.4114 267.41 37.7595C266.33 37.1418 265.46 36.2155 264.91 35.0995C264.29 33.8234 263.985 32.4176 264.02 30.9995H284.4C284.766 30.9995 285.117 30.8541 285.376 30.5953C285.635 30.3365 285.78 29.9855 285.78 29.6195V28.6195C285.831 26.1961 285.442 23.7835 284.63 21.4995C283.973 19.5608 282.89 17.7942 281.46 16.3295ZM264.06 25.4595C264.1 24.3547 264.402 23.2753 264.94 22.3095C265.512 21.2854 266.348 20.4327 267.36 19.8395C268.426 19.2401 269.626 18.9178 270.849 18.902C272.071 18.8863 273.279 19.1777 274.36 19.7495C275.32 20.3 276.112 21.1021 276.65 22.0695C277.222 23.1064 277.512 24.2754 277.49 25.4595H264.06Z" fill="#6CAADD"/>
<path d="M307 26.1095L301.22 24.9395C300.087 24.7719 299.011 24.3365 298.08 23.6695C297.791 23.4382 297.558 23.1444 297.398 22.8101C297.239 22.4758 297.157 22.1098 297.16 21.7395C297.163 21.2628 297.297 20.7961 297.548 20.3904C297.798 19.9848 298.155 19.6558 298.58 19.4395C299.635 18.8386 300.836 18.5409 302.05 18.5795C302.96 18.5561 303.864 18.7301 304.7 19.0895C305.395 19.3969 306.01 19.8586 306.5 20.4395C306.74 20.7469 306.942 21.0828 307.1 21.4395C307.211 21.7054 307.401 21.9312 307.644 22.0866C307.887 22.242 308.172 22.3197 308.46 22.3095L313.92 21.9695C314.123 21.9596 314.322 21.9046 314.501 21.8084C314.68 21.7123 314.836 21.5775 314.956 21.4138C315.077 21.2501 315.16 21.0615 315.198 20.8619C315.237 20.6622 315.231 20.4564 315.18 20.2595C314.6 18.0734 313.278 16.1571 311.44 14.8395C309.12 13.1395 305.94 12.2895 301.9 12.2895C299.466 12.2381 297.044 12.6452 294.76 13.4895C292.883 14.1678 291.233 15.3597 290 16.9295C288.866 18.4638 288.275 20.332 288.32 22.2395C288.282 23.3229 288.464 24.4028 288.856 25.4136C289.248 26.4244 289.841 27.345 290.6 28.1195C292.559 29.8739 294.996 31.0053 297.6 31.3695L303.13 32.4695C304.233 32.6345 305.286 33.0445 306.21 33.6695C306.522 33.9007 306.775 34.2023 306.949 34.5498C307.123 34.8973 307.212 35.281 307.21 35.6695C307.194 36.1523 307.052 36.6225 306.798 37.0332C306.543 37.4438 306.185 37.7804 305.76 38.0095C304.577 38.6235 303.26 38.9357 301.927 38.9183C300.595 38.9008 299.287 38.5543 298.12 37.9095C297.386 37.4263 296.82 36.7276 296.5 35.9095C296.393 35.6352 296.204 35.4007 295.959 35.2378C295.714 35.075 295.424 34.9917 295.13 34.9995L289.13 35.3195C288.924 35.3291 288.724 35.3845 288.542 35.4817C288.361 35.579 288.204 35.7155 288.082 35.8813C287.96 36.0472 287.877 36.2381 287.839 36.4403C287.8 36.6424 287.808 36.8505 287.86 37.0495C288.524 39.3217 289.956 41.2936 291.91 42.6295C294.41 44.3961 297.777 45.2795 302.01 45.2795C304.523 45.3268 307.021 44.8783 309.36 43.9595C311.322 43.1898 313.046 41.9172 314.36 40.2695C315.585 38.6971 316.234 36.7525 316.2 34.7595C316.242 33.7218 316.06 32.6874 315.666 31.7263C315.273 30.7653 314.677 29.9001 313.92 29.1895C311.934 27.5565 309.543 26.4921 307 26.1095Z" fill="#6CAADD"/>
<path d="M334.54 37.8394C334.127 37.9108 333.709 37.9476 333.29 37.9494C332.754 37.9597 332.221 37.8681 331.72 37.6794C331.267 37.5039 330.894 37.1698 330.67 36.7394C330.391 36.1429 330.264 35.4869 330.3 34.8294V19.3694H334.93C335.296 19.3694 335.647 19.2241 335.906 18.9653C336.165 18.7065 336.31 18.3554 336.31 17.9894V14.0894C336.31 13.7234 336.165 13.3724 335.906 13.1136C335.647 12.8548 335.296 12.7094 334.93 12.7094H330.3V6.43945C330.3 6.07345 330.155 5.72244 329.896 5.46364C329.637 5.20484 329.286 5.05945 328.92 5.05945H322.82C322.454 5.05945 322.103 5.20484 321.844 5.46364C321.585 5.72244 321.44 6.07345 321.44 6.43945V12.7094H318.44C318.074 12.7094 317.723 12.8548 317.464 13.1136C317.205 13.3724 317.06 13.7234 317.06 14.0894V17.9894C317.06 18.3554 317.205 18.7065 317.464 18.9653C317.723 19.2241 318.074 19.3694 318.44 19.3694H321.44V36.0094C321.353 37.8342 321.809 39.6437 322.75 41.2094C323.65 42.5738 324.954 43.6227 326.48 44.2094C328.268 44.8913 330.18 45.1845 332.09 45.0695C333.075 45.0427 334.056 44.9255 335.02 44.7194L335.61 44.5794C335.953 44.4895 336.248 44.2711 336.434 43.9695C336.62 43.6679 336.683 43.3062 336.61 42.9594C336.61 42.9594 335.75 38.9594 335.67 38.4794C335.59 37.9994 335.31 37.6894 334.54 37.8394Z" fill="#6CAADD"/>
<path d="M375.53 14.3695C372.948 13.0135 370.076 12.3051 367.16 12.3051C364.244 12.3051 361.372 13.0135 358.79 14.3695C356.452 15.7246 354.561 17.7337 353.35 20.1495C352.085 22.8542 351.43 25.8037 351.43 28.7895C351.43 31.7753 352.085 34.7247 353.35 37.4295C354.561 39.8453 356.452 41.8543 358.79 43.2095C361.372 44.5654 364.244 45.2739 367.16 45.2739C370.076 45.2739 372.948 44.5654 375.53 43.2095C377.863 41.8479 379.752 39.8406 380.97 37.4295C382.228 34.7228 382.88 31.7741 382.88 28.7895C382.88 25.8048 382.228 22.8561 380.97 20.1495C379.752 17.7383 377.863 15.731 375.53 14.3695ZM373.12 33.7195C372.694 35.0458 371.921 36.2337 370.88 37.1595C369.849 38.0153 368.539 38.4636 367.2 38.4195C365.842 38.4636 364.514 38.0162 363.46 37.1595C362.403 36.2435 361.621 35.0529 361.2 33.7195C360.187 30.4836 360.187 27.0153 361.2 23.7795C361.624 22.4417 362.405 21.2453 363.46 20.3195C364.514 19.4628 365.842 19.0154 367.2 19.0595C368.539 19.0153 369.849 19.4636 370.88 20.3195C371.919 21.2549 372.692 22.4486 373.12 23.7795C374.12 27.0173 374.12 30.4816 373.12 33.7195Z" fill="#6CAADD"/>
<path d="M397 8.03947C397.362 7.70224 397.792 7.44722 398.262 7.29188C398.731 7.13653 399.229 7.08454 399.72 7.13947C400.241 7.11518 400.762 7.16228 401.27 7.27947C401.429 7.34304 401.6 7.37034 401.771 7.35938C401.942 7.34841 402.108 7.29946 402.257 7.2161C402.407 7.13274 402.536 7.01707 402.635 6.87752C402.734 6.73797 402.801 6.57807 402.83 6.40947L403.83 2.27947C403.873 2.09946 403.879 1.91273 403.849 1.73023C403.818 1.54772 403.752 1.37312 403.653 1.21665C403.554 1.06017 403.425 0.924988 403.274 0.819009C403.122 0.713031 402.951 0.638393 402.77 0.599474L401.62 0.379472C400.389 0.162392 399.14 0.0586274 397.89 0.0694748C396.03 0.0366941 394.187 0.426486 392.5 1.20947C390.942 1.95431 389.643 3.14904 388.77 4.63947C387.804 6.40119 387.334 8.39182 387.41 10.3995V12.7095H384.27C383.904 12.7095 383.553 12.8549 383.294 13.1137C383.035 13.3725 382.89 13.7235 382.89 14.0895V17.9895C382.89 18.3555 383.035 18.7065 383.294 18.9653C383.553 19.2241 383.904 19.3695 384.27 19.3695H387.41V44.6595H396.25V19.3695H401.25C401.616 19.3695 401.967 19.2241 402.226 18.9653C402.485 18.7065 402.63 18.3555 402.63 17.9895V14.0895C402.63 13.7235 402.485 13.3725 402.226 13.1137C401.967 12.8549 401.616 12.7095 401.25 12.7095H396.25V10.5695C396.187 9.66333 396.453 8.76491 397 8.03947Z" fill="#6CAADD"/>
<path d="M445.09 28.9594C445.116 30.4681 444.747 31.9574 444.02 33.2794C443.319 34.5397 442.28 35.5788 441.02 36.2794C439.605 36.9894 438.043 37.3591 436.46 37.3591C434.877 37.3591 433.315 36.9894 431.9 36.2794C430.64 35.578 429.602 34.539 428.9 33.2794C428.173 31.9574 427.804 30.4681 427.83 28.9594V3.44945C427.831 3.26738 427.797 3.08686 427.728 2.91827C427.659 2.74969 427.558 2.59638 427.429 2.46717C427.301 2.33796 427.148 2.23542 426.98 2.16544C426.812 2.09547 426.632 2.05944 426.45 2.05945H420.21C420.028 2.05944 419.848 2.09547 419.68 2.16544C419.511 2.23542 419.359 2.33796 419.231 2.46717C419.102 2.59638 419.001 2.74969 418.932 2.91827C418.863 3.08686 418.829 3.26738 418.83 3.44945V29.7294C418.737 32.5675 419.482 35.37 420.973 37.7869C422.463 40.2039 424.632 42.1282 427.21 43.3195C430.131 44.5991 433.286 45.2598 436.475 45.2598C439.664 45.2598 442.819 44.5991 445.74 43.3195C448.32 42.129 450.492 40.2055 451.986 37.7888C453.479 35.3721 454.229 32.5692 454.14 29.7294V3.44945C454.141 3.26738 454.107 3.08686 454.038 2.91827C453.969 2.74969 453.868 2.59638 453.739 2.46717C453.611 2.33796 453.458 2.23542 453.29 2.16544C453.122 2.09547 452.942 2.05944 452.76 2.05945H446.52C446.338 2.05944 446.158 2.09547 445.99 2.16544C445.821 2.23542 445.669 2.33796 445.541 2.46717C445.412 2.59638 445.311 2.74969 445.242 2.91827C445.173 3.08686 445.139 3.26738 445.14 3.44945L445.09 28.9594Z" fill="#6CAADD"/>
<path d="M483.27 29.1894C481.276 27.5515 478.873 26.4869 476.32 26.1094L470.54 24.9394C469.408 24.77 468.332 24.3348 467.4 23.6695C467.112 23.4377 466.88 23.1435 466.723 22.8092C466.565 22.4749 466.486 22.1091 466.49 21.7395C466.493 21.264 466.626 20.7985 466.875 20.3931C467.123 19.9878 467.478 19.658 467.9 19.4394C468.955 18.8385 470.156 18.5409 471.37 18.5794C472.28 18.556 473.184 18.73 474.02 19.0894C474.718 19.3905 475.335 19.8532 475.82 20.4394C476.068 20.7417 476.27 21.0786 476.42 21.4394C476.533 21.7046 476.723 21.9295 476.965 22.0847C477.208 22.24 477.492 22.3183 477.78 22.3095L483.24 21.9694C483.443 21.9595 483.641 21.9045 483.821 21.8084C484 21.7123 484.156 21.5775 484.276 21.4138C484.397 21.25 484.48 21.0615 484.518 20.8618C484.557 20.6622 484.551 20.4564 484.5 20.2594C483.92 18.0734 482.598 16.1571 480.76 14.8395C478.44 13.1395 475.263 12.2894 471.23 12.2894C468.793 12.2383 466.367 12.6453 464.08 13.4895C462.22 14.1744 460.586 15.3617 459.36 16.9195C458.233 18.4568 457.646 20.3237 457.69 22.2294C457.654 23.3167 457.841 24.3998 458.238 25.4125C458.635 26.4252 459.235 27.3463 460 28.1194C461.943 29.8685 464.362 30.9999 466.95 31.3694L472.48 32.4694C473.584 32.6324 474.637 33.0426 475.56 33.6695C475.873 33.8996 476.128 34.2009 476.301 34.5487C476.475 34.8965 476.564 35.2807 476.56 35.6695C476.549 36.1522 476.41 36.6234 476.157 37.0346C475.904 37.4459 475.546 37.7823 475.12 38.0094C473.98 38.6672 472.675 38.9831 471.36 38.9195C469.993 38.9768 468.64 38.6289 467.47 37.9195C466.736 37.4363 466.17 36.7375 465.85 35.9195C465.744 35.6444 465.556 35.409 465.31 35.2459C465.065 35.0829 464.775 35.0002 464.48 35.0094L458.48 35.3294C458.274 35.3391 458.074 35.3945 457.892 35.4917C457.711 35.5889 457.554 35.7255 457.432 35.8913C457.31 36.0572 457.227 36.2481 457.189 36.4502C457.15 36.6524 457.158 36.8605 457.21 37.0595C457.874 39.3317 459.306 41.3035 461.26 42.6395C463.767 44.4061 467.133 45.2894 471.36 45.2894C473.873 45.3376 476.371 44.889 478.71 43.9694C480.671 43.1977 482.395 41.9254 483.71 40.2795C484.931 38.7048 485.58 36.7617 485.55 34.7695C485.592 33.7302 485.411 32.6941 485.017 31.7313C484.624 30.7685 484.028 29.9016 483.27 29.1894Z" fill="#6CAADD"/>
</svg>
