<svg width="787" height="100" viewBox="0 0 787 100" fill="none" xmlns="http://www.w3.org/2000/svg">
<g clip-path="url(#clip0)">
<path d="M86.0267 84.9957C105.381 65.6662 105.381 34.3269 86.0267 14.9975C66.672 -4.33203 35.2919 -4.33203 15.9373 14.9975C-3.41737 34.3269 -3.41738 65.6662 15.9373 84.9957C35.2919 104.325 66.672 104.325 86.0267 84.9957Z" fill="#75AADB"/>
<path d="M111.089 64.6748C113.665 66.3204 117.344 67.5667 121.312 67.5667C127.183 67.5667 130.607 64.4671 130.607 59.9936C130.607 55.9194 128.239 53.4749 122.24 51.2382C114.993 48.602 110.513 44.7835 110.513 38.6004C110.513 31.6823 116.241 26.5537 124.879 26.5537C129.359 26.5537 132.718 27.6082 134.638 28.7266L133.054 33.4078C131.663 32.5451 128.703 31.2989 124.687 31.2989C118.624 31.2989 116.321 34.9257 116.321 37.9453C116.321 42.0993 119.024 44.1284 125.151 46.509C132.67 49.4008 136.43 53.0276 136.43 59.5462C136.43 66.3844 131.423 72.3757 120.944 72.3757C116.657 72.3757 111.985 71.0656 109.602 69.4839L111.089 64.6748Z" fill="#4D4D4D"/>
<path d="M150.907 32.1616V39.7986H159.21V44.2083H150.907V61.3835C150.907 65.3298 152.027 67.5666 155.259 67.5666C156.842 67.5666 157.77 67.4388 158.618 67.1672L158.874 71.5768C157.754 71.9763 155.979 72.3597 153.739 72.3597C151.035 72.3597 148.86 71.4331 147.484 69.9312C145.9 68.1578 145.244 65.3298 145.244 61.5753V44.2083H140.301V39.7986H145.244V33.8712L150.907 32.1616Z" fill="#4D4D4D"/>
<path d="M192.422 62.9011C192.422 66.2562 192.486 69.1481 192.678 71.6565H187.542L187.206 66.4639H187.078C185.623 69.0362 182.199 72.3914 176.536 72.3914C171.528 72.3914 165.529 69.5635 165.529 58.4435V39.7983H171.337V57.373C171.337 63.4283 173.24 67.5823 178.456 67.5823C182.343 67.5823 185.047 64.8822 186.102 62.246C186.438 61.4631 186.63 60.4087 186.63 59.2903V39.7983H192.438V62.9011H192.422Z" fill="#4D4D4D"/>
<path d="M229.536 24.9238V63.4284C229.536 66.2563 229.664 69.4837 229.792 71.6565H224.657L224.401 66.1285H224.209C222.497 69.6754 218.674 72.3755 213.459 72.3755C205.748 72.3755 199.749 65.8569 199.749 56.1748C199.685 45.5821 206.34 39.1274 214.051 39.1274C218.994 39.1274 222.225 41.4281 223.681 43.9364H223.809V24.9238H229.536ZM223.793 52.7557C223.793 52.0368 223.729 51.0462 223.537 50.3272C222.673 46.7005 219.522 43.6808 215.17 43.6808C209.171 43.6808 205.62 48.9532 205.62 55.9192C205.62 62.3739 208.851 67.7102 215.042 67.7102C218.93 67.7102 222.497 65.074 223.537 60.7922C223.729 60.0093 223.793 59.2104 223.793 58.2838V52.7557Z" fill="#4D4D4D"/>
<path d="M245.679 30.8353C245.679 32.8164 244.287 34.3822 241.984 34.3822C239.872 34.3822 238.496 32.8004 238.496 30.8353C238.496 28.8541 239.952 27.2085 242.128 27.2085C244.223 27.2245 245.679 28.8062 245.679 30.8353ZM239.216 71.6565V39.7984H245.023V71.6565H239.216Z" fill="#4D4D4D"/>
<path d="M283.514 55.4559C283.514 67.231 275.275 72.3756 267.628 72.3756C259.053 72.3756 252.334 66.0487 252.334 55.9832C252.334 45.3904 259.389 39.1274 268.156 39.1274C277.323 39.1434 283.514 45.7898 283.514 55.4559ZM258.269 55.7914C258.269 62.7734 262.221 68.0298 267.9 68.0298C273.435 68.0298 277.595 62.8373 277.595 55.6476C277.595 50.2474 274.891 43.4732 268.044 43.4732C261.229 43.4732 258.269 49.8001 258.269 55.7914Z" fill="#4D4D4D"/>
<path d="M67.9429 65.7931H73.3181V69.9631H65.1113L51.5131 49.6084H44.2661V65.7931H51.3532V69.9631H33.5156V65.7931H39.6428V29.9248L33.5156 29.1739V25.2275C35.8353 25.7548 37.851 26.1223 40.3787 26.1223C44.1862 26.1223 48.0736 25.2275 51.8811 25.2275C59.2721 25.2275 66.1351 28.5827 66.1351 36.7789C66.1351 43.1218 62.3276 47.148 56.4245 48.8575L67.9429 65.7931ZM44.2661 45.5822L48.1536 45.6621C57.6403 45.8059 61.2878 42.1632 61.2878 37.3061C61.2878 31.6343 57.1764 29.3975 51.9611 29.3975C49.4974 29.3975 46.9538 29.6212 44.2661 29.9248V45.5822Z" fill="white"/>
<path d="M280.251 27.2246C278.188 27.2246 276.508 28.9022 276.508 30.9632C276.508 33.0243 278.188 34.7018 280.251 34.7018C282.315 34.7018 283.995 33.0243 283.995 30.9632C283.995 28.9022 282.315 27.2246 280.251 27.2246ZM283.387 30.9632C283.387 32.6887 281.979 34.0787 280.267 34.0787C278.54 34.0787 277.148 32.6728 277.148 30.9632C277.148 29.2377 278.556 27.8477 280.267 27.8477C281.979 27.8317 283.387 29.2377 283.387 30.9632Z" fill="#4D4D4D"/>
<path d="M281.58 32.4811L280.652 31.123C281.18 30.9313 281.452 30.5478 281.452 30.0046C281.452 29.1898 280.764 28.9022 280.108 28.9022C279.932 28.9022 279.756 28.9182 279.596 28.9501C279.436 28.9661 279.26 28.9821 279.1 28.9821C278.876 28.9821 278.7 28.9501 278.508 28.9022L278.412 28.8862V29.4135L278.956 29.4774V32.4811H278.412V33.0243H280.156V32.4811H279.532V31.2189H280.044L281.212 32.9763L281.244 33.0083H282.092V32.4651H281.58V32.4811ZM280.86 30.0526C280.86 30.2443 280.78 30.404 280.636 30.5159C280.46 30.6437 280.188 30.7076 279.836 30.7076H279.532V29.4774C279.756 29.4614 279.948 29.4454 280.124 29.4454C280.46 29.4454 280.86 29.5573 280.86 30.0526Z" fill="#4D4D4D"/>
</g>
<path d="M624.794 45.8672H607.912C607.476 45.8672 607.123 46.2208 607.123 46.657V54.9103C607.123 55.3459 607.476 55.7007 607.912 55.7007H614.497V65.9552C614.497 65.9552 613.019 66.4595 608.93 66.4595C604.107 66.4595 597.369 64.6969 597.369 49.8803C597.369 35.0615 604.386 33.1116 610.972 33.1116C616.674 33.1116 619.13 34.115 620.694 34.5986C621.185 34.7492 621.639 34.2606 621.639 33.8244L623.522 25.8494C623.522 25.6459 623.453 25.3999 623.221 25.2331C622.586 24.7808 618.713 22.6138 608.93 22.6138C597.66 22.6138 586.1 27.4084 586.1 50.4588C586.1 73.5091 599.335 76.9438 610.489 76.9438C619.724 76.9438 625.326 72.9976 625.326 72.9976C625.557 72.8699 625.582 72.5475 625.582 72.3991V46.657C625.582 46.2208 625.229 45.8672 624.794 45.8672" fill="#161312"/>
<path d="M711.798 25.375C711.798 24.936 711.45 24.5813 711.013 24.5813H701.508C701.074 24.5813 700.721 24.936 700.721 25.375C700.721 25.3772 700.724 43.7451 700.724 43.7451H685.907V25.375C685.907 24.936 685.557 24.5813 685.122 24.5813H675.617C675.185 24.5813 674.832 24.936 674.832 25.375V75.1157C674.832 75.5546 675.185 75.9116 675.617 75.9116H685.122C685.557 75.9116 685.907 75.5546 685.907 75.1157V53.8401H700.724C700.724 53.8401 700.697 75.114 700.697 75.1157C700.697 75.5546 701.05 75.9116 701.485 75.9116H711.013C711.448 75.9116 711.796 75.5546 711.798 75.1157V25.375" fill="#161312"/>
<path d="M642.733 31.9023C642.733 28.4799 639.989 25.7139 636.603 25.7139C633.221 25.7139 630.475 28.4799 630.475 31.9023C630.475 35.322 633.221 38.0952 636.603 38.0952C639.989 38.0952 642.733 35.322 642.733 31.9023Z" fill="#161312"/>
<path d="M642.052 64.6239C642.052 63.3489 642.052 41.6634 642.052 41.6634C642.052 41.2272 641.701 40.8708 641.266 40.8708H631.79C631.356 40.8708 630.967 41.3192 630.967 41.7549C630.967 41.7549 630.967 69.3839 630.967 74.6504C630.967 75.617 631.569 75.9048 632.348 75.9048C632.348 75.9048 636.393 75.9048 640.886 75.9048C641.823 75.9048 642.052 75.4446 642.052 74.6347C642.052 72.8716 642.052 65.9642 642.052 64.6239" fill="#161312"/>
<path d="M747.922 40.9454H738.489C738.057 40.9454 737.704 41.3024 737.704 41.7408V66.1304C737.704 66.1304 735.308 67.8834 731.906 67.8834C728.506 67.8834 727.603 66.3401 727.603 63.0097C727.603 59.6753 727.603 41.7408 727.603 41.7408C727.603 41.3024 727.252 40.9454 726.818 40.9454H717.245C716.813 40.9454 716.459 41.3024 716.459 41.7408C716.459 41.7408 716.459 54.729 716.459 64.6205C716.459 74.5125 721.972 76.9321 729.556 76.9321C735.778 76.9321 740.795 73.4952 740.795 73.4952C740.795 73.4952 741.034 75.3068 741.142 75.5215C741.25 75.7357 741.531 75.9521 741.836 75.9521L747.926 75.9248C748.358 75.9248 748.712 75.5678 748.712 75.1311L748.709 41.7408C748.709 41.3024 748.357 40.9454 747.922 40.9454" fill="#161312"/>
<path d="M769.983 67.8532C766.711 67.754 764.492 66.2692 764.492 66.2692V50.5172C764.492 50.5172 766.681 49.1752 769.367 48.9354C772.764 48.6314 776.037 49.6572 776.037 57.7604C776.037 66.3049 774.56 67.9916 769.983 67.8532ZM773.703 39.8282C768.346 39.8282 764.702 42.2187 764.702 42.2187V25.3752C764.702 24.9363 764.351 24.5815 763.918 24.5815H754.385C753.952 24.5815 753.6 24.9363 753.6 25.3752V75.1159C753.6 75.5549 753.952 75.9119 754.386 75.9119C754.387 75.9119 760.998 75.9119 761 75.9119C761.298 75.9119 761.523 75.7585 761.69 75.4896C761.855 75.2219 762.092 73.1961 762.092 73.1961C762.092 73.1961 765.989 76.8896 773.368 76.8896C782.031 76.8896 786.999 72.4961 786.999 57.1642C786.999 41.8317 779.065 39.8282 773.703 39.8282" fill="#161312"/>
<path d="M669.373 40.866H662.242C662.242 40.866 662.231 31.4481 662.231 31.4464C662.231 31.0894 662.047 30.9115 661.635 30.9115H651.919C651.541 30.9115 651.338 31.0777 651.338 31.4408V41.175C651.338 41.175 646.469 42.3502 646.139 42.4456C645.812 42.5404 645.57 42.8427 645.57 43.2036V49.3206C645.57 49.7607 645.922 50.1155 646.356 50.1155H651.338C651.338 50.1155 651.338 56.5136 651.338 64.8316C651.338 75.7622 659.005 76.8359 664.179 76.8359C666.543 76.8359 669.371 76.0768 669.838 75.9045C670.12 75.8007 670.284 75.5079 670.284 75.1911L670.292 68.4616C670.292 68.0232 669.921 67.6679 669.504 67.6679C669.088 67.6679 668.026 67.8369 666.931 67.8369C663.428 67.8369 662.242 66.2088 662.242 64.1004C662.242 61.9943 662.241 50.1155 662.241 50.1155H669.373C669.807 50.1155 670.159 49.7607 670.159 49.3206V41.6586C670.159 41.2196 669.807 40.866 669.373 40.866" fill="#161312"/>
<path fill-rule="evenodd" clip-rule="evenodd" d="M535.683 17C517.083 17 502 32.0798 502 50.6825C502 65.5643 511.651 78.19 525.034 82.6438C526.718 82.9556 527.336 81.9131 527.336 81.0235C527.336 80.2203 527.304 77.567 527.29 74.7525C517.919 76.79 515.942 70.7784 515.942 70.7784C514.41 66.8851 512.202 65.8499 512.202 65.8499C509.146 63.7594 512.433 63.8023 512.433 63.8023C515.815 64.0394 517.596 67.2739 517.596 67.2739C520.6 72.4227 525.475 70.934 527.397 70.0733C527.7 67.8964 528.573 66.4099 529.536 65.5694C522.055 64.7176 514.19 61.8295 514.19 48.9233C514.19 45.2459 515.506 42.2412 517.66 39.8824C517.311 39.0335 516.158 35.6083 517.987 30.9687C517.987 30.9687 520.815 30.0635 527.252 34.4213C529.939 33.675 532.82 33.3008 535.683 33.2879C538.545 33.3008 541.429 33.675 544.12 34.4213C550.549 30.0635 553.374 30.9687 553.374 30.9687C555.207 35.6083 554.054 39.0335 553.704 39.8824C555.864 42.2412 557.171 45.2459 557.171 48.9233C557.171 61.8602 549.291 64.7087 541.791 65.5426C542.999 66.5878 544.075 68.6376 544.075 71.7801C544.075 76.2869 544.036 79.9141 544.036 81.0235C544.036 81.9198 544.643 82.9701 546.35 82.6393C559.726 78.1805 569.365 65.5593 569.365 50.6825C569.365 32.0798 554.284 17 535.683 17" fill="#1B1817"/>
<path d="M477.536 53.5355C479.488 51.5829 479.488 48.4171 477.536 46.4645L445.716 14.6447C443.763 12.692 440.597 12.692 438.645 14.6447C436.692 16.5973 436.692 19.7631 438.645 21.7157L466.929 50L438.645 78.2843C436.692 80.2369 436.692 83.4027 438.645 85.3553C440.597 87.308 443.763 87.308 445.716 85.3553L477.536 53.5355ZM311 55H474V45H311V55Z" fill="#FF7400"/>
<defs>
<clipPath id="clip0">
<rect width="285.417" height="100" fill="white"/>
</clipPath>
</defs>
</svg>
