<svg width="1565" height="182" viewBox="0 0 1565 182" fill="none" xmlns="http://www.w3.org/2000/svg">
<rect x="507" width="274" height="174" rx="50" fill="#FFC659"/>
<path d="M2.06934 84.9463C2.31348 83.7256 2.47624 82.749 2.55762 82.0166C2.639 81.2028 2.35417 80.3483 1.70312 79.4531C2.02865 78.151 2.27279 77.1338 2.43555 76.4014C2.67969 75.6689 2.72038 74.6517 2.55762 73.3496C3.29004 71.2337 4.38867 69.4434 5.85352 67.9785C7.39974 66.5137 9.06803 65.293 10.8584 64.3164C12.6488 63.2585 14.5205 62.404 16.4736 61.7529C18.4268 61.0205 20.2578 60.4102 21.9668 59.9219C21.9668 59.5964 21.804 59.4336 21.4785 59.4336C21.153 59.4336 21.0716 59.2301 21.2344 58.8232C25.6289 58.0094 30.0234 56.8294 34.418 55.2832C38.8939 53.737 43.4512 52.3535 48.0898 51.1328C52.7285 49.9121 57.4893 49.1797 62.3721 48.9355C67.2549 48.61 72.3818 49.2204 77.7529 50.7666C78.0785 51.7432 78.526 52.679 79.0957 53.5742C79.6654 54.4694 80.235 55.3646 80.8047 56.2598C81.4557 57.0736 82.0254 57.8874 82.5137 58.7012C83.002 59.515 83.2868 60.3695 83.3682 61.2646C84.3447 62.1598 85.1178 63.1364 85.6875 64.1943C86.3385 65.1709 86.4606 66.5137 86.0537 68.2227C85.1585 68.8737 84.2227 69.5247 83.2461 70.1758C82.2695 70.8268 81.2523 71.4372 80.1943 72.0068C76.5322 71.1117 72.8701 70.7861 69.208 71.0303C65.5459 71.2744 62.25 71.5592 59.3203 71.8848C58.4251 70.9082 57.3672 70.4606 56.1465 70.542C54.9258 70.542 53.6237 70.7454 52.2402 71.1523C50.9382 71.4779 49.6361 71.8441 48.334 72.251C47.0319 72.5765 45.8112 72.6579 44.6719 72.4951C43.7767 73.3089 42.5967 73.8786 41.1318 74.2041C39.667 74.4482 38.1208 74.6517 36.4932 74.8145C36.4118 75.2214 36.4932 75.5062 36.7373 75.6689C36.9814 75.8317 37.0221 76.1572 36.8594 76.6455C37.429 77.3779 38.2021 77.9069 39.1787 78.2324C40.1553 78.4766 41.1318 78.7207 42.1084 78.9648C43.1663 79.209 44.1022 79.5752 44.916 80.0635C45.7298 80.4704 46.2588 81.1621 46.5029 82.1387C47.9678 82.2201 49.2292 82.627 50.2871 83.3594C51.3451 84.0104 52.2402 84.8242 52.9727 85.8008C53.7051 86.7773 54.234 87.8353 54.5596 88.9746C54.8851 90.0326 55.0072 91.0091 54.9258 91.9043C55.2513 92.7181 55.5768 93.0436 55.9023 92.8809C56.3092 92.7181 56.7568 92.9215 57.2451 93.4912C57.5706 94.7119 58.3031 96.014 59.4424 97.3975C60.6631 98.6995 61.599 100.124 62.25 101.67C62.4128 104.111 62.5348 106.309 62.6162 108.262C62.779 110.215 62.4535 112.127 61.6396 113.999C60.2562 117.58 58.2624 120.794 55.6582 123.643C53.054 126.491 50.0837 129.014 46.7471 131.211C43.4919 133.327 40.0332 135.199 36.3711 136.826C32.709 138.372 29.0876 139.674 25.5068 140.732C25.1813 140.651 24.7744 140.651 24.2861 140.732C23.8792 140.814 23.7979 140.57 24.042 140C23.3096 140.651 22.4551 141.058 21.4785 141.221C20.5833 141.383 19.5661 141.424 18.4268 141.343C17.3688 141.343 16.2702 141.302 15.1309 141.221C14.0729 141.139 13.015 141.18 11.957 141.343C11.306 140.692 10.6956 140.041 10.126 139.39C9.6377 138.739 9.23079 137.965 8.90527 137.07C8.49837 136.989 8.29492 136.745 8.29492 136.338C8.3763 135.85 8.21354 135.605 7.80664 135.605C7.80664 135.28 7.84733 135.036 7.92871 134.873C8.01009 134.71 8.09147 134.548 8.17285 134.385C8.49837 134.141 8.62044 133.978 8.53906 133.896C8.53906 133.734 8.41699 133.612 8.17285 133.53C8.01009 133.368 7.80664 133.205 7.5625 133.042C7.39974 132.879 7.35905 132.676 7.44043 132.432C7.84733 131.699 7.9694 130.845 7.80664 129.868C7.72526 128.81 7.64388 127.752 7.5625 126.694C7.48112 125.636 7.5625 124.66 7.80664 123.765C8.05078 122.788 8.74251 121.974 9.88184 121.323C13.2184 121.649 16.3516 121.486 19.2812 120.835C22.2923 120.184 25.0999 119.289 27.7041 118.149C30.3896 117.01 32.9124 115.789 35.2725 114.487C37.7139 113.104 40.0739 111.842 42.3525 110.703C42.5967 109.889 42.9629 109.198 43.4512 108.628C44.0208 108.058 44.5905 107.529 45.1602 107.041C45.7298 106.471 46.2588 105.902 46.7471 105.332C47.2354 104.681 47.6016 103.908 47.8457 103.013C47.9271 102.687 47.9271 102.443 47.8457 102.28C47.7643 102.118 47.6423 101.995 47.4795 101.914C47.3167 101.751 47.154 101.589 46.9912 101.426C46.8285 101.263 46.7471 101.019 46.7471 100.693C46.5029 100.612 46.2588 100.531 46.0146 100.449C45.8519 100.368 45.6891 100.327 45.5264 100.327C43.4105 99.2692 41.1725 98.374 38.8125 97.6416C36.4525 96.9092 34.4587 96.0954 32.8311 95.2002C31.8545 95.8512 30.8779 96.014 29.9014 95.6885C28.9248 95.363 27.7448 95.0374 26.3613 94.7119C22.9434 94.5492 19.6882 94.2236 16.5957 93.7354C13.5846 93.2471 10.6549 92.3926 7.80664 91.1719C7.64388 90.6836 7.44043 90.2767 7.19629 89.9512C6.95215 89.5443 6.38249 89.4222 5.4873 89.585C4.91764 88.7712 4.30729 88.0387 3.65625 87.3877C3.08659 86.6553 2.55762 85.8415 2.06934 84.9463ZM140.619 71.2744C140.701 71.8441 140.701 72.2917 140.619 72.6172C140.619 72.8613 140.578 73.1055 140.497 73.3496C140.497 73.5938 140.497 73.8786 140.497 74.2041C140.497 74.4482 140.578 74.8551 140.741 75.4248C139.032 78.1917 137.038 80.1042 134.76 81.1621C132.562 82.1387 130.162 82.8711 127.558 83.3594C124.953 83.7663 122.268 84.2139 119.501 84.7021C116.815 85.1904 114.13 86.2484 111.444 87.876C110.386 87.4691 109.41 87.4691 108.515 87.876C107.701 88.2829 106.48 88.4049 104.853 88.2422C104.364 88.7305 103.754 89.0967 103.021 89.3408C102.289 89.5036 101.557 89.707 100.824 89.9512C101.15 90.6836 101.272 91.4567 101.19 92.2705C101.19 93.0029 101.312 93.6133 101.557 94.1016C104.405 94.3457 107.538 94.305 110.956 93.9795C114.455 93.654 117.873 93.4505 121.21 93.3691C121.291 93.776 121.251 94.0609 121.088 94.2236C120.925 94.305 120.884 94.5085 120.966 94.834C121.535 95.2409 122.105 95.7699 122.675 96.4209C123.244 96.9906 123.814 97.5602 124.384 98.1299C124.953 98.6995 125.523 99.1878 126.093 99.5947C126.744 99.9202 127.476 100.042 128.29 99.9609C128.616 100.612 128.819 101.344 128.9 102.158C129.063 102.891 128.982 103.664 128.656 104.478C127.354 105.373 126.052 106.309 124.75 107.285C123.448 108.18 122.064 108.994 120.6 109.727C119.216 110.459 117.711 111.069 116.083 111.558C114.537 111.965 112.787 112.127 110.834 112.046C110.427 112.046 110.102 112.046 109.857 112.046C109.695 112.046 109.451 111.924 109.125 111.68C108.474 112.087 107.538 112.209 106.317 112.046C105.178 111.883 104.283 112.005 103.632 112.412C102.737 112.005 101.638 111.842 100.336 111.924C99.1152 111.924 98.0166 111.761 97.04 111.436C95.738 113.145 94.5579 114.976 93.5 116.929C92.4421 118.882 91.5062 120.957 90.6924 123.154C93.4593 123.561 95.738 123.724 97.5283 123.643C99.4001 123.561 101.15 123.439 102.777 123.276C104.405 123.032 106.073 122.829 107.782 122.666C109.491 122.422 111.648 122.34 114.252 122.422C115.88 121.527 117.792 120.957 119.989 120.713C122.268 120.387 124.343 119.899 126.215 119.248C126.866 119.492 127.436 119.94 127.924 120.591C128.412 121.16 128.86 121.73 129.267 122.3C129.755 122.788 130.243 123.236 130.731 123.643C131.22 124.049 131.83 124.212 132.562 124.131C132.888 124.456 133.091 124.863 133.173 125.352C133.336 125.758 133.458 126.165 133.539 126.572C133.62 126.979 133.743 127.345 133.905 127.671C134.149 127.915 134.516 127.996 135.004 127.915C133.783 130.601 132.359 132.676 130.731 134.141C129.185 135.524 127.395 136.582 125.36 137.314C123.326 138.047 121.047 138.617 118.524 139.023C116.083 139.43 113.357 139.919 110.346 140.488C109.613 140.651 109.003 140.61 108.515 140.366C108.026 140.203 107.457 140.122 106.806 140.122C104.934 140.529 102.696 140.895 100.092 141.221C97.4876 141.546 94.8428 141.668 92.1572 141.587C89.4717 141.506 86.9082 141.139 84.4668 140.488C82.0254 139.919 80.0316 138.861 78.4854 137.314C77.8343 136.745 77.3867 136.094 77.1426 135.361C76.9798 134.548 76.4508 133.937 75.5557 133.53C75.4743 132.472 75.3115 131.292 75.0674 129.99C74.8232 128.688 74.5791 127.345 74.335 125.962C74.0908 124.497 73.8874 123.073 73.7246 121.689C73.6432 120.306 73.7246 119.045 73.9688 117.905C74.2129 116.685 74.7012 115.586 75.4336 114.609C76.2474 113.633 76.5322 112.575 76.2881 111.436C76.695 111.354 76.9391 111.151 77.0205 110.825C77.1019 110.418 77.4274 110.256 77.9971 110.337C78.4854 108.872 79.0143 107.489 79.584 106.187C80.1536 104.884 80.7233 103.623 81.293 102.402C81.944 101.182 82.5544 99.9609 83.124 98.7402C83.7751 97.4382 84.3854 96.014 84.9551 94.4678C83.8158 93.4098 82.9613 92.2705 82.3916 91.0498C81.9033 89.7477 81.5371 88.4863 81.293 87.2656C81.0488 85.9635 80.8454 84.6615 80.6826 83.3594C80.5199 81.9759 80.235 80.5924 79.8281 79.209C80.6419 77.9883 81.6185 77.0117 82.7578 76.2793C83.9785 75.4655 85.2806 74.8145 86.6641 74.3262C88.0475 73.8379 89.5531 73.431 91.1807 73.1055C92.8083 72.7799 94.5173 72.4137 96.3076 72.0068C99.5628 70.9489 102.452 70.1351 104.975 69.5654C107.579 68.9958 110.102 68.5482 112.543 68.2227C115.066 67.8158 117.67 67.4495 120.355 67.124C123.041 66.7985 126.093 66.3102 129.511 65.6592C130.243 66.3916 130.935 66.7578 131.586 66.7578C131.911 66.0254 132.278 65.8219 132.685 66.1475C133.173 66.3916 133.376 66.1475 133.295 65.415C134.109 66.7985 135.126 67.9785 136.347 68.9551C137.649 69.8503 139.073 70.6234 140.619 71.2744ZM207.147 81.2842C205.113 81.2842 202.916 81.4469 200.556 81.7725C198.196 82.0166 195.876 82.3014 193.598 82.627C191.97 82.8711 190.383 83.0745 188.837 83.2373C187.372 83.4001 186.029 83.5221 184.809 83.6035C184.239 85.3939 183.669 86.9808 183.1 88.3643C182.53 89.7477 181.92 91.0905 181.269 92.3926C180.618 93.776 180.007 95.2002 179.438 96.665C178.949 98.0485 178.461 99.554 177.973 101.182C177.159 102.484 176.467 103.704 175.897 104.844C175.409 105.902 175.002 107.122 174.677 108.506C173.7 109.727 172.968 111.029 172.479 112.412C171.991 113.714 171.625 114.854 171.381 115.83L170.893 117.295C170.404 117.783 170.119 118.19 170.038 118.516C169.957 118.76 169.753 119.004 169.428 119.248C169.346 120.143 169.062 121.038 168.573 121.934C168.41 122.34 168.288 122.747 168.207 123.154C168.126 123.48 168.085 123.724 168.085 123.887C168.085 124.701 167.882 125.229 167.475 125.474C167.556 125.881 167.556 126.328 167.475 126.816C167.393 127.223 167.312 127.63 167.23 128.037C166.986 129.014 166.905 129.787 166.986 130.356C167.23 130.682 167.434 130.967 167.597 131.211C167.841 131.455 168.004 131.781 168.085 132.188C168.573 132.513 168.939 132.716 169.184 132.798C169.509 133.042 169.997 133.327 170.648 133.652L171.747 134.873C172.154 137.233 171.788 139.105 170.648 140.488C169.428 142.035 167.353 142.808 164.423 142.808H162.958C162.551 142.401 162.307 142.075 162.226 141.831C161.575 141.587 161.046 141.383 160.639 141.221C160.232 141.058 159.866 140.732 159.54 140.244C158.482 139.756 157.628 139.349 156.977 139.023L155.878 138.413C155.878 137.518 155.878 137.03 155.878 136.948C155.308 136.216 154.861 135.402 154.535 134.507C154.291 133.612 154.088 132.716 153.925 131.821C153.762 131.089 153.559 130.397 153.314 129.746C153.152 129.095 152.908 128.525 152.582 128.037C152.419 123.317 152.867 119.329 153.925 116.074C154.983 112.819 156.081 109.686 157.221 106.675C157.872 105.047 158.523 103.42 159.174 101.792C159.825 100.083 160.395 98.3333 160.883 96.543L161.981 95.3223C162.551 94.0202 162.999 92.9622 163.324 92.1484C163.731 91.2533 164.138 90.3581 164.545 89.4629C164.789 88.8932 164.993 88.3643 165.155 87.876C165.399 87.3063 165.603 86.818 165.766 86.4111C165.277 86.4111 164.83 86.4518 164.423 86.5332C164.016 86.5332 163.609 86.5739 163.202 86.6553C162.714 86.7367 162.266 86.818 161.859 86.8994C161.452 86.8994 161.046 86.8994 160.639 86.8994C160.069 86.8994 159.662 86.8587 159.418 86.7773C158.523 87.1842 157.546 87.3877 156.488 87.3877H155.268C155.023 87.3877 154.779 87.3877 154.535 87.3877C154.372 87.3063 154.21 87.2656 154.047 87.2656C153.233 87.2656 152.582 87.3877 152.094 87.6318C151.117 87.6318 150.181 87.6318 149.286 87.6318H148.065C147.903 87.6318 147.699 87.6725 147.455 87.7539C147.211 87.7539 147.007 87.7539 146.845 87.7539C146.275 87.7539 145.665 87.7132 145.014 87.6318C144.363 87.4691 143.671 87.1842 142.938 86.7773C141.962 85.4753 141.311 84.7835 140.985 84.7021L139.887 83.2373C139.805 82.749 139.683 82.3014 139.521 81.8945C139.358 81.4062 139.195 80.8773 139.032 80.3076C138.707 79.4938 138.381 78.6393 138.056 77.7441C137.812 76.7676 137.689 75.6283 137.689 74.3262C137.771 73.6751 137.934 73.1868 138.178 72.8613C138.422 72.5358 138.625 72.251 138.788 72.0068L139.154 70.1758L140.741 70.2979H144.159C146.763 70.2979 149.408 70.2165 152.094 70.0537C154.779 69.8096 157.546 69.5654 160.395 69.3213C162.022 69.1585 163.65 68.9958 165.277 68.833C166.986 68.6702 168.736 68.5075 170.526 68.3447C170.852 67.6123 171.177 66.9206 171.503 66.2695L172.724 65.6592C174.188 65.5778 175.206 65.7812 175.775 66.2695C176.426 66.6764 176.955 67.0833 177.362 67.4902C179.153 67.3275 180.943 67.1647 182.733 67.002C184.605 66.7578 186.477 66.473 188.349 66.1475C191.116 65.7406 193.882 65.3743 196.649 65.0488C199.498 64.7233 202.224 64.5605 204.828 64.5605C205.967 64.5605 207.066 64.6012 208.124 64.6826C209.182 64.764 210.159 64.8861 211.054 65.0488L212.274 65.9033C212.519 66.3916 212.844 66.8392 213.251 67.2461C213.739 67.653 214.228 68.0599 214.716 68.4668C215.692 69.362 216.669 70.4199 217.646 71.6406C218.622 72.8613 218.988 74.6517 218.744 77.0117C218.093 77.9883 217.605 78.5579 217.279 78.7207L216.181 80.1855L214.96 80.0635C214.472 80.0635 214.024 80.1449 213.617 80.3076C213.21 80.389 212.803 80.5111 212.396 80.6738C212.071 80.8366 211.745 80.9993 211.42 81.1621C211.094 81.2435 210.728 81.3249 210.321 81.4062C209.589 81.4062 208.979 81.4062 208.49 81.4062C208.083 81.3249 207.636 81.2842 207.147 81.2842ZM269.647 70.542C269.81 72.3324 270.095 73.8786 270.502 75.1807C270.909 76.4827 271.356 77.7441 271.845 78.9648C272.252 80.1042 272.618 81.2435 272.943 82.3828C273.35 83.4408 273.635 84.7428 273.798 86.2891C273.147 88.4049 272.659 90.3581 272.333 92.1484C272.089 93.9388 271.804 95.8105 271.479 97.7637C270.176 100.612 268.915 103.135 267.694 105.332C266.474 107.529 265.497 109.442 264.765 111.069C264.358 111.476 263.992 111.965 263.666 112.534C263.422 113.022 263.137 113.551 262.812 114.121C262.649 114.365 262.445 114.731 262.201 115.22C261.957 115.708 261.754 116.034 261.591 116.196L259.149 115.342L258.661 118.394L256.952 118.882L255.731 120.347C254.185 123.032 252.558 125.311 250.849 127.183C249.14 128.973 247.187 130.601 244.989 132.065C242.873 133.449 240.432 134.751 237.665 135.972C234.979 137.192 231.928 138.535 228.51 140C227.126 139.837 225.906 139.756 224.848 139.756C223.871 139.674 222.935 139.593 222.04 139.512C220.494 139.512 218.581 139.39 216.303 139.146C216.059 138.494 215.692 138.047 215.204 137.803C214.716 137.559 214.268 137.437 213.861 137.437C212.478 136.785 211.42 135.85 210.688 134.629C210.036 133.327 209.385 131.943 208.734 130.479C208.327 129.583 207.921 128.77 207.514 128.037C207.107 127.223 206.659 126.41 206.171 125.596L208.246 124.985L205.561 122.056C205.398 121.812 205.194 121.608 204.95 121.445C204.706 121.201 204.503 120.957 204.34 120.713L204.218 118.76C203.974 113.145 203.852 108.018 203.852 103.379C203.933 98.6589 204.584 94.4678 205.805 90.8057V89.4629C206.049 87.6725 206.293 86.2077 206.537 85.0684C206.781 83.8477 206.985 82.7083 207.147 81.6504C207.392 79.86 207.758 78.1917 208.246 76.6455C209.385 76.4014 210.24 75.9538 210.81 75.3027C211.379 74.5703 211.868 73.9193 212.274 73.3496C213.414 73.2682 214.187 73.431 214.594 73.8379C215.001 74.2448 215.408 74.8958 215.814 75.791C216.221 76.5234 216.71 77.3372 217.279 78.2324C217.93 79.1276 218.866 79.8193 220.087 80.3076C220.25 80.9587 220.453 81.6504 220.697 82.3828C221.023 83.0339 221.348 83.7663 221.674 84.5801C222.325 85.9635 222.895 87.4284 223.383 88.9746C223.952 90.4395 224.278 91.8636 224.359 93.2471C223.546 94.7933 222.895 96.5837 222.406 98.6182C221.999 100.653 221.715 102.728 221.552 104.844C221.47 106.878 221.511 108.872 221.674 110.825C221.918 112.697 222.284 114.284 222.772 115.586L223.505 117.173L225.58 116.929C228.021 116.278 230.219 115.586 232.172 114.854C234.206 114.04 236.078 113.104 237.787 112.046C239.496 110.988 241.124 109.767 242.67 108.384C244.216 106.919 245.844 105.251 247.553 103.379C249.262 101.507 250.727 99.3913 251.947 97.0312C253.249 94.5898 254.307 92.0671 255.121 89.4629C256.016 86.8587 256.667 84.2952 257.074 81.7725C257.562 79.1683 257.888 76.7269 258.051 74.4482C259.434 73.96 260.126 72.9834 260.126 71.5186L259.882 70.1758C259.556 69.6875 259.556 69.1178 259.882 68.4668C260.37 66.9206 261.509 65.7406 263.3 64.9268C264.602 65.7406 265.741 66.6357 266.718 67.6123C267.776 68.5889 268.752 69.5654 269.647 70.542ZM316.767 64.3164C320.185 64.7233 323.236 65.415 325.922 66.3916C328.607 67.3682 330.886 68.6702 332.758 70.2979C334.06 72.3324 335.281 74.5296 336.42 76.8896C337.641 79.2497 338.536 81.7318 339.105 84.3359C339.757 86.8587 340.041 89.4629 339.96 92.1484C339.96 94.834 339.39 97.5602 338.251 100.327C335.891 103.257 333.002 105.658 329.584 107.529C326.247 109.32 322.626 110.785 318.72 111.924C314.813 113.063 310.744 114.04 306.513 114.854C302.362 115.667 298.293 116.481 294.306 117.295C294.387 119.167 294.387 121.16 294.306 123.276C294.306 125.311 294.102 127.386 293.695 129.502C293.37 131.536 292.841 133.53 292.108 135.483C291.376 137.437 290.399 139.227 289.179 140.854C287.795 140.854 286.371 141.017 284.906 141.343C283.441 141.75 282.139 142.075 281 142.319C280.43 141.994 279.901 141.668 279.413 141.343C279.006 141.099 278.396 140.936 277.582 140.854C277.745 140.041 277.541 139.227 276.972 138.413C276.402 137.518 275.832 136.623 275.263 135.728C274.693 134.832 274.286 133.978 274.042 133.164C273.879 132.35 274.286 131.577 275.263 130.845C274.693 130.275 274.408 129.543 274.408 128.647C274.978 127.671 275.466 126.328 275.873 124.619C276.361 122.91 276.728 121.242 276.972 119.614C277.297 117.905 277.379 116.359 277.216 114.976C277.053 113.592 276.239 112.575 274.774 111.924C274.856 111.761 275.019 111.68 275.263 111.68C275.507 111.68 275.751 111.639 275.995 111.558C275.344 111.069 274.937 110.378 274.774 109.482C274.693 108.587 274.408 107.814 273.92 107.163C274.083 106.756 274.205 106.39 274.286 106.064C274.368 105.739 274.652 105.617 275.141 105.698C274.896 104.233 274.896 102.85 275.141 101.548C275.466 100.246 275.914 99.0251 276.483 97.8857C277.053 96.665 277.745 95.485 278.559 94.3457C279.372 93.2064 280.146 92.0671 280.878 90.9277C281.448 90.8464 281.773 90.9277 281.854 91.1719C282.017 91.416 282.302 91.3753 282.709 91.0498C283.767 90.236 284.499 89.3815 284.906 88.4863C285.313 87.5911 285.517 86.5739 285.517 85.4346C286.086 83.7256 286.778 82.0166 287.592 80.3076C288.406 78.5173 289.301 76.8896 290.277 75.4248C291.254 73.96 292.312 72.6579 293.451 71.5186C294.672 70.3792 295.933 69.5247 297.235 68.9551C298.212 68.1413 299.433 67.4089 300.897 66.7578C302.362 66.0254 303.949 65.4964 305.658 65.1709C307.367 64.764 309.076 64.5605 310.785 64.5605C312.576 64.4792 314.203 64.6419 315.668 65.0488C316.075 65.2116 316.278 65.1302 316.278 64.8047C316.36 64.4792 316.522 64.3164 316.767 64.3164ZM311.762 93.4912C313.796 92.596 315.953 91.9043 318.231 91.416C320.591 90.8464 322.545 89.8291 324.091 88.3643C323.114 87.4691 321.69 86.696 319.818 86.0449C317.947 85.3125 315.912 84.8649 313.715 84.7021C311.518 84.5394 309.28 84.7428 307.001 85.3125C304.804 85.8008 302.891 86.7773 301.264 88.2422C300.775 89.707 300.368 90.887 300.043 91.7822C299.717 92.596 299.27 93.6133 298.7 94.834C298.863 95.2409 299.107 95.5664 299.433 95.8105C299.84 95.9733 300.124 96.2581 300.287 96.665C302.159 95.6885 304.031 95.1595 305.902 95.0781C307.855 94.9154 309.809 94.3864 311.762 93.4912ZM408.441 131.455C408.848 133.896 408.686 135.809 407.953 137.192C407.302 138.576 406.326 139.593 405.023 140.244C403.803 140.977 402.379 141.383 400.751 141.465C399.123 141.546 397.577 141.465 396.112 141.221C395.299 140.081 394.566 138.657 393.915 136.948C393.264 135.239 392.654 133.49 392.084 131.699C391.514 129.827 390.985 127.996 390.497 126.206C390.09 124.416 389.724 122.829 389.398 121.445C389.805 120.469 390.049 119.37 390.131 118.149C390.294 116.847 390.375 115.545 390.375 114.243C390.456 112.941 390.497 111.639 390.497 110.337C390.578 108.953 390.701 107.651 390.863 106.431C391.433 103.013 392.247 99.7575 393.305 96.665C394.444 93.5726 395.339 90.3581 395.99 87.0215C396.153 86.2891 396.072 85.5973 395.746 84.9463C395.502 84.2952 395.461 83.6849 395.624 83.1152C395.705 82.7897 395.95 82.5863 396.356 82.5049C396.763 82.3421 397.007 82.0573 397.089 81.6504C397.333 80.7552 397.374 80.0228 397.211 79.4531C397.13 78.8835 397.292 78.1917 397.699 77.3779C398.106 76.7269 398.594 75.791 399.164 74.5703C399.815 73.2682 400.059 71.9255 399.896 70.542C400.629 70.0537 401.321 69.484 401.972 68.833C402.623 68.182 403.274 67.6123 403.925 67.124C404.657 66.5544 405.43 66.0661 406.244 65.6592C407.139 65.2523 408.197 65.0488 409.418 65.0488C410.069 65.8626 410.476 66.7578 410.639 67.7344C410.883 68.7109 411.086 69.6875 411.249 70.6641C411.493 71.6406 411.819 72.5765 412.226 73.4717C412.632 74.2855 413.324 74.9365 414.301 75.4248C414.301 76.0758 414.301 76.8896 414.301 77.8662C414.301 78.8428 414.341 79.8193 414.423 80.7959C414.504 81.6911 414.667 82.5456 414.911 83.3594C415.237 84.0918 415.725 84.5801 416.376 84.8242C414.911 88.7305 413.528 92.596 412.226 96.4209C411.005 100.246 409.988 104.111 409.174 108.018C408.36 111.842 407.831 115.708 407.587 119.614C407.424 123.521 407.709 127.467 408.441 131.455ZM424.555 85.0684C425.124 83.3594 426.02 81.8945 427.24 80.6738C428.542 79.4531 429.926 78.4359 431.391 77.6221C432.937 76.7269 434.524 75.9945 436.151 75.4248C437.779 74.8551 439.325 74.3669 440.79 73.96C444.045 72.5765 447.504 71.2744 451.166 70.0537C454.91 68.7516 458.694 67.6123 462.519 66.6357C466.425 65.6592 470.412 65.0488 474.481 64.8047C478.55 64.4792 482.823 64.9674 487.299 66.2695C487.543 67.0833 487.909 67.8564 488.397 68.5889C488.886 69.3213 489.374 70.0537 489.862 70.7861C490.432 71.5186 490.92 72.251 491.327 72.9834C491.734 73.6344 491.978 74.3262 492.06 75.0586C492.873 75.791 493.524 76.6048 494.013 77.5C494.501 78.3138 494.582 79.4124 494.257 80.7959C493.443 81.4469 492.629 82.0573 491.815 82.627C491.083 83.1152 490.269 83.5628 489.374 83.9697C486.363 83.2373 483.311 82.9932 480.219 83.2373C477.126 83.4814 474.359 83.6849 471.918 83.8477C471.186 83.1152 470.29 82.749 469.232 82.749C468.256 82.749 467.198 82.9118 466.059 83.2373C465.001 83.5628 463.902 83.8883 462.763 84.2139C461.705 84.5394 460.688 84.6208 459.711 84.458C458.897 85.109 457.88 85.5566 456.659 85.8008C455.52 85.9635 454.258 86.1263 452.875 86.2891C452.794 86.696 452.875 86.9808 453.119 87.1436C453.363 87.2249 453.404 87.4691 453.241 87.876C453.729 88.4456 454.34 88.8525 455.072 89.0967C455.886 89.3408 456.7 89.585 457.514 89.8291C458.409 90.0732 459.182 90.3988 459.833 90.8057C460.484 91.1312 460.932 91.7008 461.176 92.5146C462.396 92.5146 463.454 92.7995 464.35 93.3691C465.245 93.9388 465.977 94.6305 466.547 95.4443C467.117 96.2581 467.523 97.1533 467.768 98.1299C468.093 99.0251 468.256 99.8389 468.256 100.571C468.5 101.222 468.785 101.507 469.11 101.426C469.436 101.344 469.802 101.507 470.209 101.914C470.453 102.972 471.063 104.071 472.04 105.21C473.017 106.268 473.79 107.448 474.359 108.75C474.522 110.785 474.644 112.616 474.726 114.243C474.807 115.789 474.522 117.376 473.871 119.004C472.65 122.015 470.941 124.701 468.744 127.061C466.628 129.421 464.187 131.536 461.42 133.408C458.734 135.199 455.845 136.745 452.753 138.047C449.66 139.349 446.649 140.448 443.72 141.343C443.394 141.261 443.069 141.261 442.743 141.343C442.418 141.424 442.336 141.221 442.499 140.732C441.848 141.302 441.116 141.668 440.302 141.831C439.569 141.994 438.756 142.035 437.86 141.953C436.965 141.953 436.029 141.912 435.053 141.831C434.158 141.75 433.303 141.79 432.489 141.953C431.92 141.383 431.391 140.814 430.902 140.244C430.495 139.756 430.17 139.105 429.926 138.291C429.519 138.291 429.315 138.088 429.315 137.681C429.397 137.274 429.275 137.07 428.949 137.07C429.438 136.257 429.641 135.809 429.56 135.728C429.56 135.565 429.438 135.443 429.193 135.361C429.031 135.28 428.868 135.199 428.705 135.117C428.542 134.954 428.502 134.751 428.583 134.507C428.909 133.856 429.031 133.123 428.949 132.31C428.868 131.414 428.786 130.519 428.705 129.624C428.624 128.729 428.664 127.874 428.827 127.061C429.071 126.247 429.682 125.596 430.658 125.107C433.425 125.433 436.029 125.352 438.471 124.863C440.993 124.294 443.354 123.521 445.551 122.544C447.748 121.567 449.823 120.509 451.776 119.37C453.811 118.231 455.805 117.214 457.758 116.318C458.002 115.586 458.327 114.976 458.734 114.487C459.223 113.999 459.711 113.551 460.199 113.145C460.688 112.738 461.135 112.29 461.542 111.802C461.949 111.313 462.234 110.703 462.396 109.971C462.478 109.401 462.315 109.076 461.908 108.994C461.583 108.831 461.42 108.506 461.42 108.018L460.077 107.651C458.531 106.756 456.781 106.024 454.828 105.454C452.875 104.803 451.207 104.111 449.823 103.379C448.928 103.867 448.074 103.989 447.26 103.745C446.527 103.501 445.551 103.257 444.33 103.013C441.563 102.85 438.878 102.565 436.273 102.158C433.751 101.751 431.309 101.019 428.949 99.9609C428.786 99.554 428.583 99.1878 428.339 98.8623C428.095 98.5368 427.647 98.4554 426.996 98.6182C426.508 97.9671 426.02 97.3568 425.531 96.7871C425.043 96.1361 424.595 95.4443 424.188 94.7119C424.351 93.7354 424.473 92.9215 424.555 92.2705C424.636 91.5381 424.392 90.8464 423.822 90.1953C424.148 89.1374 424.392 88.2829 424.555 87.6318C424.717 86.9808 424.717 86.1263 424.555 85.0684ZM588.983 67.4902C588.821 68.2227 588.821 68.9551 588.983 69.6875C589.146 70.3385 589.309 70.9896 589.472 71.6406C589.634 72.2103 589.797 72.8613 589.96 73.5938C590.123 74.2448 590.163 74.9365 590.082 75.6689C590.408 76.4827 590.814 77.2152 591.303 77.8662C591.872 78.5173 592.361 79.1683 592.768 79.8193C593.256 80.389 593.622 81.04 593.866 81.7725C594.192 82.5049 594.314 83.4001 594.232 84.458C593.5 85.3532 592.93 86.2077 592.523 87.0215C592.117 87.7539 591.628 88.4456 591.059 89.0967C590.489 89.6663 589.838 90.1953 589.105 90.6836C588.373 91.1719 587.722 91.7008 587.152 92.2705C586.501 94.1423 585.85 95.6885 585.199 96.9092C584.63 98.0485 584.019 99.554 583.368 101.426C583.205 103.542 582.961 105.495 582.636 107.285C582.31 108.994 581.944 110.703 581.537 112.412C581.13 114.04 580.723 115.708 580.316 117.417C579.91 119.126 579.543 120.957 579.218 122.91C579.136 126.328 578.567 129.583 577.509 132.676C576.532 135.687 575.108 138.576 573.236 141.343C571.771 141.18 570.429 141.18 569.208 141.343C568.069 141.587 566.767 141.831 565.302 142.075C564.651 141.424 564.081 140.773 563.593 140.122C563.104 139.552 562.535 139.023 561.884 138.535C561.965 134.466 562.169 130.804 562.494 127.549C562.901 124.212 563.389 120.957 563.959 117.783C564.61 114.609 565.342 111.354 566.156 108.018C566.97 104.6 567.825 100.775 568.72 96.543C567.58 96.4616 566.238 96.543 564.691 96.7871C563.227 96.9499 561.64 97.194 559.931 97.5195C558.303 97.7637 556.635 98.0892 554.926 98.4961C553.298 98.8216 551.752 99.1064 550.287 99.3506C549.392 99.2692 548.456 99.2285 547.479 99.2285C546.584 99.2285 545.73 99.1878 544.916 99.1064C544.102 99.0251 543.329 98.8623 542.597 98.6182C541.946 98.2926 541.376 97.8044 540.888 97.1533C539.586 97.4788 538.487 97.4382 537.592 97.0312C536.697 96.543 535.924 95.9326 535.272 95.2002C534.621 94.3864 534.052 93.4912 533.563 92.5146C533.157 91.5381 532.709 90.6429 532.221 89.8291C531.814 87.1436 531.692 84.7428 531.854 82.627C532.099 80.5111 532.506 78.5579 533.075 76.7676C533.726 74.9772 534.499 73.2682 535.395 71.6406C536.371 69.9316 537.348 68.182 538.324 66.3916C540.44 64.2757 542.759 62.1191 545.282 59.9219C547.886 57.7246 550.694 55.7715 553.705 54.0625C556.716 52.3535 559.931 51.0107 563.349 50.0342C566.767 49.0576 570.429 48.7321 574.335 49.0576C577.59 51.4176 580.316 54.2253 582.514 57.4805C584.711 60.7357 586.868 64.0723 588.983 67.4902ZM572.87 73.8379C572.951 72.2917 572.545 71.2337 571.649 70.6641C570.754 70.013 569.656 69.5654 568.354 69.3213C566.319 70.1351 564.325 70.9489 562.372 71.7627C560.5 72.4951 558.873 73.5531 557.489 74.9365C557.245 75.1807 556.92 75.3434 556.513 75.4248C556.187 75.5062 555.862 75.6283 555.536 75.791C555.211 75.8724 554.966 76.0758 554.804 76.4014C554.641 76.7269 554.641 77.1745 554.804 77.7441C558.222 77.9069 561.355 77.5407 564.203 76.6455C567.051 75.7503 569.94 74.8145 572.87 73.8379ZM620.355 142.075C617.182 142.563 614.252 142.401 611.566 141.587C608.881 140.773 606.48 139.471 604.364 137.681C602.33 135.89 600.539 133.774 598.993 131.333C597.447 128.892 596.186 126.287 595.209 123.521C594.558 117.743 594.761 112.493 595.819 107.773C596.877 103.053 598.383 98.6995 600.336 94.7119C602.37 90.7243 604.649 87.0215 607.172 83.6035C609.695 80.1042 612.136 76.7676 614.496 73.5938C614.984 73.8379 615.391 73.8379 615.717 73.5938C616.042 73.2682 616.327 72.902 616.571 72.4951C616.897 72.0882 617.182 71.6813 617.426 71.2744C617.751 70.8675 618.158 70.5827 618.646 70.4199C618.972 69.6875 619.379 69.0771 619.867 68.5889C620.355 68.0192 620.844 67.4902 621.332 67.002C621.902 66.5137 622.431 66.0254 622.919 65.5371C623.407 65.0488 623.814 64.4385 624.14 63.7061C624.872 63.5433 625.523 63.2585 626.093 62.8516C626.662 62.3633 627.191 61.875 627.68 61.3867C628.168 60.8984 628.656 60.4508 629.145 60.0439C629.714 59.5557 630.365 59.1895 631.098 58.9453V57.3584C632.725 56.4632 633.905 55.5273 634.638 54.5508C635.37 53.4928 636.265 52.1908 637.323 50.6445C638.137 50.4818 638.788 50.4411 639.276 50.5225C639.765 50.5225 640.456 50.4411 641.352 50.2783C642.084 48.8949 642.735 47.8369 643.305 47.1045C643.874 46.3721 644.729 45.5583 645.868 44.6631C646.926 45.3141 648.106 45.7617 649.408 46.0059C650.71 46.1686 651.809 46.779 652.704 47.8369C652.785 48.8949 653.03 49.7087 653.437 50.2783C653.925 50.848 654.454 51.377 655.023 51.8652C655.593 52.2721 656.122 52.7604 656.61 53.3301C657.099 53.8184 657.424 54.5101 657.587 55.4053C657.912 55.4053 658.116 55.3239 658.197 55.1611C658.36 54.9984 658.604 54.9577 658.93 55.0391C659.092 55.7715 659.255 56.3411 659.418 56.748C659.581 57.1549 659.743 57.5618 659.906 57.9688C660.069 58.2943 660.232 58.6605 660.395 59.0674C660.639 59.3929 660.842 59.8812 661.005 60.5322C660.598 61.5088 660.232 62.5667 659.906 63.7061C659.662 64.8454 659.092 65.6185 658.197 66.0254C658.197 66.6764 658.401 67.0426 658.808 67.124C659.296 67.2054 659.581 67.5309 659.662 68.1006C659.662 68.9144 659.54 69.5654 659.296 70.0537C661.412 74.0413 663.284 78.2324 664.911 82.627C666.62 86.9401 668.533 91.0498 670.648 94.9561C670.486 96.1768 670.526 97.3568 670.771 98.4961C671.096 99.6354 671.422 100.775 671.747 101.914C672.154 102.972 672.52 104.03 672.846 105.088C673.253 106.146 673.537 107.244 673.7 108.384C673.863 109.849 673.863 111.436 673.7 113.145C673.619 114.772 673.334 116.359 672.846 117.905C672.439 119.451 671.869 120.876 671.137 122.178C670.404 123.48 669.55 124.456 668.573 125.107C668.41 125.026 667.963 125.27 667.23 125.84C666.498 126.328 665.644 126.979 664.667 127.793C663.772 128.607 662.836 129.502 661.859 130.479C660.883 131.455 660.028 132.31 659.296 133.042C658.319 133.693 657.221 134.181 656 134.507C654.861 134.751 653.681 135.036 652.46 135.361C651.483 136.012 650.303 136.704 648.92 137.437C647.618 138.088 646.234 138.657 644.77 139.146C643.386 139.634 642.003 140 640.619 140.244C639.236 140.57 638.015 140.651 636.957 140.488C634.271 141.628 631.667 142.36 629.145 142.686C626.703 143.092 623.773 142.889 620.355 142.075ZM623.041 95.9326C622.39 97.8857 621.617 99.6354 620.722 101.182C619.826 102.728 618.931 104.315 618.036 105.942C617.222 107.57 616.49 109.32 615.839 111.191C615.269 112.982 614.944 115.098 614.862 117.539C616.164 118.923 617.711 119.777 619.501 120.103C621.373 120.428 623.244 120.469 625.116 120.225C627.069 119.98 628.982 119.655 630.854 119.248C632.725 118.841 634.434 118.597 635.98 118.516C635.98 117.783 636.265 117.458 636.835 117.539C639.521 117.214 642.043 116.237 644.403 114.609C646.845 112.9 649.368 111.191 651.972 109.482C652.297 108.424 652.704 107.529 653.192 106.797C653.762 106.064 654.047 105.007 654.047 103.623C653.721 102.728 653.518 102.077 653.437 101.67C653.355 101.182 653.314 100.409 653.314 99.3506C651.605 96.2581 650.1 92.9215 648.798 89.3408C647.577 85.6787 646.153 82.3014 644.525 79.209C644.363 79.6159 644.078 80.0228 643.671 80.4297C643.264 80.8366 642.816 80.7552 642.328 80.1855C641.921 81.8132 641.189 82.5456 640.131 82.3828C639.154 82.2201 638.218 81.7318 637.323 80.918C635.045 83.278 632.766 85.5973 630.487 87.876C628.209 90.0732 626.174 92.6367 624.384 95.5664C624.058 95.8105 623.855 95.8919 623.773 95.8105C623.692 95.6478 623.448 95.6885 623.041 95.9326ZM734.369 72.0068C735.427 71.3558 736.607 70.3792 737.909 69.0771C739.293 67.6937 740.717 66.2695 742.182 64.8047C743.646 63.2585 745.152 61.6715 746.698 60.0439C748.244 58.4163 749.791 56.9922 751.337 55.7715C752.883 54.4694 754.389 53.4521 755.854 52.7197C757.318 51.9873 758.702 51.6618 760.004 51.7432C760.655 54.5915 760.736 57.4398 760.248 60.2881C759.841 63.055 758.946 66.1882 757.562 69.6875C756.667 70.5827 755.365 71.8034 753.656 73.3496C752.029 74.8145 750.198 76.4827 748.163 78.3545C746.21 80.1449 744.175 82.0573 742.06 84.0918C739.944 86.0449 737.909 87.9574 735.956 89.8291C734.084 91.6195 732.416 93.2878 730.951 94.834C729.568 96.2988 728.591 97.4382 728.021 98.252C726.638 99.4727 724.807 101.141 722.528 103.257C720.331 105.373 717.971 107.611 715.448 109.971C713.007 112.331 710.606 114.65 708.246 116.929C705.967 119.207 704.096 121.079 702.631 122.544C702.468 122.951 702.509 123.317 702.753 123.643C702.997 123.887 703.119 124.212 703.119 124.619C702.143 125.433 701.492 126.206 701.166 126.938C700.922 127.59 700.759 128.241 700.678 128.892C700.678 129.543 700.678 130.234 700.678 130.967C700.759 131.618 700.678 132.35 700.434 133.164C699.783 133.652 699.172 134.222 698.603 134.873C698.114 135.443 697.626 136.053 697.138 136.704C696.649 137.274 696.08 137.843 695.429 138.413C694.859 138.901 694.127 139.349 693.231 139.756C691.604 139.674 690.302 139.512 689.325 139.268C688.349 138.942 687.169 138.657 685.785 138.413C684.646 137.355 683.995 136.012 683.832 134.385C683.751 132.757 683.873 131.089 684.198 129.38C684.605 127.671 685.134 126.003 685.785 124.375C686.518 122.666 687.209 121.201 687.86 119.98C688.674 118.109 689.529 116.807 690.424 116.074C691.319 115.342 691.848 114.65 692.011 113.999C692.743 113.185 694.045 111.883 695.917 110.093C697.87 108.302 699.986 106.39 702.265 104.355C704.543 102.321 706.741 100.368 708.856 98.4961C711.054 96.543 712.722 94.9967 713.861 93.8574C714.594 92.5553 716.018 90.887 718.134 88.8525C720.25 86.818 722.447 84.7428 724.726 82.627C727.086 80.5111 729.201 78.5173 731.073 76.6455C732.945 74.6924 734.044 73.1462 734.369 72.0068ZM715.448 56.9922C715.285 57.3991 715.123 57.8467 714.96 58.335C714.879 58.7419 714.634 59.0674 714.228 59.3115C714.634 60.2067 714.797 60.7357 714.716 60.8984C715.692 62.526 716.547 64.1943 717.279 65.9033C718.093 67.6123 718.988 69.2806 719.965 70.9082C719.802 71.8848 719.965 72.8206 720.453 73.7158C720.941 74.611 721.267 75.5062 721.43 76.4014C721.592 77.5407 721.43 78.8021 720.941 80.1855C720.535 81.569 719.883 82.5456 718.988 83.1152C718.419 83.7663 717.727 84.2952 716.913 84.7021C716.099 85.109 715.367 85.638 714.716 86.2891C714.228 86.6146 713.699 86.818 713.129 86.8994C712.641 86.9808 712.112 87.1029 711.542 87.2656C710.647 87.8353 709.467 88.3643 708.002 88.8525C706.537 89.3408 705.316 89.5036 704.34 89.3408C703.119 89.7477 701.898 90.0326 700.678 90.1953C699.538 90.3581 698.196 90.2767 696.649 89.9512C693.638 90.3581 691.156 89.7884 689.203 88.2422C687.25 86.6146 685.826 84.7021 684.931 82.5049C684.605 80.1449 684.687 78.029 685.175 76.1572C685.663 74.2041 686.355 72.4137 687.25 70.7861C688.227 69.1585 689.285 67.653 690.424 66.2695C691.645 64.8861 692.784 63.5433 693.842 62.2412C694.33 62.404 694.656 62.2819 694.818 61.875C695.062 61.4681 695.388 61.1833 695.795 61.0205C696.12 60.3695 696.527 59.9219 697.016 59.6777C697.585 59.3522 698.033 58.9046 698.358 58.335C699.091 58.1722 699.62 57.8467 699.945 57.3584C700.352 56.8701 700.881 56.5446 701.532 56.3818C702.346 55.568 702.916 54.9577 703.241 54.5508C703.567 54.1439 703.974 53.6149 704.462 52.9639C704.869 52.9639 705.154 52.9639 705.316 52.9639C705.561 52.9639 705.927 52.9232 706.415 52.8418C706.741 52.2721 707.025 51.8652 707.27 51.6211C707.514 51.2956 707.921 50.9701 708.49 50.6445C708.979 50.8887 709.507 51.0514 710.077 51.1328C710.728 51.2142 711.257 51.4583 711.664 51.8652C711.664 52.2721 711.786 52.5977 712.03 52.8418C712.274 53.0859 712.519 53.3301 712.763 53.5742C713.007 53.737 713.21 53.9404 713.373 54.1846C713.617 54.3473 713.78 54.5915 713.861 54.917C714.512 55.4053 714.879 55.7715 714.96 56.0156C715.123 56.1784 715.285 56.5039 715.448 56.9922ZM706.659 74.4482C706.903 73.6344 707.025 73.2275 707.025 73.2275C707.025 73.1462 706.985 73.0241 706.903 72.8613C706.578 72.373 706.293 71.8441 706.049 71.2744C705.805 70.7048 705.52 70.1758 705.194 69.6875C704.706 70.1758 704.218 70.2572 703.729 69.9316C703.323 70.3385 702.875 70.7048 702.387 71.0303C701.98 71.3558 701.573 71.7627 701.166 72.251C700.678 72.902 700.23 73.431 699.823 73.8379C699.498 74.2448 699.294 74.8551 699.213 75.6689C699.783 76.0758 700.474 76.1979 701.288 76.0352C702.102 75.8724 702.834 75.791 703.485 75.791C704.136 75.6283 704.706 75.4248 705.194 75.1807C705.683 74.9365 706.171 74.6924 706.659 74.4482ZM751.093 118.516C750.93 119.492 751.052 120.428 751.459 121.323C751.947 122.137 752.273 122.992 752.436 123.887C752.598 125.026 752.476 126.328 752.069 127.793C751.662 129.176 751.011 130.112 750.116 130.601C749.547 131.333 748.814 131.903 747.919 132.31C747.105 132.716 746.373 133.245 745.722 133.896C745.233 134.141 744.745 134.344 744.257 134.507C743.769 134.588 743.199 134.71 742.548 134.873C741.653 135.361 740.473 135.85 739.008 136.338C737.624 136.826 736.404 137.03 735.346 136.948C734.125 137.355 732.945 137.64 731.806 137.803C730.666 137.965 729.283 137.884 727.655 137.559C724.644 137.965 722.162 137.396 720.209 135.85C718.337 134.222 716.954 132.269 716.059 129.99C715.733 127.712 715.814 125.636 716.303 123.765C716.791 121.812 717.483 120.021 718.378 118.394C719.273 116.766 720.29 115.26 721.43 113.877C722.65 112.493 723.83 111.151 724.97 109.849C725.377 110.011 725.702 109.889 725.946 109.482C726.19 108.994 726.516 108.709 726.923 108.628C727.167 107.977 727.574 107.529 728.144 107.285C728.713 106.96 729.161 106.471 729.486 105.82C730.137 105.658 730.666 105.373 731.073 104.966C731.48 104.478 732.009 104.152 732.66 103.989C733.393 103.175 733.922 102.565 734.247 102.158C734.654 101.751 735.102 101.222 735.59 100.571C735.997 100.49 736.282 100.49 736.444 100.571C736.688 100.571 737.014 100.531 737.421 100.449C737.828 99.7982 738.153 99.3506 738.397 99.1064C738.642 98.8623 739.008 98.5368 739.496 98.1299C739.984 98.4554 740.513 98.6589 741.083 98.7402C741.734 98.7402 742.263 98.9844 742.67 99.4727C742.751 100.368 743.118 100.938 743.769 101.182C744.42 101.344 744.826 101.792 744.989 102.524C745.559 103.013 745.925 103.338 746.088 103.501C746.251 103.664 746.413 104.03 746.576 104.6C746.413 105.007 746.251 105.454 746.088 105.942C745.925 106.349 745.64 106.634 745.233 106.797C745.722 107.692 745.884 108.221 745.722 108.384C746.698 110.011 747.553 111.72 748.285 113.511C749.099 115.22 750.035 116.888 751.093 118.516ZM737.787 121.934C737.95 121.201 738.031 120.672 738.031 120.347C737.624 119.858 737.299 119.329 737.055 118.76C736.892 118.19 736.648 117.661 736.322 117.173C735.915 117.58 735.59 117.783 735.346 117.783C735.183 117.783 735.02 117.702 734.857 117.539C734.369 117.946 733.881 118.312 733.393 118.638C732.986 118.963 732.579 119.329 732.172 119.736C731.765 120.469 731.358 121.038 730.951 121.445C730.544 121.852 730.341 122.422 730.341 123.154C730.91 123.643 731.602 123.805 732.416 123.643C733.23 123.48 733.962 123.398 734.613 123.398C735.264 123.236 735.793 123.032 736.2 122.788C736.688 122.544 737.217 122.259 737.787 121.934ZM876.703 103.379C876.622 104.355 876.703 105.291 876.947 106.187C877.191 107.082 877.476 107.977 877.802 108.872C878.209 109.686 878.575 110.54 878.9 111.436C879.226 112.331 879.47 113.226 879.633 114.121C879.796 115.26 879.796 116.522 879.633 117.905C879.47 119.207 879.185 120.509 878.778 121.812C878.371 123.032 877.842 124.172 877.191 125.229C876.54 126.206 875.767 126.938 874.872 127.427C873.733 128.892 872.349 130.031 870.722 130.845C869.094 131.659 867.589 132.635 866.205 133.774C865.31 134.344 864.293 134.751 863.153 134.995C862.095 135.239 860.997 135.483 859.857 135.728C858.962 136.216 857.904 136.745 856.684 137.314C855.463 137.803 854.201 138.291 852.899 138.779C851.597 139.186 850.295 139.512 848.993 139.756C847.691 139.919 846.552 139.959 845.575 139.878C843.134 140.773 840.733 141.343 838.373 141.587C836.094 141.912 833.409 141.75 830.316 141.099C827.387 141.506 824.66 141.383 822.138 140.732C819.696 140.081 817.499 139.064 815.546 137.681C813.674 136.216 812.006 134.507 810.541 132.554C809.158 130.519 808.018 128.403 807.123 126.206C806.472 121.567 806.635 117.376 807.611 113.633C808.588 109.808 809.971 106.309 811.762 103.135C813.633 99.8796 815.749 96.9092 818.109 94.2236C820.469 91.4567 822.748 88.7712 824.945 86.167C825.434 86.3298 825.8 86.3298 826.044 86.167C826.369 85.9229 826.654 85.638 826.898 85.3125C827.143 84.9056 827.387 84.5394 827.631 84.2139C827.956 83.8883 828.323 83.6849 828.729 83.6035C829.299 82.3828 830.113 81.4876 831.171 80.918C832.31 80.2669 833.205 79.3717 833.856 78.2324C834.589 78.0697 835.199 77.8255 835.688 77.5C836.176 77.1745 836.623 76.8083 837.03 76.4014C837.519 75.9945 838.007 75.6283 838.495 75.3027C838.983 74.8958 839.553 74.611 840.204 74.4482V73.1055C841.669 72.4544 842.727 71.722 843.378 70.9082C844.11 70.013 844.965 68.9551 845.941 67.7344C846.674 67.653 847.243 67.6123 847.65 67.6123C848.139 67.6123 848.83 67.5309 849.726 67.3682C850.377 66.2288 850.946 65.3743 851.435 64.8047C852.004 64.235 852.818 63.6247 853.876 62.9736C854.853 63.4619 855.91 63.7874 857.05 63.9502C858.271 64.113 859.328 64.6419 860.224 65.5371C860.305 66.3509 860.549 67.002 860.956 67.4902C861.363 67.8971 861.811 68.304 862.299 68.7109C862.787 69.0365 863.235 69.4027 863.642 69.8096C864.13 70.2165 864.455 70.7861 864.618 71.5186C864.944 71.5999 865.147 71.5592 865.229 71.3965C865.391 71.2337 865.635 71.193 865.961 71.2744C866.205 72.4137 866.49 73.1868 866.815 73.5938C867.141 73.9193 867.466 74.611 867.792 75.6689C867.385 76.4827 867.06 77.3372 866.815 78.2324C866.653 79.0462 866.164 79.6566 865.351 80.0635C865.269 80.6331 865.432 80.9587 865.839 81.04C866.246 81.04 866.49 81.2435 866.571 81.6504C866.653 82.3828 866.531 82.9118 866.205 83.2373C868.158 86.4111 869.908 89.7884 871.454 93.3691C873 96.8685 874.75 100.205 876.703 103.379ZM861.444 114.976C861.77 114.08 862.177 113.348 862.665 112.778C863.235 112.209 863.56 111.354 863.642 110.215C863.235 109.564 862.991 109.076 862.909 108.75C862.828 108.343 862.787 107.733 862.787 106.919C860.997 104.396 859.451 101.711 858.148 98.8623C856.846 95.9326 855.382 93.2064 853.754 90.6836C853.591 91.0091 853.306 91.3346 852.899 91.6602C852.493 91.9857 852.045 91.9043 851.557 91.416C851.394 92.0671 851.109 92.5553 850.702 92.8809C850.295 93.125 849.848 93.2471 849.359 93.2471C848.871 93.1657 848.342 93.0436 847.772 92.8809C847.284 92.6367 846.837 92.3519 846.43 92.0264C844.07 93.8981 841.71 95.7292 839.35 97.5195C836.99 99.3099 834.874 101.385 833.002 103.745C832.676 103.908 832.473 103.989 832.392 103.989C832.31 103.908 832.066 103.949 831.659 104.111C831.008 105.658 830.194 107.082 829.218 108.384C828.323 109.604 827.427 110.866 826.532 112.168C825.637 113.47 824.864 114.854 824.213 116.318C823.562 117.783 823.196 119.492 823.114 121.445C824.498 122.585 826.125 123.276 827.997 123.521C829.869 123.765 831.781 123.805 833.734 123.643C835.769 123.48 837.722 123.236 839.594 122.91C841.547 122.503 843.337 122.3 844.965 122.3C848.383 121.486 851.312 120.428 853.754 119.126C856.195 117.743 858.759 116.359 861.444 114.976ZM901.239 135.85C900.751 138.617 899.368 140.529 897.089 141.587C896.031 141.668 895.217 141.628 894.647 141.465C894.159 141.302 893.63 141.099 893.061 140.854C892.328 140.529 891.677 140.326 891.107 140.244L889.765 139.268C889.602 138.861 889.398 138.454 889.154 138.047C888.91 137.64 888.625 137.233 888.3 136.826C887.649 136.012 886.998 134.995 886.347 133.774C885.858 131.414 885.777 129.461 886.103 127.915C886.428 126.287 886.835 124.701 887.323 123.154C887.486 122.666 887.649 122.178 887.812 121.689C887.974 121.12 888.137 120.591 888.3 120.103C886.184 118.963 884.597 117.336 883.539 115.22C882.481 113.104 881.871 111.069 881.708 109.116C881.952 107.57 882.4 106.349 883.051 105.454C883.702 104.478 884.434 103.704 885.248 103.135C886.143 102.565 887.038 102.118 887.934 101.792C888.91 101.466 889.846 101.182 890.741 100.938L892.328 101.548C893.061 102.28 893.793 102.85 894.525 103.257C895.095 103.013 895.461 102.646 895.624 102.158C895.868 101.589 896.072 100.978 896.234 100.327C896.479 99.5947 896.723 98.8623 896.967 98.1299C897.292 97.3975 897.659 96.665 898.065 95.9326C897.984 94.8747 898.147 93.8981 898.554 93.0029C897.984 92.596 897.374 92.3519 896.723 92.2705C896.56 92.2705 896.153 92.1891 895.502 92.0264C894.525 91.2939 893.834 90.6836 893.427 90.1953C893.101 89.6257 892.776 89.0967 892.45 88.6084C891.962 87.5505 891.352 86.696 890.619 86.0449L889.398 85.1904L890.009 83.9697C890.172 83.807 890.253 83.6035 890.253 83.3594C890.253 83.1152 890.09 82.749 889.765 82.2607C889.602 81.3656 889.602 80.7552 889.765 80.4297L890.009 79.209C890.66 78.3138 890.985 77.8255 890.985 77.7441L892.084 76.6455C893.712 76.2386 895.299 75.791 896.845 75.3027C898.472 74.7331 900.1 74.1634 901.728 73.5938C903.274 73.1055 904.82 72.6172 906.366 72.1289C907.994 71.5592 909.621 71.071 911.249 70.6641C911.819 70.2572 912.429 70.013 913.08 69.9316C913.731 69.7689 914.341 69.6468 914.911 69.5654C915.399 69.484 915.847 69.4434 916.254 69.4434C916.661 69.362 916.946 69.1992 917.108 68.9551C918.085 68.6296 919.224 68.2633 920.526 67.8564C922.561 67.2868 925.246 66.6764 928.583 66.0254C931.92 65.293 935.663 64.7233 939.813 64.3164L941.889 64.1943C942.296 64.2757 942.702 64.3164 943.109 64.3164C943.516 64.235 943.923 64.1943 944.33 64.1943C947.992 64.1943 950.312 65.293 951.288 67.4902C952.021 67.8971 952.672 68.3447 953.241 68.833C953.811 69.3213 954.34 69.8096 954.828 70.2979C955.072 70.6234 955.316 70.9082 955.561 71.1523C955.886 71.3965 956.13 71.5592 956.293 71.6406C957.676 73.7565 958.124 75.6283 957.636 77.2559C956.903 78.3138 955.967 78.9242 954.828 79.0869L953.485 79.8193C952.59 79.738 951.898 79.6973 951.41 79.6973C951.003 79.6973 950.556 79.6973 950.067 79.6973C948.033 79.6973 945.673 79.8193 942.987 80.0635C940.302 80.3076 937.535 80.6738 934.687 81.1621C931.92 81.569 929.234 82.098 926.63 82.749C924.026 83.4001 921.747 84.0918 919.794 84.8242L917.597 85.9229C917.027 86.818 916.701 87.5505 916.62 88.1201C916.539 88.6084 916.457 89.0967 916.376 89.585C916.295 89.9105 916.213 90.236 916.132 90.5615C916.132 90.887 916.091 91.2533 916.01 91.6602C914.626 93.3691 913.935 95.4036 913.935 97.7637C913.365 98.7402 912.999 99.4727 912.836 99.9609C912.673 100.368 912.673 100.897 912.836 101.548C914.382 102.199 915.847 102.443 917.23 102.28C918.614 102.118 919.997 101.914 921.381 101.67C923.253 101.344 925.165 101.06 927.118 100.815C929.153 100.571 931.228 100.449 933.344 100.449H937.25L936.273 101.426L936.884 103.135C937.372 103.379 937.698 103.542 937.86 103.623C938.104 103.704 938.349 103.826 938.593 103.989L939.203 105.088C939.529 105.251 939.813 105.535 940.058 105.942C940.383 106.349 940.587 106.96 940.668 107.773L935.663 114.854L933.954 115.342C932.571 115.26 931.35 115.423 930.292 115.83C929.722 115.993 929.153 116.156 928.583 116.318C928.013 116.4 927.403 116.44 926.752 116.44C925.124 116.766 923.741 117.01 922.602 117.173C921.544 117.336 920.445 117.498 919.306 117.661C917.841 117.824 916.417 118.068 915.033 118.394C913.65 118.638 912.348 119.004 911.127 119.492C910.313 119.492 909.743 119.492 909.418 119.492C908.767 119.492 908.075 119.614 907.343 119.858C906.692 120.021 906.081 120.184 905.512 120.347C905.105 120.672 904.82 121.038 904.657 121.445C904.494 121.771 904.332 122.137 904.169 122.544C903.843 123.683 903.396 124.619 902.826 125.352V127.183C902.175 127.996 901.768 128.647 901.605 129.136C901.524 129.543 901.402 129.95 901.239 130.356C901.076 130.601 900.954 130.845 900.873 131.089C900.792 131.252 900.751 131.455 900.751 131.699C901.402 132.92 901.565 134.303 901.239 135.85ZM1056.76 81.2842C1054.72 81.2842 1052.53 81.4469 1050.17 81.7725C1047.81 82.0166 1045.49 82.3014 1043.21 82.627C1041.58 82.8711 1039.99 83.0745 1038.45 83.2373C1036.98 83.4001 1035.64 83.5221 1034.42 83.6035C1033.85 85.3939 1033.28 86.9808 1032.71 88.3643C1032.14 89.7477 1031.53 91.0905 1030.88 92.3926C1030.23 93.776 1029.62 95.2002 1029.05 96.665C1028.56 98.0485 1028.07 99.554 1027.58 101.182C1026.77 102.484 1026.08 103.704 1025.51 104.844C1025.02 105.902 1024.61 107.122 1024.29 108.506C1023.31 109.727 1022.58 111.029 1022.09 112.412C1021.6 113.714 1021.23 114.854 1020.99 115.83L1020.5 117.295C1020.01 117.783 1019.73 118.19 1019.65 118.516C1019.57 118.76 1019.36 119.004 1019.04 119.248C1018.96 120.143 1018.67 121.038 1018.18 121.934C1018.02 122.34 1017.9 122.747 1017.82 123.154C1017.74 123.48 1017.69 123.724 1017.69 123.887C1017.69 124.701 1017.49 125.229 1017.08 125.474C1017.17 125.881 1017.17 126.328 1017.08 126.816C1017 127.223 1016.92 127.63 1016.84 128.037C1016.6 129.014 1016.51 129.787 1016.6 130.356C1016.84 130.682 1017.04 130.967 1017.21 131.211C1017.45 131.455 1017.61 131.781 1017.69 132.188C1018.18 132.513 1018.55 132.716 1018.79 132.798C1019.12 133.042 1019.61 133.327 1020.26 133.652L1021.36 134.873C1021.76 137.233 1021.4 139.105 1020.26 140.488C1019.04 142.035 1016.96 142.808 1014.03 142.808H1012.57C1012.16 142.401 1011.92 142.075 1011.83 141.831C1011.18 141.587 1010.65 141.383 1010.25 141.221C1009.84 141.058 1009.47 140.732 1009.15 140.244C1008.09 139.756 1007.24 139.349 1006.59 139.023L1005.49 138.413C1005.49 137.518 1005.49 137.03 1005.49 136.948C1004.92 136.216 1004.47 135.402 1004.14 134.507C1003.9 133.612 1003.7 132.716 1003.53 131.821C1003.37 131.089 1003.17 130.397 1002.92 129.746C1002.76 129.095 1002.52 128.525 1002.19 128.037C1002.03 123.317 1002.48 119.329 1003.53 116.074C1004.59 112.819 1005.69 109.686 1006.83 106.675C1007.48 105.047 1008.13 103.42 1008.78 101.792C1009.43 100.083 1010 98.3333 1010.49 96.543L1011.59 95.3223C1012.16 94.0202 1012.61 92.9622 1012.93 92.1484C1013.34 91.2533 1013.75 90.3581 1014.15 89.4629C1014.4 88.8932 1014.6 88.3643 1014.76 87.876C1015.01 87.3063 1015.21 86.818 1015.38 86.4111C1014.89 86.4111 1014.44 86.4518 1014.03 86.5332C1013.63 86.5332 1013.22 86.5739 1012.81 86.6553C1012.32 86.7367 1011.88 86.818 1011.47 86.8994C1011.06 86.8994 1010.65 86.8994 1010.25 86.8994C1009.68 86.8994 1009.27 86.8587 1009.03 86.7773C1008.13 87.1842 1007.16 87.3877 1006.1 87.3877H1004.88C1004.63 87.3877 1004.39 87.3877 1004.14 87.3877C1003.98 87.3063 1003.82 87.2656 1003.66 87.2656C1002.84 87.2656 1002.19 87.3877 1001.7 87.6318C1000.73 87.6318 999.791 87.6318 998.896 87.6318H997.675C997.512 87.6318 997.309 87.6725 997.064 87.7539C996.82 87.7539 996.617 87.7539 996.454 87.7539C995.884 87.7539 995.274 87.7132 994.623 87.6318C993.972 87.4691 993.28 87.1842 992.548 86.7773C991.571 85.4753 990.92 84.7835 990.595 84.7021L989.496 83.2373C989.415 82.749 989.293 82.3014 989.13 81.8945C988.967 81.4062 988.804 80.8773 988.642 80.3076C988.316 79.4938 987.991 78.6393 987.665 77.7441C987.421 76.7676 987.299 75.6283 987.299 74.3262C987.38 73.6751 987.543 73.1868 987.787 72.8613C988.031 72.5358 988.235 72.251 988.397 72.0068L988.764 70.1758L990.351 70.2979H993.769C996.373 70.2979 999.018 70.2165 1001.7 70.0537C1004.39 69.8096 1007.16 69.5654 1010 69.3213C1011.63 69.1585 1013.26 68.9958 1014.89 68.833C1016.6 68.6702 1018.35 68.5075 1020.14 68.3447C1020.46 67.6123 1020.79 66.9206 1021.11 66.2695L1022.33 65.6592C1023.8 65.5778 1024.82 65.7812 1025.38 66.2695C1026.04 66.6764 1026.56 67.0833 1026.97 67.4902C1028.76 67.3275 1030.55 67.1647 1032.34 67.002C1034.21 66.7578 1036.09 66.473 1037.96 66.1475C1040.72 65.7406 1043.49 65.3743 1046.26 65.0488C1049.11 64.7233 1051.83 64.5605 1054.44 64.5605C1055.58 64.5605 1056.68 64.6012 1057.73 64.6826C1058.79 64.764 1059.77 64.8861 1060.66 65.0488L1061.88 65.9033C1062.13 66.3916 1062.45 66.8392 1062.86 67.2461C1063.35 67.653 1063.84 68.0599 1064.33 68.4668C1065.3 69.362 1066.28 70.4199 1067.25 71.6406C1068.23 72.8613 1068.6 74.6517 1068.35 77.0117C1067.7 77.9883 1067.21 78.5579 1066.89 78.7207L1065.79 80.1855L1064.57 80.0635C1064.08 80.0635 1063.63 80.1449 1063.23 80.3076C1062.82 80.389 1062.41 80.5111 1062.01 80.6738C1061.68 80.8366 1061.35 80.9993 1061.03 81.1621C1060.7 81.2435 1060.34 81.3249 1059.93 81.4062C1059.2 81.4062 1058.59 81.4062 1058.1 81.4062C1057.69 81.3249 1057.25 81.2842 1056.76 81.2842ZM1109.74 128.159C1109.9 130.275 1109.65 132.025 1109 133.408C1108.35 134.792 1107.46 135.972 1106.32 136.948C1105.18 137.925 1103.88 138.698 1102.41 139.268C1100.95 139.837 1099.52 140.366 1098.14 140.854C1097.49 140.448 1096.84 140.041 1096.19 139.634C1095.62 139.146 1094.92 138.779 1094.11 138.535C1093.05 136.582 1092.04 134.873 1091.06 133.408C1090.08 131.862 1089.63 130.112 1089.72 128.159C1089.72 128.078 1089.76 127.63 1089.84 126.816C1090 126.003 1090.16 125.107 1090.33 124.131C1090.57 123.154 1090.73 122.259 1090.81 121.445C1090.98 120.55 1091.06 120.062 1091.06 119.98C1089.19 120.143 1087.23 120.55 1085.2 121.201C1083.16 121.852 1081.17 122.625 1079.22 123.521C1077.35 124.416 1075.56 125.311 1073.85 126.206C1072.22 127.101 1070.88 127.874 1069.82 128.525C1069.82 128.77 1069.66 129.38 1069.33 130.356C1069 131.252 1068.6 132.228 1068.11 133.286C1067.62 134.263 1067.09 135.158 1066.52 135.972C1065.95 136.785 1065.38 137.192 1064.81 137.192C1064.89 137.437 1065.02 137.681 1065.18 137.925C1065.34 138.169 1065.34 138.494 1065.18 138.901C1064.04 139.227 1063.02 139.634 1062.13 140.122C1061.23 140.692 1060.3 141.139 1059.32 141.465C1058.34 141.872 1057.29 142.075 1056.15 142.075C1055.01 142.075 1053.66 141.668 1052.12 140.854C1052.12 140.366 1051.91 139.959 1051.51 139.634C1051.1 139.227 1050.65 138.901 1050.17 138.657C1049.76 138.332 1049.39 138.088 1049.07 137.925C1048.74 137.681 1048.58 137.477 1048.58 137.314C1048.17 137.396 1048.01 137.111 1048.09 136.46C1048.17 135.809 1048.5 135.646 1049.07 135.972C1048.17 134.832 1047.6 133.856 1047.36 133.042C1047.19 132.147 1046.75 131.048 1046.01 129.746C1046.18 129.583 1046.34 129.299 1046.5 128.892C1046.58 128.485 1046.67 128.118 1046.75 127.793C1046.83 127.467 1046.95 127.223 1047.11 127.061C1047.28 126.898 1047.48 126.938 1047.72 127.183C1047.56 126.45 1047.56 125.84 1047.72 125.352C1047.89 124.863 1048.05 124.416 1048.21 124.009C1048.37 123.602 1048.5 123.195 1048.58 122.788C1048.66 122.381 1048.54 121.934 1048.21 121.445C1049.51 119.655 1050.37 117.743 1050.78 115.708C1051.18 113.592 1051.43 111.68 1051.51 109.971C1052.08 109.401 1052.57 108.587 1052.97 107.529C1053.46 106.471 1053.83 105.413 1054.07 104.355C1054.32 103.216 1054.4 102.158 1054.32 101.182C1054.32 100.124 1054.19 99.2692 1053.95 98.6182C1054.03 98.2113 1054.48 98.0892 1055.29 98.252C1055.78 95.5664 1056.11 92.5553 1056.27 89.2188C1056.51 85.8008 1056.88 82.5863 1057.37 79.5752C1057.86 76.4827 1058.67 73.7972 1059.81 71.5186C1060.95 69.1585 1062.78 67.6123 1065.3 66.8799C1065.79 68.5889 1066.4 70.0944 1067.13 71.3965C1067.95 72.6986 1068.8 73.96 1069.7 75.1807C1070.67 76.32 1071.61 77.5 1072.5 78.7207C1073.48 79.9414 1074.38 81.3249 1075.19 82.8711C1075.11 84.4173 1074.95 86.2077 1074.7 88.2422C1074.46 90.2767 1074.13 92.3519 1073.72 94.4678C1073.4 96.5837 1073.03 98.6182 1072.63 100.571C1072.3 102.524 1071.97 104.193 1071.65 105.576C1071.73 105.983 1071.93 106.227 1072.26 106.309C1072.67 106.39 1072.75 106.756 1072.5 107.407C1074.46 106.919 1076.49 106.471 1078.61 106.064C1080.72 105.658 1082.84 105.21 1084.96 104.722C1087.07 104.233 1089.11 103.704 1091.06 103.135C1093.09 102.484 1094.96 101.711 1096.67 100.815C1097.08 97.6416 1097.61 94.4678 1098.26 91.2939C1098.91 88.1201 1098.99 84.8649 1098.5 81.5283C1098.91 81.2028 1099.24 80.7959 1099.48 80.3076C1099.73 79.8193 1100.13 79.4938 1100.7 79.3311C1100.3 77.7848 1100.13 76.1572 1100.21 74.4482C1100.3 72.7393 1100.58 71.1117 1101.07 69.5654C1101.64 68.0192 1102.41 66.7171 1103.39 65.6592C1104.45 64.5199 1105.71 63.7874 1107.17 63.4619C1108.07 64.764 1108.84 66.1882 1109.49 67.7344C1110.14 69.1992 1110.79 70.7048 1111.44 72.251C1112.18 73.7158 1112.91 75.14 1113.64 76.5234C1114.46 77.8255 1115.47 78.9648 1116.69 79.9414C1116.94 82.3014 1117.1 84.7428 1117.18 87.2656C1117.34 89.7884 1117.47 92.3519 1117.55 94.9561C1116.9 98.0485 1116.16 101.06 1115.35 103.989C1114.62 106.838 1114.09 109.889 1113.76 113.145C1113.19 113.796 1112.75 114.528 1112.42 115.342C1112.1 116.156 1111.77 117.01 1111.44 117.905C1111.12 118.719 1110.75 119.533 1110.35 120.347C1109.94 121.079 1109.45 121.73 1108.88 122.3C1109.21 123.276 1109.25 124.212 1109 125.107C1108.84 125.921 1109.08 126.938 1109.74 128.159ZM1188.1 71.2744C1188.19 71.8441 1188.19 72.2917 1188.1 72.6172C1188.1 72.8613 1188.06 73.1055 1187.98 73.3496C1187.98 73.5938 1187.98 73.8786 1187.98 74.2041C1187.98 74.4482 1188.06 74.8551 1188.23 75.4248C1186.52 78.1917 1184.52 80.1042 1182.25 81.1621C1180.05 82.1387 1177.65 82.8711 1175.04 83.3594C1172.44 83.7663 1169.75 84.2139 1166.99 84.7021C1164.3 85.1904 1161.62 86.2484 1158.93 87.876C1157.87 87.4691 1156.9 87.4691 1156 87.876C1155.19 88.2829 1153.97 88.4049 1152.34 88.2422C1151.85 88.7305 1151.24 89.0967 1150.51 89.3408C1149.77 89.5036 1149.04 89.707 1148.31 89.9512C1148.64 90.6836 1148.76 91.4567 1148.68 92.2705C1148.68 93.0029 1148.8 93.6133 1149.04 94.1016C1151.89 94.3457 1155.02 94.305 1158.44 93.9795C1161.94 93.654 1165.36 93.4505 1168.7 93.3691C1168.78 93.776 1168.74 94.0609 1168.57 94.2236C1168.41 94.305 1168.37 94.5085 1168.45 94.834C1169.02 95.2409 1169.59 95.7699 1170.16 96.4209C1170.73 96.9906 1171.3 97.5602 1171.87 98.1299C1172.44 98.6995 1173.01 99.1878 1173.58 99.5947C1174.23 99.9202 1174.96 100.042 1175.78 99.9609C1176.1 100.612 1176.3 101.344 1176.39 102.158C1176.55 102.891 1176.47 103.664 1176.14 104.478C1174.84 105.373 1173.54 106.309 1172.24 107.285C1170.93 108.18 1169.55 108.994 1168.08 109.727C1166.7 110.459 1165.2 111.069 1163.57 111.558C1162.02 111.965 1160.27 112.127 1158.32 112.046C1157.91 112.046 1157.59 112.046 1157.34 112.046C1157.18 112.046 1156.94 111.924 1156.61 111.68C1155.96 112.087 1155.02 112.209 1153.8 112.046C1152.66 111.883 1151.77 112.005 1151.12 112.412C1150.22 112.005 1149.12 111.842 1147.82 111.924C1146.6 111.924 1145.5 111.761 1144.53 111.436C1143.22 113.145 1142.04 114.976 1140.99 116.929C1139.93 118.882 1138.99 120.957 1138.18 123.154C1140.94 123.561 1143.22 123.724 1145.01 123.643C1146.89 123.561 1148.64 123.439 1150.26 123.276C1151.89 123.032 1153.56 122.829 1155.27 122.666C1156.98 122.422 1159.13 122.34 1161.74 122.422C1163.36 121.527 1165.28 120.957 1167.47 120.713C1169.75 120.387 1171.83 119.899 1173.7 119.248C1174.35 119.492 1174.92 119.94 1175.41 120.591C1175.9 121.16 1176.35 121.73 1176.75 122.3C1177.24 122.788 1177.73 123.236 1178.22 123.643C1178.71 124.049 1179.32 124.212 1180.05 124.131C1180.37 124.456 1180.58 124.863 1180.66 125.352C1180.82 125.758 1180.94 126.165 1181.02 126.572C1181.11 126.979 1181.23 127.345 1181.39 127.671C1181.63 127.915 1182 127.996 1182.49 127.915C1181.27 130.601 1179.84 132.676 1178.22 134.141C1176.67 135.524 1174.88 136.582 1172.85 137.314C1170.81 138.047 1168.53 138.617 1166.01 139.023C1163.57 139.43 1160.84 139.919 1157.83 140.488C1157.1 140.651 1156.49 140.61 1156 140.366C1155.51 140.203 1154.94 140.122 1154.29 140.122C1152.42 140.529 1150.18 140.895 1147.58 141.221C1144.97 141.546 1142.33 141.668 1139.64 141.587C1136.96 141.506 1134.39 141.139 1131.95 140.488C1129.51 139.919 1127.52 138.861 1125.97 137.314C1125.32 136.745 1124.87 136.094 1124.63 135.361C1124.47 134.548 1123.94 133.937 1123.04 133.53C1122.96 132.472 1122.8 131.292 1122.55 129.99C1122.31 128.688 1122.06 127.345 1121.82 125.962C1121.58 124.497 1121.37 123.073 1121.21 121.689C1121.13 120.306 1121.21 119.045 1121.45 117.905C1121.7 116.685 1122.19 115.586 1122.92 114.609C1123.73 113.633 1124.02 112.575 1123.77 111.436C1124.18 111.354 1124.42 111.151 1124.51 110.825C1124.59 110.418 1124.91 110.256 1125.48 110.337C1125.97 108.872 1126.5 107.489 1127.07 106.187C1127.64 104.884 1128.21 103.623 1128.78 102.402C1129.43 101.182 1130.04 99.9609 1130.61 98.7402C1131.26 97.4382 1131.87 96.014 1132.44 94.4678C1131.3 93.4098 1130.45 92.2705 1129.88 91.0498C1129.39 89.7477 1129.02 88.4863 1128.78 87.2656C1128.53 85.9635 1128.33 84.6615 1128.17 83.3594C1128.01 81.9759 1127.72 80.5924 1127.31 79.209C1128.13 77.9883 1129.1 77.0117 1130.24 76.2793C1131.46 75.4655 1132.77 74.8145 1134.15 74.3262C1135.53 73.8379 1137.04 73.431 1138.67 73.1055C1140.29 72.7799 1142 72.4137 1143.79 72.0068C1147.05 70.9489 1149.94 70.1351 1152.46 69.5654C1155.06 68.9958 1157.59 68.5482 1160.03 68.2227C1162.55 67.8158 1165.16 67.4495 1167.84 67.124C1170.53 66.7985 1173.58 66.3102 1177 65.6592C1177.73 66.3916 1178.42 66.7578 1179.07 66.7578C1179.4 66.0254 1179.76 65.8219 1180.17 66.1475C1180.66 66.3916 1180.86 66.1475 1180.78 65.415C1181.59 66.7985 1182.61 67.9785 1183.83 68.9551C1185.13 69.8503 1186.56 70.6234 1188.1 71.2744ZM1300.17 141.587C1297.32 140.285 1295.04 138.372 1293.33 135.85C1291.7 133.327 1290.07 130.519 1288.45 127.427C1288.2 126.938 1287.96 126.45 1287.71 125.962C1287.47 125.474 1287.23 125.026 1286.98 124.619L1285.27 121.445L1284.3 119.492L1282.83 120.835L1280.63 122.788L1279.41 124.009C1277.3 125.962 1275.14 127.915 1272.94 129.868C1270.83 131.74 1268.55 133.449 1266.11 134.995C1263.75 136.46 1261.22 137.681 1258.54 138.657C1255.93 139.552 1253.09 140.041 1249.99 140.122L1247.31 138.779C1245.76 137.965 1244.46 137.233 1243.4 136.582C1242.34 135.931 1241.12 134.914 1239.74 133.53C1239.33 132.798 1238.97 132.106 1238.64 131.455C1238.4 130.804 1238.11 130.153 1237.79 129.502C1236.89 127.874 1236.16 126.41 1235.59 125.107C1235.02 123.805 1234.45 122.34 1233.88 120.713C1234.12 119.574 1234.49 117.661 1234.98 114.976C1235.47 112.209 1236.04 109.198 1236.69 105.942C1237.42 102.687 1238.15 99.432 1238.89 96.1768C1239.7 92.8402 1240.51 89.9512 1241.33 87.5098C1242.06 85.3939 1242.87 83.1559 1243.77 80.7959C1244.75 78.4359 1245.76 76.2793 1246.82 74.3262C1247.96 72.2917 1249.18 70.5827 1250.48 69.1992C1251.78 67.7344 1253.17 66.8799 1254.63 66.6357C1255.04 67.2054 1255.49 67.6123 1255.98 67.8564C1256.46 68.1006 1256.91 68.304 1257.32 68.4668C1258.46 70.0944 1259.56 71.4779 1260.61 72.6172C1261.75 73.7565 1263.06 74.8958 1264.52 76.0352C1264.11 78.0697 1263.5 80.3483 1262.69 82.8711C1261.96 85.3125 1261.14 87.7946 1260.25 90.3174C1259.43 92.7588 1258.62 95.1595 1257.81 97.5195C1256.99 99.8796 1256.34 101.914 1255.85 103.623C1255.37 105.007 1254.96 106.553 1254.63 108.262C1253.9 111.273 1253.21 115.382 1252.56 120.591C1253.53 120.347 1254.59 119.818 1255.73 119.004C1256.87 118.19 1257.97 117.336 1259.03 116.44C1260.25 115.464 1261.47 114.365 1262.69 113.145C1264.24 111.598 1265.54 110.174 1266.6 108.872C1267.65 107.57 1268.63 106.227 1269.53 104.844C1270.5 103.46 1271.48 101.955 1272.46 100.327C1273.43 98.6182 1274.61 96.6243 1276 94.3457C1277.22 92.3926 1278.48 90.3174 1279.78 88.1201C1281.16 85.8415 1282.51 83.6849 1283.81 81.6504C1285.19 79.5345 1286.53 77.6221 1287.84 75.9131C1289.14 74.2041 1290.32 72.8613 1291.38 71.8848C1292.03 72.6986 1292.84 73.4717 1293.82 74.2041C1294.88 74.9365 1295.97 75.5062 1297.11 75.9131C1297.6 76.6455 1298.05 77.3372 1298.46 77.9883C1298.94 78.5579 1299.39 79.0869 1299.8 79.5752C1300.29 80.3076 1300.73 80.9993 1301.14 81.6504C1301.63 82.3014 1302.08 82.9525 1302.48 83.6035C1302.4 84.1732 1302.28 84.9056 1302.12 85.8008C1301.96 86.696 1301.75 87.6725 1301.51 88.7305C1301.35 89.7884 1301.14 90.887 1300.9 92.0264C1300.65 93.0843 1300.41 94.1016 1300.17 95.0781C1299.51 98.1706 1299.03 100.49 1298.7 102.036C1298.37 103.582 1298.13 104.803 1297.97 105.698C1297.89 106.593 1297.81 107.367 1297.72 108.018C1297.72 108.587 1297.72 109.401 1297.72 110.459C1297.64 111.273 1297.68 112.087 1297.85 112.9C1297.93 113.633 1298.09 114.406 1298.33 115.22C1298.58 116.034 1298.9 116.766 1299.31 117.417L1304.19 113.633C1305.58 112.575 1306.88 111.151 1308.1 109.36C1309.4 107.489 1310.62 105.373 1311.76 103.013C1312.98 100.571 1314.16 97.9264 1315.3 95.0781C1316.44 92.2298 1317.58 89.3408 1318.72 86.4111C1320.43 82.098 1322.14 77.9069 1323.85 73.8379C1325.64 69.7689 1327.35 66.6357 1328.97 64.4385C1330.76 65.5778 1332.31 66.7578 1333.61 67.9785C1335 69.1178 1336.18 70.3792 1337.15 71.7627C1338.13 73.1462 1338.9 74.7331 1339.47 76.5234C1340.12 78.3138 1340.57 80.4297 1340.81 82.8711C1339.35 85.7194 1337.93 88.6491 1336.54 91.6602C1335.24 94.6712 1333.98 97.6823 1332.76 100.693C1331.13 104.6 1329.42 108.506 1327.63 112.412C1325.92 116.318 1324.01 120.062 1321.89 123.643C1319.78 127.142 1317.42 130.397 1314.81 133.408C1312.21 136.338 1309.2 138.82 1305.78 140.854C1304.89 140.61 1304.11 140.488 1303.46 140.488C1302.16 140.488 1301.06 140.854 1300.17 141.587ZM1405.76 103.379C1405.67 104.355 1405.76 105.291 1406 106.187C1406.24 107.082 1406.53 107.977 1406.85 108.872C1407.26 109.686 1407.63 110.54 1407.95 111.436C1408.28 112.331 1408.52 113.226 1408.69 114.121C1408.85 115.26 1408.85 116.522 1408.69 117.905C1408.52 119.207 1408.24 120.509 1407.83 121.812C1407.42 123.032 1406.9 124.172 1406.24 125.229C1405.59 126.206 1404.82 126.938 1403.92 127.427C1402.79 128.892 1401.4 130.031 1399.77 130.845C1398.15 131.659 1396.64 132.635 1395.26 133.774C1394.36 134.344 1393.35 134.751 1392.21 134.995C1391.15 135.239 1390.05 135.483 1388.91 135.728C1388.01 136.216 1386.96 136.745 1385.74 137.314C1384.52 137.803 1383.25 138.291 1381.95 138.779C1380.65 139.186 1379.35 139.512 1378.05 139.756C1376.74 139.919 1375.6 139.959 1374.63 139.878C1372.19 140.773 1369.79 141.343 1367.43 141.587C1365.15 141.912 1362.46 141.75 1359.37 141.099C1356.44 141.506 1353.71 141.383 1351.19 140.732C1348.75 140.081 1346.55 139.064 1344.6 137.681C1342.73 136.216 1341.06 134.507 1339.59 132.554C1338.21 130.519 1337.07 128.403 1336.18 126.206C1335.52 121.567 1335.69 117.376 1336.66 113.633C1337.64 109.808 1339.02 106.309 1340.81 103.135C1342.69 99.8796 1344.8 96.9092 1347.16 94.2236C1349.52 91.4567 1351.8 88.7712 1354 86.167C1354.49 86.3298 1354.85 86.3298 1355.1 86.167C1355.42 85.9229 1355.71 85.638 1355.95 85.3125C1356.2 84.9056 1356.44 84.5394 1356.68 84.2139C1357.01 83.8883 1357.38 83.6849 1357.78 83.6035C1358.35 82.3828 1359.17 81.4876 1360.22 80.918C1361.36 80.2669 1362.26 79.3717 1362.91 78.2324C1363.64 78.0697 1364.25 77.8255 1364.74 77.5C1365.23 77.1745 1365.68 76.8083 1366.08 76.4014C1366.57 75.9945 1367.06 75.6283 1367.55 75.3027C1368.04 74.8958 1368.61 74.611 1369.26 74.4482V73.1055C1370.72 72.4544 1371.78 71.722 1372.43 70.9082C1373.16 70.013 1374.02 68.9551 1374.99 67.7344C1375.73 67.653 1376.3 67.6123 1376.7 67.6123C1377.19 67.6123 1377.88 67.5309 1378.78 67.3682C1379.43 66.2288 1380 65.3743 1380.49 64.8047C1381.06 64.235 1381.87 63.6247 1382.93 62.9736C1383.91 63.4619 1384.96 63.7874 1386.1 63.9502C1387.32 64.113 1388.38 64.6419 1389.28 65.5371C1389.36 66.3509 1389.6 67.002 1390.01 67.4902C1390.42 67.8971 1390.86 68.304 1391.35 68.7109C1391.84 69.0365 1392.29 69.4027 1392.69 69.8096C1393.18 70.2165 1393.51 70.7861 1393.67 71.5186C1394 71.5999 1394.2 71.5592 1394.28 71.3965C1394.44 71.2337 1394.69 71.193 1395.01 71.2744C1395.26 72.4137 1395.54 73.1868 1395.87 73.5938C1396.19 73.9193 1396.52 74.611 1396.84 75.6689C1396.44 76.4827 1396.11 77.3372 1395.87 78.2324C1395.71 79.0462 1395.22 79.6566 1394.4 80.0635C1394.32 80.6331 1394.48 80.9587 1394.89 81.04C1395.3 81.04 1395.54 81.2435 1395.62 81.6504C1395.71 82.3828 1395.58 82.9118 1395.26 83.2373C1397.21 86.4111 1398.96 89.7884 1400.51 93.3691C1402.05 96.8685 1403.8 100.205 1405.76 103.379ZM1390.5 114.976C1390.82 114.08 1391.23 113.348 1391.72 112.778C1392.29 112.209 1392.61 111.354 1392.69 110.215C1392.29 109.564 1392.04 109.076 1391.96 108.75C1391.88 108.343 1391.84 107.733 1391.84 106.919C1390.05 104.396 1388.5 101.711 1387.2 98.8623C1385.9 95.9326 1384.43 93.2064 1382.81 90.6836C1382.64 91.0091 1382.36 91.3346 1381.95 91.6602C1381.55 91.9857 1381.1 91.9043 1380.61 91.416C1380.45 92.0671 1380.16 92.5553 1379.75 92.8809C1379.35 93.125 1378.9 93.2471 1378.41 93.2471C1377.92 93.1657 1377.39 93.0436 1376.83 92.8809C1376.34 92.6367 1375.89 92.3519 1375.48 92.0264C1373.12 93.8981 1370.76 95.7292 1368.4 97.5195C1366.04 99.3099 1363.93 101.385 1362.05 103.745C1361.73 103.908 1361.53 103.989 1361.44 103.989C1361.36 103.908 1361.12 103.949 1360.71 104.111C1360.06 105.658 1359.25 107.082 1358.27 108.384C1357.38 109.604 1356.48 110.866 1355.58 112.168C1354.69 113.47 1353.92 114.854 1353.27 116.318C1352.61 117.783 1352.25 119.492 1352.17 121.445C1353.55 122.585 1355.18 123.276 1357.05 123.521C1358.92 123.765 1360.83 123.805 1362.79 123.643C1364.82 123.48 1366.77 123.236 1368.65 122.91C1370.6 122.503 1372.39 122.3 1374.02 122.3C1377.44 121.486 1380.37 120.428 1382.81 119.126C1385.25 117.743 1387.81 116.359 1390.5 114.976ZM1432.86 127.305C1431.96 130.56 1431.15 133.042 1430.41 134.751C1429.76 136.379 1428.75 138.088 1427.36 139.878C1426.3 139.715 1425.57 139.837 1425.17 140.244C1424.76 140.651 1424.31 141.017 1423.82 141.343C1423.09 141.506 1422.56 141.506 1422.24 141.343C1421.91 141.18 1421.62 140.977 1421.38 140.732C1421.14 140.57 1420.81 140.366 1420.4 140.122C1420.08 139.959 1419.55 139.878 1418.82 139.878C1418.65 139.227 1418.45 138.617 1418.21 138.047C1418.04 137.477 1417.52 137.274 1416.62 137.437C1416.78 136.785 1416.82 136.257 1416.74 135.85C1416.66 135.361 1416.54 134.954 1416.38 134.629C1416.29 134.222 1416.21 133.856 1416.13 133.53C1416.05 133.123 1416.09 132.635 1416.25 132.065C1415.85 132.065 1415.52 131.781 1415.28 131.211C1415.03 130.641 1414.75 130.072 1414.42 129.502C1414.67 128.037 1414.91 126.654 1415.16 125.352C1415.4 124.049 1415.68 122.829 1416.01 121.689C1416.42 120.55 1416.74 119.411 1416.99 118.271C1417.23 117.132 1417.11 115.952 1416.62 114.731C1416.95 114.976 1417.19 114.935 1417.35 114.609C1417.52 114.202 1417.64 113.714 1417.72 113.145C1417.8 112.493 1417.84 111.883 1417.84 111.313C1417.84 110.662 1417.8 110.133 1417.72 109.727C1418.53 107.611 1419.18 105.454 1419.67 103.257C1420.24 100.978 1420.73 98.7402 1421.14 96.543C1421.62 94.3457 1422.11 92.1891 1422.6 90.0732C1423.09 87.9574 1423.74 86.0042 1424.55 84.2139C1425.45 84.0511 1426.43 84.1732 1427.48 84.5801C1428.62 84.9056 1429.32 85.3532 1429.56 85.9229C1431.68 84.2952 1433.55 82.3421 1435.17 80.0635C1436.8 77.7035 1438.47 75.4248 1440.18 73.2275C1441.89 71.0303 1443.76 69.0771 1445.79 67.3682C1447.91 65.6592 1450.56 64.6419 1453.73 64.3164C1455.36 65.5371 1457.15 66.7985 1459.1 68.1006C1461.14 69.3213 1462.8 70.9489 1464.11 72.9834C1464.76 73.3089 1465.29 73.6751 1465.69 74.082C1466.18 74.4076 1466.75 74.7738 1467.4 75.1807V76.6455C1468.38 77.5407 1469.15 78.5986 1469.72 79.8193C1470.37 80.9587 1470.94 82.2201 1471.43 83.6035C1471.92 84.9056 1472.41 86.2484 1472.89 87.6318C1473.38 88.9339 1473.95 90.1953 1474.6 91.416C1474.44 91.8229 1474.36 92.1891 1474.36 92.5146C1474.36 92.7588 1474.4 93.0436 1474.48 93.3691C1474.64 93.6947 1474.77 94.0202 1474.85 94.3457C1474.93 94.6712 1474.93 95.1188 1474.85 95.6885C1474.6 99.2692 1473.42 102.158 1471.31 104.355C1469.27 106.553 1466.79 108.384 1463.86 109.849C1460.93 111.232 1457.8 112.412 1454.46 113.389C1451.13 114.365 1448.11 115.423 1445.43 116.562C1445.43 116.888 1445.55 117.051 1445.79 117.051C1446.12 117.051 1446.24 117.254 1446.16 117.661C1448.11 118.882 1449.66 119.858 1450.8 120.591C1451.94 121.323 1453 121.934 1453.97 122.422C1455.03 122.91 1456.13 123.358 1457.27 123.765C1458.49 124.09 1460.16 124.497 1462.27 124.985C1464.39 125.474 1466.02 125.881 1467.16 126.206C1468.38 126.45 1469.48 126.694 1470.45 126.938C1471.43 127.101 1472.41 127.264 1473.38 127.427C1474.44 127.508 1475.91 127.63 1477.78 127.793C1478.51 128.525 1479.12 129.421 1479.61 130.479C1480.18 131.455 1480.54 132.472 1480.71 133.53C1480.87 134.507 1480.91 135.483 1480.83 136.46C1480.75 137.355 1480.46 138.088 1479.97 138.657C1480.06 138.901 1480.22 139.023 1480.46 139.023C1480.79 138.942 1481.11 138.942 1481.44 139.023C1480.95 139.349 1480.54 139.756 1480.22 140.244C1479.89 140.732 1479.57 141.221 1479.24 141.709C1478.92 142.197 1478.55 142.604 1478.14 142.93C1477.74 143.337 1477.17 143.581 1476.43 143.662C1473.91 144.639 1470.74 144.679 1466.91 143.784C1463.09 142.97 1458.25 141.424 1452.39 139.146C1449.46 138.006 1447.06 137.03 1445.18 136.216C1443.39 135.321 1441.81 134.466 1440.42 133.652C1439.12 132.757 1437.9 131.821 1436.76 130.845C1435.7 129.868 1434.4 128.688 1432.86 127.305ZM1450.31 85.4346C1449.42 86.7367 1448.4 87.9167 1447.26 88.9746C1446.2 90.0326 1445.14 91.1312 1444.09 92.2705C1443.11 93.3285 1442.21 94.5492 1441.4 95.9326C1440.59 97.2347 1440.02 98.7809 1439.69 100.571C1442.54 100.246 1445.51 99.4727 1448.6 98.252C1451.69 96.9499 1454.62 95.7292 1457.39 94.5898C1457.07 92.0671 1456.17 90.0326 1454.71 88.4863C1453.32 86.9401 1451.86 85.9229 1450.31 85.4346ZM1554.44 135.605C1550.53 135.768 1547.07 135.687 1544.06 135.361C1541.13 135.036 1538.24 134.263 1535.39 133.042C1535.23 132.961 1535.07 132.757 1534.91 132.432C1534.74 132.106 1534.58 131.862 1534.42 131.699C1533.93 131.455 1533.32 131.374 1532.59 131.455C1531.94 131.455 1531.37 131.374 1530.88 131.211C1530.23 130.885 1529.21 130.275 1527.83 129.38C1526.44 128.403 1525.18 127.508 1524.04 126.694C1522.58 125.555 1521.19 124.416 1519.89 123.276C1518.59 122.137 1517.45 120.916 1516.47 119.614C1516.23 119.289 1515.9 119.126 1515.5 119.126C1515.09 119.045 1514.72 118.923 1514.4 118.76C1512.04 120.225 1510.04 122.056 1508.42 124.253C1506.79 126.45 1505.24 128.688 1503.78 130.967C1502.31 133.245 1500.77 135.402 1499.14 137.437C1497.51 139.471 1495.44 141.017 1492.91 142.075C1492.18 142.075 1491.53 141.953 1490.96 141.709C1490.39 141.465 1489.86 141.139 1489.37 140.732C1488.89 140.407 1488.4 140.081 1487.91 139.756C1487.42 139.43 1486.89 139.186 1486.32 139.023C1486.32 138.047 1486.12 137.152 1485.71 136.338C1485.39 135.524 1485.02 134.751 1484.61 134.019C1484.29 133.286 1484.04 132.594 1483.88 131.943C1483.72 131.211 1483.88 130.519 1484.37 129.868C1483.88 129.38 1483.15 128.851 1482.17 128.281C1482.66 127.793 1482.86 127.345 1482.78 126.938C1482.78 126.532 1482.7 126.125 1482.54 125.718C1482.38 125.311 1482.21 124.863 1482.05 124.375C1481.97 123.887 1482.09 123.398 1482.42 122.91C1482.82 122.91 1483.31 122.829 1483.88 122.666C1483.39 122.015 1483.15 121.649 1483.15 121.567C1483.23 121.405 1483.15 121.201 1482.9 120.957C1482.74 120.469 1482.82 120.184 1483.15 120.103C1483.47 119.94 1483.8 119.777 1484.12 119.614C1484.45 115.627 1485.14 111.924 1486.2 108.506C1487.26 105.088 1488.44 101.792 1489.74 98.6182C1491.04 95.4443 1492.3 92.2298 1493.52 88.9746C1494.83 85.7194 1495.88 82.2201 1496.7 78.4766C1497.59 77.5814 1498.29 76.5234 1498.77 75.3027C1499.34 74.082 1499.91 72.8613 1500.48 71.6406C1501.13 70.4199 1501.83 69.2399 1502.56 68.1006C1503.37 66.8799 1504.47 65.9033 1505.85 65.1709C1506.99 65.2523 1508.01 65.5778 1508.91 66.1475C1509.8 66.6357 1510.9 66.8392 1512.2 66.7578C1512.45 67.1647 1512.65 67.5716 1512.81 67.9785C1513.06 68.3854 1513.34 68.7923 1513.67 69.1992L1515.5 68.833C1516.39 69.5654 1517.17 70.5013 1517.82 71.6406C1518.55 72.6986 1519.04 73.8379 1519.28 75.0586C1519.53 76.2793 1519.48 77.4593 1519.16 78.5986C1518.83 79.6566 1518.06 80.5111 1516.84 81.1621C1516.92 81.569 1516.92 81.8945 1516.84 82.1387C1516.84 82.3014 1516.8 82.4642 1516.72 82.627C1516.64 82.7897 1516.6 82.9525 1516.6 83.1152C1516.6 83.278 1516.72 83.5221 1516.96 83.8477C1515.33 85.0684 1514.11 86.7773 1513.3 88.9746C1512.49 91.1719 1512.04 93.125 1511.96 94.834C1512.93 93.8574 1513.99 92.9215 1515.13 92.0264C1516.35 91.0498 1517.57 90.1139 1518.79 89.2188C1520.1 88.3236 1521.32 87.4691 1522.46 86.6553C1523.68 85.8415 1524.77 85.0277 1525.75 84.2139C1528.44 81.7725 1531 79.8193 1533.44 78.3545C1535.96 76.8083 1538.61 75.0993 1541.38 73.2275C1542.03 73.0648 1542.52 73.0648 1542.84 73.2275C1543.25 73.3089 1543.65 73.431 1544.06 73.5938C1544.06 73.1055 1543.9 72.8206 1543.57 72.7393C1543.33 72.6579 1543.25 72.3324 1543.33 71.7627C1544.55 71.4372 1545.61 71.071 1546.5 70.6641C1547.4 70.1758 1548.37 69.7282 1549.43 69.3213C1550.17 70.0537 1550.86 70.8268 1551.51 71.6406C1552.16 72.373 1553.05 72.8206 1554.19 72.9834C1554.6 73.8786 1555.09 74.5703 1555.66 75.0586C1556.23 75.4655 1556.8 75.8724 1557.37 76.2793C1557.94 76.6862 1558.43 77.1745 1558.83 77.7441C1559.32 78.3138 1559.61 79.209 1559.69 80.4297C1559.36 80.9993 1558.99 81.6097 1558.59 82.2607C1558.26 82.9118 1557.94 83.6849 1557.61 84.5801C1555.98 86.0449 1554.32 87.347 1552.61 88.4863C1550.98 89.6257 1549.31 90.7243 1547.6 91.7822C1545.89 92.8402 1544.14 93.8981 1542.35 94.9561C1540.56 96.014 1538.73 97.2754 1536.86 98.7402C1536.45 99.3099 1535.92 99.8389 1535.27 100.327C1534.7 100.734 1534.09 101.182 1533.44 101.67C1532.79 102.077 1532.18 102.524 1531.61 103.013C1531.04 103.501 1530.59 104.071 1530.27 104.722C1530.02 104.803 1529.78 104.844 1529.54 104.844C1529.29 104.844 1529.05 104.884 1528.8 104.966C1528.56 105.535 1528.15 105.983 1527.58 106.309C1527.09 106.634 1526.77 107.082 1526.61 107.651C1527.83 110.256 1529.41 112.249 1531.37 113.633C1533.32 115.016 1535.52 116.034 1537.96 116.685C1540.4 117.254 1543.04 117.58 1545.89 117.661C1548.74 117.661 1551.71 117.661 1554.8 117.661C1555.13 117.58 1555.25 117.417 1555.17 117.173C1555.17 116.847 1555.37 116.725 1555.78 116.807C1557.73 117.458 1559.24 118.394 1560.3 119.614C1561.35 120.754 1562.62 121.893 1564.08 123.032C1563.92 126.125 1562.98 128.688 1561.27 130.723C1559.56 132.757 1557.29 134.385 1554.44 135.605Z" fill="#161312"/>
</svg>
