<svg width="11948" height="4877" viewBox="0 0 11948 4877" fill="none" xmlns="http://www.w3.org/2000/svg">
<g clip-path="url(#clip0_505_98)">
<path d="M2333.06 0H1049.69C1005.4 0 969.5 35.904 969.5 80.194V437.5L1713.25 656.25L2413.25 437.5V80.194C2413.25 35.904 2377.35 0 2333.06 0Z" fill="#41A5EE"/>
<path d="M2413.25 437.5H969.5V875L1713.25 1006.25L2413.25 875V437.5Z" fill="#2B7CD3"/>
<path d="M969.5 875V1312.5L1669.5 1400L2413.25 1312.5V875H969.5Z" fill="#185ABD"/>
<path d="M1049.69 1750H2333.06C2377.35 1750 2413.25 1714.1 2413.25 1669.81V1312.5H969.5V1669.81C969.5 1714.1 1005.4 1750 1049.69 1750Z" fill="#103F91"/>
<path opacity="0.1" d="M1501.81 350H969.5V1443.75H1501.81C1546.04 1443.61 1581.86 1407.79 1582 1363.56V430.194C1581.86 385.964 1546.04 350.144 1501.81 350Z" fill="black"/>
<path opacity="0.2" d="M1458.06 393.75H969.5V1487.5H1458.06C1502.29 1487.36 1538.11 1451.54 1538.25 1407.31V473.944C1538.11 429.714 1502.29 393.894 1458.06 393.75Z" fill="black"/>
<path opacity="0.2" d="M1458.06 393.75H969.5V1400H1458.06C1502.29 1399.86 1538.11 1364.04 1538.25 1319.81V473.944C1538.11 429.714 1502.29 393.894 1458.06 393.75Z" fill="black"/>
<path opacity="0.2" d="M1414.31 393.75H969.5V1400H1414.31C1458.54 1399.86 1494.36 1364.04 1494.5 1319.81V473.944C1494.36 429.714 1458.54 393.894 1414.31 393.75Z" fill="black"/>
<path d="M612.194 393.75H1414.31C1458.6 393.75 1494.5 429.654 1494.5 473.944V1276.06C1494.5 1320.35 1458.6 1356.25 1414.31 1356.25H612.194C567.904 1356.25 532 1320.35 532 1276.06V473.944C532 429.654 567.904 393.75 612.194 393.75Z" fill="url(#paint0_linear_505_98)"/>
<path d="M861.088 1008.79C862.663 1021.17 863.713 1031.93 864.194 1041.16H866.031C866.731 1032.41 868.189 1021.87 870.406 1009.53C872.623 997.194 874.621 986.767 876.4 978.251L960.75 614.338H1069.82L1157.32 972.782C1162.4 995.07 1166.04 1017.66 1168.21 1040.42H1169.66C1171.29 1018.37 1174.33 996.453 1178.76 974.794L1248.54 614.163H1347.81L1225.22 1135.66H1109.24L1026.11 790.3C1023.71 780.369 1020.95 767.375 1017.93 751.406C1014.91 735.437 1013.03 723.756 1012.29 716.406H1010.84C1009.88 724.893 1008 737.494 1005.2 754.206C1002.4 770.919 1000.15 783.285 998.462 791.306L920.324 1135.58H802.374L679.131 614.337H780.193L856.187 978.993C857.894 986.475 859.513 996.45 861.088 1008.79Z" fill="white"/>
</g>
<path d="M35.3288 2438V2147.09H133.624C156.352 2147.09 175.007 2150.97 189.59 2158.74C204.174 2166.41 214.969 2176.97 221.977 2190.41C228.984 2203.86 232.488 2219.16 232.488 2236.3C232.488 2253.44 228.984 2268.63 221.977 2281.89C214.969 2295.15 204.221 2305.57 189.732 2313.14C175.244 2320.62 156.73 2324.36 134.192 2324.36H54.647V2292.55H133.056C148.586 2292.55 161.086 2290.27 170.556 2285.73C180.121 2281.18 187.033 2274.74 191.295 2266.41C195.651 2257.98 197.829 2247.94 197.829 2236.3C197.829 2224.65 195.651 2214.47 191.295 2205.76C186.939 2197.04 179.978 2190.32 170.414 2185.59C160.85 2180.76 148.208 2178.34 132.488 2178.34H70.5561V2438H35.3288ZM172.261 2307.32L243.852 2438H202.942L132.488 2307.32H172.261ZM375.776 2442.55C354.754 2442.55 336.619 2437.91 321.373 2428.62C306.221 2419.25 294.526 2406.18 286.288 2389.42C278.144 2372.56 274.072 2352.96 274.072 2330.61C274.072 2308.27 278.144 2288.57 286.288 2271.52C294.526 2254.38 305.985 2241.03 320.663 2231.47C335.435 2221.81 352.67 2216.98 372.367 2216.98C383.731 2216.98 394.952 2218.87 406.032 2222.66C417.112 2226.45 427.197 2232.6 436.288 2241.12C445.379 2249.55 452.623 2260.73 458.021 2274.65C463.418 2288.57 466.117 2305.71 466.117 2326.07V2340.27H297.935V2311.3H432.026C432.026 2298.98 429.564 2288 424.64 2278.34C419.81 2268.68 412.897 2261.06 403.901 2255.47C395 2249.88 384.488 2247.09 372.367 2247.09C359.015 2247.09 347.462 2250.41 337.708 2257.03C328.049 2263.57 320.615 2272.09 315.407 2282.6C310.199 2293.11 307.594 2304.38 307.594 2316.41V2335.73C307.594 2352.2 310.435 2366.17 316.117 2377.63C321.894 2388.99 329.896 2397.66 340.123 2403.62C350.35 2409.5 362.235 2412.43 375.776 2412.43C384.583 2412.43 392.538 2411.2 399.64 2408.74C406.837 2406.18 413.04 2402.39 418.248 2397.38C423.456 2392.26 427.481 2385.92 430.322 2378.34L462.708 2387.43C459.299 2398.42 453.57 2408.08 445.521 2416.41C437.471 2424.65 427.528 2431.09 415.691 2435.73C403.854 2440.27 390.549 2442.55 375.776 2442.55ZM517.112 2519.82V2219.82H549.498V2254.48H553.475C555.937 2250.69 559.346 2245.86 563.702 2239.99C568.153 2234.02 574.498 2228.72 582.737 2224.08C591.07 2219.34 602.339 2216.98 616.543 2216.98C634.915 2216.98 651.108 2221.57 665.123 2230.76C679.138 2239.94 690.076 2252.96 697.935 2269.82C705.795 2286.67 709.725 2306.56 709.725 2329.48C709.725 2352.58 705.795 2372.61 697.935 2389.56C690.076 2406.42 679.185 2419.49 665.265 2428.77C651.344 2437.95 635.293 2442.55 617.112 2442.55C603.096 2442.55 591.875 2440.23 583.447 2435.59C575.019 2430.85 568.532 2425.5 563.987 2419.53C559.441 2413.47 555.937 2408.45 553.475 2404.48H550.634V2519.82H517.112ZM550.066 2328.91C550.066 2345.39 552.481 2359.92 557.31 2372.52C562.14 2385.02 569.195 2394.82 578.475 2401.92C587.755 2408.93 599.119 2412.43 612.566 2412.43C626.581 2412.43 638.276 2408.74 647.651 2401.35C657.121 2393.87 664.223 2383.83 668.958 2371.24C673.788 2358.55 676.202 2344.44 676.202 2328.91C676.202 2313.57 673.835 2299.74 669.1 2287.43C664.46 2275.03 657.405 2265.23 647.935 2258.03C638.56 2250.74 626.771 2247.09 612.566 2247.09C598.93 2247.09 587.471 2250.55 578.191 2257.46C568.911 2264.28 561.903 2273.84 557.168 2286.15C552.433 2298.37 550.066 2312.62 550.066 2328.91ZM849.498 2442.55C829.801 2442.55 812.519 2437.86 797.651 2428.48C782.879 2419.11 771.326 2405.99 762.992 2389.14C754.754 2372.28 750.634 2352.58 750.634 2330.05C750.634 2307.32 754.754 2287.48 762.992 2270.53C771.326 2253.58 782.879 2240.41 797.651 2231.04C812.519 2221.66 829.801 2216.98 849.498 2216.98C869.195 2216.98 886.43 2221.66 901.202 2231.04C916.07 2240.41 927.623 2253.58 935.862 2270.53C944.195 2287.48 948.362 2307.32 948.362 2330.05C948.362 2352.58 944.195 2372.28 935.862 2389.14C927.623 2405.99 916.07 2419.11 901.202 2428.48C886.43 2437.86 869.195 2442.55 849.498 2442.55ZM849.498 2412.43C864.46 2412.43 876.771 2408.6 886.43 2400.93C896.089 2393.26 903.238 2383.17 907.879 2370.67C912.519 2358.17 914.839 2344.63 914.839 2330.05C914.839 2315.46 912.519 2301.87 907.879 2289.28C903.238 2276.68 896.089 2266.5 886.43 2258.74C876.771 2250.97 864.46 2247.09 849.498 2247.09C834.536 2247.09 822.225 2250.97 812.566 2258.74C802.907 2266.5 795.757 2276.68 791.117 2289.28C786.477 2301.87 784.157 2315.46 784.157 2330.05C784.157 2344.63 786.477 2358.17 791.117 2370.67C795.757 2383.17 802.907 2393.26 812.566 2400.93C822.225 2408.6 834.536 2412.43 849.498 2412.43ZM999.533 2438V2219.82H1031.92V2252.77H1034.19C1038.17 2241.98 1045.37 2233.22 1055.78 2226.49C1066.2 2219.77 1077.94 2216.41 1091.01 2216.41C1093.47 2216.41 1096.55 2216.46 1100.24 2216.55C1103.94 2216.65 1106.73 2216.79 1108.62 2216.98V2251.07C1107.49 2250.78 1104.88 2250.36 1100.81 2249.79C1096.83 2249.13 1092.62 2248.8 1088.17 2248.8C1077.56 2248.8 1068.09 2251.02 1059.76 2255.47C1051.52 2259.83 1044.99 2265.89 1040.16 2273.65C1035.42 2281.32 1033.06 2290.08 1033.06 2299.93V2438H999.533ZM1256.92 2219.82V2248.23H1143.85V2219.82H1256.92ZM1176.81 2167.55H1210.33V2375.5C1210.33 2384.97 1211.7 2392.07 1214.45 2396.81C1217.29 2401.45 1220.89 2404.57 1225.24 2406.18C1229.69 2407.7 1234.38 2408.45 1239.31 2408.45C1243 2408.45 1246.03 2408.27 1248.4 2407.89C1250.76 2407.41 1252.66 2407.03 1254.08 2406.75L1260.9 2436.86C1258.62 2437.72 1255.45 2438.57 1251.38 2439.42C1247.31 2440.37 1242.15 2440.84 1235.9 2440.84C1226.43 2440.84 1217.15 2438.8 1208.06 2434.73C1199.06 2430.66 1191.58 2424.46 1185.61 2416.12C1179.74 2407.79 1176.81 2397.28 1176.81 2384.59V2167.55ZM1517 2219.82V2248.23H1399.39V2219.82H1517ZM1434.62 2438V2189.7C1434.62 2177.2 1437.55 2166.79 1443.43 2158.45C1449.3 2150.12 1456.92 2143.87 1466.29 2139.7C1475.67 2135.54 1485.57 2133.45 1495.98 2133.45C1504.22 2133.45 1510.94 2134.12 1516.15 2135.44C1521.36 2136.77 1525.24 2138 1527.8 2139.14L1518.14 2168.11C1516.44 2167.55 1514.07 2166.84 1511.04 2165.98C1508.1 2165.13 1504.22 2164.7 1499.39 2164.7C1488.31 2164.7 1480.31 2167.5 1475.39 2173.09C1470.56 2178.67 1468.14 2186.86 1468.14 2197.66V2438H1434.62ZM1563.99 2438V2219.82H1597.51V2438H1563.99ZM1581.03 2183.45C1574.5 2183.45 1568.86 2181.23 1564.13 2176.78C1559.49 2172.33 1557.17 2166.98 1557.17 2160.73C1557.17 2154.48 1559.49 2149.13 1564.13 2144.68C1568.86 2140.23 1574.5 2138 1581.03 2138C1587.57 2138 1593.15 2140.23 1597.79 2144.68C1602.53 2149.13 1604.9 2154.48 1604.9 2160.73C1604.9 2166.98 1602.53 2172.33 1597.79 2176.78C1593.15 2181.23 1587.57 2183.45 1581.03 2183.45ZM1692.43 2306.75V2438H1658.91V2219.82H1691.29V2253.91H1694.14C1699.25 2242.83 1707.01 2233.93 1717.43 2227.2C1727.85 2220.39 1741.29 2216.98 1757.77 2216.98C1772.54 2216.98 1785.47 2220.01 1796.55 2226.07C1807.63 2232.03 1816.25 2241.12 1822.4 2253.34C1828.56 2265.46 1831.64 2280.8 1831.64 2299.36V2438H1798.11V2301.64C1798.11 2284.5 1793.66 2271.14 1784.76 2261.58C1775.86 2251.92 1763.64 2247.09 1748.11 2247.09C1737.41 2247.09 1727.85 2249.41 1719.42 2254.05C1711.09 2258.69 1704.5 2265.46 1699.68 2274.36C1694.85 2283.27 1692.43 2294.06 1692.43 2306.75ZM1957.1 2443.11C1943.27 2443.11 1930.72 2440.51 1919.46 2435.3C1908.19 2430 1899.24 2422.38 1892.61 2412.43C1885.98 2402.39 1882.67 2390.27 1882.67 2376.07C1882.67 2363.57 1885.13 2353.44 1890.05 2345.67C1894.98 2337.81 1901.56 2331.66 1909.8 2327.2C1918.03 2322.75 1927.13 2319.44 1937.07 2317.26C1947.11 2314.99 1957.19 2313.19 1967.32 2311.86C1980.58 2310.16 1991.33 2308.88 1999.57 2308.03C2007.9 2307.08 2013.96 2305.52 2017.75 2303.34C2021.63 2301.16 2023.57 2297.37 2023.57 2291.98V2290.84C2023.57 2276.83 2019.74 2265.94 2012.07 2258.17C2004.49 2250.41 1992.99 2246.52 1977.55 2246.52C1961.55 2246.52 1949 2250.03 1939.91 2257.03C1930.82 2264.04 1924.43 2271.52 1920.73 2279.48L1888.92 2268.11C1894.6 2254.86 1902.17 2244.53 1911.64 2237.15C1921.21 2229.67 1931.62 2224.46 1942.89 2221.52C1954.26 2218.49 1965.43 2216.98 1976.42 2216.98C1983.42 2216.98 1991.47 2217.83 2000.56 2219.53C2009.75 2221.14 2018.6 2224.51 2027.13 2229.62C2035.74 2234.73 2042.89 2242.45 2048.57 2252.77C2054.26 2263.09 2057.1 2276.92 2057.1 2294.25V2438H2023.57V2408.45H2021.87C2019.6 2413.19 2015.81 2418.26 2010.51 2423.65C2005.2 2429.05 1998.15 2433.64 1989.34 2437.43C1980.53 2441.22 1969.79 2443.11 1957.1 2443.11ZM1962.21 2413C1975.47 2413 1986.64 2410.4 1995.73 2405.19C2004.92 2399.98 2011.83 2393.26 2016.47 2385.02C2021.21 2376.78 2023.57 2368.11 2023.57 2359.02V2328.34C2022.15 2330.05 2019.03 2331.61 2014.2 2333.03C2009.46 2334.35 2003.97 2335.54 1997.72 2336.58C1991.57 2337.53 1985.55 2338.38 1979.68 2339.14C1973.91 2339.8 1969.22 2340.37 1965.62 2340.84C1956.91 2341.98 1948.76 2343.82 1941.19 2346.38C1933.71 2348.84 1927.65 2352.58 1923.01 2357.6C1918.46 2362.53 1916.19 2369.25 1916.19 2377.77C1916.19 2389.42 1920.5 2398.23 1929.11 2404.19C1937.83 2410.06 1948.86 2413 1962.21 2413ZM2151.81 2147.09V2438H2118.28V2147.09H2151.81ZM2237.64 2440.27C2230.63 2440.27 2224.62 2437.76 2219.6 2432.74C2214.58 2427.73 2212.07 2421.71 2212.07 2414.7C2212.07 2407.7 2214.58 2401.68 2219.6 2396.66C2224.62 2391.65 2230.63 2389.14 2237.64 2389.14C2244.64 2389.14 2250.66 2391.65 2255.68 2396.66C2260.7 2401.68 2263.21 2407.7 2263.21 2414.7C2263.21 2419.34 2262.02 2423.61 2259.65 2427.49C2257.38 2431.37 2254.3 2434.5 2250.42 2436.86C2246.63 2439.14 2242.37 2440.27 2237.64 2440.27ZM2405.75 2442.55C2387.57 2442.55 2371.51 2437.95 2357.59 2428.77C2343.67 2419.49 2332.78 2406.42 2324.92 2389.56C2317.06 2372.61 2313.13 2352.58 2313.13 2329.48C2313.13 2306.56 2317.06 2286.67 2324.92 2269.82C2332.78 2252.96 2343.72 2239.94 2357.74 2230.76C2371.75 2221.57 2387.94 2216.98 2406.32 2216.98C2420.52 2216.98 2431.74 2219.34 2439.98 2224.08C2448.31 2228.72 2454.66 2234.02 2459.01 2239.99C2463.47 2245.86 2466.92 2250.69 2469.38 2254.48H2472.23V2147.09H2505.75V2438H2473.36V2404.48H2469.38C2466.92 2408.45 2463.42 2413.47 2458.87 2419.53C2454.33 2425.5 2447.84 2430.85 2439.41 2435.59C2430.98 2440.23 2419.76 2442.55 2405.75 2442.55ZM2410.29 2412.43C2423.74 2412.43 2435.1 2408.93 2444.38 2401.92C2453.66 2394.82 2460.72 2385.02 2465.55 2372.52C2470.38 2359.92 2472.79 2345.39 2472.79 2328.91C2472.79 2312.62 2470.43 2298.37 2465.69 2286.15C2460.96 2273.84 2453.95 2264.28 2444.67 2257.46C2435.39 2250.55 2423.93 2247.09 2410.29 2247.09C2396.09 2247.09 2384.25 2250.74 2374.78 2258.03C2365.41 2265.23 2358.35 2275.03 2353.62 2287.43C2348.98 2299.74 2346.66 2313.57 2346.66 2328.91C2346.66 2344.44 2349.02 2358.55 2353.76 2371.24C2358.59 2383.83 2365.69 2393.87 2375.07 2401.35C2384.54 2408.74 2396.28 2412.43 2410.29 2412.43ZM2660.44 2442.55C2640.74 2442.55 2623.46 2437.86 2608.59 2428.48C2593.82 2419.11 2582.26 2405.99 2573.93 2389.14C2565.69 2372.28 2561.57 2352.58 2561.57 2330.05C2561.57 2307.32 2565.69 2287.48 2573.93 2270.53C2582.26 2253.58 2593.82 2240.41 2608.59 2231.04C2623.46 2221.66 2640.74 2216.98 2660.44 2216.98C2680.13 2216.98 2697.37 2221.66 2712.14 2231.04C2727.01 2240.41 2738.56 2253.58 2746.8 2270.53C2755.13 2287.48 2759.3 2307.32 2759.3 2330.05C2759.3 2352.58 2755.13 2372.28 2746.8 2389.14C2738.56 2405.99 2727.01 2419.11 2712.14 2428.48C2697.37 2437.86 2680.13 2442.55 2660.44 2442.55ZM2660.44 2412.43C2675.4 2412.43 2687.71 2408.6 2697.37 2400.93C2707.03 2393.26 2714.18 2383.17 2718.82 2370.67C2723.46 2358.17 2725.78 2344.63 2725.78 2330.05C2725.78 2315.46 2723.46 2301.87 2718.82 2289.28C2714.18 2276.68 2707.03 2266.5 2697.37 2258.74C2687.71 2250.97 2675.4 2247.09 2660.44 2247.09C2645.47 2247.09 2633.16 2250.97 2623.5 2258.74C2613.84 2266.5 2606.69 2276.68 2602.05 2289.28C2597.41 2301.87 2595.09 2315.46 2595.09 2330.05C2595.09 2344.63 2597.41 2358.17 2602.05 2370.67C2606.69 2383.17 2613.84 2393.26 2623.5 2400.93C2633.16 2408.6 2645.47 2412.43 2660.44 2412.43ZM2899.11 2442.55C2878.65 2442.55 2861.04 2437.72 2846.27 2428.06C2831.49 2418.4 2820.13 2405.09 2812.18 2388.14C2804.22 2371.19 2800.24 2351.83 2800.24 2330.05C2800.24 2307.89 2804.32 2288.33 2812.46 2271.38C2820.7 2254.34 2832.16 2241.03 2846.83 2231.47C2861.61 2221.81 2878.84 2216.98 2898.54 2216.98C2913.88 2216.98 2927.71 2219.82 2940.02 2225.5C2952.33 2231.18 2962.41 2239.14 2970.27 2249.36C2978.13 2259.59 2983.01 2271.52 2984.9 2285.16H2951.38C2948.82 2275.22 2943.14 2266.41 2934.33 2258.74C2925.62 2250.97 2913.88 2247.09 2899.11 2247.09C2886.04 2247.09 2874.58 2250.5 2864.73 2257.32C2854.98 2264.04 2847.36 2273.56 2841.86 2285.87C2836.47 2298.09 2833.77 2312.43 2833.77 2328.91C2833.77 2345.77 2836.42 2360.44 2841.72 2372.94C2847.12 2385.44 2854.69 2395.15 2864.45 2402.06C2874.3 2408.98 2885.85 2412.43 2899.11 2412.43C2907.82 2412.43 2915.73 2410.92 2922.83 2407.89C2929.93 2404.86 2935.94 2400.5 2940.87 2394.82C2945.79 2389.14 2949.3 2382.32 2951.38 2374.36H2984.9C2983.01 2387.24 2978.32 2398.84 2970.84 2409.16C2963.45 2419.39 2953.65 2427.54 2941.44 2433.6C2929.32 2439.56 2915.21 2442.55 2899.11 2442.55ZM3056.56 2219.82L3108.84 2309.02L3161.11 2219.82H3199.75L3129.29 2328.91L3199.75 2438H3161.11L3108.84 2353.34L3056.56 2438H3017.93L3087.25 2328.91L3017.93 2219.82H3056.56Z" fill="black"/>
<g clip-path="url(#clip1_505_98)">
<path d="M6279.06 1171H4995.69C4951.4 1171 4915.5 1206.9 4915.5 1251.19V1608.5L5659.25 1827.25L6359.25 1608.5V1251.19C6359.25 1206.9 6323.35 1171 6279.06 1171Z" fill="#41A5EE"/>
<path d="M6359.25 1608.5H4915.5V2046L5659.25 2177.25L6359.25 2046V1608.5Z" fill="#2B7CD3"/>
<path d="M4915.5 2046V2483.5L5615.5 2571L6359.25 2483.5V2046H4915.5Z" fill="#185ABD"/>
<path d="M4995.69 2921H6279.06C6323.35 2921 6359.25 2885.1 6359.25 2840.81V2483.5H4915.5V2840.81C4915.5 2885.1 4951.4 2921 4995.69 2921Z" fill="#103F91"/>
<path opacity="0.1" d="M5447.81 1521H4915.5V2614.75H5447.81C5492.04 2614.61 5527.86 2578.79 5528 2534.56V1601.19C5527.86 1556.96 5492.04 1521.14 5447.81 1521Z" fill="black"/>
<path opacity="0.2" d="M5404.06 1564.75H4915.5V2658.5H5404.06C5448.29 2658.36 5484.11 2622.54 5484.25 2578.31V1644.94C5484.11 1600.71 5448.29 1564.89 5404.06 1564.75Z" fill="black"/>
<path opacity="0.2" d="M5404.06 1564.75H4915.5V2571H5404.06C5448.29 2570.86 5484.11 2535.04 5484.25 2490.81V1644.94C5484.11 1600.71 5448.29 1564.89 5404.06 1564.75Z" fill="black"/>
<path opacity="0.2" d="M5360.31 1564.75H4915.5V2571H5360.31C5404.54 2570.86 5440.36 2535.04 5440.5 2490.81V1644.94C5440.36 1600.71 5404.54 1564.89 5360.31 1564.75Z" fill="black"/>
<path d="M4558.19 1564.75H5360.31C5404.6 1564.75 5440.5 1600.65 5440.5 1644.94V2447.06C5440.5 2491.35 5404.6 2527.25 5360.31 2527.25H4558.19C4513.9 2527.25 4478 2491.35 4478 2447.06V1644.94C4478 1600.65 4513.9 1564.75 4558.19 1564.75Z" fill="url(#paint1_linear_505_98)"/>
<path d="M4807.09 2179.79C4808.66 2192.17 4809.71 2202.93 4810.19 2212.16H4812.03C4812.73 2203.41 4814.19 2192.87 4816.41 2180.53C4818.62 2168.19 4820.62 2157.77 4822.4 2149.25L4906.75 1785.34H5015.82L5103.32 2143.78C5108.4 2166.07 5112.04 2188.66 5114.21 2211.42H5115.66C5117.29 2189.37 5120.33 2167.45 5124.76 2145.79L5194.54 1785.16H5293.81L5171.22 2306.66H5055.24L4972.11 1961.3C4969.71 1951.37 4966.95 1938.38 4963.93 1922.41C4960.91 1906.44 4959.03 1894.76 4958.29 1887.41H4956.84C4955.88 1895.89 4954 1908.49 4951.2 1925.21C4948.4 1941.92 4946.15 1954.29 4944.46 1962.31L4866.32 2306.58H4748.37L4625.13 1785.34H4726.19L4802.19 2149.99C4803.89 2157.48 4805.51 2167.45 4807.09 2179.79Z" fill="white"/>
</g>
<path d="M3692.66 3609V3318.09H3790.95C3813.68 3318.09 3832.33 3321.97 3846.92 3329.74C3861.5 3337.41 3872.3 3347.97 3879.3 3361.41C3886.31 3374.86 3889.82 3390.16 3889.82 3407.3C3889.82 3424.44 3886.31 3439.63 3879.3 3452.89C3872.3 3466.15 3861.55 3476.57 3847.06 3484.14C3832.57 3491.62 3814.06 3495.36 3791.52 3495.36H3711.98V3463.55H3790.38C3805.91 3463.55 3818.41 3461.27 3827.88 3456.73C3837.45 3452.18 3844.36 3445.74 3848.62 3437.41C3852.98 3428.98 3855.16 3418.94 3855.16 3407.3C3855.16 3395.65 3852.98 3385.47 3848.62 3376.76C3844.27 3368.04 3837.31 3361.32 3827.74 3356.59C3818.18 3351.76 3805.54 3349.34 3789.82 3349.34H3727.88V3609H3692.66ZM3829.59 3478.32L3901.18 3609H3860.27L3789.82 3478.32H3829.59ZM4033.1 3613.55C4012.08 3613.55 3993.95 3608.91 3978.7 3599.62C3963.55 3590.25 3951.85 3577.18 3943.62 3560.42C3935.47 3543.56 3931.4 3523.96 3931.4 3501.61C3931.4 3479.27 3935.47 3459.57 3943.62 3442.52C3951.85 3425.38 3963.31 3412.03 3977.99 3402.47C3992.76 3392.81 4010 3387.98 4029.7 3387.98C4041.06 3387.98 4052.28 3389.87 4063.36 3393.66C4074.44 3397.45 4084.52 3403.6 4093.62 3412.12C4102.71 3420.55 4109.95 3431.73 4115.35 3445.65C4120.75 3459.57 4123.45 3476.71 4123.45 3497.07V3511.27H3955.26V3482.3H4089.35C4089.35 3469.98 4086.89 3459 4081.97 3449.34C4077.14 3439.68 4070.23 3432.06 4061.23 3426.47C4052.33 3420.88 4041.82 3418.09 4029.7 3418.09C4016.34 3418.09 4004.79 3421.41 3995.04 3428.03C3985.38 3434.57 3977.94 3443.09 3972.74 3453.6C3967.53 3464.11 3964.92 3475.38 3964.92 3487.41V3506.73C3964.92 3523.2 3967.76 3537.17 3973.45 3548.63C3979.22 3559.99 3987.22 3568.66 3997.45 3574.62C4007.68 3580.5 4019.56 3583.43 4033.1 3583.43C4041.91 3583.43 4049.87 3582.2 4056.97 3579.74C4064.17 3577.18 4070.37 3573.39 4075.58 3568.38C4080.78 3563.26 4084.81 3556.92 4087.65 3549.34L4120.04 3558.43C4116.63 3569.42 4110.9 3579.08 4102.85 3587.41C4094.8 3595.65 4084.86 3602.09 4073.02 3606.73C4061.18 3611.27 4047.88 3613.55 4033.1 3613.55ZM4174.44 3690.82V3390.82H4206.83V3425.48H4210.8C4213.27 3421.69 4216.67 3416.86 4221.03 3410.99C4225.48 3405.02 4231.83 3399.72 4240.06 3395.08C4248.4 3390.34 4259.67 3387.98 4273.87 3387.98C4292.24 3387.98 4308.44 3392.57 4322.45 3401.76C4336.47 3410.94 4347.4 3423.96 4355.26 3440.82C4363.12 3457.67 4367.05 3477.56 4367.05 3500.48C4367.05 3523.58 4363.12 3543.61 4355.26 3560.56C4347.4 3577.42 4336.51 3590.49 4322.59 3599.77C4308.67 3608.95 4292.62 3613.55 4274.44 3613.55C4260.42 3613.55 4249.2 3611.23 4240.77 3606.59C4232.35 3601.85 4225.86 3596.5 4221.31 3590.53C4216.77 3584.47 4213.27 3579.45 4210.8 3575.48H4207.96V3690.82H4174.44ZM4207.39 3499.91C4207.39 3516.39 4209.81 3530.92 4214.64 3543.52C4219.47 3556.02 4226.52 3565.82 4235.8 3572.92C4245.08 3579.93 4256.45 3583.43 4269.89 3583.43C4283.91 3583.43 4295.6 3579.74 4304.98 3572.35C4314.45 3564.87 4321.55 3554.83 4326.29 3542.24C4331.12 3529.55 4333.53 3515.44 4333.53 3499.91C4333.53 3484.57 4331.16 3470.74 4326.43 3458.43C4321.79 3446.03 4314.73 3436.23 4305.26 3429.03C4295.89 3421.74 4284.1 3418.09 4269.89 3418.09C4256.26 3418.09 4244.8 3421.55 4235.52 3428.46C4226.24 3435.28 4219.23 3444.84 4214.5 3457.15C4209.76 3469.37 4207.39 3483.62 4207.39 3499.91ZM4506.83 3613.55C4487.13 3613.55 4469.85 3608.86 4454.98 3599.48C4440.21 3590.11 4428.65 3576.99 4420.32 3560.14C4412.08 3543.28 4407.96 3523.58 4407.96 3501.05C4407.96 3478.32 4412.08 3458.48 4420.32 3441.53C4428.65 3424.58 4440.21 3411.41 4454.98 3402.04C4469.85 3392.66 4487.13 3387.98 4506.83 3387.98C4526.52 3387.98 4543.76 3392.66 4558.53 3402.04C4573.4 3411.41 4584.95 3424.58 4593.19 3441.53C4601.52 3458.48 4605.69 3478.32 4605.69 3501.05C4605.69 3523.58 4601.52 3543.28 4593.19 3560.14C4584.95 3576.99 4573.4 3590.11 4558.53 3599.48C4543.76 3608.86 4526.52 3613.55 4506.83 3613.55ZM4506.83 3583.43C4521.79 3583.43 4534.1 3579.6 4543.76 3571.93C4553.42 3564.26 4560.57 3554.17 4565.21 3541.67C4569.85 3529.17 4572.17 3515.63 4572.17 3501.05C4572.17 3486.46 4569.85 3472.87 4565.21 3460.28C4560.57 3447.68 4553.42 3437.5 4543.76 3429.74C4534.1 3421.97 4521.79 3418.09 4506.83 3418.09C4491.86 3418.09 4479.55 3421.97 4469.89 3429.74C4460.24 3437.5 4453.09 3447.68 4448.45 3460.28C4443.81 3472.87 4441.49 3486.46 4441.49 3501.05C4441.49 3515.63 4443.81 3529.17 4448.45 3541.67C4453.09 3554.17 4460.24 3564.26 4469.89 3571.93C4479.55 3579.6 4491.86 3583.43 4506.83 3583.43ZM4656.86 3609V3390.82H4689.25V3423.77H4691.52C4695.5 3412.98 4702.69 3404.22 4713.11 3397.49C4723.53 3390.77 4735.27 3387.41 4748.34 3387.41C4750.8 3387.41 4753.88 3387.46 4757.57 3387.55C4761.26 3387.65 4764.06 3387.79 4765.95 3387.98V3422.07C4764.82 3421.78 4762.21 3421.36 4758.14 3420.79C4754.16 3420.13 4749.95 3419.8 4745.5 3419.8C4734.89 3419.8 4725.42 3422.02 4717.09 3426.47C4708.85 3430.83 4702.32 3436.89 4697.49 3444.65C4692.75 3452.32 4690.38 3461.08 4690.38 3470.93V3609H4656.86ZM4914.25 3390.82V3419.23H4801.18V3390.82H4914.25ZM4834.13 3338.55H4867.66V3546.5C4867.66 3555.97 4869.03 3563.07 4871.78 3567.81C4874.62 3572.45 4878.22 3575.57 4882.57 3577.18C4887.02 3578.7 4891.71 3579.45 4896.63 3579.45C4900.33 3579.45 4903.36 3579.27 4905.73 3578.89C4908.09 3578.41 4909.99 3578.03 4911.41 3577.75L4918.23 3607.86C4915.95 3608.72 4912.78 3609.57 4908.71 3610.42C4904.64 3611.37 4899.48 3611.84 4893.23 3611.84C4883.76 3611.84 4874.48 3609.8 4865.38 3605.73C4856.39 3601.66 4848.91 3595.46 4842.94 3587.12C4837.07 3578.79 4834.13 3568.28 4834.13 3555.59V3338.55ZM5174.33 3390.82V3419.23H5056.72V3390.82H5174.33ZM5091.95 3609V3360.7C5091.95 3348.2 5094.88 3337.79 5100.75 3329.45C5106.62 3321.12 5114.25 3314.87 5123.62 3310.7C5133 3306.54 5142.89 3304.45 5153.31 3304.45C5161.55 3304.45 5168.27 3305.12 5173.48 3306.44C5178.69 3307.77 5182.57 3309 5185.13 3310.14L5175.47 3339.11C5173.76 3338.55 5171.4 3337.84 5168.37 3336.98C5165.43 3336.13 5161.55 3335.7 5156.72 3335.7C5145.64 3335.7 5137.64 3338.5 5132.71 3344.09C5127.88 3349.67 5125.47 3357.86 5125.47 3368.66V3609H5091.95ZM5221.31 3609V3390.82H5254.84V3609H5221.31ZM5238.36 3354.45C5231.83 3354.45 5226.19 3352.23 5221.46 3347.78C5216.82 3343.33 5214.5 3337.98 5214.5 3331.73C5214.5 3325.48 5216.82 3320.13 5221.46 3315.68C5226.19 3311.23 5231.83 3309 5238.36 3309C5244.89 3309 5250.48 3311.23 5255.12 3315.68C5259.86 3320.13 5262.22 3325.48 5262.22 3331.73C5262.22 3337.98 5259.86 3343.33 5255.12 3347.78C5250.48 3352.23 5244.89 3354.45 5238.36 3354.45ZM5349.76 3477.75V3609H5316.24V3390.82H5348.62V3424.91H5351.46C5356.58 3413.83 5364.34 3404.93 5374.76 3398.2C5385.18 3391.39 5398.62 3387.98 5415.1 3387.98C5429.87 3387.98 5442.8 3391.01 5453.88 3397.07C5464.96 3403.03 5473.58 3412.12 5479.73 3424.34C5485.89 3436.46 5488.96 3451.8 5488.96 3470.36V3609H5455.44V3472.64C5455.44 3455.5 5450.99 3442.14 5442.09 3432.58C5433.19 3422.92 5420.97 3418.09 5405.44 3418.09C5394.74 3418.09 5385.18 3420.41 5376.75 3425.05C5368.41 3429.69 5361.83 3436.46 5357 3445.36C5352.17 3454.27 5349.76 3465.06 5349.76 3477.75ZM5614.43 3614.11C5600.6 3614.11 5588.05 3611.51 5576.78 3606.3C5565.51 3601 5556.57 3593.38 5549.94 3583.43C5543.31 3573.39 5539.99 3561.27 5539.99 3547.07C5539.99 3534.57 5542.46 3524.44 5547.38 3516.67C5552.3 3508.81 5558.89 3502.66 5567.12 3498.2C5575.36 3493.75 5584.45 3490.44 5594.4 3488.26C5604.43 3485.99 5614.52 3484.19 5624.65 3482.86C5637.91 3481.16 5648.66 3479.88 5656.9 3479.03C5665.23 3478.08 5671.29 3476.52 5675.08 3474.34C5678.96 3472.16 5680.9 3468.37 5680.9 3462.98V3461.84C5680.9 3447.83 5677.07 3436.94 5669.4 3429.17C5661.82 3421.41 5650.32 3417.52 5634.88 3417.52C5618.88 3417.52 5606.33 3421.03 5597.24 3428.03C5588.15 3435.04 5581.75 3442.52 5578.06 3450.48L5546.24 3439.11C5551.93 3425.86 5559.5 3415.53 5568.97 3408.15C5578.54 3400.67 5588.95 3395.46 5600.22 3392.52C5611.58 3389.49 5622.76 3387.98 5633.74 3387.98C5640.75 3387.98 5648.8 3388.83 5657.89 3390.53C5667.08 3392.14 5675.93 3395.51 5684.45 3400.62C5693.07 3405.73 5700.22 3413.45 5705.9 3423.77C5711.58 3434.09 5714.43 3447.92 5714.43 3465.25V3609H5680.9V3579.45H5679.2C5676.93 3584.19 5673.14 3589.26 5667.83 3594.65C5662.53 3600.05 5655.48 3604.64 5646.67 3608.43C5637.86 3612.22 5627.11 3614.11 5614.43 3614.11ZM5619.54 3584C5632.8 3584 5643.97 3581.4 5653.06 3576.19C5662.25 3570.98 5669.16 3564.26 5673.8 3556.02C5678.54 3547.78 5680.9 3539.11 5680.9 3530.02V3499.34C5679.48 3501.05 5676.36 3502.61 5671.53 3504.03C5666.79 3505.35 5661.3 3506.54 5655.05 3507.58C5648.9 3508.53 5642.88 3509.38 5637.01 3510.14C5631.23 3510.8 5626.55 3511.37 5622.95 3511.84C5614.24 3512.98 5606.09 3514.82 5598.52 3517.38C5591.04 3519.84 5584.97 3523.58 5580.33 3528.6C5575.79 3533.53 5573.52 3540.25 5573.52 3548.77C5573.52 3560.42 5577.83 3569.23 5586.44 3575.19C5595.15 3581.06 5606.19 3584 5619.54 3584ZM5809.13 3318.09V3609H5775.61V3318.09H5809.13ZM6161.44 3390.82L6080.76 3609H6046.67L5965.99 3390.82H6002.35L6062.58 3564.68H6064.85L6125.08 3390.82H6161.44ZM6205.12 3609V3583.43L6301.14 3478.32C6312.41 3466.01 6321.69 3455.31 6328.99 3446.22C6336.28 3437.03 6341.67 3428.41 6345.18 3420.36C6348.78 3412.22 6350.58 3403.7 6350.58 3394.8C6350.58 3384.57 6348.11 3375.71 6343.19 3368.23C6338.36 3360.75 6331.73 3354.98 6323.3 3350.9C6314.88 3346.83 6305.41 3344.8 6294.89 3344.8C6283.72 3344.8 6273.97 3347.12 6265.63 3351.76C6257.39 3356.3 6251 3362.69 6246.46 3370.93C6242.01 3379.17 6239.78 3388.83 6239.78 3399.91H6206.26C6206.26 3382.86 6210.19 3367.9 6218.05 3355.02C6225.91 3342.14 6236.61 3332.11 6250.15 3324.91C6263.79 3317.71 6279.08 3314.11 6296.03 3314.11C6313.08 3314.11 6328.18 3317.71 6341.34 3324.91C6354.51 3332.11 6364.83 3341.81 6372.31 3354.03C6379.79 3366.24 6383.53 3379.83 6383.53 3394.8C6383.53 3405.5 6381.59 3415.96 6377.71 3426.19C6373.92 3436.32 6367.29 3447.64 6357.82 3460.14C6348.45 3472.54 6335.42 3487.69 6318.76 3505.59L6253.42 3575.48V3577.75H6388.64V3609H6205.12ZM6472.31 3611.27C6465.3 3611.27 6459.29 3608.76 6454.27 3603.74C6449.25 3598.73 6446.74 3592.71 6446.74 3585.7C6446.74 3578.7 6449.25 3572.68 6454.27 3567.66C6459.29 3562.65 6465.3 3560.14 6472.31 3560.14C6479.32 3560.14 6485.33 3562.65 6490.35 3567.66C6495.37 3572.68 6497.88 3578.7 6497.88 3585.7C6497.88 3590.34 6496.69 3594.61 6494.33 3598.49C6492.05 3602.37 6488.98 3605.5 6485.09 3607.86C6481.31 3610.14 6477.04 3611.27 6472.31 3611.27ZM6640.42 3613.55C6622.24 3613.55 6606.19 3608.95 6592.27 3599.77C6578.35 3590.49 6567.46 3577.42 6559.6 3560.56C6551.74 3543.61 6547.81 3523.58 6547.81 3500.48C6547.81 3477.56 6551.74 3457.67 6559.6 3440.82C6567.46 3423.96 6578.39 3410.94 6592.41 3401.76C6606.42 3392.57 6622.62 3387.98 6640.99 3387.98C6655.19 3387.98 6666.41 3390.34 6674.65 3395.08C6682.99 3399.72 6689.33 3405.02 6693.69 3410.99C6698.14 3416.86 6701.59 3421.69 6704.06 3425.48H6706.9V3318.09H6740.42V3609H6708.03V3575.48H6704.06C6701.59 3579.45 6698.09 3584.47 6693.54 3590.53C6689 3596.5 6682.51 3601.85 6674.08 3606.59C6665.66 3611.23 6654.43 3613.55 6640.42 3613.55ZM6644.97 3583.43C6658.41 3583.43 6669.78 3579.93 6679.06 3572.92C6688.34 3565.82 6695.39 3556.02 6700.22 3543.52C6705.05 3530.92 6707.47 3516.39 6707.47 3499.91C6707.47 3483.62 6705.1 3469.37 6700.36 3457.15C6695.63 3444.84 6688.62 3435.28 6679.34 3428.46C6670.06 3421.55 6658.6 3418.09 6644.97 3418.09C6630.76 3418.09 6618.92 3421.74 6609.45 3429.03C6600.08 3436.23 6593.02 3446.03 6588.29 3458.43C6583.65 3470.74 6581.33 3484.57 6581.33 3499.91C6581.33 3515.44 6583.7 3529.55 6588.43 3542.24C6593.26 3554.83 6600.36 3564.87 6609.74 3572.35C6619.21 3579.74 6630.95 3583.43 6644.97 3583.43ZM6895.11 3613.55C6875.41 3613.55 6858.13 3608.86 6843.26 3599.48C6828.49 3590.11 6816.93 3576.99 6808.6 3560.14C6800.36 3543.28 6796.24 3523.58 6796.24 3501.05C6796.24 3478.32 6800.36 3458.48 6808.6 3441.53C6816.93 3424.58 6828.49 3411.41 6843.26 3402.04C6858.13 3392.66 6875.41 3387.98 6895.11 3387.98C6914.8 3387.98 6932.04 3392.66 6946.81 3402.04C6961.68 3411.41 6973.23 3424.58 6981.47 3441.53C6989.8 3458.48 6993.97 3478.32 6993.97 3501.05C6993.97 3523.58 6989.8 3543.28 6981.47 3560.14C6973.23 3576.99 6961.68 3590.11 6946.81 3599.48C6932.04 3608.86 6914.8 3613.55 6895.11 3613.55ZM6895.11 3583.43C6910.07 3583.43 6922.38 3579.6 6932.04 3571.93C6941.7 3564.26 6948.85 3554.17 6953.49 3541.67C6958.13 3529.17 6960.45 3515.63 6960.45 3501.05C6960.45 3486.46 6958.13 3472.87 6953.49 3460.28C6948.85 3447.68 6941.7 3437.5 6932.04 3429.74C6922.38 3421.97 6910.07 3418.09 6895.11 3418.09C6880.15 3418.09 6867.83 3421.97 6858.18 3429.74C6848.52 3437.5 6841.37 3447.68 6836.73 3460.28C6832.09 3472.87 6829.77 3486.46 6829.77 3501.05C6829.77 3515.63 6832.09 3529.17 6836.73 3541.67C6841.37 3554.17 6848.52 3564.26 6858.18 3571.93C6867.83 3579.6 6880.15 3583.43 6895.11 3583.43ZM7133.78 3613.55C7113.32 3613.55 7095.71 3608.72 7080.94 3599.06C7066.17 3589.4 7054.8 3576.09 7046.85 3559.14C7038.89 3542.19 7034.92 3522.83 7034.92 3501.05C7034.92 3478.89 7038.99 3459.33 7047.13 3442.38C7055.37 3425.34 7066.83 3412.03 7081.51 3402.47C7096.28 3392.81 7113.51 3387.98 7133.21 3387.98C7148.55 3387.98 7162.38 3390.82 7174.69 3396.5C7187 3402.18 7197.08 3410.14 7204.94 3420.36C7212.8 3430.59 7217.68 3442.52 7219.57 3456.16H7186.05C7183.5 3446.22 7177.81 3437.41 7169.01 3429.74C7160.29 3421.97 7148.55 3418.09 7133.78 3418.09C7120.71 3418.09 7109.25 3421.5 7099.4 3428.32C7089.65 3435.04 7082.03 3444.56 7076.53 3456.87C7071.14 3469.09 7068.44 3483.43 7068.44 3499.91C7068.44 3516.77 7071.09 3531.44 7076.39 3543.94C7081.79 3556.44 7089.37 3566.15 7099.12 3573.06C7108.97 3579.98 7120.52 3583.43 7133.78 3583.43C7142.49 3583.43 7150.4 3581.92 7157.5 3578.89C7164.6 3575.86 7170.62 3571.5 7175.54 3565.82C7180.46 3560.14 7183.97 3553.32 7186.05 3545.36H7219.57C7217.68 3558.24 7212.99 3569.84 7205.51 3580.16C7198.13 3590.39 7188.32 3598.54 7176.11 3604.6C7163.99 3610.56 7149.88 3613.55 7133.78 3613.55ZM7291.24 3390.82L7343.51 3480.02L7395.78 3390.82H7434.42L7363.96 3499.91L7434.42 3609H7395.78L7343.51 3524.34L7291.24 3609H7252.6L7321.92 3499.91L7252.6 3390.82H7291.24Z" fill="black"/>
<g clip-path="url(#clip2_505_98)">
<path d="M10774.1 2342H9490.69C9446.4 2342 9410.5 2377.9 9410.5 2422.19V2779.5L10154.2 2998.25L10854.2 2779.5V2422.19C10854.2 2377.9 10818.3 2342 10774.1 2342Z" fill="#41A5EE"/>
<path d="M10854.2 2779.5H9410.5V3217L10154.2 3348.25L10854.2 3217V2779.5Z" fill="#2B7CD3"/>
<path d="M9410.5 3217V3654.5L10110.5 3742L10854.2 3654.5V3217H9410.5Z" fill="#185ABD"/>
<path d="M9490.69 4092H10774.1C10818.3 4092 10854.3 4056.1 10854.3 4011.81V3654.5H9410.5V4011.81C9410.5 4056.1 9446.4 4092 9490.69 4092Z" fill="#103F91"/>
<path opacity="0.1" d="M9942.81 2692H9410.5V3785.75H9942.81C9987.04 3785.61 10022.9 3749.79 10023 3705.56V2772.19C10022.9 2727.96 9987.04 2692.14 9942.81 2692Z" fill="black"/>
<path opacity="0.2" d="M9899.06 2735.75H9410.5V3829.5H9899.06C9943.29 3829.36 9979.11 3793.54 9979.25 3749.31V2815.94C9979.11 2771.71 9943.29 2735.89 9899.06 2735.75Z" fill="black"/>
<path opacity="0.2" d="M9899.06 2735.75H9410.5V3742H9899.06C9943.29 3741.86 9979.11 3706.04 9979.25 3661.81V2815.94C9979.11 2771.71 9943.29 2735.89 9899.06 2735.75Z" fill="black"/>
<path opacity="0.2" d="M9855.31 2735.75H9410.5V3742H9855.31C9899.54 3741.86 9935.36 3706.04 9935.5 3661.81V2815.94C9935.36 2771.71 9899.54 2735.89 9855.31 2735.75Z" fill="black"/>
<path d="M9053.19 2735.75H9855.31C9899.6 2735.75 9935.5 2771.65 9935.5 2815.94V3618.06C9935.5 3662.35 9899.6 3698.25 9855.31 3698.25H9053.19C9008.9 3698.25 8973 3662.35 8973 3618.06V2815.94C8973 2771.65 9008.9 2735.75 9053.19 2735.75Z" fill="url(#paint2_linear_505_98)"/>
<path d="M9302.09 3350.79C9303.66 3363.17 9304.71 3373.93 9305.19 3383.16H9307.03C9307.73 3374.41 9309.19 3363.87 9311.41 3351.53C9313.62 3339.19 9315.62 3328.77 9317.4 3320.25L9401.75 2956.34H9510.82L9598.32 3314.78C9603.4 3337.07 9607.04 3359.66 9609.21 3382.42H9610.66C9612.29 3360.37 9615.33 3338.45 9619.76 3316.79L9689.54 2956.16H9788.81L9666.22 3477.66H9550.24L9467.11 3132.3C9464.71 3122.37 9461.95 3109.38 9458.93 3093.41C9455.91 3077.44 9454.03 3065.76 9453.29 3058.41H9451.84C9450.88 3066.89 9449 3079.49 9446.2 3096.21C9443.4 3112.92 9441.15 3125.29 9439.46 3133.31L9361.32 3477.58H9243.37L9120.13 2956.34H9221.19L9297.19 3320.99C9298.89 3328.48 9300.51 3338.45 9302.09 3350.79Z" fill="white"/>
</g>
<path d="M8185.4 4780V4489.09H8283.69C8306.42 4489.09 8325.08 4492.97 8339.66 4500.74C8354.24 4508.41 8365.04 4518.97 8372.05 4532.41C8379.05 4545.86 8382.56 4561.16 8382.56 4578.3C8382.56 4595.44 8379.05 4610.63 8372.05 4623.89C8365.04 4637.15 8354.29 4647.57 8339.8 4655.14C8325.31 4662.62 8306.8 4666.36 8284.26 4666.36H8204.72V4634.55H8283.13C8298.66 4634.55 8311.16 4632.27 8320.63 4627.73C8330.19 4623.18 8337.1 4616.74 8341.37 4608.41C8345.72 4599.98 8347.9 4589.94 8347.9 4578.3C8347.9 4566.65 8345.72 4556.47 8341.37 4547.76C8337.01 4539.04 8330.05 4532.32 8320.48 4527.59C8310.92 4522.76 8298.28 4520.34 8282.56 4520.34H8220.63V4780H8185.4ZM8322.33 4649.32L8393.92 4780H8353.01L8282.56 4649.32H8322.33ZM8525.85 4784.55C8504.82 4784.55 8486.69 4779.91 8471.44 4770.62C8456.29 4761.25 8444.6 4748.18 8436.36 4731.42C8428.21 4714.56 8424.14 4694.96 8424.14 4672.61C8424.14 4650.27 8428.21 4630.57 8436.36 4613.52C8444.6 4596.38 8456.05 4583.03 8470.73 4573.47C8485.51 4563.81 8502.74 4558.98 8522.44 4558.98C8533.8 4558.98 8545.02 4560.87 8556.1 4564.66C8567.18 4568.45 8577.27 4574.6 8586.36 4583.12C8595.45 4591.55 8602.69 4602.73 8608.09 4616.65C8613.49 4630.57 8616.19 4647.71 8616.19 4668.07V4682.27H8448.01V4653.3H8582.1C8582.1 4640.98 8579.63 4630 8574.71 4620.34C8569.88 4610.68 8562.97 4603.06 8553.97 4597.47C8545.07 4591.88 8534.56 4589.09 8522.44 4589.09C8509.09 4589.09 8497.53 4592.41 8487.78 4599.03C8478.12 4605.57 8470.69 4614.09 8465.48 4624.6C8460.27 4635.11 8457.66 4646.38 8457.66 4658.41V4677.73C8457.66 4694.2 8460.51 4708.17 8466.19 4719.63C8471.96 4730.99 8479.97 4739.66 8490.19 4745.62C8500.42 4751.5 8512.3 4754.43 8525.85 4754.43C8534.65 4754.43 8542.61 4753.2 8549.71 4750.74C8556.91 4748.18 8563.11 4744.39 8568.32 4739.38C8573.53 4734.26 8577.55 4727.92 8580.39 4720.34L8612.78 4729.43C8609.37 4740.42 8603.64 4750.08 8595.59 4758.41C8587.54 4766.65 8577.6 4773.09 8565.76 4777.73C8553.92 4782.27 8540.62 4784.55 8525.85 4784.55ZM8667.18 4861.82V4561.82H8699.57V4596.48H8703.55C8706.01 4592.69 8709.42 4587.86 8713.77 4581.99C8718.22 4576.02 8724.57 4570.72 8732.81 4566.08C8741.14 4561.34 8752.41 4558.98 8766.61 4558.98C8784.98 4558.98 8801.18 4563.57 8815.19 4572.76C8829.21 4581.94 8840.15 4594.96 8848.01 4611.82C8855.87 4628.67 8859.8 4648.56 8859.8 4671.48C8859.8 4694.58 8855.87 4714.61 8848.01 4731.56C8840.15 4748.42 8829.26 4761.49 8815.34 4770.77C8801.41 4779.95 8785.36 4784.55 8767.18 4784.55C8753.17 4784.55 8741.95 4782.23 8733.52 4777.59C8725.09 4772.85 8718.6 4767.5 8714.06 4761.53C8709.51 4755.47 8706.01 4750.45 8703.55 4746.48H8700.7V4861.82H8667.18ZM8700.14 4670.91C8700.14 4687.39 8702.55 4701.92 8707.38 4714.52C8712.21 4727.02 8719.27 4736.82 8728.55 4743.92C8737.83 4750.93 8749.19 4754.43 8762.64 4754.43C8776.65 4754.43 8788.35 4750.74 8797.72 4743.35C8807.19 4735.87 8814.29 4725.83 8819.03 4713.24C8823.86 4700.55 8826.27 4686.44 8826.27 4670.91C8826.27 4655.57 8823.91 4641.74 8819.17 4629.43C8814.53 4617.03 8807.48 4607.23 8798.01 4600.03C8788.63 4592.74 8776.84 4589.09 8762.64 4589.09C8749 4589.09 8737.54 4592.55 8728.26 4599.46C8718.98 4606.28 8711.97 4615.84 8707.24 4628.15C8702.5 4640.37 8700.14 4654.62 8700.14 4670.91ZM8999.57 4784.55C8979.87 4784.55 8962.59 4779.86 8947.72 4770.48C8932.95 4761.11 8921.4 4747.99 8913.06 4731.14C8904.82 4714.28 8900.7 4694.58 8900.7 4672.05C8900.7 4649.32 8904.82 4629.48 8913.06 4612.53C8921.4 4595.58 8932.95 4582.41 8947.72 4573.04C8962.59 4563.66 8979.87 4558.98 8999.57 4558.98C9019.27 4558.98 9036.5 4563.66 9051.27 4573.04C9066.14 4582.41 9077.69 4595.58 9085.93 4612.53C9094.27 4629.48 9098.43 4649.32 9098.43 4672.05C9098.43 4694.58 9094.27 4714.28 9085.93 4731.14C9077.69 4747.99 9066.14 4761.11 9051.27 4770.48C9036.5 4779.86 9019.27 4784.55 8999.57 4784.55ZM8999.57 4754.43C9014.53 4754.43 9026.84 4750.6 9036.5 4742.93C9046.16 4735.26 9053.31 4725.17 9057.95 4712.67C9062.59 4700.17 9064.91 4686.63 9064.91 4672.05C9064.91 4657.46 9062.59 4643.87 9057.95 4631.28C9053.31 4618.68 9046.16 4608.5 9036.5 4600.74C9026.84 4592.97 9014.53 4589.09 8999.57 4589.09C8984.61 4589.09 8972.3 4592.97 8962.64 4600.74C8952.98 4608.5 8945.83 4618.68 8941.19 4631.28C8936.55 4643.87 8934.23 4657.46 8934.23 4672.05C8934.23 4686.63 8936.55 4700.17 8941.19 4712.67C8945.83 4725.17 8952.98 4735.26 8962.64 4742.93C8972.3 4750.6 8984.61 4754.43 8999.57 4754.43ZM9149.6 4780V4561.82H9181.99V4594.77H9184.26C9188.24 4583.98 9195.44 4575.22 9205.85 4568.49C9216.27 4561.77 9228.01 4558.41 9241.08 4558.41C9243.54 4558.41 9246.62 4558.46 9250.31 4558.55C9254.01 4558.65 9256.8 4558.79 9258.69 4558.98V4593.07C9257.56 4592.78 9254.95 4592.36 9250.88 4591.79C9246.9 4591.13 9242.69 4590.8 9238.24 4590.8C9227.63 4590.8 9218.16 4593.02 9209.83 4597.47C9201.59 4601.83 9195.06 4607.89 9190.23 4615.65C9185.49 4623.32 9183.13 4632.08 9183.13 4641.93V4780H9149.6ZM9406.99 4561.82V4590.23H9293.92V4561.82H9406.99ZM9326.88 4509.55H9360.4V4717.5C9360.4 4726.97 9361.77 4734.07 9364.52 4738.81C9367.36 4743.45 9370.96 4746.57 9375.31 4748.18C9379.76 4749.7 9384.45 4750.45 9389.38 4750.45C9393.07 4750.45 9396.1 4750.27 9398.47 4749.89C9400.83 4749.41 9402.73 4749.03 9404.15 4748.75L9410.97 4778.86C9408.69 4779.72 9405.52 4780.57 9401.45 4781.42C9397.38 4782.37 9392.22 4782.84 9385.97 4782.84C9376.5 4782.84 9367.22 4780.8 9358.13 4776.73C9349.13 4772.66 9341.65 4766.46 9335.68 4758.12C9329.81 4749.79 9326.88 4739.28 9326.88 4726.59V4509.55ZM9667.08 4561.82V4590.23H9549.46V4561.82H9667.08ZM9584.69 4780V4531.7C9584.69 4519.2 9587.62 4508.79 9593.5 4500.45C9599.37 4492.12 9606.99 4485.87 9616.37 4481.7C9625.74 4477.54 9635.64 4475.45 9646.05 4475.45C9654.29 4475.45 9661.01 4476.12 9666.22 4477.44C9671.43 4478.77 9675.31 4480 9677.87 4481.14L9668.21 4510.11C9666.51 4509.55 9664.14 4508.84 9661.11 4507.98C9658.17 4507.13 9654.29 4506.7 9649.46 4506.7C9638.38 4506.7 9630.38 4509.5 9625.46 4515.09C9620.63 4520.67 9618.21 4528.86 9618.21 4539.66V4780H9584.69ZM9714.06 4780V4561.82H9747.58V4780H9714.06ZM9731.1 4525.45C9724.57 4525.45 9718.93 4523.23 9714.2 4518.78C9709.56 4514.33 9707.24 4508.98 9707.24 4502.73C9707.24 4496.48 9709.56 4491.13 9714.2 4486.68C9718.93 4482.23 9724.57 4480 9731.1 4480C9737.64 4480 9743.22 4482.23 9747.86 4486.68C9752.6 4491.13 9754.97 4496.48 9754.97 4502.73C9754.97 4508.98 9752.6 4514.33 9747.86 4518.78C9743.22 4523.23 9737.64 4525.45 9731.1 4525.45ZM9842.5 4648.75V4780H9808.98V4561.82H9841.37V4595.91H9844.21C9849.32 4584.83 9857.08 4575.93 9867.5 4569.2C9877.92 4562.39 9891.37 4558.98 9907.84 4558.98C9922.62 4558.98 9935.54 4562.01 9946.62 4568.07C9957.7 4574.03 9966.32 4583.12 9972.47 4595.34C9978.63 4607.46 9981.71 4622.8 9981.71 4641.36V4780H9948.18V4643.64C9948.18 4626.5 9943.73 4613.14 9934.83 4603.58C9925.93 4593.92 9913.71 4589.09 9898.18 4589.09C9887.48 4589.09 9877.92 4591.41 9869.49 4596.05C9861.16 4600.69 9854.58 4607.46 9849.75 4616.36C9844.92 4625.27 9842.5 4636.06 9842.5 4648.75ZM10107.2 4785.11C10093.3 4785.11 10080.8 4782.51 10069.5 4777.3C10058.3 4772 10049.3 4764.38 10042.7 4754.43C10036.1 4744.39 10032.7 4732.27 10032.7 4718.07C10032.7 4705.57 10035.2 4695.44 10040.1 4687.67C10045 4679.81 10051.6 4673.66 10059.9 4669.2C10068.1 4664.75 10077.2 4661.44 10087.1 4659.26C10097.2 4656.99 10107.3 4655.19 10117.4 4653.86C10130.7 4652.16 10141.4 4650.88 10149.6 4650.03C10158 4649.08 10164 4647.52 10167.8 4645.34C10171.7 4643.16 10173.6 4639.37 10173.6 4633.98V4632.84C10173.6 4618.83 10169.8 4607.94 10162.1 4600.17C10154.6 4592.41 10143.1 4588.52 10127.6 4588.52C10111.6 4588.52 10099.1 4592.03 10090 4599.03C10080.9 4606.04 10074.5 4613.52 10070.8 4621.48L10039 4610.11C10044.7 4596.86 10052.2 4586.53 10061.7 4579.15C10071.3 4571.67 10081.7 4566.46 10093 4563.52C10104.3 4560.49 10115.5 4558.98 10126.5 4558.98C10133.5 4558.98 10141.5 4559.83 10150.6 4561.53C10159.8 4563.14 10168.7 4566.51 10177.2 4571.62C10185.8 4576.73 10193 4584.45 10198.6 4594.77C10204.3 4605.09 10207.2 4618.92 10207.2 4636.25V4780H10173.6V4750.45H10171.9C10169.7 4755.19 10165.9 4760.26 10160.6 4765.65C10155.3 4771.05 10148.2 4775.64 10139.4 4779.43C10130.6 4783.22 10119.9 4785.11 10107.2 4785.11ZM10112.3 4755C10125.5 4755 10136.7 4752.4 10145.8 4747.19C10155 4741.98 10161.9 4735.26 10166.5 4727.02C10171.3 4718.78 10173.6 4710.11 10173.6 4701.02V4670.34C10172.2 4672.05 10169.1 4673.61 10164.3 4675.03C10159.5 4676.35 10154 4677.54 10147.8 4678.58C10141.6 4679.53 10135.6 4680.38 10129.8 4681.14C10124 4681.8 10119.3 4682.37 10115.7 4682.84C10107 4683.98 10098.8 4685.82 10091.3 4688.38C10083.8 4690.84 10077.7 4694.58 10073.1 4699.6C10068.5 4704.53 10066.3 4711.25 10066.3 4719.77C10066.3 4731.42 10070.6 4740.23 10079.2 4746.19C10087.9 4752.06 10098.9 4755 10112.3 4755ZM10301.9 4489.09V4780H10268.4V4489.09H10301.9ZM10654.2 4561.82L10573.5 4780H10539.4L10458.7 4561.82H10495.1L10555.3 4735.68H10557.6L10617.8 4561.82H10654.2ZM10796.2 4783.98C10777.4 4783.98 10760.7 4780.76 10746 4774.32C10731.4 4767.88 10719.8 4758.93 10711.2 4747.47C10702.7 4735.92 10698.1 4722.52 10697.3 4707.27H10733.1C10733.8 4716.65 10737.1 4724.74 10742.8 4731.56C10748.4 4738.29 10755.9 4743.49 10765.1 4747.19C10774.2 4750.88 10784.4 4752.73 10795.6 4752.73C10808.1 4752.73 10819.2 4750.55 10828.8 4746.19C10838.5 4741.84 10846.1 4735.78 10851.6 4728.01C10857 4720.25 10859.8 4711.25 10859.8 4701.02C10859.8 4690.32 10857.1 4680.9 10851.8 4672.76C10846.5 4664.52 10838.8 4658.08 10828.5 4653.44C10818.3 4648.8 10805.8 4646.48 10791 4646.48H10767.8V4615.23H10791C10802.6 4615.23 10812.7 4613.14 10821.4 4608.98C10830.3 4604.81 10837.1 4598.94 10842 4591.36C10847.1 4583.79 10849.6 4574.89 10849.6 4564.66C10849.6 4554.81 10847.4 4546.24 10843 4538.95C10838.7 4531.66 10832.5 4525.98 10824.6 4521.9C10816.7 4517.83 10807.4 4515.8 10796.7 4515.8C10786.7 4515.8 10777.2 4517.64 10768.3 4521.34C10759.5 4524.93 10752.3 4530.19 10746.7 4537.1C10741.1 4543.92 10738.1 4552.16 10737.6 4561.82H10703.5C10704.1 4546.57 10708.7 4533.22 10717.3 4521.76C10725.9 4510.21 10737.2 4501.21 10751.1 4494.77C10765.1 4488.33 10780.5 4485.11 10797.3 4485.11C10815.3 4485.11 10830.7 4488.76 10843.6 4496.05C10856.5 4503.25 10866.4 4512.77 10873.3 4524.6C10880.2 4536.44 10883.7 4549.22 10883.7 4562.95C10883.7 4579.34 10879.4 4593.3 10870.7 4604.86C10862.2 4616.41 10850.6 4624.41 10835.9 4628.86V4631.14C10854.3 4634.17 10868.6 4641.98 10879 4654.57C10889.3 4667.07 10894.5 4682.56 10894.5 4701.02C10894.5 4716.84 10890.1 4731.04 10881.5 4743.64C10873 4756.14 10861.4 4765.98 10846.6 4773.18C10831.8 4780.38 10815 4783.98 10796.2 4783.98ZM10968.6 4782.27C10961.6 4782.27 10955.5 4779.76 10950.5 4774.74C10945.5 4769.73 10943 4763.71 10943 4756.7C10943 4749.7 10945.5 4743.68 10950.5 4738.66C10955.5 4733.65 10961.6 4731.14 10968.6 4731.14C10975.6 4731.14 10981.6 4733.65 10986.6 4738.66C10991.6 4743.68 10994.1 4749.7 10994.1 4756.7C10994.1 4761.34 10993 4765.61 10990.6 4769.49C10988.3 4773.37 10985.2 4776.5 10981.4 4778.86C10977.6 4781.14 10973.3 4782.27 10968.6 4782.27ZM11136.7 4784.55C11118.5 4784.55 11102.4 4779.95 11088.5 4770.77C11074.6 4761.49 11063.7 4748.42 11055.9 4731.56C11048 4714.61 11044.1 4694.58 11044.1 4671.48C11044.1 4648.56 11048 4628.67 11055.9 4611.82C11063.7 4594.96 11074.7 4581.94 11088.7 4572.76C11102.7 4563.57 11118.9 4558.98 11137.2 4558.98C11151.5 4558.98 11162.7 4561.34 11170.9 4566.08C11179.2 4570.72 11185.6 4576.02 11189.9 4581.99C11194.4 4587.86 11197.9 4592.69 11200.3 4596.48H11203.2V4489.09H11236.7V4780H11204.3V4746.48H11200.3C11197.9 4750.45 11194.3 4755.47 11189.8 4761.53C11185.3 4767.5 11178.8 4772.85 11170.3 4777.59C11161.9 4782.23 11150.7 4784.55 11136.7 4784.55ZM11141.2 4754.43C11154.7 4754.43 11166 4750.93 11175.3 4743.92C11184.6 4736.82 11191.6 4727.02 11196.5 4714.52C11201.3 4701.92 11203.7 4687.39 11203.7 4670.91C11203.7 4654.62 11201.4 4640.37 11196.6 4628.15C11191.9 4615.84 11184.9 4606.28 11175.6 4599.46C11166.3 4592.55 11154.9 4589.09 11141.2 4589.09C11127 4589.09 11115.2 4592.74 11105.7 4600.03C11096.3 4607.23 11089.3 4617.03 11084.5 4629.43C11079.9 4641.74 11077.6 4655.57 11077.6 4670.91C11077.6 4686.44 11080 4700.55 11084.7 4713.24C11089.5 4725.83 11096.6 4735.87 11106 4743.35C11115.5 4750.74 11127.2 4754.43 11141.2 4754.43ZM11391.4 4784.55C11371.7 4784.55 11354.4 4779.86 11339.5 4770.48C11324.7 4761.11 11313.2 4747.99 11304.9 4731.14C11296.6 4714.28 11292.5 4694.58 11292.5 4672.05C11292.5 4649.32 11296.6 4629.48 11304.9 4612.53C11313.2 4595.58 11324.7 4582.41 11339.5 4573.04C11354.4 4563.66 11371.7 4558.98 11391.4 4558.98C11411.1 4558.98 11428.3 4563.66 11443.1 4573.04C11457.9 4582.41 11469.5 4595.58 11477.7 4612.53C11486.1 4629.48 11490.2 4649.32 11490.2 4672.05C11490.2 4694.58 11486.1 4714.28 11477.7 4731.14C11469.5 4747.99 11457.9 4761.11 11443.1 4770.48C11428.3 4779.86 11411.1 4784.55 11391.4 4784.55ZM11391.4 4754.43C11406.3 4754.43 11418.6 4750.6 11428.3 4742.93C11438 4735.26 11445.1 4725.17 11449.7 4712.67C11454.4 4700.17 11456.7 4686.63 11456.7 4672.05C11456.7 4657.46 11454.4 4643.87 11449.7 4631.28C11445.1 4618.68 11438 4608.5 11428.3 4600.74C11418.6 4592.97 11406.3 4589.09 11391.4 4589.09C11376.4 4589.09 11364.1 4592.97 11354.4 4600.74C11344.8 4608.5 11337.6 4618.68 11333 4631.28C11328.3 4643.87 11326 4657.46 11326 4672.05C11326 4686.63 11328.3 4700.17 11333 4712.67C11337.6 4725.17 11344.8 4735.26 11354.4 4742.93C11364.1 4750.6 11376.4 4754.43 11391.4 4754.43ZM11630 4784.55C11609.6 4784.55 11592 4779.72 11577.2 4770.06C11562.4 4760.4 11551.1 4747.09 11543.1 4730.14C11535.2 4713.19 11531.2 4693.83 11531.2 4672.05C11531.2 4649.89 11535.2 4630.33 11543.4 4613.38C11551.6 4596.34 11563.1 4583.03 11577.8 4573.47C11592.5 4563.81 11609.8 4558.98 11629.5 4558.98C11644.8 4558.98 11658.6 4561.82 11670.9 4567.5C11683.3 4573.18 11693.3 4581.14 11701.2 4591.36C11709.1 4601.59 11713.9 4613.52 11715.8 4627.16H11682.3C11679.8 4617.22 11674.1 4608.41 11665.3 4600.74C11656.6 4592.97 11644.8 4589.09 11630 4589.09C11617 4589.09 11605.5 4592.5 11595.7 4599.32C11585.9 4606.04 11578.3 4615.56 11572.8 4627.87C11567.4 4640.09 11564.7 4654.43 11564.7 4670.91C11564.7 4687.77 11567.3 4702.44 11572.7 4714.94C11578 4727.44 11585.6 4737.15 11595.4 4744.06C11605.2 4750.98 11616.8 4754.43 11630 4754.43C11638.7 4754.43 11646.7 4752.92 11653.8 4749.89C11660.9 4746.86 11666.9 4742.5 11671.8 4736.82C11676.7 4731.14 11680.2 4724.32 11682.3 4716.36H11715.8C11713.9 4729.24 11709.3 4740.84 11701.8 4751.16C11694.4 4761.39 11684.6 4769.54 11672.4 4775.6C11660.2 4781.56 11646.1 4784.55 11630 4784.55ZM11787.5 4561.82L11839.8 4651.02L11892 4561.82H11930.7L11860.2 4670.91L11930.7 4780H11892L11839.8 4695.34L11787.5 4780H11748.9L11818.2 4670.91L11748.9 4561.82H11787.5Z" fill="black"/>
<defs>
<linearGradient id="paint0_linear_505_98" x1="699.206" y1="331.088" x2="1327.29" y2="1418.91" gradientUnits="userSpaceOnUse">
<stop stop-color="#2368C4"/>
<stop offset="0.5" stop-color="#1A5DBE"/>
<stop offset="1" stop-color="#1146AC"/>
</linearGradient>
<linearGradient id="paint1_linear_505_98" x1="4645.21" y1="1502.09" x2="5273.29" y2="2589.91" gradientUnits="userSpaceOnUse">
<stop stop-color="#2368C4"/>
<stop offset="0.5" stop-color="#1A5DBE"/>
<stop offset="1" stop-color="#1146AC"/>
</linearGradient>
<linearGradient id="paint2_linear_505_98" x1="9140.21" y1="2673.09" x2="9768.29" y2="3760.91" gradientUnits="userSpaceOnUse">
<stop stop-color="#2368C4"/>
<stop offset="0.5" stop-color="#1A5DBE"/>
<stop offset="1" stop-color="#1146AC"/>
</linearGradient>
<clipPath id="clip0_505_98">
<rect width="1881.25" height="1750" fill="white" transform="translate(532)"/>
</clipPath>
<clipPath id="clip1_505_98">
<rect width="1881.25" height="1750" fill="white" transform="translate(4478 1171)"/>
</clipPath>
<clipPath id="clip2_505_98">
<rect width="1881.25" height="1750" fill="white" transform="translate(8973 2342)"/>
</clipPath>
</defs>
</svg>
